<?xml version="1.0" encoding="UTF-8"?>
<svg width="105.83mm" height="105.83mm" version="1.1" viewBox="0 0 105.83 105.83" xmlns="http://www.w3.org/2000/svg" xmlns:cc="http://creativecommons.org/ns#" xmlns:dc="http://purl.org/dc/elements/1.1/" xmlns:rdf="http://www.w3.org/1999/02/22-rdf-syntax-ns#">
 <metadata>
  <rdf:RDF>
   <cc:Work rdf:about="">
    <dc:format>image/svg+xml</dc:format>
    <dc:type rdf:resource="http://purl.org/dc/dcmitype/StillImage"/>
    <dc:title/>
   </cc:Work>
  </rdf:RDF>
 </metadata>
 <g transform="translate(139.37 36.071)">
  <rect x="-138.3" y="-35.594" width="105.83" height="105.83" fill="#232d4b" stroke-width="1.6939" style="paint-order:markers stroke fill"/>
  <g transform="translate(-2422.9,-12.013)" enable-background="new" opacity=".97" stroke-linecap="round" stroke-linejoin="round">
   <g transform="translate(78.052)" fill="#fff" stroke="#fff">
    <g transform="matrix(.47849 0 0 .47849 2209.2 -42.334)" opacity="1" stroke-width=".5">
     <path d="m59.928 154.5v-5.2118l6.0136-3.8e-4v10.423l-6.0136 1e-3z" opacity="1"/>
     <path d="m82.382 159.46c-2.0134-0.66372-3.2337-1.4481-4.2511-2.7326-1.6546-2.0891-2.3977-5.3765-1.8978-8.3957 1.0044-6.0658 4.1667-8.5788 10.736-8.5319 3.5095 0.0251 5.4949 0.56821 6.9794 1.9094 0.97438 0.8803 2.1078 2.6195 2.1078 3.2344 0 0.13274-1.0524 0.44514-2.3386 0.69424-1.2862 0.24909-2.529 0.50782-2.7617 0.57495-0.26438 0.0763-0.53802-0.13023-0.72954-0.55057-1.1376-2.4968-6.064-2.1785-7.3605 0.47552-1.0494 2.1481-1.0289 6.49 0.03737 7.9182 1.0052 1.3464 1.8472 1.7454 3.8789 1.8381 1.5971 0.0729 2.1286-0.0171 3.1269-0.53004 1.122-0.57643 1.2027-0.68964 1.2027-1.687v-1.0691l-3.8754-0.157v-3.7184h9.0872v4.1013c0 2.3834 4e-3 2.7499 0.0609 4.3557-1.1947 0.70223-1.5086 0.83658-3.1356 1.6099-2.1084 1.0022-2.1853 1.2172-5.7452 1.2881-2.9423 0.0586-3.8875-0.22069-5.1219-0.6276z" opacity="1"/>
     <path d="m106.97 149.96v-9.7553h16.571v4.009h-10.691v3.4745h9.6217v3.7418h-9.6217v4.2763h10.691v4.009h-16.571z" opacity="1"/>
     <path d="m131.56 149.96v-9.7553l7.8844 2e-3 1.3126 5.144c1.7992 7.0511 1.776 6.9744 2.0268 6.7129 0.21939-0.22874 0.79393-2.1757 2.5136-8.5178l0.86964-3.2072 7.8435-0.148v19.525h-4.8108v-7.6706c0-4.4559-0.099-7.5642-0.23626-7.4167-0.12995 0.13965-0.56627 1.637-0.9696 3.3275-0.40334 1.6905-1.1325 4.5168-1.6204 6.2808s-1.0184 3.7184-1.1789 4.3431l-0.2918 1.1359h-4.2351l-0.30688-1.1359c-0.16879-0.62474-0.53927-1.9778-0.82329-3.0068s-0.98449-3.661-1.5566-5.8489c-0.57212-2.1879-1.1684-4.1062-1.3252-4.263-0.20175-0.20175-0.28495 1.8376-0.28495 6.9848v7.2697h-4.8108z" opacity="1"/>
    </g>
    <path d="m2239.3 28.471c-0.069-0.0043-0.1005-0.01636-0.1331-0.05255-0.036-0.03985-0.042-0.05999-0.042-0.14312-1e-4 -0.15722 0.012-0.41082 0.02-0.43061 0.01-0.01481 0.01-0.01987 0-0.02143 0 0-0.038-9e-3 -0.077-0.01714-0.078-0.01675-0.1948-0.05411-0.2634-0.08422l-0.045-0.01986-0.01 0.04106c0 0.0226-0.01 0.04722-0.011 0.05481 0 0.0074-0.064 0.09712-0.1345 0.19898-0.1349 0.19664-0.1483 0.21184-0.2012 0.22754-0.036 0.01091-0.062 0.01013-0.096 0-0.03-0.01051-0.1646-0.10175-0.1905-0.12906-0.039-0.04172-0.052-0.11468-0.028-0.16739 0.014-0.03077 0.2368-0.3587 0.2635-0.38752 0.01-0.01052 0.028-0.02532 0.041-0.03311l0.024-0.01403-0.077-0.07534c-0.043-0.04145-0.095-0.09704-0.117-0.1236l-0.039-0.04827-0.012 0.02688c-0.01 0.0148-0.02 0.03584-0.031 0.04635-0.021 0.02104-0.3909 0.23657-0.4257 0.24806-0.033 0.01091-0.093 0.0047-0.1225-0.01285-0.037-0.02143-0.055-0.04465-0.102-0.12606-0.052-0.08975-0.057-0.10564-0.054-0.15407 0.01-0.04382 0.016-0.07433 0.044-0.10245 0.011-0.01091 0.1027-0.06739 0.2036-0.12532 0.2389-0.13716 0.2154-0.12598 0.2664-0.12618l0.043-1.17e-4 -0.01-0.01986c-0.024-0.0561-0.05-0.13603-0.07-0.21195-0.018-0.07429-0.023-0.08445-0.032-0.08216-0.01 0-0.1236 0.0039-0.2619 0.0039l-0.2515 1.94e-4 -0.028-0.01519c-0.036-0.01909-0.061-0.0453-0.077-0.08103-0.012-0.02649-0.013-0.03545-0.013-0.13564 0-0.09127 0-0.11122 0.01-0.1328 0.016-0.03895 0.045-0.07082 0.082-0.08866l0.032-0.01597 0.2317 0.0039c0.1274 0 0.2399 0.0039 0.2498 0.0046 0.021 0.0039 0.019 0.0094 0.033-0.08282 0.012-0.07503 0.041-0.19006 0.067-0.26139l0.02-0.05508h-0.019c-0.034 0-0.064-0.01519-0.2544-0.12988-0.2023-0.1215-0.2253-0.13954-0.2428-0.1908-0.01-0.03077-0.012-0.06314-0.01-0.09474 0.01-0.0374 0.1-0.18169 0.1283-0.2067 0.04-0.03467 0.094-0.04698 0.1452-0.03272 0.012 0.0039 0.1096 0.05828 0.216 0.12189 0.1451 0.08667 0.199 0.12185 0.2155 0.14067l0.022 0.02493 0.042-0.04951c0.054-0.06377 0.1435-0.15263 0.2015-0.19906l0.045-0.03662-0.03-0.02844c-0.026-0.02493-0.044-0.05309-0.1333-0.22064-0.1046-0.19505-0.1181-0.22512-0.1181-0.26349 0-0.03428 0.021-0.08313 0.048-0.109 0.031-0.03038 0.1776-0.10868 0.2182-0.1164 0.06-0.0113 0.1255 0.01714 0.1599 0.06996 0.026 0.03985 0.207 0.37782 0.2163 0.40365 0.01 0.01129 0.01 0.02882 0.01 0.03856l2e-4 0.01753 0.086-0.02805c0.048-0.01558 0.1258-0.03584 0.1743-0.04542l0.088-0.01753-0.03-0.0522v-0.2423c0-0.21507 0-0.24549 0.01-0.27101 0.013-0.03701 0.05-0.07775 0.089-0.09509 0.028-0.01246 0.036-0.01325 0.1369-0.01325 0.1036 0 0.1084 3.12e-4 0.1384 0.01441 0.039 0.01831 0.066 0.04496 0.083 0.08247l0.013 0.02921v0.49535l-0.014 0.02571-0.015 0.02571 0.074 0.01324c0.082 0.01481 0.2036 0.0478 0.2705 0.07386 0.024 0.0094 0.045 0.01714 0.046 0.01714 0 0 0.01-7e-3 0.01-0.01558 1e-4 -0.02454 0.019-0.06042 0.1347-0.25009 0.1159-0.19049 0.1374-0.2176 0.1855-0.234 0.038-0.01325 0.084-0.01168 0.1178 0.0043 0.043 0.02025 0.1592 0.09314 0.1783 0.11223 0.037 0.03701 0.054 0.10284 0.04 0.15438-0.01 0.03467-0.2341 0.40283-0.2609 0.42734-0.012 0.0113-0.023 0.02182-0.023 0.02299 0 0 0.024 0.02377 0.055 0.0501 0.06 0.05255 0.1431 0.14144 0.1948 0.20938l0.034 0.04425 0.033-0.03233c0.031-0.03117 0.041-0.03662 0.2414-0.12828 0.2063-0.09454 0.2096-0.09587 0.2487-0.09606 0.032-1.17e-4 0.045 0.0039 0.072 0.01558 0.018 0.0086 0.04 0.02493 0.049 0.03623 0.01 0.0113 0.035 0.05991 0.058 0.10841 0.034 0.07292 0.042 0.09415 0.044 0.12298 0.01 0.05107-0.011 0.08796-0.046 0.12329-0.026 0.02571-0.049 0.0374-0.2309 0.12064-0.1324 0.06042-0.2137 0.09435-0.2361 0.09852-0.026 0.0051-0.034 0.0082-0.031 0.0148 0.025 0.06451 0.061 0.22387 0.072 0.31168 0.01 0.04791 0.01 0.05621 0.015 0.05298 0.04-0.01714 0.07-0.01909 0.2972-0.01909h0.2322l0.029 0.01441c0.038 0.0187 0.072 0.05812 0.083 0.09462 0.012 0.04087 0.012 0.21776 0 0.25364-0.012 0.03428-0.04 0.06618-0.077 0.0866l-0.031 0.01675-0.2318 0.0039c-0.2448 0.0039-0.2659 0.0039-0.306-0.02103l-0.023-0.01364-0.01 0.04375c-0.022 0.09941-0.062 0.22302-0.098 0.30307-0.01 0.02143-0.018 0.0411-0.018 0.04378 0 0.0039 0.01 0.0051 0.019 0.0051 0.01 7.8e-5 0.029 0.0051 0.042 0.0109 0.041 0.0187 0.3782 0.2481 0.4001 0.2723 0.036 0.03966 0.049 0.08983 0.036 0.14098-0.01 0.02922-0.09 0.16369-0.1235 0.19929-0.035 0.03778-0.1065 0.0575-0.158 0.04355-0.015-0.0043-0.098-0.05547-0.2189-0.1363-0.1695-0.11309-0.1969-0.1333-0.2135-0.158l-0.019-0.02844-0.039 0.04122c-0.055 0.05816-0.1062 0.10417-0.1757 0.15785-0.053 0.04109-0.059 0.04702-0.05 0.05232 0.01 0.0039 0.022 0.01753 0.036 0.03195 0.021 0.02142 0.043 0.06202 0.1269 0.234l0.1015 0.20825v0.03857c0 0.04854-0.021 0.09232-0.055 0.1206-0.013 0.0109-0.062 0.03817-0.1084 0.06081-0.084 0.04075-0.085 0.04125-0.1297 0.04125-0.04 0-0.049-0.0039-0.075-0.01675-0.017-0.0094-0.037-0.02415-0.044-0.0335-0.01-0.0094-0.06-0.10857-0.1162-0.22068-0.099-0.19824-0.1022-0.20498-0.1048-0.24514-0.01-0.03506-0.01-0.04075-0.012-0.03778-0.05 0.01948-0.215 0.05941-0.2823 0.06817-0.029 0.0039-0.03 0.0043-0.026 0.0187 0.01 0.01714 0.01 0.28289-0.01 0.41604 0 0.10296-0.012 0.1273-0.049 0.16365-0.046 0.04453-0.091 0.05267-0.2452 0.04335zm0.256-1.2524c0.3848-0.05123 0.693-0.34502 0.7648-0.7292 0.015-0.07912 0.015-0.24304 0-0.32216-0.069-0.36692-0.3472-0.64751-0.7166-0.72164-0.092-0.01831-0.2454-0.01831-0.3366-7.8e-5 -0.3535 0.07094-0.6329 0.34331-0.7082 0.69016-0.044 0.20514-0.019 0.41055 0.077 0.59776 0.1389 0.27452 0.3969 0.45199 0.7119 0.48978 0.043 0.0051 0.1527 0.0039 0.208-0.0046z" opacity="1" stroke-width=".01068"/>
   </g>
   <g transform="translate(78.052)" fill="#e57200" stroke="#e57200" stroke-width=".26458">
    <path d="m2255.8 21.673c-0.054-0.01909-0.154-0.10397-0.1786-0.1515-0.01-0.01753-0.024-0.07651-0.033-0.13136-0.028-0.1619-0.075-0.6976-0.078-0.86484v-0.15473l-0.073-0.0062c-0.2055-0.01792-0.3145-0.03311-0.4691-0.06498-0.2649-0.0545-0.2373-0.05722-0.2535 0.02532-0.015 0.07413-0.046 0.14881-0.1874 0.45176-0.153 0.32683-0.2439 0.50194-0.2807 0.54073-0.083 0.08734-0.2156 0.12197-0.3298 0.08605-0.1017-0.03195-0.3712-0.16813-0.4199-0.21211-0.073-0.06583-0.1-0.13217-0.1-0.2451v-0.0961l0.1285-0.27693c0.1737-0.37412 0.2787-0.58245 0.3269-0.64844 0.034-0.04577 0.037-0.05656 0.023-0.06451-0.039-0.0222-0.2035-0.14355-0.3021-0.22372-0.2326-0.18897-0.2178-0.17904-0.2317-0.1557-0.048 0.08048-0.1065 0.13163-0.3643 0.31908-0.3157 0.22952-0.4618 0.33003-0.5333 0.3668-0.042 0.02142-0.062 0.02415-0.1356 0.01986-0.1441-0.0086-0.208-0.05746-0.364-0.27822-0.1166-0.16501-0.1356-0.20681-0.1356-0.29703 0-0.10736 0.032-0.18644 0.099-0.24951 0.062-0.05777 0.5486-0.41584 0.7006-0.51565 0.057-0.0374 0.1219-0.07417 0.1438-0.08142 0.022-0.0074 0.039-0.01948 0.039-0.02766 0-0.0078-0.038-0.09271-0.083-0.18846-0.046-0.09571-0.1103-0.24697-0.143-0.33614-0.033-0.08917-0.067-0.16482-0.075-0.16809-0.01-0.0039-0.044 0-0.08 0.01207-0.076 0.02104-0.2324 0.04176-0.6114 0.08075-0.3616 0.03701-0.4316 0.03701-0.5076 0-0.071-0.03545-0.1563-0.12723-0.172-0.18554-0.022-0.08301-0.046-0.27814-0.049-0.39006 0-0.1005 0-0.11994 0.028-0.17522 0.039-0.08321 0.076-0.12489 0.1441-0.16182 0.048-0.02649 0.086-0.03389 0.2525-0.0529 0.3606-0.04075 0.6696-0.06782 0.7742-0.06782l0.1035-3.9e-5 0.01-0.08761c0.013-0.16945 0.042-0.42749 0.056-0.50174l0.014-0.07503-0.078-0.0078c-0.092-9e-3 -0.171-0.03701-0.6434-0.22586-0.3411-0.1365-0.3561-0.14382-0.406-0.19711-0.064-0.06825-0.089-0.12053-0.098-0.19933-0.01-0.07137 0.01-0.12914 0.061-0.26968 0.057-0.14596 0.1131-0.25628 0.1481-0.29286 0.016-0.01714 0.06-0.04659 0.097-0.06502 0.1307-0.06529 0.1763-0.0543 0.7766 0.18679 0.322 0.12937 0.3484 0.14164 0.4089 0.19022 0.023 0.0187 0.044 0.03195 0.046 0.02922 0-0.0039 0.031-0.05052 0.064-0.10646 0.096-0.16217 0.2402-0.36123 0.3618-0.49964 0.037-0.04227 0.068-0.0827 0.068-0.08991 0-7e-3 -0.022-0.0261-0.049-0.04176-0.027-0.01597-0.066-0.04807-0.088-0.07172-0.093-0.10374-0.533-0.68385-0.5848-0.77201-0.026-0.04304-0.03-0.06369-0.029-0.13564 0-0.15099 0.036-0.20362 0.2423-0.36337 0.1903-0.14737 0.2152-0.16018 0.3227-0.16579 0.1668-9e-3 0.2054 0.02415 0.5486 0.46699 0.2518 0.32485 0.3108 0.40957 0.3268 0.46914 0.01 0.02493 0.017 0.04507 0.022 0.04507 0.01 0 0.073-0.03195 0.1493-0.07129 0.1608-0.08235 0.3557-0.16564 0.4859-0.20763l0.091-0.02922-0.01-0.03545c-0.024-0.11449-0.054-0.44385-0.074-0.83091-0.014-0.27327-0.01-0.30938 0.078-0.40018 0.092-0.09805 0.1541-0.1155 0.4595-0.12844 0.1941-0.0082 0.2326 0 0.321 0.08153 0.073 0.06537 0.1 0.12092 0.1131 0.23108 0.012 0.09373 0.069 0.8565 0.069 0.91614v0.02999l0.1382 0.0078c0.1624 0.0093 0.3808 0.03584 0.4814 0.05851 0.039 9e-3 0.076 0.01636 0.081 0.01636 0.01 0 0.013-0.02688 0.018-0.05933 0-0.03272 0.024-0.10514 0.045-0.16108 0.075-0.20634 0.2458-0.62542 0.3055-0.74813 0.067-0.13833 0.097-0.16996 0.1969-0.20786 0.1071-0.04067 0.171-0.02922 0.4458 0.08099 0.1847 0.0739 0.2673 0.15652 0.2909 0.2908 0.016 0.09275 0.01 0.14246-0.153 0.53216-0.1771 0.4449-0.2047 0.50786-0.2445 0.55737-0.019 0.02377-0.032 0.04718-0.029 0.05216 0.01 0.0051 0.05 0.03623 0.1051 0.06946 0.1295 0.07846 0.317 0.21978 0.4719 0.35554 0.068 0.05956 0.1273 0.1083 0.1316 0.1083 0.01 0 0.011-0.0113 0.015-0.02532 0.018-0.06957 0.1576-0.17845 0.6346-0.49407 0.2937-0.19435 0.2961-0.19552 0.4009-0.19606 0.1553 0 0.2171 0.04487 0.3738 0.27603 0.1212 0.17873 0.1347 0.2104 0.135 0.31581 3e-4 0.10105-0.032 0.17799-0.099 0.23911-0.1124 0.10152-0.8035 0.55916-0.8698 0.57595-0.031 0.0078-0.048 0.01831-0.048 0.02999 0 0.0097 0.03 0.08177 0.067 0.15972 0.067 0.14148 0.1597 0.38386 0.1987 0.51763 0.011 0.03896 0.026 0.07066 0.033 0.07062 0.01 0 0.04-0.01051 0.074-0.02337 0.081-0.03078 0.27-0.04293 0.7357-0.04678 0.3641-0.0039 0.3678-0.0039 0.4208 0.02298 0.071 0.03467 0.1491 0.12318 0.174 0.19707 0.017 0.04842 0.02 0.10066 0.021 0.29076 4e-4 0.22056-3e-4 0.23404-0.025 0.2802-0.032 0.05991-0.1019 0.12906-0.157 0.1552-0.068 0.03233-0.2005 0.04067-0.6841 0.04285l-0.4601 0.0039-0.01 0.06217c-0.024 0.23206-0.046 0.3855-0.075 0.52433-0.054 0.25788-0.056 0.22851 0.013 0.23759 0.076 0.01013 0.1476 0.0374 0.4239 0.16213 0.3566 0.16084 0.5508 0.25632 0.5913 0.29072 0.021 0.01753 0.052 0.05777 0.07 0.08952 0.03 0.05084 0.033 0.06883 0.033 0.14963 1e-4 0.11005-0.01 0.14094-0.1135 0.35122-0.084 0.17101-0.1142 0.20658-0.2132 0.25309-0.042 0.01947-0.067 0.02299-0.1416 0.01947-0.083-0.0039-0.1062-0.0109-0.2607-0.07861-0.4114-0.18052-0.6696-0.30599-0.7407-0.36014-0.041-0.03077-0.077-0.05582-0.081-0.05606-0.01-1.95e-4 -0.039 0.04409-0.079 0.09848-0.1024 0.14281-0.1819 0.24152-0.3007 0.37338-0.058 0.06393-0.1047 0.12014-0.1047 0.12497 0 0.0051 0.021 0.01753 0.044 0.02844 0.06 0.02649 0.1265 0.10175 0.3016 0.34171 0.3703 0.50762 0.3996 0.55659 0.3998 0.66679 1e-4 0.10436-0.028 0.16969-0.101 0.24218-0.079 0.07736-0.3251 0.24978-0.3821 0.26758-0.079 0.02493-0.171 0.01831-0.2465-0.01753-0.083-0.03919-0.1-0.05847-0.3178-0.36037-0.2991-0.41444-0.3638-0.5137-0.3785-0.58074-0.01-0.0335-0.017-0.06467-0.021-0.06946-0.01-0.0047-0.06 0.01753-0.1253 0.04924-0.1521 0.07483-0.3082 0.13755-0.4827 0.19396-0.1159 0.0374-0.1382 0.04826-0.1317 0.06358 0.037 0.0885 0.1294 0.95397 0.1149 1.0827-0.014 0.11947-0.1177 0.24686-0.2258 0.276-0.066 0.01792-0.3164 0.04437-0.4099 0.04348-0.043-3.12e-4 -0.1006-0.0082-0.1269-0.01753zm0.093-2.5643c0.6721-0.10082 1.2232-0.50934 1.5202-1.127 0.2192-0.45577 0.2517-0.9921 0.09-1.484-0.046-0.14218-0.1773-0.39905-0.2643-0.51997-0.3018-0.4197-0.7338-0.69963-1.2496-0.80968-0.1021-0.02182-0.1543-0.02532-0.373-0.0261-0.2254-3.12e-4 -0.2691 0.0039-0.3843 0.0261-0.7157 0.14772-1.2848 0.64377-1.5132 1.319-0.2014 0.59539-0.1157 1.2384 0.2344 1.758 0.3165 0.46976 0.7989 0.77489 1.3638 0.8627 0.1384 0.02143 0.4357 0.02181 0.5762 0z" opacity="1"/>
    <path d="m2249.9 23.565c-0.032-0.01403-0.081-0.05757-0.095-0.08504-0.019-0.03623-0.1047-0.4437-0.1145-0.54288v-0.05212l-0.1839-0.0047c-0.1011-0.0039-0.1985-0.0074-0.2166-0.01091l-0.032-0.0058-0.01 0.05076c-0.01 0.0501-0.1425 0.4735-0.1738 0.53544-0.017 0.03506-0.071 0.07608-0.1148 0.0878-0.043 0.01168-0.089 0.0043-0.1878-0.02883-0.1532-0.05158-0.192-0.08886-0.1981-0.19018-0.01-0.05594 0-0.06467 0.074-0.2855 0.076-0.2243 0.098-0.27853 0.1214-0.30525 0.011-0.01246 0.01-0.01558-0.03-0.03584-0.063-0.03389-0.1907-0.11348-0.2378-0.14803l-0.042-0.03078-0.013 0.03195c-0.01 0.0222-0.045 0.06225-0.1219 0.13439-0.1492 0.14012-0.2721 0.25083-0.3019 0.27179-0.037 0.0261-0.09 0.03584-0.1408 0.02532-0.039-0.0082-0.048-0.01519-0.131-0.09895-0.05-0.0506-0.096-0.10576-0.1059-0.12563-0.02-0.04137-0.023-0.11285-0.01-0.15282 0.019-0.04425 0.3844-0.38534 0.4508-0.42017 0.01-0.0051 0.018-0.01286 0.018-0.01714 0-0.0043-0.024-0.0464-0.053-0.09361-0.054-0.08804-0.1386-0.2488-0.1386-0.26478 0-0.01208-0.01-0.01168-0.041 0.0078-0.036 0.01831-0.4588 0.11558-0.5385 0.12388-0.076 0.0078-0.146-0.02844-0.1791-0.09279-0.021-0.0395-0.056-0.2049-0.056-0.25905 0-0.08052 0.05-0.14503 0.1299-0.16832 0.105-0.03038 0.4976-0.11612 0.5325-0.11612 0.017 0 0.017-0.0039 0.017-0.18184l-1e-4 -0.18184h-0.054c-0.078 0-0.5175-0.1206-0.5758-0.15656-0.038-0.02338-0.073-0.08913-0.073-0.13591-1e-4 -0.07768 0.052-0.25216 0.089-0.2966 0.013-0.01558 0.039-0.03545 0.058-0.04483 0.062-0.02999 0.093-0.02532 0.4183 0.06365 0.1716 0.04694 0.2044 0.058 0.2336 0.07881l0.022 0.01558 0.061-0.12134c0.034-0.06677 0.086-0.16026 0.1174-0.20775 0.031-0.04753 0.056-0.08769 0.056-0.08929 0 0-0.012-0.0055-0.025-0.0086-0.03-0.0066-0.1075-0.0792-0.2925-0.27424-0.1364-0.14382-0.1616-0.18063-0.1618-0.23704-2e-4 -0.06887 0.012-0.09088 0.1065-0.1848 0.097-0.09634 0.1221-0.11348 0.1795-0.12022 0.083-0.0097 0.091-0.0043 0.2986 0.20448 0.1284 0.12921 0.1973 0.20479 0.2145 0.23521l0.026 0.04476 0.057-0.03857c0.075-0.05041 0.2183-0.13288 0.2744-0.15773 0.039-0.01714 0.043-0.02182 0.039-0.0374-0.026-0.08457-0.096-0.44374-0.1048-0.54521-0.01-0.06291 0.01-0.09419 0.041-0.13821 0.034-0.04008 0.073-0.05543 0.1975-0.07849 0.099-0.01831 0.1193-0.01987 0.1504-0.01168 0.046 0.01208 0.091 0.04339 0.1125 0.07756 0.018 0.02922 0.048 0.16517 0.087 0.39064 0.014 0.07912 0.027 0.15379 0.03 0.16595v0.02221h0.1971l0.1972-0.0039 0.01-0.05991c0.01-0.0582 0.057-0.26022 0.1156-0.44763 0.025-0.08126 0.032-0.09575 0.063-0.1254 0.057-0.055 0.1082-0.06198 0.2283-0.03117 0.1717 0.04391 0.22 0.07807 0.2388 0.16875 0.01 0.03778 0.01 0.05317-0.011 0.1254-0.036 0.15029-0.1247 0.44841-0.1413 0.47638-0.01 0.01519-0.015 0.02844-0.014 0.02961 0 0 0.036 0.01909 0.078 0.03981 0.093 0.04655 0.176 0.09622 0.2623 0.15722 0.037 0.02571 0.069 0.04667 0.073 0.04667 0 0 0.015-0.01636 0.024-0.03584 0.018-0.03778 0.096-0.11052 0.3139-0.29185 0.1334-0.11122 0.153-0.12247 0.2142-0.12247 0.072 0 0.1098 0.02376 0.1932 0.12294 0.083 0.0984 0.102 0.13389 0.1018 0.188 0 0.08021-0.032 0.11698-0.2719 0.31947-0.1497 0.12629-0.1822 0.15165-0.21 0.16435-0.012 0.0055-0.022 0.01364-0.022 0.01792 0 0.0047 0.024 0.04683 0.052 0.09392 0.029 0.0471 0.074 0.13178 0.101 0.18819 0.027 0.05645 0.05 0.10389 0.051 0.10545 0 0 0.022-0.0062 0.045-0.01753 0.044-0.02143 0.1646-0.04231 0.4428-0.07733 0.1532-0.01947 0.1773-0.01675 0.2328 0.02338 0.042 0.02999 0.062 0.07429 0.077 0.16801 0.018 0.10553 0.017 0.19314 0 0.23069-0.021 0.04091-0.055 0.07074-0.096 0.08527-0.042 0.01481-0.3931 0.0663-0.5074 0.07448l-0.081 0.0058 0.01 0.09591c0.01 0.08578-0.01 0.23155-0.019 0.31982l-0.01 0.03195 0.067 0.0093c0.072 0.01013 0.4482 0.13112 0.5261 0.16918 0.035 0.01714 0.049 0.02999 0.07 0.06486 0.037 0.06182 0.035 0.10035-0.01 0.23965-0.041 0.12528-0.068 0.16256-0.1347 0.18819-0.056 0.02142-0.095 0.01324-0.3446-0.06833-0.2023-0.06638-0.2683-0.09228-0.3094-0.12134-0.017-0.01168-0.01-0.01909-0.063 0.07748-0.024 0.04383-0.072 0.11936-0.1063 0.16786-0.035 0.04846-0.064 0.09174-0.066 0.09614 0 0.0043 0.015 0.01597 0.036 0.02571 0.04 0.01831 0.1011 0.07978 0.2885 0.28982 0.1092 0.12236 0.1376 0.16544 0.1425 0.216 0.01 0.07799-0.024 0.1282-0.1448 0.23018-0.083 0.07047-0.1052 0.08138-0.1628 0.08114-0.072-1.95e-4 -0.099-0.01753-0.2027-0.12847-0.2161-0.2319-0.2892-0.32005-0.2996-0.36166 0-0.01168-0.01-0.02103-0.011-0.02103-0.01 0-0.03 0.01558-0.062 0.03467-0.088 0.05415-0.1689 0.09743-0.2428 0.12949-0.038 0.01636-0.071 0.03195-0.074 0.03506 0 0.0039 0 0.02143 0.01 0.04106 0.035 0.08103 0.1253 0.54708 0.1135 0.58838-0.012 0.04063-0.03 0.07074-0.063 0.10015-0.026 0.02298-0.045 0.03155-0.1024 0.04495-0.1463 0.03389-0.2071 0.03943-0.2474 0.02182zm-0.1866-1.3683c0.4508-0.07662 0.8016-0.41962 0.892-0.87224 0.021-0.10607 0.019-0.30747-0.01-0.41775-0.048-0.22235-0.1491-0.40486-0.3139-0.56399-0.2042-0.19715-0.4636-0.30143-0.7499-0.30143-0.3011 0-0.5732 0.11632-0.7836 0.33497-0.143 0.14865-0.2366 0.32625-0.2808 0.53255-0.023 0.10806-0.025 0.31055 0 0.41565 0.09 0.44919 0.4446 0.79811 0.8875 0.87251 0.092 0.01558 0.2659 0.01519 0.3574-2.34e-4z" opacity="1"/>
    <path d="m2259.4 58.19c-0.052-0.08411-0.7055-1.3287-1.4526-2.7657-0.747-1.437-2.2735-4.3689-3.3921-6.5154-2.2248-4.2691-2.9514-5.717-2.9058-5.7908 0.086-0.13967-0.2467-0.185-1.5563-0.21172-1.5704-0.03207-2.1433-0.13584-3.1784-0.57568-2.568-1.0913-4.1642-3.6165-4.5983-7.2743-0.1446-1.2186-0.1439-3.9863 0-5.3298 0.097-0.90062 0.4382-3.1609 0.542-3.5942 0.023-0.09684 0.018-0.15394-0.011-0.12684-0.105 0.09755-0.2601-0.1859-3.5374-6.4654-3.4572-6.6242-4.3723-8.3236-4.9078-9.1135-0.478-0.70514-2.7407-2.8501-3.9888-3.7813-0.8642-0.64479-2.3512-1.6352-3.6203-2.4114-0.6088-0.3723-1.126-0.70797-1.1495-0.74599-0.024-0.038021 0-0.097711 0.048-0.13269 0.101-0.070432 27.14-0.00503 28.269 0.068421l0.6614 0.043021-0.9921 0.51099c-1.5145 0.77997-2.5069 1.3429-3.3073 1.8761-1.8266 1.2168-2.8774 2.4661-2.8774 3.421 0 0.35589 0.2115 1.1222 0.4625 1.6757l0.1946 0.42915 0.4083-0.47442c0.8193-0.95194 2.0143-1.7295 3.2051-2.0854 0.8043-0.24043 2.1508-0.29567 3.1492-0.12922 1.6959 0.28276 4.0949 1.2351 5.627 2.2338 0.6555 0.42728 1.3978 1.1075 1.8222 1.6699 0.366 0.48501 0.4516 0.57745 0.3474 0.37528-0.044-0.08498-0.061-0.17298-0.039-0.19555 0.023-0.02249 0.4982-0.05334 1.0569-0.06834l1.0159-0.02728 0.2917 0.20069c0.3777 0.2599 0.7632 0.68866 0.8282 0.9213 0.028 0.10096 0.051 0.9643 0.051 1.9185v1.735l0.3641 0.07234c0.2003 0.03979 0.5949 0.12549 0.8768 0.19045 0.4686 0.10795 0.5127 0.10888 0.5127 0.01085 0-0.05906 0.5254-1.0892 1.1676-2.2892 1.289-2.4087 2.2255-4.2993 2.5064-5.0592 0.1402-0.3792 0.1848-0.62108 0.1895-1.0265 0.01-0.47072-0.018-0.57859-0.2064-0.95911-0.6245-1.2603-2.3232-2.6321-5.2777-4.2619-0.5093-0.28096-0.9707-0.55398-1.0252-0.60672-0.088-0.085249-0.088-0.10327 0-0.1623 0.1105-0.073978 27.342-0.032597 27.833 0.04228l0.2833 0.043233-1.044 0.57706c-1.852 1.0236-2.6123 1.5292-3.6899 2.4536-0.808 0.69318-2.462 2.3981-3.1103 3.206-1.3152 1.6391-1.6652 2.2375-4.9846 8.5211-0.8038 1.5216-1.5204 2.8416-1.5925 2.9333l-0.1311 0.16663 0.1633 0.32224c0.3565 0.70355 0.1418 1.6963-0.4551 2.1047-0.3285 0.22468-1.9996 1.1985-2.0568 1.1985-0.022 0-0.068-0.07443-0.1029-0.16536-0.057-0.15113-0.097-0.16536-0.4614-0.16536-0.2192 0-0.3985-0.02754-0.3985-0.06117 0-0.03365 0.2753-0.21783 0.6118-0.40928 1.5682-0.89212 2.01-1.1772 2.0871-1.3464 0.1719-0.3773 0.083-0.67024-0.4648-1.539-0.2122-0.33621-0.3075-0.42651-0.5162-0.489-0.2025-0.0607-0.3014-0.05802-0.4743 0.0127-0.2187 0.08961-2.093 1.1165-2.7514 1.5074-0.1925 0.11435-0.4237 0.20794-0.5136 0.20794-0.1229 0-0.4339-0.26924-1.2539-1.0855-0.5997-0.59703-1.0904-1.1282-1.0904-1.1804 0-0.05218 0.1195-0.27964 0.2654-0.50546 0.3447-0.53335 1.2017-2.0196 1.4634-2.5381 0.2522-0.49959 0.2671-0.86127 0.045-1.0819-0.084-0.08337-0.4058-0.30409-0.715-0.49051-0.5168-0.31152-0.5886-0.3365-0.8888-0.30893-0.2411 0.02222-0.3599 0.07117-0.4541 0.18735-0.2017 0.24873-0.9866 1.6008-1.4545 2.5056-0.513 0.99187-0.6123 1.0752-1.0845 0.90988-0.4935-0.17275-1.306-0.37132-2.1043-0.5143-0.5582-0.09999-0.7546-0.16293-0.8434-0.2703-0.1045-0.12634-0.1157-0.33089-0.1157-2.104v-1.9641l-0.2182-0.2114-0.2181-0.2114h-0.7708c-0.6643 0-0.78-0.01588-0.8382-0.11576-0.1091-0.18738-0.081-0.0503 0.054 0.26514 0.3894 0.90826 0.4729 2.3506 0.2098 3.6209-0.3086 1.4898-0.8511 2.8628-2.3521 5.9531-1.138 2.343-1.5133 3.1933-1.8108 4.1023-0.4027 1.2308-0.4056 1.267-0.4056 5.1043 0 3.7947-0.034 4.3007-0.3681 5.4529-0.2362 0.81508-0.4584 1.3108-0.8583 1.9146-0.382 0.57658-1.1303 1.3316-1.6349 1.6494-0.1903 0.11988-0.3014 0.23296-0.2811 0.28625 0.019 0.04845 0.034 0.16013 0.034 0.24818 0 0.1198 0.1041 0.23678 0.4134 0.46469 0.9046 0.66646 1.3587 0.75872 1.7316 0.35182 0.2909-0.3175 1.6198-2.4633 1.7994-2.9056 0.081-0.2001 0.2177-0.4169 0.3033-0.48183 0.1498-0.11366 0.1725-0.11295 0.6163 0.01905 1.3839 0.41188 1.7952 0.55398 1.9036 0.6577 0.11 0.10522 0.1203 0.2654 0.123 1.9277 0 2.0526 0.035 2.3412 0.2785 2.5507 0.1573 0.13531 0.2294 0.14462 1.0361 0.1338l0.8671-0.01164 0.446-0.48683v-1.929c0-1.62 0.011-1.9447 0.093-2.0269 0.1047-0.1047 0.4293-0.19717 0.9082-0.25868 0.1625-0.0209 0.3187-0.05228 0.347-0.0698 0.055-0.03416 0.2154-0.07048 0.5757-0.1306 0.1243-0.02064 0.288-0.06072 0.3638-0.08887 0.076-0.02813 0.3007-0.04784 0.4999-0.04376l0.362 0.0074 0.9119 1.5214c0.5015 0.83674 1.0121 1.6152 1.1348 1.7299 0.3231 0.30226 0.6075 0.27009 1.2995-0.1469 1.1132-0.67088 1.116-0.74747 0.092-2.5073-0.421-0.72356-0.8183-1.4218-0.883-1.5516-0.1702-0.34166-0.083-0.5802 0.3411-0.93461 0.1915-0.16002 0.6228-0.5561 0.9583-0.88014 0.3355-0.32406 0.6726-0.63302 0.7491-0.68662 0.1821-0.1275 0.4352-0.07332 0.7989 0.17103 0.1592 0.10692 0.4679 0.29197 0.6862 0.41127s0.5308 0.29091 0.6945 0.38137c1.3182 0.72837 1.5358 0.82108 1.8454 0.78621 0.3679-0.04149 0.5333-0.2173 0.9271-0.98531 0.5189-1.0119 0.4677-1.0743-1.9126-2.3317-0.5275-0.27866-1.0037-0.53062-1.0583-0.55994-0.071-0.03805-0.1048-0.18873-0.1186-0.52594-0.011-0.25995 0-0.47262 0.014-0.47262 0.1044 0 1.6723 0.81677 1.7404 0.9066 0.045 0.05913 0.1341 0.11335 0.1984 0.12046 0.2662 0.02953 1.3578 0.63135 1.7634 0.97224 0.4689 0.3941 0.6436 1.1125 0.4288 1.7633-0.1075 0.32594-0.6903 1.3251-0.9049 1.5517-0.288 0.30393-0.6577 0.45852-1.1372 0.47548-0.401 0.01429-0.4768-0.0082-1.1245-0.33338-0.382-0.19174-1.0929-0.57512-1.5799-0.85196-0.4869-0.27686-0.9037-0.50282-0.926-0.50215-0.049 0.0026-1.4219 1.2508-1.4476 1.3169-0.01 0.02513 0.3256 0.63936 0.7454 1.3648 0.9485 1.639 0.9843 1.7482 0.7888 2.4065-0.1294 0.4358-0.5269 0.84894-1.1985 1.2457-0.9661 0.57065-1.3535 0.63524-2.0086 0.33475-0.4137-0.18976-0.5519-0.35658-1.2917-1.5591-0.2514-0.40878-0.4751-0.74364-0.497-0.74414-0.022 0-1.5912 3.0277-3.4874 6.7294-4.9535 9.6702-5.0696 9.8936-5.1529 9.9214-0.042 0.01376-0.1182-0.04358-0.1701-0.12769zm0.7006-4.3201c0.2707-0.50932 1.2109-2.3176 2.0895-4.0184s1.7309-3.318 1.894-3.5939c0.1631-0.27588 0.2965-0.50657 0.2964-0.51266-2e-4 -0.0061-0.4025-0.01746-0.8942-0.0254-0.8789-0.01402-0.899-0.01773-1.1885-0.21677-0.2976-0.20479-0.5691-0.51874-0.6581-0.76118-0.1043-0.2839-0.1435-1.0053-0.1608-2.9588l-0.01-0.97438-0.1819-0.04834c-0.1001-0.02659-0.1968-0.0512-0.215-0.05466-0.018-0.0034-0.2093-0.06374-0.4248-0.13393-0.2449-0.0798-0.4001-0.10216-0.4143-0.05961-0.047 0.14118-1.0248 1.7451-1.4888 2.4423-0.4324 0.64963-0.5223 0.74604-0.8538 0.91496-0.3854 0.1964-0.8213 0.24733-1.217 0.14219-0.2887-0.0767-1.2071-0.63434-1.566-0.95083-0.1856-0.16364-0.353-0.38738-0.4188-0.55965l-0.1096-0.28699-0.6395 0.19516c-0.3518 0.10732-0.6875 0.21471-0.7461 0.2386-0.087 0.03551 0.4633 1.1316 3.0106 5.9966 3.6168 6.9075 3.2783 6.2799 3.348 6.2083 0.03-0.03119 0.2767-0.47342 0.5473-0.98274zm6.4428-12.479 0.2723-0.50623-0.2419 0.02786c-0.5556 0.06406-0.6369 0.1125-0.6607 0.39367-0.012 0.14311 0 0.45024 0.023 0.68247l0.045 0.42228 0.1452-0.25691c0.08-0.14129 0.2677-0.48469 0.4176-0.76314zm-14.132 0.46966c0.9569-0.1723 1.6882-0.40812 2.4109-0.77745 0.4764-0.24347 0.7159-0.42431 1.1992-0.9053 0.5291-0.5266 0.6456-0.68675 0.9406-1.2929 0.7072-1.4531 0.8209-2.4737 0.7921-7.108-0.021-3.3514-0.033-3.2211 0.4197-4.5971 0.3053-0.92858 0.6843-1.7911 1.7729-4.0349 1.9209-3.9591 2.4167-5.3604 2.4928-7.0445 0.068-1.5097-0.294-2.4674-1.3245-3.5013-0.3323-0.33348-0.7977-0.73348-1.0342-0.88892-0.7515-0.494-2.4953-1.3087-3.5388-1.6532-1.3867-0.45789-1.9294-0.55666-3.0427-0.55375-0.8049 0.00265-1.004 0.0254-1.5214 0.17833-2.4495 0.72379-4.0991 2.8719-5.6239 7.3235-0.655 1.9121-2.0464 6.7992-2.449 8.6016-0.4967 2.2235-0.7475 4.1633-0.8021 6.2034-0.087 3.2373 0.3433 5.4933 1.3775 7.2282 0.9545 1.6011 2.3648 2.5465 4.3711 2.9302 0.6584 0.12586 2.5867 0.06755 3.5598-0.10768zm-8.572-19.576c1.2164-4.4464 2.1887-7.2888 3.0665-8.964l0.2558-0.48826-0.4186-0.92326c-0.6028-1.3291-0.7731-1.9679-0.7402-2.7755 0.023-0.55216 0.056-0.70337 0.24-1.0965 0.3953-0.84275 1.0578-1.6329 2.2955-2.7378l0.5292-0.47236-9.2439-0.00265c-5.0841-0.00265-9.2438 0.011113-9.2438 0.027966 0 0.016669 0.3795 0.33597 0.8433 0.70937 2.1283 1.7133 3.6409 3.2105 4.4315 4.3865 0.3964 0.58962 1.8305 3.2997 6.9534 13.141 0.2777 0.53335 0.5235 0.93517 0.5464 0.89297 0.023-0.04223 0.2411-0.80603 0.4849-1.6973zm30.562-1.4235c1.5289-0.86545 1.884-1.0237 2.2972-1.0238 0.2085-5.3e-5 0.4999 0.04826 0.6477 0.10739 0.1477 0.05911 0.279 0.09631 0.2916 0.08268 0.013-0.01376 0.462-0.85826 0.9986-1.8769 3.0952-5.8754 3.7278-7.0065 4.6061-8.2356 0.9245-1.294 2.4229-2.966 3.7702-4.2071 0.7889-0.72665 0.8395-0.78751 0.7009-0.84312-0.085-0.034184-3.9405-0.07411-8.974-0.092922l-8.8247-0.032967 1.0587 1.0504c1.4661 1.4546 1.9111 2.164 1.9866 3.1671 0.041 0.53888-0.059 1.2661-0.2535 1.8427-0.171 0.50816-1.2682 2.853-1.5227 3.2543-0.1041 0.16412-0.1892 0.31229-0.1892 0.3292 0 0.01693 0.1154 0.0308 0.2565 0.0308 0.3002 0 0.6166 0.12139 1.1656 0.44723 0.9816 0.58259 1.2516 0.94898 1.2548 1.7025 0 0.4381-0.018 0.50038-0.3712 1.1576-0.2052 0.38198-0.5981 1.0806-0.8732 1.5526l-0.5 0.85807 0.6747 0.66519 0.6748 0.66519 0.1984-0.0943c0.1092-0.05183 0.5259-0.27961 0.9261-0.50612z" opacity="1" style="paint-order:markers stroke fill"/>
   </g>
  </g>
 </g>
</svg>
