<?xml version="1.0" encoding="UTF-8"?>
<svg width="270.93mm" height="44.596mm" version="1.1" viewBox="0 0 270.93 44.596" xmlns="http://www.w3.org/2000/svg" xmlns:cc="http://creativecommons.org/ns#" xmlns:dc="http://purl.org/dc/elements/1.1/" xmlns:rdf="http://www.w3.org/1999/02/22-rdf-syntax-ns#" xmlns:xlink="http://www.w3.org/1999/xlink">
 <defs>
  <linearGradient id="linearGradient47044" x1="40.889" x2="249.04" y1="131.09" y2="131.09" gradientUnits="userSpaceOnUse" xlink:href="#linearGradient3916-4"/>
  <linearGradient id="linearGradient3916-4">
   <stop stop-color="#26fffa" offset="0"/>
   <stop stop-color="#eb00c2" offset="1"/>
  </linearGradient>
 </defs>
 <metadata>
  <rdf:RDF>
   <cc:Work rdf:about="">
    <dc:format>image/svg+xml</dc:format>
    <dc:type rdf:resource="http://purl.org/dc/dcmitype/StillImage"/>
    <dc:title/>
   </cc:Work>
  </rdf:RDF>
 </metadata>
 <g transform="translate(168.18 -44.118)">
  <path d="m-168.18 44.118h270.93v44.596h-270.93z" enable-background="new" fill="#1a1a1a" style="paint-order:markers stroke fill"/>
  <g transform="matrix(-1.1429 0 0 1.1429 135.91 -85.007)" enable-background="new" fill="none" opacity=".97" stroke="url(#linearGradient47044)" stroke-linecap="square" stroke-linejoin="bevel">
   <path d="m82.45 141.61c-8.541 0-13.339-21.401-20.609-21.401s-12.068 21.401-20.609 21.401" stroke-width=".6869"/>
   <path d="m124.09 141.81c-8.5776 0-13.396-14.226-20.697-14.226-7.3006 0-12.119 14.226-20.697 14.226" stroke-width=".51552"/>
   <path d="m165.7 141.94c-8.6033 0-13.437-9.6269-20.759-9.6269-7.3225 0-12.156 9.6269-20.759 9.6269" stroke-width=".42333"/>
   <path d="m207.3 142.02c-8.6235 0-13.468-7.6121-20.808-7.6121-7.3396 0-12.184 7.6121-20.808 7.6121" stroke-width=".3515"/>
   <path d="m248.91 142.12c-8.644 0-13.5-4.6901-20.857-4.6901s-12.213 4.6901-20.857 4.6901" stroke-width=".2652"/>
   <path d="m84.011 141.9c-8.3836 0-13.093-12.104-20.229-12.104-7.1355 0-11.845 12.104-20.229 12.104" stroke-width=".6869"/>
   <path d="m124.89 142c-8.4195 0-13.15-8.0463-20.316-8.0463-7.1661 0-11.896 8.0463-20.316 8.0463" stroke-width=".51552"/>
   <path d="m165.74 142.07c-8.4448 0-13.189-5.4451-20.377-5.4451-7.1876 0-11.932 5.4451-20.377 5.4451" stroke-width=".42333"/>
   <path d="m206.58 142.13c-8.4646 0-13.22-4.3055-20.424-4.3055-7.2044 0-11.96 4.3055-20.424 4.3055" stroke-width=".3515"/>
   <path d="m247.41 142.19c-8.4847 0-13.251-2.6528-20.473-2.6528-7.2215 0-11.988 2.6528-20.473 2.6528" stroke-width=".2652"/>
   <path d="m83.999 141.9c-8.3849 0-13.095-6.9674-20.232-6.9674-7.1366 0-11.847 6.9674-20.232 6.9674" stroke-width=".6869"/>
   <path d="m124.89 142c-8.4208 0-13.152-4.6315-20.319-4.6315-7.1671 0-11.898 4.6315-20.319 4.6315" stroke-width=".51552"/>
   <path d="m165.74 142.07c-8.446 0-13.191-3.1342-20.38-3.1342-7.1886 0-11.934 3.1342-20.38 3.1342" stroke-width=".42333"/>
   <path d="m206.58 142.13c-8.4658 0-13.222-2.4783-20.427-2.4783s-11.962 2.4783-20.427 2.4783" stroke-width=".3515"/>
   <path d="m247.42 142.18c-8.486 0-13.253-1.5269-20.476-1.5269-7.2226 0-11.99 1.5269-20.476 1.5269" stroke-width=".2652"/>
  </g>
  <g transform="matrix(1.1429 0 0 1.1429 -485.54 831.17)" enable-background="new" fill="none" opacity=".97" stroke="#fff" stroke-width="4">
   <g transform="matrix(.26458 0 0 .26458 275.04 -761.13)" style="paint-order:markers stroke fill" aria-label="Q ">
    <path d="m114.38 347.12q0 8.3067-3.92 15.96-3.8267 7.56-10.267 12.693l7.56 7.56h-4.1067l-5.7867-5.7867q-8.8667 5.7867-19.413 5.7867h-1.0267q-9.6133 0-17.92-5.04-8.3067-5.04-13.16-13.347-4.76-8.4-4.76-17.827 0-14.84 10.733-25.48 10.733-10.733 25.76-10.733 15.027 0 25.667 10.64 10.64 10.64 10.64 25.573zm-36.4 33.507q9.4267 0 17.827-5.1333l-16.147-15.96h4.0133l14.373 14.187q5.9733-4.76 9.6133-11.853 3.64-7.0933 3.64-14.747 0-13.813-9.8-23.613-9.7067-9.8933-23.52-9.8933-13.72 0-23.52 9.8933-9.8 9.8-9.8 23.613 0 13.72 9.8 23.613 9.8 9.8933 23.52 9.8933z" fill="none" stroke="#fff" stroke-width="4" style="paint-order:markers stroke fill"/>
   </g>
   <g transform="matrix(.26458 0 0 .26458 404.7 -761.13)" style="paint-order:markers stroke fill" aria-label="R ">
    <path d="m44.375 312.21h4.0133q9.0533 0 15.867 6.72 6.9067 6.6267 6.9067 15.68 0 8.96-7 15.587-7 6.6267-15.027 6.6267h-0.65333l24.08 25.387h-4.0133l-21.187-22.213v22.213h-2.9867zm2.9867 41.907h1.68q7.56 0 13.347-5.7867t5.7867-13.72-5.9733-13.813q-5.9733-5.88-13.627-5.88h-1.2133z" fill="none" stroke="#fff" stroke-width="4" style="paint-order:markers stroke fill"/>
   </g>
   <g transform="matrix(.26458 0 0 .26458 443.67 -761.13)" style="paint-order:markers stroke fill" aria-label="U ">
    <path d="m65.748 383.52h-0.93333q-8.5867 0-14.56-5.9733-5.88-5.9733-5.88-15.027v-50.307h3.08v50.213q0 7.9333 5.1333 13.16 5.1333 5.2267 12.693 5.2267 7.56 0 12.6-5.1333 5.1333-5.2267 5.1333-13.253v-50.213h3.08v50.12q0 9.1467-5.9733 15.213-5.88 5.9733-14.373 5.9733z" fill="none" stroke="#fff" stroke-width="4" style="paint-order:markers stroke fill"/>
   </g>
   <g transform="matrix(.26458 0 0 .26458 486.13 -761.26)" style="paint-order:markers stroke fill" aria-label="S">
    <path d="m72.562 322.11q-2.1467-3.92-5.88-6.16-3.64-2.24-8.2133-2.24-4.5733 0-7.84 2.8933-3.1733 2.8-3.1733 7.7467v0.46667q0 5.88 6.5333 10.733 2.8 2.0533 6.2533 4.1067 3.5467 1.96 7 4.2933 3.5467 2.24 6.3467 4.8533 2.8933 2.52 4.6667 6.2533 1.8667 3.7333 1.8667 8.2133v0.93334q0 8.8667-6.0667 14.093-5.9733 5.2267-14.84 5.2267-11.667 0-18.107-9.6133v-5.04q2.4267 5.32 7.0933 8.68 4.76 3.2667 11.76 3.2667t12.133-4.48q5.1333-4.48 5.1333-11.947v-0.56q0-4.6667-2.4267-8.4933-2.4267-3.92-6.0667-6.3467-3.64-2.52-7.9333-5.2267-4.2933-2.7067-7.9333-5.04-3.64-2.3333-6.0667-5.88-2.4267-3.5467-2.4267-7.7467v-0.65333q0-6.5333 4.2-9.9867t10.36-3.4533q8.5867 0 13.627 6.3467z" fill="none" stroke="#fff" stroke-width="4" style="paint-order:markers stroke fill"/>
   </g>
   <g transform="matrix(.26458 0 0 .26458 318.89 -761.13)" style="paint-order:markers stroke fill" aria-label="U ">
    <path d="m65.748 383.52h-0.93333q-8.5867 0-14.56-5.9733-5.88-5.9733-5.88-15.027v-50.307h3.08v50.213q0 7.9333 5.1333 13.16 5.1333 5.2267 12.693 5.2267 7.56 0 12.6-5.1333 5.1333-5.2267 5.1333-13.253v-50.213h3.08v50.12q0 9.1467-5.9733 15.213-5.88 5.9733-14.373 5.9733z" fill="none" stroke="#fff" stroke-width="4" style="paint-order:markers stroke fill"/>
   </g>
   <g transform="matrix(.26458 0 0 .26458 356.84 -761.13)" style="paint-order:markers stroke fill" aria-label="O ">
    <path d="m77.228 383.43q-14.467 0-25.107-10.92-10.547-10.92-10.547-25.48 0-14.653 10.733-25.293 10.733-10.733 25.76-10.733 15.027 0 25.667 10.64 10.64 10.64 10.64 25.387 0 14.653-10.547 25.573-10.547 10.827-25.2 10.827zm34.067-36.213q0-13.813-9.8-23.613-9.7067-9.8933-23.52-9.8933-13.72 0-23.52 9.8933-9.8 9.8-9.8 23.613 0 13.72 9.8 23.613 9.8 9.8933 23.52 9.8933t23.52-9.8933q9.8-9.8933 9.8-23.613z" fill="none" stroke="#fff" stroke-width="4" style="paint-order:markers stroke fill"/>
   </g>
  </g>
 </g>
</svg>
