<?xml version="1.0" encoding="UTF-8"?>
<svg width="270.93mm" height="45.546mm" version="1.1" viewBox="0 0 270.93 45.546" xmlns="http://www.w3.org/2000/svg" xmlns:cc="http://creativecommons.org/ns#" xmlns:dc="http://purl.org/dc/elements/1.1/" xmlns:rdf="http://www.w3.org/1999/02/22-rdf-syntax-ns#" xmlns:xlink="http://www.w3.org/1999/xlink">
 <defs>
  <linearGradient id="linearGradient48407" x1="293.83" x2="501.98" y1="15.041" y2="15.041" gradientUnits="userSpaceOnUse" xlink:href="#linearGradient48403"/>
  <linearGradient id="linearGradient48403">
   <stop stop-color="#eb00c2" offset="0"/>
   <stop stop-color="#26fffa" offset="1"/>
  </linearGradient>
 </defs>
 <metadata>
  <rdf:RDF>
   <cc:Work rdf:about="">
    <dc:format>image/svg+xml</dc:format>
    <dc:type rdf:resource="http://purl.org/dc/dcmitype/StillImage"/>
    <dc:title/>
   </cc:Work>
  </rdf:RDF>
 </metadata>
 <g transform="translate(25.854 13.791)">
  <g transform="matrix(1.138 0 0 1.138 -341.31 -8.7205)" enable-background="new" fill="none" opacity=".97" stroke="url(#linearGradient48407)" stroke-linecap="square" stroke-linejoin="bevel">
   <path d="m335.56 24.531c-8.6147 0-13.454-4.5331-20.787-4.5331s-12.172 4.5331-20.787 4.5331" stroke-width=".3175"/>
   <path d="m377.1 24.482c-8.6071 0-13.443-7.3195-20.768-7.3195-7.3257 0-12.161 7.3195-20.768 7.3195" stroke-width=".37042"/>
   <path d="m418.64 24.447c-8.6033 0-13.437-9.6269-20.759-9.6269-7.3225 0-12.156 9.6269-20.759 9.6269" stroke-width=".42333"/>
   <path d="m460.18 24.385c-8.5976 0-13.428-14.016-20.745-14.016-7.3176 0-12.148 14.016-20.745 14.016" stroke-width=".47625"/>
   <path d="m501.72 24.31c-8.5902 0-13.416-18.79-20.727-18.79-7.3113 0-12.137 18.79-20.727 18.79" stroke-width=".52917"/>
   <path d="m337.14 24.591c-8.456 0-13.207-2.564-20.404-2.564-7.1971 0-11.948 2.564-20.404 2.564" stroke-width=".3175"/>
   <path d="m377.91 24.579c-8.4485 0-13.195-4.14-20.386-4.14-7.1907 0-11.937 4.14-20.386 4.14" stroke-width=".37042"/>
   <path d="m418.69 24.575c-8.4448 0-13.189-5.4451-20.377-5.4451-7.1876 0-11.932 5.4451-20.377 5.4451" stroke-width=".42333"/>
   <path d="m459.46 24.572c-8.4392 0-13.18-7.9278-20.363-7.9278-7.1828 0-11.924 7.9278-20.363 7.9278" stroke-width=".47625"/>
   <path d="m500.23 24.562c-8.4319 0-13.169-10.628-20.346-10.628-7.1766 0-11.914 10.628-20.346 10.628" stroke-width=".52917"/>
   <path d="m337.13 24.591c-8.4573 0-13.209-1.4758-20.407-1.4758-7.1982 0-11.949 1.4758-20.407 1.4758" stroke-width=".3175"/>
   <path d="m377.9 24.579c-8.4498 0-13.197-2.383-20.389-2.383-7.1918 0-11.939 2.383-20.389 2.383" stroke-width=".37042"/>
   <path d="m418.69 24.575c-8.446 0-13.191-3.1342-20.38-3.1342-7.1886 0-11.934 3.1342-20.38 3.1342" stroke-width=".42333"/>
   <path d="m459.47 24.571c-8.4405 0-13.182-4.5633-20.366-4.5633s-11.926 4.5633-20.366 4.5633" stroke-width=".47625"/>
   <path d="m500.24 24.56c-8.4332 0-13.171-6.1173-20.349-6.1173-7.1777 0-11.915 6.1173-20.349 6.1173" stroke-width=".52917"/>
  </g>
  <g transform="matrix(1.138 0 0 1.138 -341.18 1.0149)" enable-background="new" opacity=".97" stroke="#fff" stroke-width="4">
   <g transform="matrix(.26458 0 0 .26458 273.07 -84.886)" style="paint-order:markers stroke fill" aria-label="Q ">
    <path d="m114.38 347.12q0 8.3067-3.92 15.96-3.8267 7.56-10.267 12.693l7.56 7.56h-4.1067l-5.7867-5.7867q-8.8667 5.7867-19.413 5.7867h-1.0267q-9.6133 0-17.92-5.04-8.3067-5.04-13.16-13.347-4.76-8.4-4.76-17.827 0-14.84 10.733-25.48 10.733-10.733 25.76-10.733 15.027 0 25.667 10.64 10.64 10.64 10.64 25.573zm-36.4 33.507q9.4267 0 17.827-5.1333l-16.147-15.96h4.0133l14.373 14.187q5.9733-4.76 9.6133-11.853 3.64-7.0933 3.64-14.747 0-13.813-9.8-23.613-9.7067-9.8933-23.52-9.8933-13.72 0-23.52 9.8933-9.8 9.8-9.8 23.613 0 13.72 9.8 23.613 9.8 9.8933 23.52 9.8933z" stroke="#fff" stroke-width="4" style="paint-order:markers stroke fill"/>
   </g>
   <g transform="matrix(.26458 0 0 .26458 403.79 -84.886)" style="paint-order:markers stroke fill" aria-label="R ">
    <path d="m44.375 312.21h4.0133q9.0533 0 15.867 6.72 6.9067 6.6267 6.9067 15.68 0 8.96-7 15.587-7 6.6267-15.027 6.6267h-0.65333l24.08 25.387h-4.0133l-21.187-22.213v22.213h-2.9867zm2.9867 41.907h1.68q7.56 0 13.347-5.7867t5.7867-13.72-5.9733-13.813q-5.9733-5.88-13.627-5.88h-1.2133z" stroke="#fff" stroke-width="4" style="paint-order:markers stroke fill"/>
   </g>
   <g transform="matrix(.26458 0 0 .26458 442.36 -84.886)" style="paint-order:markers stroke fill" aria-label="U ">
    <path d="m65.748 383.52h-0.93333q-8.5867 0-14.56-5.9733-5.88-5.9733-5.88-15.027v-50.307h3.08v50.213q0 7.9333 5.1333 13.16 5.1333 5.2267 12.693 5.2267 7.56 0 12.6-5.1333 5.1333-5.2267 5.1333-13.253v-50.213h3.08v50.12q0 9.1467-5.9733 15.213-5.88 5.9733-14.373 5.9733z" stroke="#fff" stroke-width="4" style="paint-order:markers stroke fill"/>
   </g>
   <g transform="matrix(.26458 0 0 .26458 485.81 -85.011)" style="paint-order:markers stroke fill" aria-label="S">
    <path d="m72.562 322.11q-2.1467-3.92-5.88-6.16-3.64-2.24-8.2133-2.24-4.5733 0-7.84 2.8933-3.1733 2.8-3.1733 7.7467v0.46667q0 5.88 6.5333 10.733 2.8 2.0533 6.2533 4.1067 3.5467 1.96 7 4.2933 3.5467 2.24 6.3467 4.8533 2.8933 2.52 4.6667 6.2533 1.8667 3.7333 1.8667 8.2133v0.93334q0 8.8667-6.0667 14.093-5.9733 5.2267-14.84 5.2267-11.667 0-18.107-9.6133v-5.04q2.4267 5.32 7.0933 8.68 4.76 3.2667 11.76 3.2667t12.133-4.48q5.1333-4.48 5.1333-11.947v-0.56q0-4.6667-2.4267-8.4933-2.4267-3.92-6.0667-6.3467-3.64-2.52-7.9333-5.2267-4.2933-2.7067-7.9333-5.04-3.64-2.3333-6.0667-5.88-2.4267-3.5467-2.4267-7.7467v-0.65333q0-6.5333 4.2-9.9867t10.36-3.4533q8.5867 0 13.627 6.3467z" stroke="#fff" stroke-width="4" style="paint-order:markers stroke fill"/>
   </g>
   <g transform="matrix(.26458 0 0 .26458 317.57 -84.886)" style="paint-order:markers stroke fill" aria-label="U ">
    <path d="m65.748 383.52h-0.93333q-8.5867 0-14.56-5.9733-5.88-5.9733-5.88-15.027v-50.307h3.08v50.213q0 7.9333 5.1333 13.16 5.1333 5.2267 12.693 5.2267 7.56 0 12.6-5.1333 5.1333-5.2267 5.1333-13.253v-50.213h3.08v50.12q0 9.1467-5.9733 15.213-5.88 5.9733-14.373 5.9733z" stroke="#fff" stroke-width="4" style="paint-order:markers stroke fill"/>
   </g>
   <g transform="matrix(.26458 0 0 .26458 356.46 -84.886)" style="paint-order:markers stroke fill" aria-label="O ">
    <path d="m77.228 383.43q-14.467 0-25.107-10.92-10.547-10.92-10.547-25.48 0-14.653 10.733-25.293 10.733-10.733 25.76-10.733 15.027 0 25.667 10.64 10.64 10.64 10.64 25.387 0 14.653-10.547 25.573-10.547 10.827-25.2 10.827zm34.067-36.213q0-13.813-9.8-23.613-9.7067-9.8933-23.52-9.8933-13.72 0-23.52 9.8933-9.8 9.8-9.8 23.613 0 13.72 9.8 23.613 9.8 9.8933 23.52 9.8933t23.52-9.8933q9.8-9.8933 9.8-23.613z" stroke="#fff" stroke-width="4" style="paint-order:markers stroke fill"/>
   </g>
  </g>
  <rect x="-25.285" y="-13.222" width="269.8" height="44.408" enable-background="new" fill="none" stroke="#000" stroke-linecap="square" stroke-width="1.138" style="paint-order:markers stroke fill"/>
 </g>
</svg>
