<?xml version="1.0" encoding="UTF-8"?>
<svg width="67.733mm" height="67.733mm" version="1.1" viewBox="0 0 67.733 67.733" xmlns="http://www.w3.org/2000/svg" xmlns:cc="http://creativecommons.org/ns#" xmlns:dc="http://purl.org/dc/elements/1.1/" xmlns:rdf="http://www.w3.org/1999/02/22-rdf-syntax-ns#" xmlns:xlink="http://www.w3.org/1999/xlink">
 <defs>
  <linearGradient id="linearGradient7735" x1="1787.8" x2="1833.6" y1="213.09" y2="213.09" gradientTransform="matrix(1.2703 0 0 1.2703 -2259.3 -240)" gradientUnits="userSpaceOnUse" xlink:href="#linearGradient3916-4"/>
  <linearGradient id="linearGradient3916-4">
   <stop stop-color="#26fffa" offset="0"/>
   <stop stop-color="#eb00c2" offset="1"/>
  </linearGradient>
  <linearGradient id="linearGradient7016" x1="1777.8" x2="1835.3" y1="205.83" y2="205.83" gradientTransform="translate(-1765.7 -175.14)" gradientUnits="userSpaceOnUse" xlink:href="#linearGradient3916-4"/>
 </defs>
 <metadata>
  <rdf:RDF>
   <cc:Work rdf:about="">
    <dc:format>image/svg+xml</dc:format>
    <dc:type rdf:resource="http://purl.org/dc/dcmitype/StillImage"/>
    <dc:title/>
   </cc:Work>
  </rdf:RDF>
 </metadata>
 <g transform="translate(-6.8988 2.9075)">
  <circle cx="40.765" cy="30.959" r="33.531" enable-background="new" fill="#040404" stroke="#fff" stroke-linecap="square" stroke-width=".67221" style="paint-order:markers stroke fill"/>
  <path d="m39.169 59.419c-0.1818-0.01799-0.7577-0.073-1.2802-0.12233-4.5562-0.42964-9.4796-2.248-13.333-4.9244-2.0252-1.4067-4.6219-3.8232-6.1057-5.6822-3.4121-4.275-5.523-9.3538-6.1611-14.824-0.3382-2.9003-0.131-6.5639 0.5407-9.559 1.605-7.1562 6.0563-13.573 12.258-17.669 3.7025-2.4456 7.6131-3.8892 12.306-4.5427 1.4841-0.20668 5.5504-0.20379 7.0611 5e-3 6.2072 0.85797 11.577 3.3586 15.939 7.4229 4.7121 4.3898 7.6936 9.7952 8.8258 16.001 0.3369 1.8464 0.4201 2.8792 0.4221 5.2443 0 2.3864-0.093 3.4258-0.5005 5.4921-1.0801 5.4721-3.7056 10.459-7.6154 14.466-4.6972 4.8137-10.598 7.731-17.278 8.5426-0.9824 0.11941-4.3775 0.21951-5.0791 0.14984zm4.9965-0.7468c0.6132-0.07 1.1262-0.13833 1.14-0.15193 0.014-0.0136-0.1054-0.10531-0.2648-0.20385-0.3946-0.24382-1.0107-0.94349-1.136-1.29-0.1244-0.34474-0.1938-0.35495-0.3506-0.0517-0.2232 0.43164-0.9131 1.1166-1.5359 1.5251l-0.6194 0.40621 0.826-0.0532c0.4542-0.0292 1.3274-0.11052 1.9407-0.18046zm-3.4445-0.19734c1.9818-0.6165 3.2724-2.7058 2.9668-4.8028-0.3959-2.7161-3.2116-4.4284-5.7606-3.5032-1.013 0.36768-1.6971 0.90969-2.2733 1.8013-0.5045 0.78076-0.6143 1.1979-0.6143 2.3359 0 1.1382 0.1105 1.5597 0.6122 2.3279 0.7087 1.0859 1.7394 1.7816 2.9804 2.0117 0.5206 0.0965 1.4823 0.01791 2.0888-0.17078zm-4.1949-0.0798c-0.377-0.24837-1.0969-0.9874-1.3464-1.3824-0.1219-0.1939-0.2413-0.35142-0.264-0.35007-0.02299 0.0011-0.1426 0.16942-0.2665 0.37346-0.1302 0.21453-0.3816 0.46595-0.5961 0.59615-0.204 0.12386-0.3722 0.24838-0.3736 0.27677 0 0.0577 0 0.0577 1.6079 0.39669 1.4289 0.30081 1.5759 0.31143 1.2387 0.0894zm10.986-0.44338c0.7981-0.37164 1.2712-1.0484 1.341-1.9182 0.1118-1.3923-0.9093-2.4696-2.3338-2.4626-1.2081 6e-3 -2.1383 0.87512-2.2496 2.1019-0.1556 1.7156 1.6806 3.0061 3.2424 2.2789zm2.4863-0.58251c2.6413-0.90501 4.9729-2.1041 7.2773-3.7426 0.3977-0.28286 0.8347-0.60953 0.971-0.72592l0.2477-0.21166-0.4485 0.21877c-1.1749 0.57296-2.734 1.053-4.1763 1.2858-0.8531 0.1377-3.3649 0.13748-4.1984 0-0.3559-0.0588-0.6635-0.0907-0.6834-0.0706-0.02 0.02 0.063 0.22932 0.1861 0.46515 0.4294 0.82764 0.351 2.0709-0.18 2.8533-0.1093 0.16085-0.1671 0.29246-0.1286 0.29246 0.039 0 0.5484-0.16391 1.1331-0.36428zm-16.493-0.10214c1.0139-0.50534 1.2902-1.8313 0.5647-2.7115-0.6299-0.76415-1.8422-0.83115-2.5684-0.14194-0.7572 0.7187-0.728 1.9985 0.06 2.6272 0.6164 0.49179 1.2604 0.56672 1.9437 0.2262zm-2.8839-0.39072c0-0.0172-0.056-0.16463-0.1245-0.32772-0.1796-0.43005-0.1576-1.334 0.043-1.7767 0.09-0.19802 0.1635-0.36719 0.1635-0.37598 0-9e-3 -0.3252 0.0347-0.7227 0.0964-1.3606 0.21161-3.3638 0.0114-4.6455-0.46283-0.5411-0.20041-0.4901-0.15825 0.8128 0.67232 1.3077 0.83348 4.4727 2.3723 4.4727 2.1745zm-0.2066-3.0578c3.7782-0.81176 6.6171-3.7991 7.189-7.5648 0.7082-4.6638-2.1816-9.0032-6.8033-10.215-0.6985-0.18327-0.9743-0.21008-2.2026-0.21431-1.2601-4e-3 -1.4858 0.01709-2.2025 0.20947-3.9731 1.0663-6.6419 4.3183-6.8963 8.4034-0.091 1.4759 0.2235 2.9928 0.9185 4.4184 0.9328 1.9133 2.3778 3.3512 4.2727 4.2517 0.7762 0.36877 1.9043 0.71267 2.7065 0.82503 0.718 0.10061 2.2985 0.0412 3.018-0.11344zm4.0056-0.12462c0-0.13221 0.07-0.46629 0.1562-0.74238 0.094-0.30159 0.1182-0.47762 0.062-0.44094-0.052 0.0335-0.3675 0.24183-0.7016 0.46279l-0.6071 0.40173 0.3181 0.14671c0.1749 0.0807 0.3924 0.20534 0.4834 0.27698 0.236 0.18624 0.2889 0.16703 0.2889-0.10493zm10.928-0.46604 0.4083-0.1892-0.5681-0.29269c-0.3125-0.161-0.7593-0.4062-0.9928-0.54489l-0.4246-0.2522 0.1908 0.47655c0.1054 0.26208 0.2357 0.70847 0.2906 0.99196l0.1004 0.51541 0.2937-0.25788c0.1616-0.14183 0.4775-0.34301 0.7021-0.44706zm7.7492 0.454c2.3201-0.23672 4.479-1.0108 6.3921-2.2919 5.1845-3.4719 7.4006-10.007 5.41-15.955-0.3123-0.93283-1.274-2.8075-1.8746-3.6538-0.6028-0.84952-2.0863-2.3523-2.9649-3.0035-5.3572-3.9704-12.793-3.5958-17.661 0.88964-2.5033 2.3066-4.0291 5.3363-4.4231 8.7822-0.3551 3.1054 0.4752 6.4314 2.2884 9.1672 2.7785 4.1921 7.8237 6.5767 12.833 6.0655zm-14.74-4.25c0.8111-0.17189 1.3492-0.15216 2.4198 0.0887l0.2861 0.0644-0.4225-0.48875c-0.6295-0.72816-1.3033-1.7749-1.8369-2.8538l-0.4754-0.96106-0.1041 0.79479c-0.1394 1.0659-0.4271 2.028-0.9084 3.0387l-0.3992 0.83769 0.438-0.20048c0.2409-0.11026 0.692-0.25433 1.0024-0.32009zm-18.432-0.20824c-0.6263-1.2435-1.0297-2.8974-1.0305-4.2236v-0.63425l-0.3768 0.21058c-0.4409 0.24643-1.2301 0.33914-1.7245 0.20259-0.1791-0.0495-0.3332-0.0817-0.3424-0.0715-0.047 0.0522 1.169 1.8893 1.8712 2.8264 0.7252 0.96776 1.7975 2.2712 1.8684 2.2712 0.015 0-0.1042-0.26157-0.2651-0.58128zm-1.7083-5.1656c0.5345-0.26637 0.7407-0.55068 0.8771-1.2102 0.1822-0.8794-0.1181-1.5361-0.8771-1.9139-0.5606-0.27941-1.0548-0.28074-1.6094-4e-3 -1.2873 0.64152-1.2873 2.4913 0 3.1328 0.5546 0.27637 1.0488 0.27502 1.6094-4e-3zm47.879-0.69959c1.2051-2.403 2.1384-5.2278 2.5908-7.8411 0.083-0.47694 0.1367-0.88279 0.1206-0.9019-0.01699-0.019-0.113 0.0418-0.2154 0.13521-0.675 0.61852-1.9295 0.81011-2.8956 0.44229-0.1279-0.0487-0.2465-0.0885-0.2639-0.0885-0.01799 0 0.038 0.20421 0.1245 0.45383 0.4536 1.3185 0.7038 3.239 0.6349 4.8731-0.06 1.4173-0.2136 2.3587-0.6038 3.6958-0.1054 0.36241 0.088 0.07 0.5081-0.76863zm-50.337-2.5293 0.3325-0.32909-0.6011-0.299c-0.3308-0.16445-0.7818-0.44938-1.0026-0.63315-0.2206-0.18379-0.4136-0.33417-0.4286-0.33417-0.042 0 0.3403 1.1008 0.6813 1.9644l0.3027 0.7669 0.1918-0.40341c0.1055-0.22189 0.3412-0.55151 0.524-0.73251zm4.3704-0.7097c0-0.0352-0.098-0.0127-0.2231 0.0507-0.1244 0.0631-0.4239 0.17914-0.6643 0.25772l-0.4371 0.14293 0.1985 0.18409c0.1093 0.10125 0.2664 0.28747 0.3492 0.41383l0.1505 0.22973 0.3111-0.60749c0.171-0.33412 0.3129-0.63632 0.3152-0.67154zm17.267-1.6703c0.1646-1.6875 0.6556-3.4351 1.3599-4.8395 0.2056-0.41041 0.3271-0.71726 0.2698-0.68188-0.057 0.0354-0.3927 0.25726-0.745 0.49305-1.6708 1.1179-4.0034 2.0294-5.705 2.2294-0.2599 0.0305-0.4923 0.0874-0.5164 0.12652-0.024 0.039 1e-4 0.0709 0.053 0.0709 0.161 0 1.3894 0.64008 1.9284 1.0048 1.1529 0.78003 2.2726 1.9767 2.9236 3.1246l0.3044 0.53682 0.019-0.57812c0.01299-0.31796 0.059-0.98692 0.108-1.4866zm-18.388 1.4411c0.2778-0.0864 0.7366-0.30908 1.0195-0.49476 2.3403-1.5358 2.671-4.819 0.6828-6.7785-2.2765-2.2437-6.0396-1.4144-7.1978 1.5863-0.4087 1.0586-0.2612 2.7307 0.3263 3.7009 1.1118 1.8355 3.1437 2.6162 5.1692 1.986zm4.7584-3.4108c0.6698-0.3894 1.4855-0.7358 2.2711-0.96444 0.2726-0.0793 0.4398-0.16309 0.3717-0.18619-0.069-0.0231-0.4212-0.1419-0.7847-0.264-0.8663-0.29116-2.1443-0.90095-2.9931-1.4283l-0.6807-0.42288 0.1695 0.33262c0.4462 0.87435 0.6042 2.2719 0.3678 3.2511-0.066 0.27254-0.1207 0.52696-0.1232 0.56538 0 0.0384 0.1736-0.0635 0.3893-0.22668 0.2159-0.16309 0.6711-0.45858 1.0118-0.65665zm7.8577-1.2972c3.5764-0.36492 6.8514-2.057 9.1282-4.7163 1.7458-2.0391 2.7863-4.275 3.2607-7.0065 0.1373-0.79085 0.1388-3.315 0-4.1294-0.4895-2.9221-1.6857-5.3706-3.6376-7.4453-3.9036-4.1493-9.9465-5.4758-15.278-3.354-5.673 2.2577-9.2582 8.2014-8.596 14.251 0.2529 2.3094 1.0114 4.4107 2.2871 6.3353 2.7745 4.1862 7.8306 6.576 12.833 6.0655zm36.225-0.64612c0.4224-0.21549 0.9846-0.85345 1.0916-1.2386 0.1372-0.49398 0.099-1.4132-0.074-1.7941-0.3598-0.79217-1.1648-1.2989-2.0724-1.3047-1.2717-8e-3 -2.2128 0.86576-2.2939 2.1304-0.036 0.55409-0.019 0.63246 0.259 1.1833 0.3888 0.77211 0.864 1.1415 1.6114 1.2523 0.4902 0.0727 1.0599-0.0154 1.4777-0.22852zm-54.746-0.87432c0.2344-0.53005 0.585-1.0112 1.1129-1.5277l0.4613-0.45137-0.4312-0.15945c-0.532-0.1967-1.0503-0.54412-1.3412-0.89898l-0.2202-0.26873 0.048 1.2801c0.048 1.2755 0.1329 2.395 0.1813 2.395 0.014 0 0.099-0.16601 0.1888-0.36889zm51.14-2.5722 0.2178-0.42217-0.6297-0.0544c-0.3462-0.0298-0.7402-0.0781-0.8755-0.10721l-0.2458-0.053 0.3367 0.40551c0.1852 0.22303 0.4445 0.57008 0.5762 0.77122l0.2396 0.36571 0.081-0.24183c0.044-0.133 0.1795-0.43181 0.2993-0.66398zm-45.115-0.54294c-0.2425-0.28787-0.5712-0.71715-0.7301-0.95391-0.159-0.23678-0.3122-0.43145-0.3404-0.43263-0.028-0.0011-0.074 0.13785-0.1017 0.30892-0.028 0.17109-0.1751 0.51928-0.3283 0.77376l-0.2786 0.46269 0.636 0.0531c0.3499 0.0292 0.8367 0.12221 1.0818 0.20663 0.2451 0.0845 0.4582 0.14264 0.4737 0.12925 0.015-0.01331-0.1703-0.25988-0.4129-0.54777zm-2.8678 0.24346c0.7829-0.46149 1.1852-1.1591 1.1796-2.0451-0.013-1.5537-1.4599-2.6296-2.9574-2.1943-1.6994 0.49403-2.2005 2.8158-0.856 3.9666 0.4818 0.41256 0.8968 0.54174 1.6429 0.5116 0.4979-0.02019 0.7043-0.0699 0.9909-0.23881zm52.764-2.0862c-0.053-0.72669-0.1118-1.3368-0.1313-1.3558-0.042-0.0418-0.01299-0.0892-0.3649 0.60257-0.1589 0.31259-0.5188 0.81719-0.7997 1.1214l-0.5108 0.55302 0.4032 0.10327c0.4291 0.11001 1.2548 0.64837 1.3697 0.89306 0.1219 0.26076 0.136-0.51676 0.034-1.9175zm-3.4609 1.0811c2.4718-0.85723 3.6477-3.6778 2.5151-6.0327-1.4761-3.0686-5.7198-3.3514-7.6085-0.50693-0.4563 0.68731-0.6299 1.2304-0.6756 2.1139-0.07 1.3506 0.2574 2.3021 1.1077 3.2206 0.7076 0.76428 1.5275 1.2247 2.5056 1.4073 0.5554 0.10365 1.5405 0.0114 2.1557-0.2021zm-20.146-2.8824c0.947-0.46379 2.5015-0.99063 3.4552-1.1712 1.2312-0.23296 1.1889-0.19177 0.5147-0.50143-1.6202-0.74418-3.2587-2.1861-4.1691-3.6692l-0.4748-0.77357v0.696c0 2.0474-0.5566 4.4197-1.4479 6.1946l-0.3688 0.73429 0.8547-0.56332c0.4701-0.30982 1.2066-0.7356 1.6366-0.94621zm13.944 0.13668c-0.2187-0.70112-0.242-2.0004-0.047-2.6301 0.07-0.22712 0.128-0.41843 0.1285-0.42511 0-6e-3 -0.3057 0.19419-0.6805 0.44643-0.8329 0.56071-1.7901 1.0183-2.6487 1.2663l-0.6461 0.18659 0.9764 0.34338c1.1128 0.3913 1.8326 0.71259 2.5455 1.1361 0.2725 0.16189 0.5075 0.28254 0.522 0.26812 0.014-0.01429-0.053-0.28062-0.1499-0.59163zm-46.021-0.5323c0.5101-0.44789 0.9611-0.5994 1.7951-0.60307 0.5955-3e-3 0.8229 0.0329 1.144 0.17921 0.2806 0.1278 0.3878 0.14877 0.3576 0.07-0.024-0.0619-0.1169-0.36805-0.2085-0.68046-0.8388-2.8822-0.7799-5.8479 0.1725-8.6993 0.1524-0.45622 0.2691-0.82949 0.2594-0.82949-0.041 0-0.7869 1.3448-1.1714 2.1122-1.0403 2.0765-1.819 4.2665-2.3243 6.5362-0.2057 0.92459-0.4098 2.1705-0.3555 2.1705 0.022 0 0.1708-0.11522 0.3311-0.2559zm41.874-1.1875c2.6995-0.57579 5.0018-2.3503 6.2421-4.8109 1.2177-2.4161 1.2549-5.3914 0.098-7.8371-1.2278-2.5951-3.4592-4.3852-6.282-5.0397-0.5089-0.11801-0.9642-0.15123-1.9821-0.14474-1.1434 8e-3 -1.4302 0.0374-2.1289 0.22294-0.9193 0.24422-2.1052 0.78007-2.8778 1.3004-0.7275 0.49001-1.8056 1.5565-2.3076 2.2826-3.198 4.6261-1.4839 11.024 3.5807 13.364 1.7044 0.78752 3.8784 1.0422 5.6575 0.66267zm12.152-4.3895c-0.234-0.63018-0.4529-1.196-0.4864-1.2574-0.042-0.0769-0.1405 0.0296-0.3165 0.34126-0.1406 0.24912-0.3774 0.54826-0.5264 0.66478-0.1487 0.11648-0.2531 0.22487-0.2318 0.24081 0.02201 0.0159 0.2851 0.15121 0.586 0.30057s0.7284 0.43168 0.9498 0.62737c0.2213 0.19568 0.4134 0.32713 0.4266 0.2921 0.01299-0.0351-0.1673-0.57928-0.4013-1.2095zm-4.8075 9e-3 0.5138-0.1808-0.215-0.19804c-0.1182-0.10899-0.2758-0.29577-0.35-0.41519l-0.1349-0.21712-0.3058 0.65855c-0.2356 0.50743-0.2732 0.64421-0.1639 0.59597 0.078-0.0344 0.3733-0.14394 0.6558-0.24337zm2.9441-0.58935c0.4221-0.29245 0.7953-0.98421 0.7953-1.4741 0-0.20948-0.088-0.5156-0.2271-0.78991-0.2979-0.5876-0.7355-0.89509-1.3665-0.96021-1.9912-0.20552-2.7353 2.5077-0.9253 3.3744 0.4888 0.23412 1.2666 0.16636 1.7236-0.15017zm-0.9214-3.7866c0.3991 0 0.7257-0.0102 0.7257-0.0216-1e-4 -0.0639-0.9688-1.5735-1.3696-2.134-0.4605-0.64431-1.4291-1.8665-1.9243-2.4281l-0.2548-0.28906 0.3235 0.70246c0.5873 1.2749 0.9127 2.7035 0.9127 4.0071v0.60946l0.4307-0.22314c0.3721-0.1929 0.5289-0.22317 1.1561-0.22317zm-20.753-1.3033c0.1368-1.0407 0.4451-2.0378 0.9377-3.0326 0.2362-0.47694 0.4425-0.89575 0.4582-0.9307 0.015-0.0349-0.095 8e-3 -0.247 0.096-0.813 0.47047-2.2759 0.68639-3.249 0.47957-0.318-0.0676-0.5888-0.11306-0.6017-0.10112-0.01299 0.0114 0.1573 0.24026 0.3786 0.50737 0.2215 0.26712 0.5954 0.77348 0.8312 1.1252 0.4449 0.66383 1.3327 2.3586 1.3327 2.5442 0 0.28235 0.074-0.0353 0.1593-0.68799zm0.1952-4.108c1.9817-0.61651 3.2724-2.7058 2.9667-4.8028-0.3178-2.1807-2.1305-3.7358-4.3536-3.7348-1.8521 1e-3 -3.534 1.1976-4.145 2.9493-0.2105 0.60337-0.2105 2.2355 0 2.8388 0.4184 1.1997 1.4199 2.2192 2.6383 2.6855 0.9032 0.34572 1.9159 0.3681 2.8936 0.0639zm-6.0667-2.579c-0.1271-0.37473-0.2314-0.84246-0.2324-1.0394v-0.35801l-0.3788 0.33351c-0.2084 0.18342-0.5401 0.41153-0.737 0.50689l-0.3582 0.17336 0.7129 0.37285c0.3918 0.20507 0.8072 0.4435 0.9227 0.52987 0.1156 0.0864 0.2311 0.1582 0.2566 0.15964 0.025 1e-3 -0.057-0.30399-0.1841-0.67873zm9.6645 0.19623c0.1655-0.13055 0.4813-0.35139 0.702-0.49078l0.4009-0.25344-0.277-0.11611c-0.1525-0.0639-0.3932-0.214-0.5351-0.33363l-0.258-0.21752-0.098 0.49723c-0.053 0.27346-0.1498 0.64444-0.2132 0.82441-0.063 0.17995-0.094 0.32719-0.069 0.32719s0.1818-0.10683 0.3473-0.23735zm-21.924-1.0728c1.6338-0.53995 2.9662-0.75631 4.6311-0.75203 0.9049 3e-3 1.8779 0.0851 2.4555 0.20883l0.2233 0.0479-0.2639-0.52192c-0.2391-0.47258-0.2641-0.59288-0.2648-1.2725 0-0.68223 0.023-0.79699 0.2619-1.2594 0.1443-0.27987 0.2298-0.50885 0.19-0.50885-0.1706 0-1.5084 0.46085-2.5433 0.87613-2.1291 0.85433-4.4414 2.1472-6.2369 3.4872-1.2116 0.9043-1.2145 0.90886-0.2669 0.43362 0.4481-0.22473 1.2644-0.55722 1.814-0.73888zm10.828-0.29637c0.7776-0.4557 1.1639-1.2311 1.0948-2.1974-0.079-1.1054-0.8573-1.9208-2.0091-2.1049-0.7168-0.11458-1.7069 0.32566-2.1411 0.95218-0.6421 0.92658-0.578 2.049 0.1644 2.8747 0.7324 0.8146 1.9662 1.0175 2.891 0.47547zm13.777-0.15651c1.0949-0.64165 1.1357-2.2331 0.076-2.9768-0.7566-0.53121-1.9315-0.31354-2.4653 0.45669-0.3191 0.46028-0.3807 1.2878-0.1321 1.7714 0.4959 0.96464 1.5954 1.2912 2.521 0.74878zm6.166-0.0817c-1.2101-0.80863-4.1345-2.3602-4.839-2.5674l-0.1737-0.0511 0.1503 0.4353c0.192 0.55546 0.1902 0.98063 0 1.5494-0.086 0.24933-0.1452 0.46459-0.1315 0.47832 0.014 0.0137 0.262-0.0133 0.5515-0.0605 1.2429-0.20167 3.0956-0.0417 4.2687 0.36861 0.7704 0.26938 0.7885 0.25403 0.1798-0.15269zm-9.1332-2.5994c0.1535-0.29657 0.5978-0.73528 0.9165-0.90496l0.2479-0.13186-0.3717-0.10989c-0.4575-0.13521-2.2671-0.52072-2.4444-0.52072-0.074 0 0.069 0.18043 0.3319 0.42131 0.2535 0.23174 0.6148 0.65913 0.8027 0.94975 0.188 0.29065 0.3543 0.52845 0.3695 0.52845 0.015 0 0.081-0.10442 0.1476-0.23214zm-8.8496-0.28403c0.3899-0.5802 0.9066-1.0901 1.5074-1.488l0.4956-0.32813-0.9911 0.0544c-1.0342 0.0567-2.4783 0.19805-2.6739 0.26168-0.074 0.0239 0 0.12081 0.2133 0.2738 0.4579 0.33172 0.8318 0.80735 0.9964 1.2676 0.078 0.21576 0.145 0.39228 0.1506 0.39228 0 0 0.1412-0.19509 0.3017-0.43358z" enable-background="new" fill="url(#linearGradient7735)" stroke="url(#linearGradient7016)" stroke-linecap="round" stroke-linejoin="round" stroke-width=".79375" style="paint-order:markers stroke fill"/>
 </g>
</svg>
