<?xml version="1.0" encoding="UTF-8"?>
<svg width="67.733mm" height="67.733mm" version="1.1" viewBox="0 0 67.733 67.733" xmlns="http://www.w3.org/2000/svg" xmlns:cc="http://creativecommons.org/ns#" xmlns:dc="http://purl.org/dc/elements/1.1/" xmlns:rdf="http://www.w3.org/1999/02/22-rdf-syntax-ns#" xmlns:xlink="http://www.w3.org/1999/xlink">
 <defs>
  <linearGradient id="linearGradient47378" x1="781.29" x2="930.03" y1="125.51" y2="125.51" gradientTransform="matrix(.62425 0 0 .6242 1424.1 -20.236)" gradientUnits="userSpaceOnUse">
   <stop stop-color="#26fffa" offset="0"/>
   <stop stop-color="#eb00c2" offset="1"/>
  </linearGradient>
 </defs>
 <metadata>
  <rdf:RDF>
   <cc:Work rdf:about="">
    <dc:format>image/svg+xml</dc:format>
    <dc:type rdf:resource="http://purl.org/dc/dcmitype/StillImage"/>
    <dc:title/>
   </cc:Work>
  </rdf:RDF>
 </metadata>
 <g transform="translate(8.5226 10.543)">
  <g transform="matrix(.62745 0 0 .62745 -1203.7 -12.313)" enable-background="new" opacity=".97">
   <circle cx="1958.8" cy="56.796" r="53.71" fill="#1a1a1a" opacity="1" stroke="#fff" stroke-linecap="square" stroke-width=".52917" style="paint-order:markers stroke fill"/>
   <path d="m1957.8 82.227c-6.3686-0.37938-12.088-2.8979-16.529-7.278-4.2345-4.1769-6.759-9.3314-7.4862-15.286-0.1471-1.2034-0.1659-4.3075-0.033-5.4684 0.3549-3.1051 1.1107-5.7533 2.4117-8.4503 2.5297-5.2433 6.6443-9.3586 11.887-11.889 3.338-1.6108 6.5933-2.4016 10.35-2.5139 5.9895-0.17915 11.847 1.7756 16.536 5.5182 2.984 2.3817 5.4236 5.4182 7.0419 8.7651 1.335 2.761 2.0744 5.3151 2.436 8.4151 0.1592 1.3643 0.1599 4.1596 0 5.4895-0.5444 4.5672-2.0693 8.5269-4.6872 12.171l-0.4791 0.66687 8.5562 8.4957-6.9341 6e-3 -1.2374-1.2374-1.2375-1.2374-2.4752-2.4748-0.8596 0.69444c-3.6084 2.9151-8.0332 4.8141-12.628 5.4193-1.4883 0.19602-3.3061 0.2715-4.6344 0.19237zm3.4674-5.3599c2.9293-0.32696 5.8085-1.2995 8.2682-2.7927 0.7794-0.47316 1.8964-1.2585 2.3672-1.6641l0.2333-0.20114-7.2009-7.2105 1.9002 9e-3c1.045 4e-3 2.6127 0.0275 3.4836 0.0501l1.5835 0.041 1.7965 1.7519 1.7964 1.7519 0.4271-0.65155c3.0812-4.701 4.0906-10.255 2.851-15.69-0.8366-3.6673-2.7338-7.0788-5.4337-9.7705-3.0153-3.006-6.7791-4.9363-10.972-5.6272-9.5493-1.5733-18.83 3.8338-22.233 12.954-0.4799 1.2856-0.925 3.1665-1.115 4.7109-0.1129 0.91853-0.1126 3.5644 0 4.5015 0.6859 5.6747 3.4979 10.56 8.0427 13.972 3.0021 2.2538 6.6485 3.6108 10.571 3.9339 0.8055 0.0664 2.7548 0.0296 3.6341-0.0686z" fill="#fff" opacity="1" stroke="#fefefe" stroke-linecap="square" stroke-width="2.6458" style="paint-order:markers stroke fill"/>
   <path d="m2001.7 56.995c8.3335 15.551-6.8752 11.635-10.062 27.817m-0.053-0.0458c-3.4097 17.311-12.856 4.3521-25.583 14.843m-0.012-0.069c-13.615 11.223-12.645-5.1018-29.139-5.0693m0.034-0.061c-17.645 0.0347-6.302-12.167-19.066-22.611m0.065-0.0252c-13.655-11.173 2.3726-13.261-0.065-29.572m0.065 0.0252c-2.6081-17.449 10.495-8.5468 18.967-22.697m0.034 0.061c9.063-15.138 13.588 0.36163 29.116-5.1993m-0.012 0.069c16.611-5.949 10.115 9.1815 25.648 14.728m-0.053 0.0457c16.617 5.9336 1.6852 13.636 10.186 27.769" fill="none" stroke="url(#linearGradient47378)" stroke-width="2.1167"/>
  </g>
 </g>
</svg>
