<?xml version="1.0" encoding="UTF-8" standalone="no"?>
<!-- Created with Inkscape (http://www.inkscape.org/) -->

<svg
   xmlns:dc="http://purl.org/dc/elements/1.1/"
   xmlns:cc="http://creativecommons.org/ns#"
   xmlns:rdf="http://www.w3.org/1999/02/22-rdf-syntax-ns#"
   xmlns:svg="http://www.w3.org/2000/svg"
   xmlns="http://www.w3.org/2000/svg"
   xmlns:xlink="http://www.w3.org/1999/xlink"
   xmlns:sodipodi="http://sodipodi.sourceforge.net/DTD/sodipodi-0.dtd"
   xmlns:inkscape="http://www.inkscape.org/namespaces/inkscape"
   width="30in"
   height="72in"
   viewBox="0 0 762.00001 1828.7999"
   version="1.1"
   id="svg23478"
   inkscape:version="0.92.3 (2405546, 2018-03-11)"
   sodipodi:docname="banner2.svg">
  <sodipodi:namedview
     id="base"
     pagecolor="#ffffff"
     bordercolor="#666666"
     borderopacity="1.0"
     inkscape:pageopacity="0.0"
     inkscape:pageshadow="2"
     inkscape:zoom="0.12374369"
     inkscape:cx="4939.298"
     inkscape:cy="3499.8398"
     inkscape:document-units="in"
     inkscape:current-layer="g1698"
     showgrid="false"
     units="in"
     inkscape:window-width="1920"
     inkscape:window-height="1017"
     inkscape:window-x="-8"
     inkscape:window-y="-8"
     inkscape:window-maximized="1" />
  <defs
     id="defs23472">
    <linearGradient
       inkscape:collect="always"
       id="linearGradient24534">
      <stop
         style="stop-color:#000000;stop-opacity:1;"
         offset="0"
         id="stop24530" />
      <stop
         style="stop-color:#000000;stop-opacity:0;"
         offset="1"
         id="stop24532" />
    </linearGradient>
    <linearGradient
       inkscape:collect="always"
       id="linearGradient24346">
      <stop
         id="stop24344"
         offset="0"
         style="stop-color:#eb0068;stop-opacity:1" />
      <stop
         style="stop-color:#7a6df0;stop-opacity:1"
         offset="0.5"
         id="stop24342" />
      <stop
         id="stop24340"
         offset="1"
         style="stop-color:#26fffa;stop-opacity:1" />
    </linearGradient>
    <linearGradient
       id="linearGradient5199-4-5-6"
       inkscape:collect="always">
      <stop
         id="stop5195"
         offset="0"
         style="stop-color:#26fffa;stop-opacity:1" />
      <stop
         style="stop-color:#7a6df0;stop-opacity:1"
         offset="0.5"
         id="stop5201" />
      <stop
         id="stop5197"
         offset="1"
         style="stop-color:#eb0068;stop-opacity:1" />
    </linearGradient>
    <linearGradient
       y2="9.4459543"
       x2="508.99756"
       y1="9.4459543"
       x1="300.72223"
       gradientUnits="userSpaceOnUse"
       id="linearGradient24215"
       xlink:href="#linearGradient5199-4-5-6"
       inkscape:collect="always" />
    <linearGradient
       gradientUnits="userSpaceOnUse"
       y2="245.64642"
       x2="358.29193"
       y1="52.148903"
       x1="50.912991"
       id="linearGradient24250"
       xlink:href="#linearGradient4647"
       inkscape:collect="always" />
    <linearGradient
       y2="9.4459543"
       x2="508.99756"
       y1="9.4459543"
       x1="300.72223"
       gradientUnits="userSpaceOnUse"
       id="linearGradient21360"
       xlink:href="#linearGradient4647"
       inkscape:collect="always"
       gradientTransform="matrix(0.82727562,0,0,0.82727562,69.242921,43.586321)" />
    <linearGradient
       id="linearGradient4647"
       inkscape:collect="always">
      <stop
         id="stop4626"
         offset="0"
         style="stop-color:#00c1f6;stop-opacity:1" />
      <stop
         style="stop-color:#3affc2;stop-opacity:1"
         offset="0.5"
         id="stop4649" />
      <stop
         id="stop4628"
         offset="1"
         style="stop-color:#ffb654;stop-opacity:1" />
    </linearGradient>
    <linearGradient
       gradientTransform="matrix(0.88043397,0,0,0.88043397,12.030858,0.68240561)"
       y2="245.64642"
       x2="358.29193"
       y1="52.148903"
       x1="50.912991"
       gradientUnits="userSpaceOnUse"
       id="linearGradient24293"
       xlink:href="#linearGradient4647"
       inkscape:collect="always" />
    <linearGradient
       gradientTransform="translate(-38.680105)"
       y2="9.4459543"
       x2="508.99756"
       y1="9.4459543"
       x1="340.25555"
       gradientUnits="userSpaceOnUse"
       id="linearGradient24334"
       xlink:href="#linearGradient24346"
       inkscape:collect="always" />
    <linearGradient
       gradientTransform="translate(-38.680105)"
       y2="9.4459543"
       x2="508.99756"
       y1="9.4459543"
       x1="339.99133"
       gradientUnits="userSpaceOnUse"
       id="linearGradient24336"
       xlink:href="#linearGradient24346"
       inkscape:collect="always" />
    <linearGradient
       y2="9.4459543"
       x2="508.99756"
       y1="9.4459543"
       x1="300.72223"
       gradientUnits="userSpaceOnUse"
       id="linearGradient24338"
       xlink:href="#linearGradient24346"
       inkscape:collect="always" />
    <linearGradient
       inkscape:collect="always"
       xlink:href="#linearGradient24534"
       id="linearGradient24536"
       x1="231.01994"
       y1="170.76909"
       x2="478.02712"
       y2="170.76909"
       gradientUnits="userSpaceOnUse" />
    <linearGradient
       inkscape:collect="always"
       xlink:href="#linearGradient5199-4-5-6"
       id="linearGradient24544"
       x1="300.91174"
       y1="9.4459543"
       x2="431.48306"
       y2="9.4459543"
       gradientUnits="userSpaceOnUse" />
    <linearGradient
       inkscape:collect="always"
       xlink:href="#linearGradient24346"
       id="linearGradient24554"
       x1="339.59183"
       y1="9.4459543"
       x2="470.16318"
       y2="9.4459543"
       gradientUnits="userSpaceOnUse" />
    <linearGradient
       inkscape:collect="always"
       xlink:href="#linearGradient24346"
       id="linearGradient24556"
       gradientUnits="userSpaceOnUse"
       x1="339.59183"
       y1="9.4459543"
       x2="470.16318"
       y2="9.4459543" />
    <linearGradient
       inkscape:collect="always"
       xlink:href="#linearGradient24346"
       id="linearGradient24558"
       gradientUnits="userSpaceOnUse"
       x1="339.59183"
       y1="9.4459543"
       x2="470.16318"
       y2="9.4459543" />
    <linearGradient
       inkscape:collect="always"
       xlink:href="#linearGradient24346"
       id="linearGradient24560"
       gradientUnits="userSpaceOnUse"
       x1="339.59183"
       y1="9.4459543"
       x2="470.16318"
       y2="9.4459543" />
    <linearGradient
       inkscape:collect="always"
       xlink:href="#linearGradient24346"
       id="linearGradient24562"
       gradientUnits="userSpaceOnUse"
       x1="339.59183"
       y1="9.4459543"
       x2="470.16318"
       y2="9.4459543" />
    <linearGradient
       inkscape:collect="always"
       xlink:href="#linearGradient24346"
       id="linearGradient24564"
       gradientUnits="userSpaceOnUse"
       x1="339.59183"
       y1="9.4459543"
       x2="470.16318"
       y2="9.4459543" />
  </defs>
  <metadata
     id="metadata23475">
    <rdf:RDF>
      <cc:Work
         rdf:about="">
        <dc:format>image/svg+xml</dc:format>
        <dc:type
           rdf:resource="http://purl.org/dc/dcmitype/StillImage" />
        <dc:title></dc:title>
      </cc:Work>
    </rdf:RDF>
  </metadata>
  <g
     transform="translate(0,1531.8)"
     id="layer1"
     inkscape:groupmode="layer"
     inkscape:label="Layer 1">
    <g
       transform="matrix(3.8832039,0,0,3.8832039,-25.229641,-1003.674)"
       id="g1698"
       style="display:inline;enable-background:new">
      <circle
         r="106.42877"
         cy="92.677414"
         cx="104.78217"
         id="path24312"
         style="opacity:1;fill:#454545;fill-opacity:1;fill-rule:nonzero;stroke:#ffedd6;stroke-width:1.88702869;stroke-linecap:round;stroke-linejoin:miter;stroke-miterlimit:4;stroke-dasharray:none;stroke-opacity:1;paint-order:markers stroke fill" />
      <path
         style="opacity:1;fill:url(#linearGradient24293);fill-opacity:1;fill-rule:nonzero;stroke:none;stroke-width:2.31640768;stroke-linecap:round;stroke-linejoin:round;stroke-miterlimit:4;stroke-dasharray:none;stroke-opacity:1;paint-order:markers stroke fill"
         d="m 34.651024,117.51074 c 1.067567,-5.37281 1.264833,-33.854408 0.313662,-45.287005 -0.551385,-6.627301 -0.511191,-9.256007 0.135404,-8.856384 1.773653,1.096183 21.376326,-16.684798 29.385629,-26.654817 7.865549,-9.791049 11.619626,-13.461995 12.781073,-12.498071 1.36273,1.130969 35.318328,1.474965 47.837848,0.484635 6.86867,-0.543326 9.68347,-0.503706 9.29134,0.130779 -0.30941,0.500635 1.67265,3.386849 4.4046,6.413801 2.73195,3.026955 6.88422,7.758287 9.22727,10.514061 2.34303,2.755774 8.56493,8.429133 13.82642,12.607473 10.32008,8.195537 13.00647,10.789004 12.32229,11.89602 -0.24084,0.389687 -0.90207,6.733309 -1.46937,14.09693 -0.881,11.434949 -0.82946,15.116035 0.35324,25.229158 1.55343,13.28337 1.78979,20.8144 0.594,18.92583 -1.05365,-1.66402 -18.85994,14.04518 -26.10785,23.03307 -10.59999,13.1447 -14.81102,17.65425 -15.47794,16.57518 -0.41316,-0.66848 -4.95762,-1.30487 -12.70809,-1.77957 -12.08392,-0.74012 -14.02482,-0.70934 -35.572854,0.56421 -8.158121,0.48216 -11.41876,0.4117 -11.017155,-0.23809 0.540932,-0.87524 -6.349684,-9.58234 -14.731704,-18.61522 C 55.92827,141.77825 50.244028,136.4802 45.407195,132.27926 33.525858,121.95993 33.715271,122.22002 34.651024,117.51074 Z"
         id="path2677"
         inkscape:connector-curvature="0" />
      <path
         style="display:inline;opacity:0.97000002;fill:none;fill-opacity:1;stroke:url(#linearGradient21360);stroke-width:1.31330001;stroke-linecap:square;stroke-linejoin:bevel;stroke-miterlimit:4;stroke-dasharray:none;stroke-opacity:1;enable-background:new"
         d="m 489.66754,77.980272 h -32.12673 c -22.11119,0 -34.92503,-53.159089 -53.3526,-53.159089 -18.81933,0 -31.24139,53.159089 -53.35259,53.159089 h -32.15589"
         id="path21300"
         inkscape:connector-curvature="0"
         sodipodi:nodetypes="cccsc"
         inkscape:tile-x0="202.09218"
         inkscape:tile-y0="549.27497" />
      <path
         style="opacity:1;fill:#60ffab;fill-opacity:1;fill-rule:nonzero;stroke:none;stroke-width:2.0865345;stroke-linecap:round;stroke-linejoin:round;stroke-miterlimit:4;stroke-dasharray:none;stroke-opacity:1;paint-order:markers stroke fill"
         d="m 96.924851,180.04281 c -6.887517,-1.5792 -14.247203,-5.24375 -20.215039,-10.06555 -3.509851,-2.83581 -3.66995,-2.90275 -8.090359,-3.38158 -10.949983,-1.18616 -22.297075,-7.11045 -28.563376,-14.91288 -4.788771,-5.96273 -8.486501,-15.69919 -9.3709,-24.67443 -0.329997,-3.34894 -0.563011,-3.86976 -3.419758,-7.64363 -3.995692,-5.2785 -7.003848,-11.1051 -8.342385,-16.15865 C 17.47993,97.757693 17.348115,88.060749 18.651551,83.234434 20.050934,78.052866 24.28469,69.84366 27.6485,65.789452 c 2.980854,-3.592649 3.010393,-3.661668 3.68392,-8.606956 2.720717,-19.976601 14.851956,-33.365956 33.820658,-37.328165 2.008288,-0.419497 4.74491,-0.766794 6.081377,-0.771778 2.086786,-0.0078 2.823946,-0.330009 5.219933,-2.281764 9.194593,-7.4898644 18.369259,-10.9645422 28.864492,-10.931712 10.53326,0.032958 19.24696,3.46313 28.4626,11.204407 2.11878,1.779811 2.6931,2.000416 5.21633,2.003667 9.95293,0.01282 23.32322,6.617219 30.38472,15.008854 4.70656,5.593108 8.54068,15.278749 9.49333,23.981805 0.32408,2.960624 0.67089,3.683282 3.74921,7.812263 6.76603,9.075341 9.65342,17.006388 9.73639,26.743772 0.0873,10.252605 -3.19684,19.107425 -10.21879,27.551815 -1.92438,2.31421 -2.46742,3.37748 -2.47777,4.85154 -0.0474,6.7627 -2.98963,16.11122 -7.2019,22.88341 -6.45873,10.38383 -18.15909,17.41088 -31.18909,18.73157 -3.9812,0.40355 -4.57145,0.6122 -6.397,2.26147 -5.11785,4.62366 -12.01872,8.37565 -18.95512,10.30581 -5.05521,1.40672 -14.65889,1.82801 -18.996939,0.83335 z m -5.455377,-21.74697 c 10.647316,-0.60707 23.119346,-0.39027 34.871206,0.60613 3.96059,0.33581 6.22127,0.32486 6.89063,-0.0334 0.5479,-0.29322 3.40106,-3.40543 6.34036,-6.91605 9.16938,-10.95163 13.4806,-15.43602 21.562,-22.42805 4.30348,-3.72337 8.47003,-7.33058 9.259,-8.01596 1.66477,-1.44622 1.63153,-0.92481 0.66457,-10.42759 -1.55416,-15.273439 -1.5456,-23.47939 0.044,-42.256873 l 0.31465,-3.716859 -7.73983,-6.454993 c -4.25691,-3.550228 -9.36559,-7.980761 -11.3526,-9.845602 -3.40814,-3.198574 -15.52294,-16.796727 -18.15009,-20.372406 l -1.20796,-1.644093 -4.43388,0.258134 c -2.43864,0.141974 -9.12858,0.554774 -14.86656,0.917333 -9.0928,0.574538 -11.90653,0.54724 -21.908615,-0.212543 C 85.444587,27.27356 79.791434,26.750534 79.1938,26.590739 c -1.209035,-0.323267 -3.570327,1.923367 -8.820893,8.392562 -6.09426,7.508711 -12.217508,13.667757 -21.364098,21.488995 -5.178702,4.428299 -9.637055,8.526467 -9.907454,9.107024 -0.315169,0.676692 -0.258339,3.613406 0.158327,8.181662 1.420843,15.577878 1.200258,27.800568 -0.78434,43.460678 -0.300285,2.36951 -0.246155,2.48805 2.230666,4.8858 1.396128,1.35158 4.533666,4.1288 6.972304,6.17161 8.347953,6.99303 18.205258,17.52135 27.04161,28.88247 1.612298,2.07299 1.841553,2.18903 3.897591,1.97253 1.201497,-0.12653 6.984856,-0.50374 12.851921,-0.83825 z"
         id="path4774"
         inkscape:connector-curvature="0" />
      <g
         style="fill:#00a371;fill-opacity:1"
         id="g24300">
        <g
           id="g7628"
           transform="matrix(0,1.1275302,-1.1275302,0,272.08545,-409.93582)"
           style="display:inline;fill:#00a371;fill-opacity:1;stroke:none;stroke-width:0.77646929">
          <path
             style="opacity:1;fill:#00a371;fill-opacity:1;fill-rule:nonzero;stroke:none;stroke-width:3.88259101;stroke-linecap:round;stroke-linejoin:round;stroke-miterlimit:4;stroke-dasharray:none;stroke-opacity:1;paint-order:markers stroke fill"
             d="m 488.92888,189.99304 c 1.29865,-1.24672 2.02098,-1.86144 3.09852,-2.83241 3.05221,-2.75032 5.58376,-4.44564 9.51562,-7.868 1.50076,-1.30629 4.87794,-4.32472 4.95488,-4.31569 0.0234,0.003 0.0663,0.76501 -0.0225,1.74952 l -0.16145,1.79002 -0.52183,0.46945 c -0.69233,0.62283 -2.11496,1.78687 -2.13586,1.82382 -0.009,0.0161 0.31385,0.22525 0.71772,0.46473 0.67379,0.39953 0.74614,0.45251 0.87799,0.64289 0.53089,0.76654 0.14713,1.79671 -0.74151,1.9942 -0.51432,0.1143 -0.60406,0.0797 -1.87063,-0.72076 l -1.07344,-0.67842 -0.54897,0.46089 c -0.30194,0.25348 -0.68261,0.57854 -0.84595,0.72234 l -0.21566,0.12738 1.98621,1.41298 1.98621,1.41298 0.14367,0.25949 c 0.41942,0.75754 0.0193,1.66911 -0.81925,1.86665 -0.15327,0.0361 -0.3762,0.0533 -0.49541,0.0383 -0.21579,-0.0273 -0.22694,-0.0345 -2.54741,-1.64972 l -2.33067,-1.62234 -0.13719,0.11411 c -0.22269,0.18523 -1.31787,1.03616 -1.47454,1.18289 l -0.14419,0.13505 2.88334,2.26289 c 2.85025,2.23692 2.88459,2.26529 2.99227,2.47232 0.30525,0.58691 0.0302,1.46514 -0.51952,1.8206 -0.1822,0.11783 -0.31147,0.15724 -0.57582,0.17557 -0.59433,0.0412 -0.37414,0.19984 -3.7037,-2.66857 l -2.91289,-2.50946 -0.11878,0.0963 c -0.19115,0.15493 -1.45158,1.28612 -1.56244,1.40031 -0.004,0.004 1.39518,1.34999 3.10927,2.99084 l 3.11653,2.98336 0.0993,0.2422 c 0.41655,1.0165 -0.50338,2.05334 -1.54386,1.74005 l -0.24301,-0.0732 -3.21846,-3.04585 -3.21846,-3.04585 -0.19996,0.2082 c -0.27091,0.28199 -0.53833,0.41115 -0.7879,0.52774 -0.42722,0.19958 -0.95522,0.0781 -1.31295,-0.30218 -0.3611,-0.38382 -0.44541,-0.89889 -0.22279,-1.36114 0.12005,-0.24926 0.26913,-0.43698 0.74557,-0.89437 l -8e-5,-8e-5 m -41.83459,17.74877 c 1.79985,0.0367 2.74469,0.10076 4.1932,0.17612 4.10301,0.21347 7.08366,0.75767 12.28388,1.11794 1.98488,0.13751 6.49978,0.3686 6.54781,0.4294 0.0146,0.0185 -0.49003,0.59904 -1.24898,1.2324 l -1.3799,1.15157 -0.70094,-0.037 c -0.92996,-0.0491 -2.75554,-0.22061 -2.79646,-0.20925 -0.0179,0.005 0.0627,0.3812 0.1789,0.83611 0.19393,0.75895 0.20763,0.84758 0.16624,1.07543 -0.16663,0.91742 -1.16353,1.38607 -1.93153,0.89735 -0.44451,-0.28285 -0.48351,-0.37076 -0.81309,-1.83239 l -0.27932,-1.23875 -0.71407,-0.0623 c -0.39275,-0.0343 -0.89177,-0.0736 -1.10895,-0.0874 l -0.39487,-0.0251 0.52264,2.38083 0.52264,2.38083 -0.16187,0.305 c -0.23908,0.83223 -1.16656,1.19391 -1.89921,0.74062 -0.13391,-0.0828 -0.30372,-0.22831 -0.37737,-0.32325 -0.13331,-0.17187 -0.13609,-0.18486 -0.63476,-2.96782 l -0.50087,-2.7952 -0.17769,-0.0163 c -0.28844,-0.0265 -1.66278,-0.18735 -1.87732,-0.19437 l -0.19745,-0.006 0.43873,3.63894 c 0.43369,3.59717 0.43791,3.64151 0.36765,3.86404 -0.19916,0.63085 -0.81965,1.01645 -1.46568,0.91083 -0.21412,-0.035 -0.51927,-0.0879 -0.71915,-0.26189 -0.44939,-0.39111 -0.40587,-0.12324 -0.73195,-4.50587 l -0.28527,-3.83417 -0.15207,-0.0159 c -0.24472,-0.0256 -1.93525,-0.10494 -2.09439,-0.10259 -0.006,9e-5 0.032,1.94112 0.0838,4.31343 l 0.0942,4.31327 -0.10107,0.24144 c -0.42424,1.01332 -1.80788,1.09599 -2.32208,0.13873 l -0.1201,-0.22357 -0.12205,-4.42954 -0.12205,-4.42954 -0.28861,0.006 c -0.39097,0.008 -0.67139,-0.0779 -0.93031,-0.17188 -0.44321,-0.16097 -0.73063,-0.62024 -0.71472,-1.14207 0.0161,-0.52674 0.32067,-0.95056 0.80494,-1.12 0.26114,-0.0914 0.49929,-0.13078 1.15962,-0.11731 l -10e-6,-1.1e-4 m -42.19891,-16.85714 c 1.24672,1.29866 1.87763,2.0031 2.8486,3.08064 2.75032,3.05221 4.50065,5.50554 7.92302,9.4374 1.30629,1.50077 4.34608,4.83543 4.33705,4.91238 -0.003,0.0234 -0.81308,0.009 -1.80075,-0.0314 l -1.74894,-0.131 -0.46945,-0.52182 c -0.62284,-0.69233 -1.79808,-2.09396 -1.83504,-2.11486 -0.0161,-0.009 -0.22525,0.31386 -0.46473,0.71772 -0.39953,0.67379 -0.45251,0.74615 -0.64288,0.87799 -0.76655,0.53089 -1.80897,0.1676 -2.00645,-0.72104 -0.11431,-0.51432 -0.0797,-0.60406 0.72076,-1.87063 l 0.67841,-1.07344 -0.46088,-0.54897 c -0.25348,-0.30194 -0.57854,-0.68261 -0.72234,-0.84595 l -0.26147,-0.29697 -1.31393,2.05307 -1.31394,2.05307 -0.25215,0.15622 c -0.73606,0.45604 -1.75371,-0.0257 -1.95125,-0.86432 -0.0361,-0.15327 -0.0533,-0.37621 -0.0383,-0.49542 0.0273,-0.21579 0.0345,-0.22694 1.64972,-2.54741 l 1.62234,-2.33067 -0.11411,-0.13718 c -0.18522,-0.22269 -1.05041,-1.2986 -1.19715,-1.45528 l -0.13505,-0.14419 -2.26289,2.88334 c -2.23692,2.85025 -2.26529,2.8846 -2.47232,2.99227 -0.58691,0.30525 -1.29831,0.13915 -1.68044,-0.39234 -0.12666,-0.17616 -0.31264,-0.42005 -0.33096,-0.6844 -0.0412,-0.59433 -0.19985,-0.37414 2.66857,-3.7037 l 2.50945,-2.91288 -0.0963,-0.11879 c -0.15494,-0.19115 -1.47877,-1.61999 -1.59831,-1.72507 -0.004,-0.004 -1.27931,1.46026 -2.83337,3.25342 l -2.82555,3.26029 -0.23699,0.1111 c -0.99466,0.46633 -2.19203,-0.62263 -1.87874,-1.6631 l 0.0732,-0.24301 3.04586,-3.21847 3.04585,-3.21846 -0.2082,-0.19995 c -0.28199,-0.27091 -0.42824,-0.52125 -0.54483,-0.77083 -0.19958,-0.42721 -0.0781,-0.95521 0.30218,-1.31294 0.38382,-0.3611 0.8989,-0.44541 1.36114,-0.22279 0.24927,0.12005 0.45407,0.25204 0.91146,0.72849 l 8e-5,-9e-5 m -18.0899,-41.68327 c -0.0367,1.79985 -0.0767,2.74349 -0.15204,4.19201 -0.21346,4.103 -0.66346,7.06724 -1.02373,12.26746 -0.13751,1.98489 -0.32343,6.48484 -0.38422,6.53286 -0.0185,0.0146 -0.58148,-0.56839 -1.2511,-1.29555 l -1.15526,-1.3253 0.037,-0.70094 c 0.0491,-0.92996 0.19783,-2.74862 0.18648,-2.78954 -0.005,-0.0179 -0.38121,0.0627 -0.83612,0.1789 -0.75895,0.19393 -0.84758,0.20763 -1.07542,0.16624 -0.91742,-0.16663 -1.4092,-1.15772 -0.92049,-1.92572 0.28286,-0.4445 0.37077,-0.48351 1.83239,-0.81308 l 1.23875,-0.27932 0.0623,-0.71408 c 0.0343,-0.39274 0.0736,-0.89177 0.0874,-1.10895 l 0.0251,-0.39487 -2.38084,0.52264 -2.38083,0.52265 -0.28876,-0.0678 c -0.84295,-0.19801 -1.23359,-1.25592 -0.7803,-1.98857 0.0829,-0.13391 0.22831,-0.30373 0.32326,-0.37737 0.17186,-0.13331 0.18485,-0.13609 2.96782,-0.63476 l 2.7952,-0.50087 0.0163,-0.17769 c 0.0265,-0.28844 0.16364,-1.65924 0.17067,-1.87378 l 0.006,-0.19745 -3.63894,0.43872 c -3.59717,0.43369 -3.64152,0.43791 -3.86405,0.36766 -0.63085,-0.19917 -1.01644,-0.81965 -0.91083,-1.46568 0.035,-0.21413 0.0926,-0.33639 0.25649,-0.54461 0.36849,-0.46812 0.10472,-0.57804 4.48735,-0.90412 l 3.83417,-0.28527 0.0159,-0.15206 c 0.0256,-0.24472 0.0999,-2.19116 0.0896,-2.34998 -3.7e-4,-0.006 -1.93717,0.12794 -4.304,0.29701 l -4.30335,0.3074 -0.24614,-0.089 c -1.03307,-0.37359 -1.12178,-1.98966 -0.16452,-2.50387 l 0.22357,-0.12009 4.42954,-0.12205 4.42954,-0.12205 -0.006,-0.28862 c -0.008,-0.39096 0.0536,-0.66868 0.14776,-0.92756 0.16118,-0.44313 0.6206,-0.73032 1.14241,-0.71414 0.52674,0.0163 0.95041,0.32114 1.1196,0.8055 0.0912,0.26118 0.15496,0.49541 0.14149,1.15573 h 1.2e-4 m 16.49778,-42.32348 c -1.29983,1.24551 -1.99355,1.90444 -3.07372,2.8725 -3.05965,2.74208 -5.41625,4.58798 -9.37239,7.98227 -1.51003,1.29557 -4.78676,4.35304 -4.86363,4.34343 -0.0234,-0.003 -0.003,-0.81313 0.045,-1.80047 l 0.1022,-1.76812 0.52531,-0.46554 c 0.69696,-0.61765 2.06759,-1.80463 2.08876,-1.84144 0.009,-0.0161 -0.31225,-0.22748 -0.7144,-0.46983 -0.67093,-0.40431 -0.7429,-0.45781 -0.87339,-0.64912 -0.52542,-0.77031 -0.18047,-1.74881 0.69913,-1.98326 0.5091,-0.13569 0.60021,-0.10489 1.89913,0.64197 l 1.10084,0.63297 0.48588,-0.3542 c 0.30357,-0.25153 0.68634,-0.57412 0.8506,-0.71687 l 0.29865,-0.25954 -2.04454,-1.32718 -2.04455,-1.32718 -0.15458,-0.25315 c -0.45128,-0.739 0.001,-1.77448 0.8407,-1.96741 0.15347,-0.0353 0.3765,-0.0513 0.49562,-0.0355 0.21564,0.0284 0.22675,0.0357 2.53832,1.6637 l 2.32173,1.63513 0.13781,-0.11335 c 0.2237,-0.184 1.27708,-1.07059 1.43437,-1.21666 l 0.14477,-0.13443 -2.87375,-2.2751 c -2.84076,-2.24898 -2.87499,-2.2775 -2.98178,-2.48499 -0.30277,-0.5882 -0.13366,-1.29889 0.39945,-1.67877 0.1767,-0.12592 0.30406,-0.17112 0.56732,-0.20134 0.59187,-0.0679 0.36476,-0.21651 3.82023,2.49896 l 3.02304,2.37564 -0.0326,0.0813 c 0.19158,-0.15442 1.624,-1.47439 1.7294,-1.59364 0.004,-0.004 -1.4568,-1.28327 -3.24576,-2.84218 l -3.25266,-2.83438 -0.11047,-0.23729 c -0.46363,-0.995919 0.59919,-2.205796 1.63939,-1.891535 l 0.24294,0.0734 3.21564,3.048875 3.21564,3.04888 0.20015,-0.20801 c 0.27118,-0.28175 0.51194,-0.45172 0.76141,-0.56854 0.42704,-0.19998 0.95515,-0.079 1.31324,0.30095 0.36146,0.38349 0.6858,0.62816 0.48591,1.10069 -0.10779,0.2548 -0.50749,0.74139 -0.98437,1.19834 l 9e-5,8e-5 m 41.53241,-18.439565 c -1.79986,-0.03583 -2.73383,-0.05573 -4.18246,-0.128735 -4.10333,-0.206777 -7.03705,-0.614659 -12.23932,-0.943766 -1.98567,-0.12562 -6.48167,-0.277296 -6.53013,-0.33774 -0.0147,-0.01839 0.56416,-0.585591 1.28644,-1.260469 l 1.31644,-1.165436 0.70117,0.03231 c 0.93027,0.04287 2.74833,0.178438 2.78917,0.166839 0.0178,-0.0051 -0.0649,-0.380822 -0.1839,-0.835028 -0.19847,-0.757769 -0.2127,-0.846311 -0.17268,-1.074402 0.16114,-0.918398 1.14946,-1.420416 1.91992,-0.935591 0.44592,0.280608 0.48537,0.36832 0.82232,1.828256 l 0.28558,1.237315 0.71438,0.05868 c 0.3929,0.03228 0.89212,0.06908 1.10937,0.0818 l 0.39499,0.02311 -0.53466,-2.378152 -0.53467,-2.378155 0.0664,-0.289095 c 0.19375,-0.843934 1.25172,-1.245504 1.98616,-0.79513 0.13424,0.08232 0.30463,0.227103 0.37865,0.321751 0.13399,0.171333 0.13682,0.184308 0.64654,2.965261 l 0.51196,2.793176 0.17776,0.01561 c 0.28854,0.02534 1.6535,0.149155 1.86806,0.155578 l 0.19747,0.0059 -0.44894,-3.637673 c -0.4438,-3.59592 -0.44814,-3.640255 -0.37851,-3.86298 0.19739,-0.631403 0.81678,-1.018736 1.4631,-0.914939 0.21423,0.0344 0.33665,0.09164 0.54533,0.254956 0.46915,0.36717 0.58093,0.08959 0.91415,4.471658 l 0.29152,3.833684 0.15209,0.01567 c 0.24476,0.02521 2.1913,0.09629 2.35011,0.08581 0.006,-3.87e-4 -0.1311,-1.93695 -0.30403,-4.303498 l -0.31442,-4.302814 0.0886,-0.246286 c 0.37191,-1.03367 1.99227,-1.142457 2.50695,-0.185463 l 0.12021,0.223511 0.12427,4.42946 0.12427,4.429457 0.2886,-0.006 c 0.39096,-0.008 0.93854,0.05319 1.20184,0.134151 0.45071,0.138585 0.45337,0.60844 0.43719,1.130255 -0.0163,0.526732 0.0611,0.940029 -0.41411,1.133486 -0.25624,0.104324 -0.88284,0.166658 -1.54317,0.153514 l 10e-6,1.19e-4 m 42.45809,16.13798 c -1.24551,-1.29982 -1.59878,-1.79014 -2.61733,-2.82283 -2.8851,-2.925177 -4.55318,-5.633552 -8.13523,-9.420514 -1.36724,-1.445457 -4.46826,-4.814807 -4.46243,-4.89206 0.002,-0.0235 0.73578,-0.03781 1.72312,0.01029 l 1.77875,0.08015 0.46554,0.525317 c 0.61765,0.69696 1.81625,2.04619 1.85306,2.067355 0.0161,0.0092 0.22748,-0.312245 0.46983,-0.714397 0.40431,-0.670924 0.45781,-0.742902 0.64912,-0.873391 0.7703,-0.525414 1.74881,-0.180472 1.98326,0.699134 0.13569,0.509098 0.10489,0.600211 -0.64197,1.899125 l -0.63297,1.100848 0.36678,0.46516 c 0.25153,0.303569 0.57412,0.686338 0.71687,0.850598 l 0.25954,0.298652 1.32718,-2.044541 1.32718,-2.044544 0.25315,-0.154588 c 0.739,-0.451278 1.788,-0.01896 1.98093,0.820708 0.0353,0.153467 0.0512,0.376495 0.0355,0.495619 -0.0284,0.215641 -0.0357,0.226747 -1.6637,2.538318 l -1.63514,2.321729 0.11336,0.137811 c 0.184,0.223702 1.24269,1.396539 1.39613,1.546656 l -0.0306,0.01322 2.2751,-2.873749 c 2.24898,-2.840765 2.2775,-2.874988 2.48499,-2.981785 0.5882,-0.302761 1.2989,-0.133656 1.67877,0.399453 0.12592,0.1767 0.17112,0.304065 0.20134,0.567324 0.0679,0.591868 0.21651,0.364757 -2.49896,3.820226 l -2.37564,3.02304 0.10153,0.114322 c 0.16339,0.183979 1.30686,1.458544 1.42611,1.563944 0.004,0.004 1.28327,-1.456802 2.84218,-3.245766 l 2.83437,-3.25266 0.23729,-0.110468 c 0.99592,-0.463634 2.22192,0.58146 1.90766,1.621653 l -0.0734,0.242942 -3.04888,3.215642 -3.04888,3.215647 0.20802,0.20015 c 0.28174,0.27118 0.62503,0.70216 0.75362,0.94578 0.22011,0.41702 -0.0892,0.75384 -0.46911,1.11193 -0.38348,0.36146 -0.64509,0.70274 -1.11761,0.50285 -0.25481,-0.10779 -0.7414,-0.5075 -1.19834,-0.98437 l -9e-5,8e-5 m 18.79039,41.37691 c 0.0358,-1.79986 0.0303,-2.73255 0.10335,-4.18118 0.20677,-4.10333 0.51554,-7.01939 0.84465,-12.22166 0.12562,-1.98567 0.23026,-6.46576 0.29071,-6.51422 0.0184,-0.0147 0.58559,0.56415 1.26047,1.28643 l 1.18868,1.30794 -0.0323,0.70117 c -0.0429,0.93027 -0.15466,2.74093 -0.14306,2.78177 0.005,0.0178 0.38082,-0.0649 0.83503,-0.1839 0.75777,-0.19847 0.84631,-0.2127 1.0744,-0.17268 0.9184,0.16114 1.37862,1.091 0.9328,1.88466 -0.25804,0.45936 -0.34128,0.5144 -1.80121,0.85135 l -1.23732,0.28557 -0.0587,0.71438 c -0.0323,0.39291 -0.0691,0.89212 -0.0818,1.10937 l -0.0231,0.39499 2.37815,-0.53466 2.37816,-0.53466 0.28909,0.0664 c 0.84394,0.19374 1.27016,1.24667 0.81979,1.98112 -0.0823,0.13423 -0.22711,0.30462 -0.32175,0.37864 -0.17134,0.13399 -0.18431,0.13682 -2.96527,0.64654 l -2.79317,0.51195 -0.0156,0.17777 c -0.0254,0.28854 -0.12417,1.64968 -0.1306,1.86425 l -0.006,0.19747 3.63767,-0.44895 c 3.59592,-0.44379 3.64026,-0.44814 3.86298,-0.37851 0.63141,0.19739 1.01874,0.81679 0.91494,1.46311 -0.0344,0.21422 -0.0916,0.33665 -0.25495,0.54532 -0.36717,0.46916 -0.10193,0.41174 -4.4616,0.96573 l -3.81408,0.48466 -0.008,0.15269 c -0.0128,0.24572 -0.10842,1.94343 -0.0979,2.10223 3.9e-4,0.006 1.93695,-0.13109 4.3035,-0.30402 l 4.30281,-0.31442 0.24629,0.0886 c 1.03367,0.3719 1.16784,1.99098 0.21084,2.50566 l -0.22351,0.12021 -4.42946,0.12427 -4.42945,0.12427 0.006,0.2886 c 0.008,0.39095 -0.0532,2.52604 -0.13415,2.78934 -0.13858,0.45071 -0.5829,0.76075 -1.10486,0.77097 -0.52689,0.0103 -0.96542,-0.2727 -1.15888,-0.74789 -0.10432,-0.25624 -0.16666,-2.47035 -0.15351,-3.13067 l -1.2e-4,10e-6"
             id="path2963"
             inkscape:connector-curvature="0"
             sodipodi:nodetypes="ccscccccccccccccccccccccccsccccccccccccccccccccccccccccccccccccccccccccccccccsccccccccccccccccccccccccccccccccccccccccccscccsccccccccccccccccccccccccccccccccccccccccccccccscccsccccccccccccccccccccccccccccccccccccccscccccccccccccccccccccccccccccccccccccccccsccccccccscccscccccccccccccccccccccccccccccccccccccccccccccccccccccccccccccsccccccscccccccccccsccccccccscccscccccccccccc" />
          <path
             style="opacity:1;fill:#00a371;fill-opacity:1;fill-rule:nonzero;stroke:none;stroke-width:3.88259101;stroke-linecap:round;stroke-linejoin:round;stroke-miterlimit:4;stroke-dasharray:none;stroke-opacity:1;paint-order:markers stroke fill"
             d="m 506.13802,147.15874 c 0.0713,-0.41331 0.38069,-0.75221 0.81381,-0.89155 0.2779,-0.0894 0.73102,-0.0706 0.96064,0.0399 0.22512,0.10828 0.49845,0.41377 0.56162,0.62771 0.0582,0.19696 0.10434,2.6295 0.1568,4.17929 0.15018,4.43634 0.26281,6.65842 0.57091,11.15647 0.21667,3.16331 0.80045,5.93109 0.55326,12.61479 -0.24121,6.52231 -1.03397,9.52457 -1.84169,12.47257 -1.39459,5.08993 -4.94903,10.63073 -7.78484,13.64461 -0.71777,0.76285 -1.07668,1.06137 -1.28758,1.13115 -0.51865,0.17159 -0.97781,0.0571 -1.34773,-0.33612 -0.35543,-0.37779 -0.4301,-0.90154 -0.19232,-1.34893 0.12385,-0.23303 0.80343,-0.98224 1.57554,-1.85193 3.07338,-3.46179 5.75123,-8.29107 7.16076,-14.08021 0.58467,-2.40134 0.96731,-3.73212 1.22757,-10.30411 0.28114,-7.09915 -0.29305,-8.02289 -0.53421,-11.26555 -0.3811,-5.12444 -0.56981,-7.78068 -0.63419,-12.42814 -0.0181,-1.30731 -0.018,-3.01422 0.0416,-3.3599 h 6e-5 m -17.8581,43.50571 c 0.34269,-0.24181 0.53824,-0.002 0.95282,0.18573 0.266,0.12025 0.58928,0.43832 0.68535,0.67432 0.0942,0.23138 0.27867,0.43747 0.17206,0.63341 -0.0981,0.1804 -0.58117,0.72873 -1.63994,1.86169 -3.03078,3.24316 -4.49291,4.93187 -7.45564,8.33033 -2.08359,2.39001 -3.60656,4.80239 -8.50743,9.35369 -4.78253,4.44141 -7.45565,6.03791 -10.11134,7.55132 -4.58524,2.613 -11.01066,4.06515 -15.14701,4.19107 -1.04696,0.0319 -1.51183,0.001 -1.7103,-0.0985 -0.48808,-0.24541 -0.73178,-0.65106 -0.71532,-1.19067 0.0158,-0.51846 0.33336,-0.94161 0.81785,-1.08982 0.25235,-0.0772 1.26266,-0.13852 2.42358,-0.20752 4.62107,-0.27465 9.92352,-1.84353 15.01375,-4.94038 2.11142,-1.28457 3.31261,-1.98917 8.14375,-6.45223 5.21865,-4.82106 5.44445,-5.92273 7.56684,-8.38616 3.35405,-3.89301 5.06937,-5.94251 8.31011,-9.27428 0.9116,-0.93721 0.91424,-0.93973 1.20082,-1.14201 l 5e-5,4e-5 m -42.11927,17.10531 c 0.41331,0.0713 0.3818,0.36732 0.54241,0.793 0.10306,0.27313 0.10675,0.72663 0.008,0.96143 -0.097,0.23021 -0.11229,0.51847 -0.32622,0.58164 -0.19697,0.0582 -0.92624,0.10434 -2.47603,0.1568 -4.43635,0.15018 -6.67022,0.35798 -11.16826,0.66608 -3.16331,0.21667 -5.96095,0.89072 -12.64465,0.64354 -6.52231,-0.24122 -9.5582,-0.971 -12.50619,-1.77872 -5.08993,-1.39459 -10.68969,-4.8734 -13.70357,-7.7092 -0.76285,-0.71778 -1.07846,-1.0596 -1.14824,-1.2705 -0.17159,-0.51866 -0.0571,-0.97781 0.33613,-1.34773 0.37779,-0.35543 0.90153,-0.4301 1.34893,-0.19232 0.23302,0.12385 0.99932,0.78634 1.86901,1.55845 3.46179,3.07338 8.35003,5.6756 14.13917,7.08513 2.40133,0.58467 3.76574,0.90433 10.33773,1.16459 7.09914,0.28114 8.05274,-0.38332 11.29541,-0.62447 5.12444,-0.3811 7.79246,-0.66499 12.43993,-0.72937 1.30731,-0.0181 1.31096,-0.018 1.65663,0.0416 l 1e-5,6e-5 M 404.20689,190.2528 c 0.24181,0.34269 0.0188,0.52115 -0.16865,0.93573 -0.12025,0.26601 -0.43832,0.58928 -0.67432,0.68535 -0.23138,0.0942 -0.64128,0.0917 -0.84227,-0.005 -0.18504,-0.0891 -0.53696,-0.387 -1.66992,-1.44577 -3.24316,-3.03078 -5.0075,-4.43395 -8.40596,-7.39669 -2.39001,-2.08358 -4.62147,-3.74097 -9.40627,-8.41414 -4.66927,-4.56034 -6.13858,-7.48545 -7.65198,-10.14114 -2.613,-4.58525 -4.16033,-10.99887 -4.28625,-15.13522 -0.0319,-1.04696 -0.0252,-1.51576 0.0746,-1.71418 0.24566,-0.48795 0.65142,-0.73145 1.19102,-0.71472 0.51845,0.0161 0.94144,0.33383 1.08941,0.81839 0.0771,0.25239 0.16248,1.26539 0.23148,2.42632 0.27465,4.62106 1.72617,10.17766 5.06822,15.11037 1.38629,2.04609 2.0248,3.18344 6.48787,8.01457 4.82106,5.21865 6.00767,5.40174 8.4711,7.52413 3.89301,3.35405 6.01814,5.01041 9.34992,8.25115 0.93721,0.9116 0.93972,0.91424 1.14201,1.20082 l -4e-5,5e-5 M 386.75319,148.2717 c -0.0715,0.41327 -0.34302,0.37787 -0.7687,0.53849 -0.27313,0.10306 -0.72663,0.10674 -0.96143,0.008 -0.23021,-0.097 -0.51834,-0.38858 -0.59203,-0.59913 -0.0678,-0.19384 -0.11788,-0.65063 -0.16957,-2.20044 -0.14795,-4.4364 -0.49989,-6.67043 -0.78526,-11.16996 -0.20069,-3.16435 -0.69088,-5.94433 -0.72127,-12.63252 -0.0297,-6.52669 0.90275,-9.68319 1.7295,-12.62592 1.42746,-5.08082 4.7907,-10.72081 7.62934,-13.732064 0.71849,-0.762182 1.03292,-1.084471 1.24376,-1.15445 0.51849,-0.172075 0.97776,-0.05799 1.34805,0.334868 0.35578,0.377462 0.22616,1.076028 0.0104,1.534454 -0.11238,0.238775 -0.57943,0.82317 -1.35235,1.692143 -3.07664,3.458949 -5.88183,8.449849 -7.04823,14.292849 -0.48382,2.42367 -1.0571,3.65004 -1.0444,10.22716 0.0137,7.10469 0.45503,8.15588 0.6798,11.39971 0.35521,5.12627 0.78283,7.78292 0.84487,12.4304 0.0174,1.30731 0.0174,1.31096 -0.0424,1.6566 l -6e-5,10e-6 m 17.44875,-42.36471 c -0.33054,0.25818 -0.78737,0.30133 -1.20178,0.11352 -0.26589,-0.12051 -0.58887,-0.43888 -0.68472,-0.67497 -0.094,-0.23147 -0.0912,-0.64138 0.006,-0.84227 0.0893,-0.18496 0.37695,-0.56142 1.43467,-1.69538 3.02778,-3.246012 4.40937,-5.073347 7.35009,-8.490887 2.06811,-2.403431 3.70637,-4.656205 8.34349,-9.475957 4.52514,-4.703373 7.44904,-6.201068 10.09704,-7.727859 4.57197,-2.636117 11.01047,-4.250895 15.14674,-4.378884 1.04694,-0.0324 1.12298,-0.0289 1.3262,0.06083 0.49974,0.220679 1.12334,0.639165 1.10661,1.178762 -0.0161,0.518454 -0.61844,0.931719 -1.09491,1.103992 -0.24817,0.08973 -0.99152,0.173775 -2.15241,0.243354 -4.6209,0.27696 -10.19472,1.797173 -15.1073,5.168708 -2.03774,1.398509 -3.17202,2.046447 -7.97063,6.544448 -5.18352,4.858795 -5.35461,6.060326 -7.46104,8.537431 -3.32883,3.914609 -4.97299,6.113162 -8.21064,9.447982 -0.91073,0.93807 -0.65075,0.67124 -0.92716,0.88722 l -5e-5,-4e-5 m 41.95566,-17.521594 c -0.41636,-0.05057 -0.77032,-0.342573 -0.93115,-0.768174 -0.10319,-0.273076 -0.1071,-0.726572 -0.008,-0.961424 0.0969,-0.230259 0.38832,-0.518527 0.59883,-0.592323 0.1938,-0.06794 0.64787,-0.14332 2.19768,-0.195007 4.4364,-0.14795 6.85806,-0.335326 11.33764,-0.845709 3.15033,-0.358932 5.8115,-0.80196 12.49968,-0.832358 6.5267,-0.02966 9.72761,0.815911 12.67034,1.642668 5.08083,1.427453 10.78012,4.715185 13.79138,7.553825 0.76218,0.718492 0.81339,0.774807 0.89334,0.982068 0.1966,0.509703 0.33603,1.222515 -0.0568,1.592807 -0.37746,0.355784 -1.09296,0.243094 -1.55139,0.02734 -0.23877,-0.112379 -0.82317,-0.579425 -1.69214,-1.352352 -3.45894,-3.076634 -8.52174,-5.7856 -14.36474,-6.952 -2.42367,-0.483823 -3.68188,-0.990975 -10.259,-0.978281 -7.10468,0.01371 -8.17801,0.526314 -11.42184,0.751085 -5.12628,0.35521 -7.79563,0.883075 -12.44311,0.945121 -1.30731,0.01745 -0.91218,0.02501 -1.2604,-0.01722 l -10e-6,-6e-5 m 42.10708,17.089668 c -0.25818,-0.33054 -0.30133,-0.78737 -0.11351,-1.20178 0.1205,-0.2659 0.43888,-0.58888 0.67496,-0.68472 0.23147,-0.094 0.64138,-0.0912 0.84227,0.006 0.18496,0.0893 0.57836,0.36002 1.71232,1.41774 3.24601,3.02777 5.14885,4.35005 8.56639,7.29077 2.40344,2.06811 4.72037,3.67154 9.54013,8.30866 4.70337,4.52514 6.29502,7.41731 7.82181,10.06531 2.63611,4.57197 4.35115,10.99777 4.47913,15.13404 0.0324,1.04694 0.0289,3.00556 -0.0608,3.20878 -0.22068,0.49974 -0.61362,0.76342 -1.15337,0.77399 -0.51861,0.0102 -0.95711,-0.28582 -1.12938,-0.76229 -0.0897,-0.24817 -0.17378,-2.8741 -0.24336,-4.03499 -0.27696,-4.6209 -1.92167,-10.17578 -5.2932,-15.08836 -1.39851,-2.03774 -1.85401,-3.31522 -6.58175,-7.88767 -5.10695,-4.93921 -6.1569,-5.37725 -8.634,-7.48368 -3.91461,-3.32883 -6.18867,-4.91367 -9.5235,-8.15132 -0.93806,-0.91074 -0.68817,-0.63383 -0.90415,-0.91023 l 4e-5,-5e-5"
             id="path2965"
             inkscape:connector-curvature="0"
             sodipodi:nodetypes="cccccccsccccscscccccccccccccccccsccccccccccccsccccsssccccccccccssccccscscscccccccscccccccscsccccccccccsccccscssccccccccssscccccssscccccccssscccccssssccc" />
          <path
             style="opacity:1;fill:#00a371;fill-opacity:1;fill-rule:nonzero;stroke:none;stroke-width:3.88259101;stroke-linecap:round;stroke-linejoin:round;stroke-miterlimit:4;stroke-dasharray:none;stroke-opacity:1;paint-order:markers stroke fill"
             d="m 509.46808,150.96724 c 0.11239,-0.27633 0.28124,-0.49866 0.48288,-0.63583 0.39852,-0.27109 0.25222,-0.26673 5.00359,-0.14897 2.38674,0.0591 4.34069,0.10236 4.34209,0.096 10e-4,-0.006 0.0398,-1.71437 0.0853,-2.08066 0.0728,-0.58592 0.0991,-0.69086 0.2193,-0.87305 0.0751,-0.11389 0.22837,-0.26763 0.34057,-0.34163 0.1736,-0.11451 0.25631,-0.13588 0.55501,-0.1434 0.44187,-0.0111 0.7007,0.0869 1.00108,0.37923 0.29742,0.28941 0.35146,1.90682 0.33062,2.71386 -0.0207,0.80198 -0.17166,2.61069 -0.35203,3.75459 -0.8095,5.13379 -3.52738,11.95343 -8.0997,17.52389 -1.38637,1.68902 -2.79832,3.20393 -2.84638,3.23005 -0.0367,0.0199 -0.0946,-3.53046 -0.0637,-3.62389 0.007,-0.0196 0.29343,-0.37979 0.63765,-0.80041 0.65119,-0.79572 1.71525,-2.20764 1.72551,-2.24461 0.003,-0.0117 -0.35544,-0.12155 -0.79707,-0.24411 -0.94921,-0.26341 -1.14238,-0.36488 -1.37997,-0.7249 -0.20397,-0.30908 -0.2612,-0.58759 -0.19333,-0.9409 0.10111,-0.52635 0.48252,-0.91015 1.01823,-1.02463 l 0.26509,-0.0566 1.33729,0.35594 1.33729,0.35594 0.59433,-1.07373 0.55067,-0.95242 -2.44002,-0.57392 c -2.7251,-0.64097 -2.62558,-0.60586 -2.90721,-1.02566 -0.41844,-0.62374 -0.26586,-1.33275 0.36052,-1.72187 0.4536,-0.28178 0.26249,-0.29599 3.41464,0.25401 2.78133,0.4853 2.81919,0.49058 2.85457,0.40409 0.0197,-0.0483 0.20428,-0.4919 0.41011,-0.98587 0.20583,-0.49397 0.43516,-1.18988 0.46391,-1.28253 l 0.0523,-0.16846 -3.61678,-0.44926 c -4.05785,-0.50405 -3.91529,-0.47523 -4.26112,-0.86134 -0.29682,-0.33139 -0.36033,-0.54388 -0.30239,-1.01181 0.0354,-0.28607 0.0751,-0.42761 0.1485,-0.5291 0.16868,-0.23334 0.42034,-0.42651 0.68414,-0.52514 l 0.25155,-0.094 3.90798,0.48544 3.90798,0.48543 0.0378,-0.0968 c 0.0293,-0.0752 0.473,-2.50856 0.48081,-2.61351 9.8e-4,-0.0132 -1.92524,-0.16735 -4.28049,-0.34258 -4.75167,-0.35354 -4.57314,-0.32915 -4.92175,-0.67212 -0.35606,-0.35029 -0.50698,-0.76246 -0.33934,-1.17465 h 10e-6 M 489.146,194.50778 c 0.27486,-0.11592 0.55146,-0.15374 0.79104,-0.10815 0.47348,0.0901 0.36696,-0.0103 3.64341,3.43273 1.64586,1.72952 2.99695,3.14172 3.00242,3.13823 0.006,-0.003 0.24818,-0.19192 0.53935,-0.41875 0.46579,-0.36285 0.55863,-0.41841 0.77242,-0.46227 0.13364,-0.0274 0.55517,-0.23261 0.68802,-0.21216 0.20553,0.0316 0.2812,0.0713 0.50765,0.26624 0.33502,0.28833 0.21457,0.79316 0.22028,1.21225 0.006,0.41495 -0.10762,0.60465 -0.69302,1.16058 -0.58171,0.55245 -1.95932,1.73359 -2.89572,2.41491 -4.20254,3.05774 -10.91348,6.00773 -18.0855,6.71352 -2.17463,0.21401 -4.23915,0.29756 -4.2916,0.28205 -0.04,-0.0118 2.42445,-2.57404 2.51237,-2.61825 0.0185,-0.009 0.47604,-0.0611 1.01686,-0.11509 1.02312,-0.1022 2.7683,-0.35867 2.8017,-0.37756 0.0106,-0.006 -0.16539,-0.33728 -0.39101,-0.73623 -0.48493,-0.85745 -0.54977,-1.06579 -0.4632,-1.48837 0.0743,-0.36278 0.23079,-0.60018 0.52861,-0.80202 0.44368,-0.30069 0.98477,-0.30238 1.44452,-0.005 l 0.2275,0.14739 0.69392,1.19729 0.69392,1.1973 1.17338,-0.34923 1.06284,-0.28408 -1.31953,-2.13118 c -1.4737,-2.38017 -1.42816,-2.28497 -1.33045,-2.78096 0.14516,-0.73693 0.74777,-1.14033 1.46583,-0.97256 0.52,0.1215 0.39491,-0.0237 2.23491,2.59414 1.62353,2.30985 1.64657,2.34035 1.73275,2.30421 0.0481,-0.0202 0.49227,-0.20338 0.9871,-0.40712 0.49484,-0.20375 1.14195,-0.5433 1.2278,-0.58848 l 0.15607,-0.0822 -2.23977,-2.87513 c -2.51291,-3.22575 -2.43249,-3.10456 -2.40401,-3.62212 0.0244,-0.44422 0.12979,-0.63938 0.50164,-0.92929 0.22734,-0.17722 0.35549,-0.24924 0.47914,-0.26912 0.28426,-0.0457 0.5988,-0.004 0.85508,0.11243 l 0.24438,0.11137 2.4201,3.10661 2.42011,3.10661 0.0952,-0.0418 c 0.0739,-0.0324 2.10066,-1.44865 2.18039,-1.51734 0.01,-0.009 -1.24301,-1.47969 -2.78452,-3.26901 -3.10995,-3.60992 -3.00095,-3.46643 -3.00494,-3.95545 -0.004,-0.49948 0.17256,-0.90658 0.58256,-1.0795 h 10e-6 m -45.09059,16.59204 c 0.27633,0.11239 0.49866,0.28124 0.63583,0.48288 0.27108,0.39852 0.26673,0.25222 0.14897,5.00359 -0.0591,2.38675 -0.10237,4.34069 -0.096,4.34209 0.006,0.001 0.31121,0.0398 0.67749,0.0853 0.58593,0.0728 0.69087,0.0992 0.87305,0.2193 0.11389,0.0751 0.55705,0.21602 0.63652,0.32441 0.12297,0.16771 0.14841,0.24927 0.17072,0.54722 0.033,0.44078 -0.0521,0.70415 -0.32917,1.01865 -0.27433,0.31138 -0.87591,0.35784 -1.68296,0.337 -0.80197,-0.0207 -2.61188,-0.14757 -3.75578,-0.32794 -5.13379,-0.80949 -11.97677,-3.41039 -17.54723,-7.9827 -1.68902,-1.38638 -3.21195,-2.77594 -3.23806,-2.82399 -0.0199,-0.0367 3.53847,-0.11698 3.6319,-0.0861 0.0196,0.006 0.3798,0.29343 0.80041,0.63764 0.79572,0.65119 2.21457,1.69248 2.25154,1.70274 0.0117,0.003 0.12155,-0.35544 0.24411,-0.79708 0.26341,-0.94921 0.36488,-1.14238 0.7249,-1.37997 0.30909,-0.20397 0.58759,-0.26119 0.9409,-0.19332 0.52635,0.1011 0.86669,0.48076 1.00723,1.01023 l 0.0695,0.262 -0.29013,1.3531 -0.29012,1.3531 0.95243,0.55066 0.95242,0.55067 0.57392,-2.44002 c 0.64096,-2.7251 0.60585,-2.62558 1.02566,-2.90721 0.62374,-0.41844 1.33743,-0.2893 1.72655,0.33708 0.28178,0.4536 0.29599,0.26249 -0.25401,3.41465 -0.48531,2.78132 -0.49058,2.81918 -0.40409,2.85456 0.0482,0.0197 0.49189,0.20428 0.98587,0.41011 0.49397,0.20583 1.19342,0.41146 1.28607,0.44021 l 0.16845,0.0523 0.44927,-3.61678 c 0.50405,-4.05785 0.47523,-3.91529 0.86134,-4.26112 0.33139,-0.29683 0.54388,-0.36033 1.01181,-0.3024 0.28607,0.0354 0.42761,0.0751 0.5291,0.14851 0.23333,0.16868 0.4265,0.42033 0.52513,0.68413 l 0.0941,0.25156 -0.48544,3.90797 -0.48543,3.90798 0.34016,0.0581 c 0.0765,0.0256 2.26761,0.42877 2.37256,0.43658 0.0132,9.8e-4 0.16735,-1.92524 0.34259,-4.28049 0.35353,-4.75167 0.32914,-4.57314 0.67211,-4.92175 0.35029,-0.35607 0.76366,-0.53107 1.17585,-0.36344 v 1e-5 M 400.3636,191.11834 c 0.11592,0.27486 0.15374,0.55146 0.10815,0.79104 -0.0901,0.47348 0.0103,0.36696 -3.43273,3.64341 -1.72951,1.64586 -3.14171,2.99694 -3.13823,3.00241 0.003,0.006 0.19193,0.24818 0.41876,0.53936 0.36284,0.46578 0.61246,0.75023 0.66686,0.96159 0.034,0.13212 0.0451,0.34892 0.0246,0.48176 -0.0316,0.20554 -0.0713,0.2812 -0.26623,0.50766 -0.28833,0.33501 -0.53475,0.46106 -0.95305,0.48753 -0.41416,0.0262 -0.88093,-0.35779 -1.43687,-0.94319 -0.55244,-0.58171 -1.75147,-1.94313 -2.43279,-2.87953 -3.05774,-4.20254 -6.10695,-10.84725 -6.81275,-18.01928 -0.214,-2.17463 -0.31906,-4.22899 -0.30355,-4.28144 0.0118,-0.04 2.59555,2.41429 2.63976,2.50222 0.009,0.0185 0.0611,0.47604 0.11509,1.01685 0.1022,1.02312 0.37967,2.75709 0.39856,2.79049 0.006,0.0106 0.33728,-0.16538 0.73623,-0.39101 0.85745,-0.48493 1.0658,-0.54977 1.48837,-0.4632 0.36279,0.0743 0.60018,0.2308 0.80202,0.52862 0.30069,0.44368 0.28312,0.94666 0.008,1.42043 l -0.13609,0.23444 -1.16193,0.75163 -1.16193,0.75164 0.28409,1.06285 0.28408,1.06284 2.13118,-1.31953 c 2.38017,-1.47371 2.28497,-1.42816 2.78096,-1.33046 0.73693,0.14517 1.16021,0.73452 0.99244,1.45258 -0.1215,0.51999 0.0237,0.39491 -2.59413,2.2349 -2.30986,1.62354 -2.34036,1.64658 -2.30422,1.73275 0.0202,0.0481 0.20338,0.49227 0.40713,0.98711 0.20375,0.49484 0.56256,1.12769 0.60775,1.21353 l 0.0822,0.15608 2.87513,-2.23977 c 3.22575,-2.51292 3.10457,-2.43249 3.62212,-2.40401 0.44422,0.0244 0.63938,0.12979 0.92929,0.50163 0.17722,0.22734 0.24924,0.3555 0.26912,0.47914 0.0457,0.28427 -0.10441,0.46873 -0.20843,0.73045 l -0.0992,0.24957 -2.98352,2.57031 -2.98353,2.57031 0.0464,0.093 c 0.036,0.0722 1.30025,1.90662 1.36894,1.98635 0.009,0.01 1.47969,-1.24301 3.26901,-2.78451 3.60992,-3.10995 3.46643,-3.00096 3.95545,-3.00495 0.49948,-0.004 0.92446,0.15637 1.09739,0.56637 l -10e-6,1e-5 m -16.93932,-44.9541 c -0.11252,0.27627 -0.28148,0.49852 -0.48319,0.63558 -0.39865,0.27089 -0.25236,0.26661 -5.00364,0.14647 -2.38671,-0.0603 -4.34062,-0.10454 -4.34202,-0.0982 -0.001,0.006 -0.0399,0.31118 -0.0856,0.67744 -0.0731,0.58589 -0.0856,0.96628 -0.19662,1.15419 -0.0694,0.11747 -0.21484,0.27861 -0.32323,0.35809 -0.16771,0.12296 -0.24927,0.1484 -0.54722,0.17071 -0.44078,0.033 -0.70415,-0.0521 -1.01864,-0.32917 -0.31139,-0.27432 -0.38194,-0.87985 -0.3607,-1.68688 0.0211,-0.80196 0.11856,-2.62215 0.30079,-3.76575 0.81786,-5.13244 3.24589,-12.04258 7.85564,-17.58208 1.39772,-1.67963 2.75455,-3.20983 2.80279,-3.2356 0.0368,-0.0197 0.13607,3.55583 0.10453,3.64905 -0.007,0.0196 -0.29598,0.37781 -0.64302,0.79609 -0.65654,0.79131 -1.66228,2.21844 -1.67276,2.25535 -0.003,0.0117 0.3547,0.12367 0.7956,0.24887 0.94761,0.2691 1.14016,0.37173 1.37559,0.73316 0.20212,0.3103 0.25767,0.58914 0.18769,0.94204 -0.10426,0.52573 -0.44176,0.87431 -0.97193,1.01217 l -0.26235,0.0682 -1.35161,-0.29695 -1.35161,-0.29695 -0.55546,0.94962 -0.55547,0.94963 2.43708,0.58623 c 2.72181,0.65472 2.63809,0.52397 2.93834,0.93066 0.44611,0.60426 0.29012,1.45439 -0.3378,1.84101 -0.45471,0.27998 -0.26366,0.29495 -3.41359,-0.26757 -2.77936,-0.49634 -2.8172,-0.50177 -2.85292,-0.41542 -0.0199,0.0482 -0.25176,0.69409 -0.43448,1.19707 -0.18272,0.50298 -0.35595,0.99025 -0.38496,1.08281 l -0.0527,0.16831 3.61548,0.45942 c 4.0564,0.51545 3.91392,0.48623 4.25867,0.87331 0.29589,0.33222 0.3588,0.54489 0.29955,1.01265 -0.0362,0.28597 -0.0763,0.4274 -0.15,0.52868 -0.16933,0.23286 -0.38187,0.25484 -0.64066,0.36593 l -0.24679,0.10594 -3.92665,-0.29859 -3.92666,-0.29859 -0.0331,0.0985 c -0.0257,0.0765 -0.43246,2.26689 -0.44044,2.37183 -0.001,0.0132 1.92496,0.17048 4.2799,0.34956 4.75107,0.36127 4.57021,0.15055 4.9352,0.47604 0.37279,0.33244 0.54691,0.96499 0.37906,1.37709 h -1e-5 m 19.63547,-43.84444 c -0.27476,0.11618 -0.55133,0.15426 -0.79095,0.10889 -0.47357,-0.0897 -0.36695,0.0106 -3.64664,-3.429356 -1.64749,-1.727988 -2.9999,-3.138939 -3.00537,-3.13545 -0.006,0.0034 -0.248,0.192159 -0.53897,0.419263 -0.46545,0.363282 -0.72594,0.622365 -0.93735,0.676568 -0.13215,0.03388 -0.34896,0.04477 -0.48179,0.0242 -0.2055,-0.03183 -0.28113,-0.07158 -0.50741,-0.266707 -0.33475,-0.28865 -0.46056,-0.53519 -0.48664,-0.95351 -0.0258,-0.414187 0.33111,-0.887326 0.91599,-1.443811 0.58121,-0.552993 1.91892,-1.757617 2.85348,-2.441471 4.19428,-3.069111 10.77104,-6.169175 17.9376,-6.928506 2.17298,-0.230237 4.22562,-0.352279 4.27818,-0.337161 0.0401,0.01154 -2.39396,2.615152 -2.48156,2.660015 -0.0184,0.0094 -0.47557,0.06462 -1.01596,0.122683 -1.02233,0.109833 -2.75246,0.402213 -2.78572,0.42134 -0.0105,0.0061 0.16778,0.336096 0.39624,0.733427 0.49103,0.853978 0.55735,1.061856 0.47379,1.485037 -0.0717,0.363306 -0.22652,0.601811 -0.52289,0.805764 -0.44153,0.303843 -0.94267,0.294196 -1.41821,0.02224 l -0.23531,-0.134572 -0.75913,-1.157054 -0.75913,-1.157054 -1.06099,0.290948 -1.06099,0.290948 1.33328,2.122614 c 1.48906,2.370602 1.4429,2.275701 1.3484,2.772313 -0.1404,0.737856 -0.72579,1.171671 -1.44477,1.007848 -0.52065,-0.11864 -0.39477,0.02586 -2.24913,-2.581823 -1.63621,-2.300909 -1.65942,-2.331281 -1.7454,-2.294668 -0.048,0.02044 -0.49114,0.206081 -0.98486,0.412546 -0.49371,0.206464 -1.11457,0.572767 -1.20022,0.618315 l -0.15573,0.08282 2.25194,2.865628 c 2.52657,3.215099 2.44563,3.094256 2.41934,3.611933 -0.0226,0.444319 -0.12708,0.639925 -0.49769,0.931409 -0.22659,0.178182 -0.35444,0.250743 -0.478,0.271145 -0.28408,0.04693 -0.46422,-0.08816 -0.72623,-0.191468 l -0.24984,-0.09851 -2.57838,-2.976584 -2.57839,-2.976584 -0.0929,0.04666 c -0.0721,0.03622 -1.90311,1.305412 -1.98266,1.374319 -0.01,0.0087 1.24702,1.476328 2.79336,3.261488 3.11973,3.601528 3.13291,3.332928 3.16154,3.821128 0.0292,0.49863 -0.29409,1.06951 -0.70393,1.24281 h -1e-5 m 44.80863,-17.289147 c -0.27627,-0.112524 -0.49852,-0.281482 -0.63558,-0.483194 -0.27089,-0.398653 -0.26661,-0.252356 -0.14647,-5.003639 0.0604,-2.386706 0.10454,-4.340617 0.0982,-4.342023 -0.006,-0.0015 -0.58341,-0.05407 -0.95151,-0.08118 -0.58883,-0.04338 -0.69496,-0.06445 -0.88293,-0.175341 -0.1175,-0.06932 -0.27872,-0.214692 -0.35824,-0.323047 -0.12305,-0.167646 -0.14853,-0.249191 -0.17099,-0.547132 -0.0332,-0.440758 0.0518,-0.704173 0.32866,-1.018804 0.27417,-0.311522 0.8836,-0.407759 1.69063,-0.386521 0.80196,0.0211 2.62344,0.09317 3.76704,0.275406 5.13244,0.817857 12.06762,3.122994 17.60712,7.732739 1.67963,1.397722 3.21834,2.731298 3.24411,2.779542 0.0197,0.03683 -3.56434,0.159321 -3.65756,0.127778 -0.0196,-0.0066 -0.3778,-0.29598 -0.79609,-0.643021 -0.79131,-0.656538 -2.22583,-1.638497 -2.26274,-1.648979 -0.0117,-0.0033 -0.12367,0.354704 -0.24888,0.795599 -0.26909,0.94761 -0.37172,1.140168 -0.73315,1.375594 -0.3103,0.202117 -0.53621,0.264628 -0.89216,0.212318 -0.53027,-0.07793 -0.93043,-0.442138 -1.06829,-0.972313 l -0.0682,-0.262346 0.29696,-1.351609 0.29695,-1.351609 -0.94963,-0.555467 -1.11446,-0.569212 -0.46343,2.463382 c -0.51757,2.751189 -0.48698,2.650191 -0.89367,2.95044 -0.60426,0.446109 -1.45439,0.290117 -1.84101,-0.337799 -0.27997,-0.454716 -0.29495,-0.263664 0.26757,-3.413593 0.49634,-2.779365 0.50177,-2.8172 0.41542,-2.852923 -0.0482,-0.01992 -0.69791,-0.226772 -1.20089,-0.409493 -0.50297,-0.182721 -0.99024,-0.355951 -1.08281,-0.38496 l -0.16831,-0.05274 -0.45942,3.615482 c -0.51545,4.056399 -0.48623,3.913919 -0.8733,4.258663 -0.33223,0.295892 -0.54489,0.358802 -1.01266,0.299552 -0.28596,-0.03624 -0.23515,-0.03866 -0.34002,-0.107115 -0.24111,-0.157362 -0.44605,-0.39952 -0.55715,-0.658317 l -0.10593,-0.246787 0.29858,-3.926652 0.29859,-3.926652 -0.0985,-0.03312 c -0.0765,-0.02572 -2.53063,-0.438132 -2.63583,-0.440793 -0.0132,-3.34e-4 -0.0729,1.931115 -0.13258,4.292106 -0.12044,4.763256 -0.10482,4.583742 -0.43031,4.948727 -0.33244,0.372791 -0.96499,0.546911 -1.37709,0.379067 v -1e-5 m 43.99995,19.284653 c -0.11618,-0.27476 -0.15426,-0.55133 -0.10889,-0.79095 0.0897,-0.47357 -0.0106,-0.36695 3.42935,-3.646646 1.72799,-1.647482 3.13894,-2.999899 3.13545,-3.005365 -0.003,-0.0055 -0.37278,-0.430537 -0.61349,-0.710349 -0.38506,-0.447597 -0.44507,-0.537627 -0.49927,-0.749034 -0.0339,-0.132156 -0.0448,-0.348962 -0.0242,-0.481788 0.0318,-0.205508 0.0716,-0.281132 0.26671,-0.50741 0.28865,-0.334751 0.53519,-0.460567 0.95351,-0.486645 0.41418,-0.02582 0.60917,0.0781 1.1929,0.63579 0.58007,0.55418 2.04319,2.166064 2.72705,3.100626 3.06911,4.194281 6.26906,10.703651 7.02839,17.870211 0.23024,2.17297 0.37433,4.21499 0.35922,4.26756 -0.0115,0.0401 -2.63721,-2.38335 -2.68207,-2.47094 -0.009,-0.0184 -0.0646,-0.47557 -0.12269,-1.01597 -0.10983,-1.02233 -0.42361,-2.74083 -0.44273,-2.77409 -0.006,-0.0105 -0.3361,0.16778 -0.73343,0.39624 -0.85398,0.49103 -1.06186,0.55735 -1.48504,0.47378 -0.3633,-0.0717 -0.60181,-0.22651 -0.80576,-0.52289 -0.30384,-0.44152 -0.31491,-0.93008 -0.043,-1.40562 l 0.13457,-0.2353 1.15706,-0.75914 1.15705,-0.75913 -0.29095,-1.06099 -0.29094,-1.06099 -2.12262,1.33328 c -2.3706,1.48906 -2.2221,1.51821 -2.72268,1.44768 -0.74375,-0.10479 -1.2413,-0.81155 -1.07748,-1.53053 0.11864,-0.52066 -0.0259,-0.39478 2.58182,-2.24914 2.30091,-1.63621 2.33128,-1.65942 2.29467,-1.74539 -0.0204,-0.048 -0.31949,-0.65304 -0.54936,-1.1363 -0.22987,-0.48326 -0.45522,-0.94873 -0.50077,-1.03438 l -0.0828,-0.15573 -2.86563,2.25194 c -3.2151,2.52657 -3.09426,2.44563 -3.61193,2.41934 -0.44432,-0.0226 -0.63993,-0.12708 -0.93141,-0.49769 -0.17819,-0.22659 -0.13972,-0.20673 -0.166,-0.32917 -0.0604,-0.28151 -0.0355,-0.59778 0.0678,-0.85978 l 0.0985,-0.24985 2.97658,-2.57838 2.97658,-2.57838 -0.0466,-0.0929 c -0.0362,-0.0721 -1.4785,-2.081718 -1.55112,-2.15789 -0.009,-0.0096 -1.41517,1.31602 -3.12454,2.94575 -3.44862,3.28796 -3.31081,3.17187 -3.79901,3.2005 -0.49864,0.0293 -1.06951,-0.29409 -1.24282,-0.70393 l 10e-6,-10e-6"
             id="path2967"
             inkscape:connector-curvature="0"
             sodipodi:nodetypes="ccccccccccscccccccccccccccccscsccsccccccccccccccccccccccccccccccccccccccccccccccsccccccccccccccccccccccccccccccccccccccccccccccccccccccccccccccccccccccccccccccccccccccccccsccccccccccccsccccccccccccccscccccccccccccsccccsccsccccccccccccccccccccccscsccccccccccccccccsccccsccccccccccccccccccccccccscccccccccccccccccccccscccccccccccccccccccccscccccccccccccccccccccsccsccccccccccccc" />
          <path
             sodipodi:nodetypes="cccccccsccccscscccccccccccccccccsccccccccccccsccccsssccccccccccssccccscscscccccccscccccccscsccccccccccsccccscssccccccccssscccccssscccccccssscccccssssccc"
             inkscape:connector-curvature="0"
             id="path3653"
             d="m 506.13802,147.15874 c 0.0713,-0.41331 0.38069,-0.75221 0.81381,-0.89155 0.2779,-0.0894 0.73102,-0.0706 0.96064,0.0399 0.22512,0.10828 0.49845,0.41377 0.56162,0.62771 0.0582,0.19696 0.10434,2.6295 0.1568,4.17929 0.15018,4.43634 0.26281,6.65842 0.57091,11.15647 0.21667,3.16331 0.80045,5.93109 0.55326,12.61479 -0.24121,6.52231 -1.03397,9.52457 -1.84169,12.47257 -1.39459,5.08993 -4.94903,10.63073 -7.78484,13.64461 -0.71777,0.76285 -1.07668,1.06137 -1.28758,1.13115 -0.51865,0.17159 -0.97781,0.0571 -1.34773,-0.33612 -0.35543,-0.37779 -0.4301,-0.90154 -0.19232,-1.34893 0.12385,-0.23303 0.80343,-0.98224 1.57554,-1.85193 3.07338,-3.46179 5.75123,-8.29107 7.16076,-14.08021 0.58467,-2.40134 0.96731,-3.73212 1.22757,-10.30411 0.28114,-7.09915 -0.29305,-8.02289 -0.53421,-11.26555 -0.3811,-5.12444 -0.56981,-7.78068 -0.63419,-12.42814 -0.0181,-1.30731 -0.018,-3.01422 0.0416,-3.3599 h 6e-5 m -17.8581,43.50571 c 0.34269,-0.24181 0.53824,-0.002 0.95282,0.18573 0.266,0.12025 0.58928,0.43832 0.68535,0.67432 0.0942,0.23138 0.27867,0.43747 0.17206,0.63341 -0.0981,0.1804 -0.58117,0.72873 -1.63994,1.86169 -3.03078,3.24316 -4.49291,4.93187 -7.45564,8.33033 -2.08359,2.39001 -3.60656,4.80239 -8.50743,9.35369 -4.78253,4.44141 -7.45565,6.03791 -10.11134,7.55132 -4.58524,2.613 -11.01066,4.06515 -15.14701,4.19107 -1.04696,0.0319 -1.51183,0.001 -1.7103,-0.0985 -0.48808,-0.24541 -0.73178,-0.65106 -0.71532,-1.19067 0.0158,-0.51846 0.33336,-0.94161 0.81785,-1.08982 0.25235,-0.0772 1.26266,-0.13852 2.42358,-0.20752 4.62107,-0.27465 9.92352,-1.84353 15.01375,-4.94038 2.11142,-1.28457 3.31261,-1.98917 8.14375,-6.45223 5.21865,-4.82106 5.44445,-5.92273 7.56684,-8.38616 3.35405,-3.89301 5.06937,-5.94251 8.31011,-9.27428 0.9116,-0.93721 0.91424,-0.93973 1.20082,-1.14201 l 5e-5,4e-5 m -42.11927,17.10531 c 0.41331,0.0713 0.3818,0.36732 0.54241,0.793 0.10306,0.27313 0.10675,0.72663 0.008,0.96143 -0.097,0.23021 -0.11229,0.51847 -0.32622,0.58164 -0.19697,0.0582 -0.92624,0.10434 -2.47603,0.1568 -4.43635,0.15018 -6.67022,0.35798 -11.16826,0.66608 -3.16331,0.21667 -5.96095,0.89072 -12.64465,0.64354 -6.52231,-0.24122 -9.5582,-0.971 -12.50619,-1.77872 -5.08993,-1.39459 -10.68969,-4.8734 -13.70357,-7.7092 -0.76285,-0.71778 -1.07846,-1.0596 -1.14824,-1.2705 -0.17159,-0.51866 -0.0571,-0.97781 0.33613,-1.34773 0.37779,-0.35543 0.90153,-0.4301 1.34893,-0.19232 0.23302,0.12385 0.99932,0.78634 1.86901,1.55845 3.46179,3.07338 8.35003,5.6756 14.13917,7.08513 2.40133,0.58467 3.76574,0.90433 10.33773,1.16459 7.09914,0.28114 8.05274,-0.38332 11.29541,-0.62447 5.12444,-0.3811 7.79246,-0.66499 12.43993,-0.72937 1.30731,-0.0181 1.31096,-0.018 1.65663,0.0416 l 1e-5,6e-5 M 404.20689,190.2528 c 0.24181,0.34269 0.0188,0.52115 -0.16865,0.93573 -0.12025,0.26601 -0.43832,0.58928 -0.67432,0.68535 -0.23138,0.0942 -0.64128,0.0917 -0.84227,-0.005 -0.18504,-0.0891 -0.53696,-0.387 -1.66992,-1.44577 -3.24316,-3.03078 -5.0075,-4.43395 -8.40596,-7.39669 -2.39001,-2.08358 -4.62147,-3.74097 -9.40627,-8.41414 -4.66927,-4.56034 -6.13858,-7.48545 -7.65198,-10.14114 -2.613,-4.58525 -4.16033,-10.99887 -4.28625,-15.13522 -0.0319,-1.04696 -0.0252,-1.51576 0.0746,-1.71418 0.24566,-0.48795 0.65142,-0.73145 1.19102,-0.71472 0.51845,0.0161 0.94144,0.33383 1.08941,0.81839 0.0771,0.25239 0.16248,1.26539 0.23148,2.42632 0.27465,4.62106 1.72617,10.17766 5.06822,15.11037 1.38629,2.04609 2.0248,3.18344 6.48787,8.01457 4.82106,5.21865 6.00767,5.40174 8.4711,7.52413 3.89301,3.35405 6.01814,5.01041 9.34992,8.25115 0.93721,0.9116 0.93972,0.91424 1.14201,1.20082 l -4e-5,5e-5 M 386.75319,148.2717 c -0.0715,0.41327 -0.34302,0.37787 -0.7687,0.53849 -0.27313,0.10306 -0.72663,0.10674 -0.96143,0.008 -0.23021,-0.097 -0.51834,-0.38858 -0.59203,-0.59913 -0.0678,-0.19384 -0.11788,-0.65063 -0.16957,-2.20044 -0.14795,-4.4364 -0.49989,-6.67043 -0.78526,-11.16996 -0.20069,-3.16435 -0.69088,-5.94433 -0.72127,-12.63252 -0.0297,-6.52669 0.90275,-9.68319 1.7295,-12.62592 1.42746,-5.08082 4.7907,-10.72081 7.62934,-13.732064 0.71849,-0.762182 1.03292,-1.084471 1.24376,-1.15445 0.51849,-0.172075 0.97776,-0.05799 1.34805,0.334868 0.35578,0.377462 0.22616,1.076028 0.0104,1.534454 -0.11238,0.238775 -0.57943,0.82317 -1.35235,1.692143 -3.07664,3.458949 -5.88183,8.449849 -7.04823,14.292849 -0.48382,2.42367 -1.0571,3.65004 -1.0444,10.22716 0.0137,7.10469 0.45503,8.15588 0.6798,11.39971 0.35521,5.12627 0.78283,7.78292 0.84487,12.4304 0.0174,1.30731 0.0174,1.31096 -0.0424,1.6566 l -6e-5,10e-6 m 17.44875,-42.36471 c -0.33054,0.25818 -0.78737,0.30133 -1.20178,0.11352 -0.26589,-0.12051 -0.58887,-0.43888 -0.68472,-0.67497 -0.094,-0.23147 -0.0912,-0.64138 0.006,-0.84227 0.0893,-0.18496 0.37695,-0.56142 1.43467,-1.69538 3.02778,-3.246012 4.40937,-5.073347 7.35009,-8.490887 2.06811,-2.403431 3.70637,-4.656205 8.34349,-9.475957 4.52514,-4.703373 7.44904,-6.201068 10.09704,-7.727859 4.57197,-2.636117 11.01047,-4.250895 15.14674,-4.378884 1.04694,-0.0324 1.12298,-0.0289 1.3262,0.06083 0.49974,0.220679 1.12334,0.639165 1.10661,1.178762 -0.0161,0.518454 -0.61844,0.931719 -1.09491,1.103992 -0.24817,0.08973 -0.99152,0.173775 -2.15241,0.243354 -4.6209,0.27696 -10.19472,1.797173 -15.1073,5.168708 -2.03774,1.398509 -3.17202,2.046447 -7.97063,6.544448 -5.18352,4.858795 -5.35461,6.060326 -7.46104,8.537431 -3.32883,3.914609 -4.97299,6.113162 -8.21064,9.447982 -0.91073,0.93807 -0.65075,0.67124 -0.92716,0.88722 l -5e-5,-4e-5 m 41.95566,-17.521594 c -0.41636,-0.05057 -0.77032,-0.342573 -0.93115,-0.768174 -0.10319,-0.273076 -0.1071,-0.726572 -0.008,-0.961424 0.0969,-0.230259 0.38832,-0.518527 0.59883,-0.592323 0.1938,-0.06794 0.64787,-0.14332 2.19768,-0.195007 4.4364,-0.14795 6.85806,-0.335326 11.33764,-0.845709 3.15033,-0.358932 5.8115,-0.80196 12.49968,-0.832358 6.5267,-0.02966 9.72761,0.815911 12.67034,1.642668 5.08083,1.427453 10.78012,4.715185 13.79138,7.553825 0.76218,0.718492 0.81339,0.774807 0.89334,0.982068 0.1966,0.509703 0.33603,1.222515 -0.0568,1.592807 -0.37746,0.355784 -1.09296,0.243094 -1.55139,0.02734 -0.23877,-0.112379 -0.82317,-0.579425 -1.69214,-1.352352 -3.45894,-3.076634 -8.52174,-5.7856 -14.36474,-6.952 -2.42367,-0.483823 -3.68188,-0.990975 -10.259,-0.978281 -7.10468,0.01371 -8.17801,0.526314 -11.42184,0.751085 -5.12628,0.35521 -7.79563,0.883075 -12.44311,0.945121 -1.30731,0.01745 -0.91218,0.02501 -1.2604,-0.01722 l -10e-6,-6e-5 m 42.10708,17.089668 c -0.25818,-0.33054 -0.30133,-0.78737 -0.11351,-1.20178 0.1205,-0.2659 0.43888,-0.58888 0.67496,-0.68472 0.23147,-0.094 0.64138,-0.0912 0.84227,0.006 0.18496,0.0893 0.57836,0.36002 1.71232,1.41774 3.24601,3.02777 5.14885,4.35005 8.56639,7.29077 2.40344,2.06811 4.72037,3.67154 9.54013,8.30866 4.70337,4.52514 6.29502,7.41731 7.82181,10.06531 2.63611,4.57197 4.35115,10.99777 4.47913,15.13404 0.0324,1.04694 0.0289,3.00556 -0.0608,3.20878 -0.22068,0.49974 -0.61362,0.76342 -1.15337,0.77399 -0.51861,0.0102 -0.95711,-0.28582 -1.12938,-0.76229 -0.0897,-0.24817 -0.17378,-2.8741 -0.24336,-4.03499 -0.27696,-4.6209 -1.92167,-10.17578 -5.2932,-15.08836 -1.39851,-2.03774 -1.85401,-3.31522 -6.58175,-7.88767 -5.10695,-4.93921 -6.1569,-5.37725 -8.634,-7.48368 -3.91461,-3.32883 -6.18867,-4.91367 -9.5235,-8.15132 -0.93806,-0.91074 -0.68817,-0.63383 -0.90415,-0.91023 l 4e-5,-5e-5"
             style="opacity:1;fill:#00a371;fill-opacity:1;fill-rule:nonzero;stroke:none;stroke-width:3.88259101;stroke-linecap:round;stroke-linejoin:round;stroke-miterlimit:4;stroke-dasharray:none;stroke-opacity:1;paint-order:markers stroke fill" />
        </g>
      </g>
      <circle
         r="60.729847"
         cy="59.108055"
         cx="-80.039238"
         id="path24302"
         style="opacity:1;fill:none;fill-opacity:1;fill-rule:nonzero;stroke:#eaaa22;stroke-width:0.99699807;stroke-linecap:round;stroke-linejoin:miter;stroke-miterlimit:4;stroke-dasharray:none;stroke-opacity:1;paint-order:normal" />
      <flowRoot
         transform="matrix(0.06813532,0,0,0.06813532,5.1539789,-109.42562)"
         style="font-style:normal;font-variant:normal;font-weight:normal;font-stretch:normal;font-size:399.99996948px;line-height:0;font-family:'Poiret One';-inkscape-font-specification:'Poiret One';letter-spacing:49.99999619px;word-spacing:0px;fill:#530098;fill-opacity:1;stroke:#ffedd6;stroke-width:28.79999924;stroke-miterlimit:4;stroke-dasharray:none;stroke-opacity:1;paint-order:markers stroke fill"
         id="flowRoot24304"
         xml:space="preserve"><flowRegion
           style="font-style:normal;font-variant:normal;font-weight:normal;font-stretch:normal;font-size:399.99996948px;font-family:'Poiret One';-inkscape-font-specification:'Poiret One';letter-spacing:49.99999619px;fill:#530098;fill-opacity:1;stroke:#ffedd6;stroke-width:28.79999924;stroke-miterlimit:4;stroke-dasharray:none;stroke-opacity:1;paint-order:markers stroke fill"
           id="flowRegion24306"><rect
             style="font-style:normal;font-variant:normal;font-weight:normal;font-stretch:normal;font-size:399.99996948px;font-family:'Poiret One';-inkscape-font-specification:'Poiret One';letter-spacing:49.99999619px;fill:#530098;fill-opacity:1;stroke:#ffedd6;stroke-width:28.79999924;stroke-miterlimit:4;stroke-dasharray:none;stroke-opacity:1;paint-order:markers stroke fill"
             y="2964.324"
             x="565.68542"
             height="828.32507"
             width="2048.5894"
             id="rect24308" /></flowRegion><flowPara
           id="flowPara24310">QUORUS</flowPara></flowRoot>      <path
         id="circle24314"
         d="M 225.40118,92.677414 A 120.619,120.619 0 0 1 104.78217,213.29642 120.619,120.619 0 0 1 -15.83683,92.677414 120.619,120.619 0 0 1 104.78217,-27.941589 120.619,120.619 0 0 1 225.40118,92.677414 Z"
         style="opacity:1;fill:none;fill-opacity:1;fill-rule:nonzero;stroke:#000000;stroke-width:2.13862777;stroke-linecap:round;stroke-linejoin:miter;stroke-miterlimit:4;stroke-dasharray:none;stroke-opacity:1;paint-order:markers stroke fill" />
      <g
         id="g24363"
         style="stroke:url(#linearGradient24536)">
        <g
           style="display:inline;opacity:0.97000002;stroke:url(#linearGradient24554);stroke-width:1.00012505;stroke-miterlimit:4;stroke-dasharray:none;stroke-opacity:1;enable-background:new"
           id="g952"
           transform="matrix(0.82727565,0,0,0.82727565,-18.905977,162.95468)"
           inkscape:export-filename="C:\Users\Mantissa\Projects\2018-wiki\app\images\logos\light.png"
           inkscape:export-xdpi="96"
           inkscape:export-ydpi="96">
          <path
             style="fill:none;fill-opacity:1;stroke:url(#linearGradient24556);stroke-width:0.5291667;stroke-linecap:square;stroke-linejoin:bevel;stroke-miterlimit:4;stroke-dasharray:none;stroke-opacity:1"
             d="m 469.4417,41.691089 c -26.75789,0 -42.26459,-31.00139 -64.56477,-31.00139 -22.77424,0 -37.80681,31.00139 -64.56473,31.00139"
             id="path942"
             inkscape:connector-curvature="0"
             sodipodi:nodetypes="ccc"
             inkscape:tile-x0="202.09218"
             inkscape:tile-y0="549.27497" />
          <path
             inkscape:tile-y0="549.27497"
             inkscape:tile-x0="202.09218"
             sodipodi:nodetypes="ccc"
             inkscape:connector-curvature="0"
             id="path944"
             d="m 469.41275,41.644559 c -26.74579,0 -42.24548,-42.882012 -64.53557,-42.882012 -22.76395,0 -37.78972,42.882012 -64.53554,42.882012"
             style="fill:none;fill-opacity:1;stroke:url(#linearGradient24558);stroke-width:1.0583334;stroke-linecap:square;stroke-linejoin:bevel;stroke-miterlimit:4;stroke-dasharray:none;stroke-opacity:1" />
          <path
             style="fill:none;fill-opacity:1;stroke:url(#linearGradient24560);stroke-width:1.58749998;stroke-linecap:square;stroke-linejoin:bevel;stroke-miterlimit:4;stroke-dasharray:none;stroke-opacity:1"
             d="m 469.36943,41.574959 c -26.72771,0 -42.21691,-64.25801 -64.49193,-64.25801 -22.74856,0 -37.76418,64.25801 -64.49191,64.25801"
             id="path946"
             inkscape:connector-curvature="0"
             sodipodi:nodetypes="ccc"
             inkscape:tile-x0="202.09218"
             inkscape:tile-y0="549.27497" />
          <path
             inkscape:tile-y0="549.27497"
             inkscape:tile-x0="202.09218"
             sodipodi:nodetypes="ccc"
             inkscape:connector-curvature="0"
             id="path948"
             d="m 469.42869,41.670169 c -26.75246,0 -42.256,-36.10449 -64.55165,-36.10449 -22.76961,0 -37.79912,36.10449 -64.5516,36.10449"
             style="fill:none;fill-opacity:1;stroke:url(#linearGradient24562);stroke-width:0.79374999;stroke-linecap:square;stroke-linejoin:bevel;stroke-miterlimit:4;stroke-dasharray:none;stroke-opacity:1" />
          <path
             style="fill:none;fill-opacity:1;stroke:url(#linearGradient24564);stroke-width:1.32291675;stroke-linecap:square;stroke-linejoin:bevel;stroke-miterlimit:4;stroke-dasharray:none;stroke-opacity:1"
             d="m 469.39398,41.614399 c -26.73794,0 -42.23309,-51.614858 -64.51664,-51.614858 -22.75727,0 -37.77864,51.614858 -64.51662,51.614858"
             id="path950"
             inkscape:connector-curvature="0"
             sodipodi:nodetypes="ccc"
             inkscape:tile-x0="202.09218"
             inkscape:tile-y0="549.27497" />
        </g>
        <g
           inkscape:export-ydpi="96"
           inkscape:export-xdpi="96"
           inkscape:export-filename="C:\Users\Mantissa\Projects\2018-wiki\app\images\logos\light.png"
           transform="matrix(0.82727565,0,0,0.82727565,121.07168,162.95468)"
           id="g24326"
           style="display:inline;opacity:0.97000002;stroke:url(#linearGradient24544);stroke-width:1.00012505;stroke-miterlimit:4;stroke-dasharray:none;enable-background:new;stroke-opacity:1">
          <path
             inkscape:tile-y0="549.27497"
             inkscape:tile-x0="202.09218"
             sodipodi:nodetypes="ccc"
             inkscape:connector-curvature="0"
             id="path24316"
             d="m 430.76159,41.691089 c -26.75789,0 -42.26459,-31.00139 -64.56477,-31.00139 -22.77424,0 -37.80681,31.00139 -64.56473,31.00139"
             style="fill:none;fill-opacity:1;stroke:url(#linearGradient24544);stroke-width:0.5291667;stroke-linecap:square;stroke-linejoin:bevel;stroke-miterlimit:4;stroke-dasharray:none;stroke-opacity:1" />
          <path
             style="fill:none;fill-opacity:1;stroke:url(#linearGradient24544);stroke-width:1.0583334;stroke-linecap:square;stroke-linejoin:bevel;stroke-miterlimit:4;stroke-dasharray:none;stroke-opacity:1"
             d="m 430.73264,41.644559 c -26.74579,0 -42.24548,-42.882012 -64.53557,-42.882012 -22.76395,0 -37.78972,42.882012 -64.53554,42.882012"
             id="path24318"
             inkscape:connector-curvature="0"
             sodipodi:nodetypes="ccc"
             inkscape:tile-x0="202.09218"
             inkscape:tile-y0="549.27497" />
          <path
             inkscape:tile-y0="549.27497"
             inkscape:tile-x0="202.09218"
             sodipodi:nodetypes="ccc"
             inkscape:connector-curvature="0"
             id="path24320"
             d="m 430.68932,41.574959 c -26.72771,0 -42.21691,-64.25801 -64.49193,-64.25801 -22.74856,0 -37.76418,64.25801 -64.49191,64.25801"
             style="fill:none;fill-opacity:1;stroke:url(#linearGradient24544);stroke-width:1.58749998;stroke-linecap:square;stroke-linejoin:bevel;stroke-miterlimit:4;stroke-dasharray:none;stroke-opacity:1" />
          <path
             style="fill:none;fill-opacity:1;stroke:url(#linearGradient24544);stroke-width:0.79374999;stroke-linecap:square;stroke-linejoin:bevel;stroke-miterlimit:4;stroke-dasharray:none;stroke-opacity:1"
             d="m 430.74858,41.670169 c -26.75246,0 -42.256,-36.10449 -64.55165,-36.10449 -22.76961,0 -37.79912,36.10449 -64.5516,36.10449"
             id="path24322"
             inkscape:connector-curvature="0"
             sodipodi:nodetypes="ccc"
             inkscape:tile-x0="202.09218"
             inkscape:tile-y0="549.27497" />
          <path
             inkscape:tile-y0="549.27497"
             inkscape:tile-x0="202.09218"
             sodipodi:nodetypes="ccc"
             inkscape:connector-curvature="0"
             id="path24324"
             d="m 430.71387,41.614399 c -26.73794,0 -42.23309,-51.614858 -64.51664,-51.614858 -22.75727,0 -37.77864,51.614858 -64.51662,51.614858"
             style="fill:none;fill-opacity:1;stroke:url(#linearGradient24544);stroke-width:1.32291675;stroke-linecap:square;stroke-linejoin:bevel;stroke-miterlimit:4;stroke-dasharray:none;stroke-opacity:1" />
        </g>
      </g>
      <circle
         r="120.619"
         cy="92.677414"
         cx="-285.05432"
         id="circle24365"
         style="opacity:1;fill:none;fill-opacity:1;fill-rule:nonzero;stroke:#000000;stroke-width:2.13862777;stroke-linecap:round;stroke-linejoin:miter;stroke-miterlimit:4;stroke-dasharray:none;stroke-opacity:1;paint-order:markers stroke fill" />
    </g>
  </g>
</svg>
