<?xml version="1.0" encoding="UTF-8" standalone="no"?>
<!-- Created with Inkscape (http://www.inkscape.org/) -->

<svg
   xmlns:dc="http://purl.org/dc/elements/1.1/"
   xmlns:cc="http://creativecommons.org/ns#"
   xmlns:rdf="http://www.w3.org/1999/02/22-rdf-syntax-ns#"
   xmlns:svg="http://www.w3.org/2000/svg"
   xmlns="http://www.w3.org/2000/svg"
   xmlns:sodipodi="http://sodipodi.sourceforge.net/DTD/sodipodi-0.dtd"
   xmlns:inkscape="http://www.inkscape.org/namespaces/inkscape"
   width="43.023655mm"
   height="14.679937mm"
   viewBox="0 0 43.023655 14.679937"
   version="1.1"
   id="svg13304"
   inkscape:version="0.92.3 (2405546, 2018-03-11)"
   sodipodi:docname="Plasmid-Gallery.svg">
  <defs
     id="defs13298">
    <marker
       inkscape:stockid="Arrow1Mend"
       orient="auto"
       refY="0.0"
       refX="0.0"
       id="marker16670"
       style="overflow:visible;"
       inkscape:isstock="true">
      <path
         id="path16668"
         d="M 0.0,0.0 L 5.0,-5.0 L -12.5,0.0 L 5.0,5.0 L 0.0,0.0 z "
         style="fill-rule:evenodd;stroke:#000000;stroke-width:1pt;stroke-opacity:1;fill:#000000;fill-opacity:1"
         transform="scale(0.4) rotate(180) translate(10,0)" />
    </marker>
    <marker
       inkscape:stockid="Arrow1Mend"
       orient="auto"
       refY="0.0"
       refX="0.0"
       id="marker16600"
       style="overflow:visible;"
       inkscape:isstock="true">
      <path
         id="path16598"
         d="M 0.0,0.0 L 5.0,-5.0 L -12.5,0.0 L 5.0,5.0 L 0.0,0.0 z "
         style="fill-rule:evenodd;stroke:#000000;stroke-width:1pt;stroke-opacity:1;fill:#000000;fill-opacity:1"
         transform="scale(0.4) rotate(180) translate(10,0)" />
    </marker>
    <marker
       inkscape:stockid="Arrow1Mend"
       orient="auto"
       refY="0.0"
       refX="0.0"
       id="Arrow1Mend"
       style="overflow:visible;"
       inkscape:isstock="true">
      <path
         id="path5613"
         d="M 0.0,0.0 L 5.0,-5.0 L -12.5,0.0 L 5.0,5.0 L 0.0,0.0 z "
         style="fill-rule:evenodd;stroke:#000000;stroke-width:1pt;stroke-opacity:1;fill:#000000;fill-opacity:1"
         transform="scale(0.4) rotate(180) translate(10,0)" />
    </marker>
    <marker
       inkscape:stockid="Arrow1Lend"
       orient="auto"
       refY="0.0"
       refX="0.0"
       id="Arrow1Lend"
       style="overflow:visible;"
       inkscape:isstock="true">
      <path
         id="path5607"
         d="M 0.0,0.0 L 5.0,-5.0 L -12.5,0.0 L 5.0,5.0 L 0.0,0.0 z "
         style="fill-rule:evenodd;stroke:#000000;stroke-width:1pt;stroke-opacity:1;fill:#000000;fill-opacity:1"
         transform="scale(0.8) rotate(180) translate(12.5,0)" />
    </marker>
    <marker
       inkscape:stockid="Arrow2Mend"
       orient="auto"
       refY="0.0"
       refX="0.0"
       id="marker16388"
       style="overflow:visible;"
       inkscape:isstock="true">
      <path
         id="path16386"
         style="fill-rule:evenodd;stroke-width:0.625;stroke-linejoin:round;stroke:#000000;stroke-opacity:1;fill:#000000;fill-opacity:1"
         d="M 8.7185878,4.0337352 L -2.2072895,0.016013256 L 8.7185884,-4.0017078 C 6.9730900,-1.6296469 6.9831476,1.6157441 8.7185878,4.0337352 z "
         transform="scale(0.6) rotate(180) translate(0,0)" />
    </marker>
    <marker
       inkscape:isstock="true"
       style="overflow:visible"
       id="marker14849"
       refX="0"
       refY="0"
       orient="auto"
       inkscape:stockid="Arrow2Send">
      <path
         transform="matrix(-0.3,0,0,-0.3,0.69,0)"
         d="M 8.7185878,4.0337352 -2.2072895,0.01601326 8.7185884,-4.0017078 c -1.7454984,2.3720609 -1.7354408,5.6174519 -6e-7,8.035443 z"
         style="fill:#000000;fill-opacity:1;fill-rule:evenodd;stroke:#000000;stroke-width:0.625;stroke-linejoin:round;stroke-opacity:1"
         id="path14847"
         inkscape:connector-curvature="0" />
    </marker>
    <marker
       inkscape:isstock="true"
       style="overflow:visible"
       id="marker14457"
       refX="0"
       refY="0"
       orient="auto"
       inkscape:stockid="Arrow2Send">
      <path
         transform="matrix(-0.3,0,0,-0.3,0.69,0)"
         d="M 8.7185878,4.0337352 -2.2072895,0.01601326 8.7185884,-4.0017078 c -1.7454984,2.3720609 -1.7354408,5.6174519 -6e-7,8.035443 z"
         style="fill:#000000;fill-opacity:1;fill-rule:evenodd;stroke:#000000;stroke-width:0.625;stroke-linejoin:round;stroke-opacity:1"
         id="path14455"
         inkscape:connector-curvature="0" />
    </marker>
    <marker
       inkscape:stockid="Arrow2Mend"
       orient="auto"
       refY="0"
       refX="0"
       id="Arrow2Mend"
       style="overflow:visible"
       inkscape:isstock="true">
      <path
         id="path5631"
         style="fill:#000000;fill-opacity:1;fill-rule:evenodd;stroke:#000000;stroke-width:0.625;stroke-linejoin:round;stroke-opacity:1"
         d="M 8.7185878,4.0337352 -2.2072895,0.01601326 8.7185884,-4.0017078 c -1.7454984,2.3720609 -1.7354408,5.6174519 -6e-7,8.035443 z"
         transform="scale(-0.6)"
         inkscape:connector-curvature="0" />
    </marker>
  </defs>
  <sodipodi:namedview
     id="base"
     pagecolor="#ffffff"
     bordercolor="#666666"
     borderopacity="1.0"
     inkscape:pageopacity="0.0"
     inkscape:pageshadow="2"
     inkscape:zoom="2.8"
     inkscape:cx="109.23166"
     inkscape:cy="28.700337"
     inkscape:document-units="mm"
     inkscape:current-layer="layer1"
     showgrid="false"
     inkscape:window-width="1920"
     inkscape:window-height="1017"
     inkscape:window-x="-8"
     inkscape:window-y="-8"
     inkscape:window-maximized="1"
     inkscape:snap-global="false"
     fit-margin-top="0"
     fit-margin-left="0"
     fit-margin-right="0"
     fit-margin-bottom="0" />
  <metadata
     id="metadata13301">
    <rdf:RDF>
      <cc:Work
         rdf:about="">
        <dc:format>image/svg+xml</dc:format>
        <dc:type
           rdf:resource="http://purl.org/dc/dcmitype/StillImage" />
        <dc:title></dc:title>
      </cc:Work>
    </rdf:RDF>
  </metadata>
  <g
     inkscape:label="Layer 1"
     inkscape:groupmode="layer"
     id="layer1"
     transform="translate(-30.419274,-125.95678)">
    <path
       inkscape:transform-center-y="4.8348263"
       inkscape:transform-center-x="-5.6122803"
       id="path14831"
       style="opacity:1;fill:none;fill-opacity:1;fill-rule:nonzero;stroke:#000000;stroke-width:0.26458448;stroke-linecap:round;stroke-linejoin:miter;stroke-miterlimit:4;stroke-dasharray:none;stroke-opacity:1;paint-order:markers stroke fill"
       sodipodi:type="arc"
       sodipodi:cx="-46.717892"
       sodipodi:cy="116.26311"
       sodipodi:rx="10.434848"
       sodipodi:ry="10.433548"
       sodipodi:start="0.57901242"
       sodipodi:end="1.6959089"
       d="m -37.983888,121.97232 a 10.434848,10.433548 0 0 1 -10.036131,4.64278 l 1.302127,-10.35199 z"
       transform="matrix(0.69498206,-0.71902707,0.71612065,0.69797651,0,0)" />
    <path
       id="path14453"
       style="opacity:1;fill:none;fill-opacity:1;fill-rule:nonzero;stroke:#000000;stroke-width:0.26458436;stroke-linecap:round;stroke-linejoin:miter;stroke-miterlimit:4;stroke-dasharray:none;stroke-opacity:1;paint-order:markers stroke fill"
       sodipodi:type="arc"
       sodipodi:cx="108.04877"
       sodipodi:cy="63.484032"
       sodipodi:rx="10.427279"
       sodipodi:ry="10.441112"
       sodipodi:start="1.276778"
       sodipodi:end="1.6959089"
       d="m 111.0706,73.477085 a 10.427279,10.441112 0 0 1 -4.32302,0.366447 l 1.30119,-10.3595 z"
       inkscape:transform-center-x="3.9409219"
       inkscape:transform-center-y="6.2422091"
       transform="matrix(0.81048559,0.58575857,-0.58254543,0.81279815,0,0)" />
    <path
       id="circle14343"
       style="opacity:1;fill:none;fill-opacity:1;fill-rule:nonzero;stroke:#000000;stroke-width:0.26458418;stroke-linecap:round;stroke-linejoin:miter;stroke-miterlimit:4;stroke-dasharray:none;stroke-opacity:1;paint-order:markers stroke fill"
       sodipodi:type="arc"
       sodipodi:cx="114.38256"
       sodipodi:cy="31.117998"
       sodipodi:rx="7.102437"
       sodipodi:ry="7.0896778"
       sodipodi:start="1.0480093"
       sodipodi:end="1.6959089"
       d="m 117.92879,37.260715 a 7.102437,7.0896778 0 0 1 -4.43252,0.891545 l 0.88629,-7.034262 z"
       transform="matrix(0.49333316,0.86984044,-0.86806343,0.49645331,0,0)" />
    <ellipse
       style="opacity:1;fill:#ffffff;fill-opacity:1;fill-rule:nonzero;stroke:#000000;stroke-width:0.26458418;stroke-linecap:round;stroke-linejoin:miter;stroke-miterlimit:4;stroke-dasharray:none;stroke-opacity:1;paint-order:normal"
       id="path13855"
       cx="114.38256"
       cy="31.117998"
       rx="5.9576774"
       ry="5.9469752"
       transform="matrix(0.49333316,0.86984044,-0.86806343,0.49645331,0,0)" />
    <path
       style="fill:none;stroke:#000000;stroke-width:0.26458332;stroke-linecap:butt;stroke-linejoin:miter;stroke-miterlimit:4;stroke-dasharray:none;stroke-opacity:1;marker-end:url(#Arrow1Mend)"
       d="m 52.697689,106.35465 0.434487,-1.61722 c 1.287994,0.0505 3.104979,1.18907 3.104979,1.18907"
       id="path13861"
       inkscape:connector-curvature="0"
       sodipodi:nodetypes="ccc" />
    <path
       id="circle14329"
       style="opacity:1;fill:none;fill-opacity:1;fill-rule:nonzero;stroke:#000000;stroke-width:0.26458418;stroke-linecap:round;stroke-linejoin:miter;stroke-miterlimit:4;stroke-dasharray:none;stroke-opacity:1;paint-order:markers stroke fill"
       sodipodi:type="arc"
       sodipodi:cx="119.2735"
       sodipodi:cy="34.770344"
       sodipodi:rx="1.2303898"
       sodipodi:ry="1.2281796"
       sodipodi:start="5.2319094"
       sodipodi:end="2.3382357"
       d="m 119.88434,33.704213 a 1.2303898,1.2281796 0 0 1 0.61575,1.162519 1.2303898,1.2281796 0 0 1 -0.7904,1.05202 1.2303898,1.2281796 0 0 1 -1.29044,-0.264499"
       sodipodi:open="true"
       transform="matrix(0.49333316,0.86984044,-0.86806343,0.49645331,0,0)" />
    <path
       id="path14351"
       style="opacity:1;fill:none;fill-opacity:1;fill-rule:nonzero;stroke:#000000;stroke-width:0.26458457;stroke-linecap:round;stroke-linejoin:miter;stroke-miterlimit:4;stroke-dasharray:none;stroke-opacity:1;paint-order:markers stroke fill"
       sodipodi:type="arc"
       sodipodi:cx="-30.865337"
       sodipodi:cy="133.37791"
       sodipodi:rx="7.6751161"
       sodipodi:ry="7.6735559"
       sodipodi:start="1.879509"
       sodipodi:end="2.191439"
       d="m -33.197286,140.68871 a 7.6751161,7.6735559 0 0 1 -2.131577,-1.06832 l 4.463526,-6.24248 z"
       inkscape:transform-center-x="-1.555787"
       inkscape:transform-center-y="4.0643416"
       transform="matrix(0.68873432,-0.72501381,0.72202755,0.69186431,0,0)" />
    <ellipse
       cy="114.75028"
       cx="74.889832"
       id="circle14355"
       style="opacity:1;fill:#ffffff;fill-opacity:1;fill-rule:nonzero;stroke:#000000;stroke-width:0.26458332;stroke-linecap:round;stroke-linejoin:miter;stroke-miterlimit:4;stroke-dasharray:none;stroke-opacity:1;paint-order:normal"
       rx="6.4234447"
       ry="6.451324" />
    <path
       sodipodi:nodetypes="ccc"
       inkscape:connector-curvature="0"
       id="path14359"
       d="m 80.841988,112.24337 1.244783,-0.46006 c 0.539355,0.92013 0.606177,2.72123 0.606177,2.72123"
       style="fill:none;stroke:#000000;stroke-width:0.26458332;stroke-linecap:butt;stroke-linejoin:miter;stroke-miterlimit:4;stroke-dasharray:none;stroke-opacity:1;marker-end:url(#marker16600)" />
    <path
       sodipodi:open="true"
       d="m 80.821724,117.55583 a 1.3265809,1.3323386 0 0 1 0.663889,1.26111 1.3265809,1.3323386 0 0 1 -0.852193,1.14124 1.3265809,1.3323386 0 0 1 -1.391334,-0.28693"
       sodipodi:end="2.3382357"
       sodipodi:start="5.2319094"
       sodipodi:ry="1.3323386"
       sodipodi:rx="1.3265809"
       sodipodi:cy="118.71238"
       sodipodi:cx="80.163124"
       sodipodi:type="arc"
       style="opacity:1;fill:none;fill-opacity:1;fill-rule:nonzero;stroke:#000000;stroke-width:0.26458332;stroke-linecap:round;stroke-linejoin:miter;stroke-miterlimit:4;stroke-dasharray:none;stroke-opacity:1;paint-order:markers stroke fill"
       id="path14361" />
    <path
       d="m 55.849564,123.94428 a 10.412395,10.455956 0 0 1 -6.498201,1.31487 l 1.299325,-10.37423 z"
       sodipodi:end="1.6959089"
       sodipodi:start="1.0480093"
       sodipodi:ry="10.455956"
       sodipodi:rx="10.412395"
       sodipodi:cy="114.88492"
       sodipodi:cx="50.650688"
       sodipodi:type="arc"
       style="opacity:1;fill:none;fill-opacity:1;fill-rule:nonzero;stroke:#000000;stroke-width:0.26458332;stroke-linecap:round;stroke-linejoin:miter;stroke-miterlimit:4;stroke-dasharray:none;stroke-opacity:1;paint-order:markers stroke fill"
       id="path14393"
       inkscape:transform-center-x="-1.8045027"
       inkscape:transform-center-y="6.1602075" />
    <ellipse
       cy="114.88492"
       cx="50.650688"
       id="circle14395"
       style="opacity:1;fill:#ffffff;fill-opacity:1;fill-rule:nonzero;stroke:#000000;stroke-width:0.26458332;stroke-linecap:round;stroke-linejoin:miter;stroke-miterlimit:4;stroke-dasharray:none;stroke-opacity:1;paint-order:normal"
       rx="8.7341423"
       ry="8.7706823" />
    <circle
       r="0"
       cy="123.36323"
       cx="53.453903"
       id="ellipse14397"
       style="opacity:1;fill:#ffffff;fill-opacity:1;fill-rule:nonzero;stroke:#000000;stroke-width:0.5291667;stroke-linecap:round;stroke-linejoin:miter;stroke-miterlimit:4;stroke-dasharray:none;stroke-opacity:1;paint-order:normal" />
    <path
       sodipodi:open="true"
       d="m -89.453615,82.589284 a 1.8108227,1.8043057 0 0 1 0.90623,1.707844 1.8108227,1.8043057 0 0 1 -1.16327,1.545512 1.8108227,1.8043057 0 0 1 -1.899213,-0.388572"
       sodipodi:end="2.3382357"
       sodipodi:start="5.2319094"
       sodipodi:ry="1.8043057"
       sodipodi:rx="1.8108227"
       sodipodi:cy="84.155525"
       sodipodi:cx="-90.352623"
       sodipodi:type="arc"
       style="opacity:1;fill:none;fill-opacity:1;fill-rule:nonzero;stroke:#000000;stroke-width:0.26458365;stroke-linecap:round;stroke-linejoin:miter;stroke-miterlimit:4;stroke-dasharray:none;stroke-opacity:1;paint-order:markers stroke fill"
       id="path14401"
       transform="matrix(0.26011542,-0.96557753,0.96502792,0.26214711,0,0)" />
    <path
       style="fill:none;stroke:#000000;stroke-width:0.26458332;stroke-linecap:butt;stroke-linejoin:miter;stroke-miterlimit:4;stroke-dasharray:none;stroke-opacity:1;marker-end:url(#marker16670)"
       d="m 33.128434,119.5788 0.841202,1.02985 c -0.688609,0.81352 -2.360995,1.46785 -2.360995,1.46785"
       id="path14845"
       inkscape:connector-curvature="0"
       sodipodi:nodetypes="ccc" />
    <path
       style="opacity:1;fill:#000000;fill-opacity:1;fill-rule:nonzero;stroke:none;stroke-width:0.26458332;stroke-linecap:round;stroke-linejoin:miter;stroke-miterlimit:4;stroke-dasharray:none;stroke-opacity:1;paint-order:normal"
       d="m 28.344418,158.23344 c -0.463568,-0.11224 -0.847794,-0.4886 -0.985473,-0.96528 -0.04168,-0.14429 -0.0542,-0.43396 -0.02581,-0.59703 l 0.01679,-0.0965 -0.219927,-0.0903 c -0.12096,-0.0497 -0.323052,-0.14164 -0.449094,-0.20439 l -0.229168,-0.11408 -0.127827,0.21815 c -0.0703,0.11998 -0.19432,0.33257 -0.275591,0.47242 -0.08127,0.13984 -0.157224,0.26011 -0.168785,0.26725 -0.04521,0.0279 -0.591294,-0.3334 -1.004239,-0.66451 -0.746368,-0.59845 -1.438046,-1.45678 -1.876232,-2.32829 -0.106746,-0.21231 -0.28553,-0.61658 -0.276217,-0.62459 0.0032,-0.003 0.229107,-0.0975 0.501958,-0.21059 0.272852,-0.11306 0.504744,-0.21385 0.515315,-0.22399 0.01057,-0.0101 -0.01788,-0.12933 -0.06322,-0.26486 -0.488946,-1.4614 -0.414209,-3.03294 0.211378,-4.44473 0.311952,-0.70399 0.745014,-1.31994 1.323963,-1.88309 1.816037,-1.76647 4.515564,-2.21153 6.804711,-1.12186 0.886488,0.42198 1.641489,1.0395 2.236223,1.82902 0.665651,0.88365 1.097331,2.00171 1.198932,3.10524 0.03419,0.37135 0.0159,1.08659 -0.03663,1.43248 -0.215119,1.41649 -0.915364,2.72206 -1.969189,3.67146 -0.06909,0.0623 -0.120585,0.12536 -0.114436,0.14026 0.01016,0.0246 0.241452,0.3106 0.649447,0.80299 l 0.153544,0.18531 -0.234223,0.22882 c -0.256064,0.25016 -0.507753,0.4383 -0.907461,0.67832 -0.14294,0.0858 -0.25989,0.15852 -0.25989,0.16152 0,0.003 0.169823,0.0784 0.377384,0.1676 0.207561,0.0892 0.373311,0.16621 0.368334,0.17118 -0.008,0.008 -2.15097,0.21744 -2.230062,0.21793 -0.01732,1.2e-4 -0.02795,-0.01 -0.02362,-0.022 0.01007,-0.0283 1.742216,-1.348 1.769348,-1.348 0.01826,0 -0.09952,0.29934 -0.168479,0.4282 -0.02389,0.0446 -0.02219,0.0494 0.01289,0.0359 0.155684,-0.0597 0.876463,-0.59832 0.941501,-0.70351 0.01922,-0.0311 -0.03734,-0.11376 -0.290893,-0.42522 -0.173114,-0.21265 -0.326763,-0.39989 -0.341445,-0.41609 -0.02087,-0.023 -0.06257,-0.003 -0.191295,0.0899 -0.255738,0.18542 -0.64561,0.41422 -0.971155,0.56995 -0.514008,0.24587 -1.313048,0.4797 -1.809284,0.52946 l -0.158991,0.0159 -0.01234,0.0854 c -0.05886,0.4071 -0.172216,0.65616 -0.404217,0.88816 -0.169758,0.16976 -0.440944,0.31809 -0.666312,0.36445 -0.162833,0.0335 -0.432858,0.0296 -0.590205,-0.008 z m 0.517272,-0.22559 c 0.297317,-0.0551 0.600891,-0.27232 0.759484,-0.54337 0.06915,-0.11819 0.135528,-0.34631 0.135528,-0.46579 v -0.0779 l -0.159458,0.0147 c -0.364605,0.0337 -1.192918,-0.0641 -1.728883,-0.20415 -0.210477,-0.055 -0.274304,-0.064 -0.289027,-0.0408 -0.02668,0.042 -0.02309,0.36402 0.0054,0.48779 0.06933,0.30074 0.296099,0.58662 0.573928,0.72352 0.247945,0.12218 0.450721,0.15275 0.702993,0.10597 z m -2.839153,-1.58375 c 0.12114,-0.2084 0.216248,-0.38255 0.211352,-0.38699 -0.0049,-0.004 -0.09926,-0.069 -0.209701,-0.1435 -0.868862,-0.58597 -1.586802,-1.4196 -2.07018,-2.40379 -0.04946,-0.10069 -0.09814,-0.18308 -0.108181,-0.18308 -0.04992,0 -0.780505,0.31869 -0.79054,0.34484 -0.0064,0.0166 0.07157,0.19295 0.173252,0.39176 0.528973,1.03432 1.298411,1.91051 2.26412,2.57824 0.142922,0.0988 0.271056,0.18007 0.284742,0.18056 0.01369,4.7e-4 0.123997,-0.16963 0.245136,-0.37804 z m 4.105026,0.22449 c 1.269864,-0.16541 2.417533,-0.71572 3.323236,-1.59352 0.968097,-0.93827 1.549372,-2.10448 1.742746,-3.49647 0.0465,-0.33469 0.03928,-1.17246 -0.01313,-1.52371 -0.195895,-1.31302 -0.792179,-2.48175 -1.729618,-3.39011 -0.890768,-0.86313 -1.986372,-1.39674 -3.257062,-1.58635 -0.329945,-0.0492 -1.301391,-0.0426 -1.640992,0.0112 -0.838813,0.13287 -1.640632,0.44463 -2.340779,0.91012 -0.887449,0.59003 -1.546125,1.33949 -2.006812,2.2834 -0.199907,0.4096 -0.310269,0.70577 -0.412473,1.10692 -0.358103,1.40558 -0.218641,2.78805 0.410239,4.06663 0.568611,1.15605 1.473887,2.07012 2.615541,2.64097 0.620804,0.31041 1.278304,0.5 2.052359,0.59178 0.212268,0.0252 1.004387,0.012 1.256742,-0.0208 z"
       id="path16854"
       inkscape:connector-curvature="0" />
    <path
       style="opacity:1;fill:#000000;fill-opacity:1;fill-rule:nonzero;stroke:none;stroke-width:0.26458332;stroke-linecap:round;stroke-linejoin:miter;stroke-miterlimit:4;stroke-dasharray:none;stroke-opacity:1;paint-order:normal"
       d="m 76.375874,158.23947 c -0.0045,-0.015 -0.05428,-0.27155 -0.110601,-0.57014 -0.05632,-0.29859 -0.105243,-0.54579 -0.108712,-0.54933 -0.0035,-0.004 -0.106137,0.009 -0.228158,0.0285 -0.406294,0.064 -0.582991,0.0772 -1.032012,0.077 -0.611696,-2.1e-4 -1.057733,-0.0538 -1.603619,-0.19264 -2.197314,-0.5589 -3.951152,-2.21448 -4.643355,-4.38321 -0.136636,-0.42809 -0.247581,-0.99944 -0.285634,-1.47096 -0.02798,-0.34668 -0.01119,-1.04428 0.03294,-1.36878 0.173363,-1.2748 0.678911,-2.42146 1.50241,-3.40768 0.19543,-0.23405 0.639729,-0.66762 0.884788,-0.86342 0.98057,-0.78348 2.057017,-1.24007 3.327363,-1.41137 0.280974,-0.0379 1.205976,-0.0434 1.486686,-0.009 1.08463,0.13353 2.0266,0.47784 2.914909,1.06548 0.958657,0.63418 1.768523,1.56687 2.272456,2.61712 0.0518,0.10795 0.09884,0.19627 0.104532,0.19627 0.0057,0 0.28802,-0.10267 0.62739,-0.22815 0.594929,-0.21999 0.617919,-0.22702 0.641596,-0.19628 0.04858,0.0631 0.220179,0.43631 0.27866,0.60611 0.08791,0.25528 0.199564,0.71365 0.24652,1.0121 0.0039,0.025 0.07112,-0.038 0.280527,-0.26309 0.15145,-0.16276 0.28194,-0.29592 0.289981,-0.29592 0.008,0 0.01135,0.0131 0.0074,0.0292 -0.004,0.0161 -0.126685,0.51607 -0.27265,1.11109 -0.145966,0.59502 -0.272759,1.0794 -0.281768,1.07639 -0.01447,-0.005 -0.711751,-2.115 -0.711751,-2.15396 0,-0.0286 0.0311,-0.005 0.211228,0.1613 0.09873,0.0911 0.182292,0.15724 0.185692,0.14704 0.0098,-0.0295 -0.123629,-0.55098 -0.189635,-0.74102 -0.05516,-0.15882 -0.164481,-0.41525 -0.176966,-0.41512 -0.0089,1e-4 -1.037087,0.38308 -1.042212,0.38821 -0.0026,0.003 0.02863,0.0969 0.0695,0.20958 0.374867,1.0331 0.476409,2.19693 0.289603,3.31932 -0.07133,0.42857 -0.217319,0.94309 -0.384379,1.35468 -0.04511,0.11115 -0.08201,0.20887 -0.08199,0.21716 1.6e-5,0.008 0.03563,0.0376 0.07916,0.0651 0.11208,0.0708 0.295814,0.24851 0.38237,0.36981 0.09056,0.12691 0.193429,0.34558 0.230778,0.49058 0.03919,0.15214 0.05181,0.42271 0.02691,0.57702 -0.09536,0.5911 -0.522137,1.05545 -1.099952,1.19676 -0.198618,0.0486 -0.491541,0.048 -0.680022,-0.001 -0.169222,-0.0443 -0.415779,-0.16509 -0.539337,-0.26434 -0.05249,-0.0421 -0.104537,-0.0837 -0.115668,-0.0923 -0.01408,-0.0109 -0.075,0.0282 -0.200451,0.12874 -0.09912,0.0794 -0.287329,0.21689 -0.418251,0.30545 -0.130921,0.0886 -0.238037,0.16665 -0.238037,0.17353 0,0.0108 0.399261,0.75041 0.536228,0.9933 l 0.04807,0.0852 -0.187746,0.0981 c -0.707633,0.36974 -1.355786,0.60442 -2.095722,0.7588 -0.199128,0.0415 -0.221644,0.0434 -0.229032,0.0188 z m 0.50087,-0.33674 c 0.32634,-0.0824 0.775761,-0.23231 1.0752,-0.35859 0.251307,-0.10598 0.585994,-0.27006 0.585994,-0.28728 0,-0.006 -0.102605,-0.20079 -0.228012,-0.43241 l -0.228013,-0.42113 -0.277294,0.13838 c -0.411297,0.20525 -0.874022,0.38054 -1.260292,0.47742 -0.0879,0.022 -0.143735,0.0441 -0.139777,0.0553 0.0036,0.0102 0.04327,0.21592 0.08809,0.45709 0.04716,0.25374 0.08913,0.43849 0.09961,0.43849 0.0099,0 0.137981,-0.0303 0.284491,-0.0673 z m -1.262068,-0.95989 c 0.715629,-0.0862 1.389481,-0.2858 2.029579,-0.60132 0.677553,-0.33399 1.170625,-0.68533 1.687494,-1.20244 0.488178,-0.4884 0.855938,-0.99438 1.16073,-1.597 0.867394,-1.71496 0.926044,-3.65084 0.164412,-5.42686 -0.627708,-1.46372 -1.879846,-2.69428 -3.361481,-3.30355 -0.786252,-0.32332 -1.542251,-0.47184 -2.403671,-0.47223 -0.71892,-3.2e-4 -1.297366,0.0907 -1.958721,0.30816 -2.371058,0.77971 -4.050419,2.872 -4.307866,5.36711 -0.03034,0.2941 -0.03493,0.91769 -0.0089,1.20674 0.156062,1.73104 1.008028,3.31272 2.371289,4.4023 0.953439,0.76204 2.151353,1.23421 3.407685,1.34316 0.251989,0.0219 0.952841,0.008 1.219417,-0.0241 z m 4.751149,-1.1363 c 0.272243,-0.0475 0.483434,-0.16261 0.675503,-0.36828 0.202546,-0.21688 0.319643,-0.5146 0.319643,-0.81267 0,-0.19791 -0.03719,-0.3562 -0.12827,-0.546 -0.06305,-0.13138 -0.09893,-0.18077 -0.219922,-0.30269 -0.07952,-0.0801 -0.168627,-0.15794 -0.198009,-0.1729 l -0.05342,-0.0272 -0.07849,0.14615 c -0.311377,0.57977 -0.674346,1.07742 -1.124693,1.54201 -0.119663,0.12345 -0.217763,0.22883 -0.217996,0.23417 -7.94e-4,0.0178 0.190291,0.15171 0.284425,0.19938 0.149553,0.0757 0.351189,0.12592 0.527301,0.13126 0.03784,0.001 0.134112,-0.009 0.213931,-0.0232 z"
       id="path16858"
       inkscape:connector-curvature="0" />
    <path
       style="opacity:1;fill:#000000;fill-opacity:1;fill-rule:nonzero;stroke:none;stroke-width:0.26458332;stroke-linecap:round;stroke-linejoin:miter;stroke-miterlimit:4;stroke-dasharray:none;stroke-opacity:1;paint-order:normal"
       d="m 49.63158,161.31587 c -0.192935,-0.0172 -0.36341,-0.0435 -0.378832,-0.0584 -0.01542,-0.0149 0.01805,-0.39247 0.07438,-0.83899 0.05633,-0.44652 0.09902,-0.81376 0.09486,-0.81608 -0.0042,-0.002 -0.210524,-0.0438 -0.458584,-0.0921 -0.385979,-0.0752 -0.893014,-0.20484 -1.069993,-0.27349 -0.04089,-0.0159 -0.103295,0.13461 -0.314217,0.75768 -0.144754,0.42761 -0.275376,0.79124 -0.29027,0.80807 -0.0664,0.075 -1.363938,-0.49835 -2.060322,-0.91044 -0.585506,-0.34647 -1.63093,-1.13467 -1.841521,-1.38842 -0.03606,-0.0435 0.04132,-0.14118 0.520245,-0.65705 0.309435,-0.33331 0.567812,-0.62011 0.574172,-0.63734 0.0064,-0.0172 -0.09917,-0.14728 -0.234502,-0.28898 -1.337981,-1.40091 -2.17732,-3.22107 -2.398876,-5.20212 -0.05061,-0.45255 -0.04163,-1.51197 0.01682,-1.9841 0.443092,-3.57903 2.951839,-6.51779 6.403949,-7.50163 1.193622,-0.34018 2.622873,-0.41447 3.851638,-0.20021 0.165373,0.0288 0.349538,0.0608 0.409257,0.0711 0.07715,0.0132 0.108578,0.006 0.108578,-0.0255 0,-0.0243 0.09143,-0.38395 0.203179,-0.79924 l 0.203179,-0.75506 0.263396,0.0255 c 0.446022,0.0431 1.087075,0.23297 1.644429,0.487 0.142751,0.0651 0.268271,0.10957 0.278934,0.0989 0.01066,-0.0107 -0.01217,-0.15381 -0.05074,-0.31811 -0.07809,-0.33263 -0.08375,-0.38458 -0.04011,-0.36839 0.059,0.0219 1.440002,1.58133 1.409411,1.59152 -0.02624,0.009 -0.574856,-0.14464 -1.781872,-0.4982 -0.212404,-0.0622 -0.278688,-0.11479 -0.183748,-0.14576 0.02297,-0.007 0.116931,-0.0343 0.208804,-0.0595 l 0.167044,-0.0459 -0.167044,-0.0752 c -0.434517,-0.19572 -1.251369,-0.43576 -1.489681,-0.43775 -0.08429,-7.2e-4 -0.09105,0.0162 -0.26301,0.65868 -0.09707,0.36267 -0.183107,0.67663 -0.191188,0.69769 -0.0089,0.0232 0.08135,0.0664 0.229601,0.10981 1.036199,0.30333 2.173333,0.88357 2.993167,1.5273 l 0.209811,0.16475 0.174389,-0.16812 c 0.457855,-0.4414 1.247964,-0.60062 1.866425,-0.37613 0.319752,0.11606 0.520068,0.24294 0.746797,0.47301 0.71264,0.72314 0.738704,1.89366 0.05853,2.62833 -0.153215,0.16549 -0.263536,0.25667 -0.500632,0.41373 -0.0043,0.003 0.05773,0.1545 0.137819,0.33703 0.149096,0.3398 0.454623,1.23651 0.454623,1.3343 0,0.0363 0.01947,0.0485 0.05846,0.0367 0.104148,-0.0315 1.694074,-0.38771 1.730632,-0.38771 0.0737,0 0.232225,0.99743 0.287644,1.80979 0.04394,0.64404 0.0078,1.49941 -0.0908,2.14914 -0.335873,2.21328 -1.322456,4.22098 -2.854563,5.80904 -0.343387,0.35592 -1.010835,0.95622 -1.063189,0.95622 -0.02035,0 -0.911312,-1.09652 -1.012454,-1.24602 -0.01155,-0.0171 -0.139343,0.0589 -0.283974,0.16893 -0.144631,0.10998 -0.383068,0.27814 -0.529861,0.37367 -0.146792,0.0955 -0.271817,0.17862 -0.277832,0.18464 -0.006,0.006 0.172045,0.32823 0.39569,0.71604 0.223646,0.3878 0.398845,0.72538 0.389331,0.75017 -0.02462,0.0642 -1.172568,0.6255 -1.61005,0.7873 -0.851207,0.31482 -1.759636,0.52878 -2.629984,0.61946 -0.537541,0.056 -1.531006,0.061 -2.097345,0.0105 z m 2.488947,-0.2924 c 0.832795,-0.12657 1.70848,-0.3651 2.419318,-0.659 0.325086,-0.13441 1.138708,-0.53624 1.138708,-0.56238 0,-0.009 -0.15836,-0.2938 -0.351911,-0.63185 l -0.351911,-0.61464 -0.508363,0.24563 c -1.345541,0.65014 -2.915163,0.96343 -4.316953,0.86165 -0.257247,-0.0187 -0.471801,-0.0308 -0.476785,-0.0269 -0.02646,0.0206 -0.183108,1.38925 -0.161481,1.41094 0.04999,0.0502 0.482101,0.0695 1.306439,0.0587 0.638413,-0.008 0.945428,-0.0278 1.302939,-0.0821 z m -4.750224,-1.14523 c 0.121087,-0.35371 0.224634,-0.66237 0.230105,-0.6859 0.006,-0.026 -0.108122,-0.0927 -0.290732,-0.16982 -0.806597,-0.34076 -1.683495,-0.86945 -2.3052,-1.38981 -0.165373,-0.13842 -0.311271,-0.25169 -0.324219,-0.25172 -0.0311,-6e-5 -0.995424,1.03728 -0.995424,1.07079 0,0.0389 0.57447,0.51056 0.935443,0.76805 0.438449,0.31275 0.983708,0.63986 1.41987,0.8518 0.383634,0.18642 1.008775,0.44813 1.072834,0.44914 0.02044,3.4e-4 0.136236,-0.28881 0.257323,-0.64253 z m 4.518632,-0.52293 c 3.0454,-0.45488 5.626805,-2.49676 6.763489,-5.3499 0.284578,-0.7143 0.487982,-1.54639 0.569907,-2.33139 0.05089,-0.48763 0.0218,-1.74165 -0.05088,-2.19423 -0.365234,-2.27385 -1.565974,-4.27708 -3.371046,-5.62401 -1.152733,-0.86016 -2.46542,-1.4069 -3.913734,-1.63007 -0.567202,-0.0874 -1.903264,-0.0875 -2.472243,-2.9e-4 -2.68117,0.41124 -4.962107,1.98929 -6.293809,4.35435 -0.464328,0.82463 -0.82906,1.89199 -0.990971,2.90001 -0.07269,0.45258 -0.101776,1.70661 -0.05089,2.19424 0.271379,2.60031 1.688969,4.93571 3.861161,6.36104 1.244448,0.81657 2.474385,1.23152 4.142678,1.39764 0.310834,0.0309 1.390733,-0.0153 1.806338,-0.0774 z m 6.124663,-1.36466 c 0.89499,-0.89397 1.448033,-1.65364 1.976139,-2.71445 0.992367,-1.99338 1.306197,-4.1067 0.945869,-6.36944 -0.0297,-0.18654 -0.06377,-0.35495 -0.0757,-0.37426 -0.02101,-0.034 -1.493126,0.27498 -1.546053,0.32447 -0.01262,0.0118 -7.94e-4,0.1267 0.02633,0.25532 0.186724,0.88625 0.198382,2.19961 0.02847,3.20724 -0.30488,1.80802 -1.23915,3.56959 -2.583426,4.87107 -0.186042,0.18012 -0.338259,0.33583 -0.338259,0.34602 0,0.0487 0.853037,1.08044 0.893336,1.08044 0.0254,0 0.328393,-0.28188 0.673309,-0.62641 z m 0.761762,-11.4692 c 0.346797,-0.26918 0.577625,-0.72919 0.603488,-1.20267 0.0293,-0.53641 -0.119824,-0.93257 -0.490765,-1.30375 -0.624618,-0.62503 -1.555263,-0.66522 -2.266396,-0.0979 l -0.176058,0.14046 0.395469,0.39289 c 0.610544,0.60656 1.098242,1.24117 1.508267,1.9626 0.124804,0.2196 0.185925,0.29837 0.213635,0.27533 0.02135,-0.0178 0.116909,-0.0929 0.21236,-0.16698 z"
       id="path16872"
       inkscape:connector-curvature="0" />
  </g>
</svg>
