<?xml version="1.0" encoding="UTF-8" standalone="no"?>
<!-- Created with Inkscape (http://www.inkscape.org/) -->

<svg
   xmlns:dc="http://purl.org/dc/elements/1.1/"
   xmlns:cc="http://creativecommons.org/ns#"
   xmlns:rdf="http://www.w3.org/1999/02/22-rdf-syntax-ns#"
   xmlns:svg="http://www.w3.org/2000/svg"
   xmlns="http://www.w3.org/2000/svg"
   xmlns:xlink="http://www.w3.org/1999/xlink"
   xmlns:sodipodi="http://sodipodi.sourceforge.net/DTD/sodipodi-0.dtd"
   xmlns:inkscape="http://www.inkscape.org/namespaces/inkscape"
   width="1024"
   height="512"
   viewBox="0 0 270.93332 135.46667"
   version="1.1"
   id="svg8"
   inkscape:version="0.92.3 (2405546, 2018-03-11)"
   sodipodi:docname="Evolution4.svg">
  <defs
     id="defs2" />
  <sodipodi:namedview
     id="base"
     pagecolor="#ffffff"
     bordercolor="#666666"
     borderopacity="1.0"
     inkscape:pageopacity="0.0"
     inkscape:pageshadow="2"
     inkscape:zoom="0.98994949"
     inkscape:cx="435.46125"
     inkscape:cy="166.78179"
     inkscape:document-units="mm"
     inkscape:current-layer="layer1"
     showgrid="false"
     units="px"
     inkscape:window-width="1920"
     inkscape:window-height="1017"
     inkscape:window-x="-8"
     inkscape:window-y="-8"
     inkscape:window-maximized="1" />
  <metadata
     id="metadata5">
    <rdf:RDF>
      <cc:Work
         rdf:about="">
        <dc:format>image/svg+xml</dc:format>
        <dc:type
           rdf:resource="http://purl.org/dc/dcmitype/StillImage" />
        <dc:title></dc:title>
      </cc:Work>
    </rdf:RDF>
  </metadata>
  <g
     inkscape:groupmode="layer"
     id="layer2"
     inkscape:label="Midlayer">
    <path
       style="fill:none;stroke:#000000;stroke-width:0.26458333;stroke-linecap:butt;stroke-linejoin:miter;stroke-opacity:1;stroke-miterlimit:4;stroke-dasharray:none"
       d="m 27.78125,108.63036 v -3.96875"
       id="path12126"
       inkscape:connector-curvature="0"
       inkscape:tile-cx="27.781249"
       inkscape:tile-cy="106.64598"
       inkscape:tile-w="0.26458331"
       inkscape:tile-h="3.9687498"
       inkscape:tile-x0="27.648957"
       inkscape:tile-y0="104.6616" />
    <use
       x="0"
       y="0"
       inkscape:tiled-clone-of="#path12126"
       xlink:href="#path12126"
       fill="#3e3600"
       stroke="#3e3600"
       id="use15008" />
    <use
       x="0"
       y="0"
       inkscape:tiled-clone-of="#path12126"
       xlink:href="#path12126"
       transform="matrix(1,0,0,1.005,2.9104164,-0.93010488)"
       fill="#3e3600"
       stroke="#3e3600"
       id="use15010" />
    <use
       x="0"
       y="0"
       inkscape:tiled-clone-of="#path12126"
       xlink:href="#path12126"
       transform="matrix(1,0,0,1.015,5.8208328,-2.3934397)"
       fill="#3e3600"
       stroke="#3e3600"
       id="use15012" />
    <use
       x="0"
       y="0"
       inkscape:tiled-clone-of="#path12126"
       xlink:href="#path12126"
       transform="matrix(1,0,0,1.03,8.7312492,-4.3900043)"
       fill="#3e3600"
       stroke="#3e3600"
       id="use15014" />
    <use
       x="0"
       y="0"
       inkscape:tiled-clone-of="#path12126"
       xlink:href="#path12126"
       transform="matrix(1,0,0,1.05,11.641666,-6.9197989)"
       fill="#3e3600"
       stroke="#3e3600"
       id="use15016" />
    <use
       x="0"
       y="0"
       inkscape:tiled-clone-of="#path12126"
       xlink:href="#path12126"
       transform="matrix(1,0,0,1.075,14.552082,-9.9828234)"
       fill="#3e3600"
       stroke="#3e3600"
       id="use15018" />
    <use
       x="0"
       y="0"
       inkscape:tiled-clone-of="#path12126"
       xlink:href="#path12126"
       transform="matrix(1,0,0,1.105,17.462498,-13.579078)"
       fill="#3e3600"
       stroke="#3e3600"
       id="use15020" />
    <use
       x="0"
       y="0"
       inkscape:tiled-clone-of="#path12126"
       xlink:href="#path12126"
       transform="matrix(1,0,0,1.14,20.372915,-17.708562)"
       fill="#3e3600"
       stroke="#3e3600"
       id="use15022" />
    <use
       x="0"
       y="0"
       inkscape:tiled-clone-of="#path12126"
       xlink:href="#path12126"
       transform="matrix(1,0,0,1.18,23.283331,-22.371276)"
       fill="#3e3600"
       stroke="#3e3600"
       id="use15024" />
    <use
       x="0"
       y="0"
       inkscape:tiled-clone-of="#path12126"
       xlink:href="#path12126"
       transform="matrix(1,0,0,1.225,26.193748,-27.56722)"
       fill="#3e3600"
       stroke="#3e3600"
       id="use15026" />
    <use
       x="0"
       y="0"
       inkscape:tiled-clone-of="#path12126"
       xlink:href="#path12126"
       transform="matrix(1,0,0,1.275,29.104164,-33.296394)"
       fill="#3e3600"
       stroke="#3e3600"
       id="use15028" />
    <use
       x="0"
       y="0"
       inkscape:tiled-clone-of="#path12126"
       xlink:href="#path12126"
       transform="matrix(1,0,0,1.33,32.014581,-39.558798)"
       fill="#3e3600"
       stroke="#3e3600"
       id="use15030" />
    <use
       x="0"
       y="0"
       inkscape:tiled-clone-of="#path12126"
       xlink:href="#path12126"
       transform="matrix(1,0,0,1.39,34.924997,-46.354432)"
       fill="#3e3600"
       stroke="#3e3600"
       id="use15032" />
    <use
       x="0"
       y="0"
       inkscape:tiled-clone-of="#path12126"
       xlink:href="#path12126"
       transform="matrix(1,0,0,1.455,37.835413,-53.683296)"
       fill="#3e3600"
       stroke="#3e3600"
       id="use15034" />
    <use
       x="0"
       y="0"
       inkscape:tiled-clone-of="#path12126"
       xlink:href="#path12126"
       transform="matrix(1,0,0,1.525,40.74583,-61.545389)"
       fill="#3e3600"
       stroke="#3e3600"
       id="use15036" />
    <use
       x="0"
       y="0"
       inkscape:tiled-clone-of="#path12126"
       xlink:href="#path12126"
       transform="matrix(1,0,0,1.6,43.656246,-69.940713)"
       fill="#3e3600"
       stroke="#3e3600"
       id="use15038" />
    <use
       x="0"
       y="0"
       inkscape:tiled-clone-of="#path12126"
       xlink:href="#path12126"
       transform="matrix(1,0,0,1.68,46.566663,-78.869266)"
       fill="#3e3600"
       stroke="#3e3600"
       id="use15040" />
    <use
       x="0"
       y="0"
       inkscape:tiled-clone-of="#path12126"
       xlink:href="#path12126"
       transform="matrix(1,0,0,1.765,49.477079,-88.331049)"
       fill="#3e3600"
       stroke="#3e3600"
       id="use15042" />
    <use
       x="0"
       y="0"
       inkscape:tiled-clone-of="#path12126"
       xlink:href="#path12126"
       transform="matrix(1,0,0,1.855,52.387495,-98.326063)"
       fill="#3e3600"
       stroke="#3e3600"
       id="use15044" />
    <use
       x="0"
       y="0"
       inkscape:tiled-clone-of="#path12126"
       xlink:href="#path12126"
       transform="matrix(1,0,0,1.95,55.297912,-108.85431)"
       fill="#3e3600"
       stroke="#3e3600"
       id="use15046" />
    <use
       x="0"
       y="0"
       inkscape:tiled-clone-of="#path12126"
       xlink:href="#path12126"
       transform="matrix(1,0,0,2.05,58.208328,-119.91578)"
       fill="#3e3600"
       stroke="#3e3600"
       id="use15048" />
    <use
       x="0"
       y="0"
       inkscape:tiled-clone-of="#path12126"
       xlink:href="#path12126"
       transform="matrix(1,0,0,2.155,61.118745,-131.51048)"
       fill="#3e3600"
       stroke="#3e3600"
       id="use15050" />
    <use
       x="0"
       y="0"
       inkscape:tiled-clone-of="#path12126"
       xlink:href="#path12126"
       transform="matrix(1,0,0,2.265,64.029161,-143.63841)"
       fill="#3e3600"
       stroke="#3e3600"
       id="use15052" />
    <use
       x="0"
       y="0"
       inkscape:tiled-clone-of="#path12126"
       xlink:href="#path12126"
       transform="matrix(1,0,0,2.38,66.939577,-156.29958)"
       fill="#3e3600"
       stroke="#3e3600"
       id="use15054" />
    <use
       x="0"
       y="0"
       inkscape:tiled-clone-of="#path12126"
       xlink:href="#path12126"
       transform="matrix(1,0,0,2.5,69.849994,-169.49397)"
       fill="#3e3600"
       stroke="#3e3600"
       id="use15056" />
    <use
       x="0"
       y="0"
       inkscape:tiled-clone-of="#path12126"
       xlink:href="#path12126"
       transform="matrix(1,0,0,2.625,72.76041,-183.22159)"
       fill="#3e3600"
       stroke="#3e3600"
       id="use15058" />
    <use
       x="0"
       y="0"
       inkscape:tiled-clone-of="#path12126"
       xlink:href="#path12126"
       transform="matrix(1,0,0,2.755,75.670827,-197.48244)"
       fill="#3e3600"
       stroke="#3e3600"
       id="use15060" />
    <use
       x="0"
       y="0"
       inkscape:tiled-clone-of="#path12126"
       xlink:href="#path12126"
       transform="matrix(1,0,0,2.89,78.581243,-212.27653)"
       fill="#3e3600"
       stroke="#3e3600"
       id="use15062" />
    <use
       x="0"
       y="0"
       inkscape:tiled-clone-of="#path12126"
       xlink:href="#path12126"
       transform="matrix(1,0,0,3.03,81.491659,-227.60384)"
       fill="#3e3600"
       stroke="#3e3600"
       id="use15064" />
    <use
       x="0"
       y="0"
       inkscape:tiled-clone-of="#path12126"
       xlink:href="#path12126"
       transform="matrix(1,0,0,3.175,84.402076,-243.46438)"
       fill="#3e3600"
       stroke="#3e3600"
       id="use15066" />
    <use
       x="0"
       y="0"
       inkscape:tiled-clone-of="#path12126"
       xlink:href="#path12126"
       transform="matrix(1,0,0,3.325,87.312492,-259.85815)"
       fill="#3e3600"
       stroke="#3e3600"
       id="use15068" />
    <use
       x="0"
       y="0"
       inkscape:tiled-clone-of="#path12126"
       xlink:href="#path12126"
       transform="matrix(1,0,0,3.48,90.222909,-276.78515)"
       fill="#3e3600"
       stroke="#3e3600"
       id="use15070" />
    <use
       x="0"
       y="0"
       inkscape:tiled-clone-of="#path12126"
       xlink:href="#path12126"
       transform="matrix(1,0,0,3.64,93.133325,-294.24539)"
       fill="#3e3600"
       stroke="#3e3600"
       id="use15072" />
    <use
       x="0"
       y="0"
       inkscape:tiled-clone-of="#path12126"
       xlink:href="#path12126"
       transform="matrix(1,0,0,3.805,96.043742,-312.23885)"
       fill="#3e3600"
       stroke="#3e3600"
       id="use15074" />
    <use
       x="0"
       y="0"
       inkscape:tiled-clone-of="#path12126"
       xlink:href="#path12126"
       transform="matrix(1,0,0,3.975,98.954158,-330.76554)"
       fill="#3e3600"
       stroke="#3e3600"
       id="use15076" />
    <use
       x="0"
       y="0"
       inkscape:tiled-clone-of="#path12126"
       xlink:href="#path12126"
       transform="matrix(1,0,0,4.15,101.86457,-349.82546)"
       fill="#3e3600"
       stroke="#3e3600"
       id="use15078" />
    <use
       x="0"
       y="0"
       inkscape:tiled-clone-of="#path12126"
       xlink:href="#path12126"
       transform="matrix(1,0,0,4.33,104.77499,-369.41861)"
       fill="#3e3600"
       stroke="#3e3600"
       id="use15080" />
    <use
       x="0"
       y="0"
       inkscape:tiled-clone-of="#path12126"
       xlink:href="#path12126"
       transform="matrix(1,0,0,4.515,107.68541,-389.54499)"
       fill="#3e3600"
       stroke="#3e3600"
       id="use15082" />
    <use
       x="0"
       y="0"
       inkscape:tiled-clone-of="#path12126"
       xlink:href="#path12126"
       transform="matrix(1,0,0,4.705,110.59582,-410.20461)"
       fill="#3e3600"
       stroke="#3e3600"
       id="use15084" />
    <use
       x="0"
       y="0"
       inkscape:tiled-clone-of="#path12126"
       xlink:href="#path12126"
       transform="matrix(1,0,0,4.9,113.50624,-431.39745)"
       fill="#3e3600"
       stroke="#3e3600"
       id="use15086" />
    <use
       x="0"
       y="0"
       inkscape:tiled-clone-of="#path12126"
       xlink:href="#path12126"
       transform="matrix(1,0,0,5.1,116.41666,-453.12352)"
       fill="#3e3600"
       stroke="#3e3600"
       id="use15088" />
    <use
       x="0"
       y="0"
       inkscape:tiled-clone-of="#path12126"
       xlink:href="#path12126"
       transform="matrix(1,0,0,5.305,119.32707,-475.38282)"
       fill="#3e3600"
       stroke="#3e3600"
       id="use15090" />
    <use
       x="0"
       y="0"
       inkscape:tiled-clone-of="#path12126"
       xlink:href="#path12126"
       transform="matrix(1,0,0,5.515,122.23749,-498.17535)"
       fill="#3e3600"
       stroke="#3e3600"
       id="use15092" />
    <use
       x="0"
       y="0"
       inkscape:tiled-clone-of="#path12126"
       xlink:href="#path12126"
       transform="matrix(1,0,0,5.73,125.14791,-521.50111)"
       fill="#3e3600"
       stroke="#3e3600"
       id="use15094" />
    <use
       x="0"
       y="0"
       inkscape:tiled-clone-of="#path12126"
       xlink:href="#path12126"
       transform="matrix(1,0,0,5.95,128.05832,-545.3601)"
       fill="#3e3600"
       stroke="#3e3600"
       id="use15096" />
    <use
       x="0"
       y="0"
       inkscape:tiled-clone-of="#path12126"
       xlink:href="#path12126"
       transform="matrix(1,0,0,6.175,130.96874,-569.75232)"
       fill="#3e3600"
       stroke="#3e3600"
       id="use15098" />
    <use
       x="0"
       y="0"
       inkscape:tiled-clone-of="#path12126"
       xlink:href="#path12126"
       transform="matrix(1,0,0,6.405,133.87915,-594.67777)"
       fill="#3e3600"
       stroke="#3e3600"
       id="use15100" />
    <use
       x="0"
       y="0"
       inkscape:tiled-clone-of="#path12126"
       xlink:href="#path12126"
       transform="matrix(1,0,0,6.64,136.78957,-620.13645)"
       fill="#3e3600"
       stroke="#3e3600"
       id="use15102" />
    <use
       x="0"
       y="0"
       inkscape:tiled-clone-of="#path12126"
       xlink:href="#path12126"
       transform="matrix(1,0,0,6.88,139.69999,-646.12836)"
       fill="#3e3600"
       stroke="#3e3600"
       id="use15104" />
    <use
       x="0"
       y="0"
       inkscape:tiled-clone-of="#path12126"
       xlink:href="#path12126"
       transform="matrix(1,0,0,7.125,142.6104,-672.6535)"
       fill="#3e3600"
       stroke="#3e3600"
       id="use15106" />
    <use
       x="0"
       y="0"
       inkscape:tiled-clone-of="#path12126"
       xlink:href="#path12126"
       transform="matrix(1,0,0,7.375,145.52082,-699.71187)"
       fill="#3e3600"
       stroke="#3e3600"
       id="use15108" />
    <use
       x="0"
       y="0"
       inkscape:tiled-clone-of="#path12126"
       xlink:href="#path12126"
       transform="matrix(1,0,0,7.63,148.43124,-727.30347)"
       fill="#3e3600"
       stroke="#3e3600"
       id="use15110" />
    <use
       x="0"
       y="0"
       inkscape:tiled-clone-of="#path12126"
       xlink:href="#path12126"
       transform="matrix(1,0,0,7.89,151.34165,-755.4283)"
       fill="#3e3600"
       stroke="#3e3600"
       id="use15112" />
    <use
       x="0"
       y="0"
       inkscape:tiled-clone-of="#path12126"
       xlink:href="#path12126"
       transform="matrix(1,0,0,8.155,154.25207,-784.08636)"
       fill="#3e3600"
       stroke="#3e3600"
       id="use15114" />
    <use
       x="0"
       y="0"
       inkscape:tiled-clone-of="#path12126"
       xlink:href="#path12126"
       transform="matrix(1,0,0,8.425,157.16249,-813.27765)"
       fill="#3e3600"
       stroke="#3e3600"
       id="use15116" />
    <use
       x="0"
       y="0"
       inkscape:tiled-clone-of="#path12126"
       xlink:href="#path12126"
       transform="matrix(1,0,0,8.7,160.0729,-843.00217)"
       fill="#3e3600"
       stroke="#3e3600"
       id="use15118" />
    <use
       x="0"
       y="0"
       inkscape:tiled-clone-of="#path12126"
       xlink:href="#path12126"
       transform="matrix(1,0,0,8.98,162.98332,-873.25992)"
       fill="#3e3600"
       stroke="#3e3600"
       id="use15120" />
    <use
       x="0"
       y="0"
       inkscape:tiled-clone-of="#path12126"
       xlink:href="#path12126"
       transform="matrix(1,0,0,9.265,165.89374,-904.0509)"
       fill="#3e3600"
       stroke="#3e3600"
       id="use15122" />
    <use
       x="0"
       y="0"
       inkscape:tiled-clone-of="#path12126"
       xlink:href="#path12126"
       transform="matrix(1,0,0,9.555,168.80415,-935.37511)"
       fill="#3e3600"
       stroke="#3e3600"
       id="use15124" />
    <use
       x="0"
       y="0"
       inkscape:tiled-clone-of="#path12126"
       xlink:href="#path12126"
       transform="matrix(1,0,0,9.85,171.71457,-967.23255)"
       fill="#3e3600"
       stroke="#3e3600"
       id="use15126" />
    <use
       x="0"
       y="0"
       inkscape:tiled-clone-of="#path12126"
       xlink:href="#path12126"
       transform="matrix(1,0,0,10.15,174.62498,-999.62322)"
       fill="#3e3600"
       stroke="#3e3600"
       id="use15128" />
    <use
       x="0"
       y="0"
       inkscape:tiled-clone-of="#path12126"
       xlink:href="#path12126"
       transform="matrix(1,0,0,10.455,177.5354,-1032.5471)"
       fill="#3e3600"
       stroke="#3e3600"
       id="use15130" />
    <use
       x="0"
       y="0"
       inkscape:tiled-clone-of="#path12126"
       xlink:href="#path12126"
       transform="matrix(1,0,0,10.765,180.44582,-1066.0042)"
       fill="#3e3600"
       stroke="#3e3600"
       id="use15132" />
    <use
       x="0"
       y="0"
       inkscape:tiled-clone-of="#path12126"
       xlink:href="#path12126"
       transform="matrix(1,0,0,11.08,183.35623,-1099.9946)"
       fill="#3e3600"
       stroke="#3e3600"
       id="use15134" />
    <use
       x="0"
       y="0"
       inkscape:tiled-clone-of="#path12126"
       xlink:href="#path12126"
       transform="matrix(1,0,0,11.4,186.26665,-1134.5182)"
       fill="#3e3600"
       stroke="#3e3600"
       id="use15136" />
    <use
       x="0"
       y="0"
       inkscape:tiled-clone-of="#path12126"
       xlink:href="#path12126"
       transform="matrix(1,0,0,11.725,189.17707,-1169.575)"
       fill="#3e3600"
       stroke="#3e3600"
       id="use15138" />
    <use
       x="0"
       y="0"
       inkscape:tiled-clone-of="#path12126"
       xlink:href="#path12126"
       transform="matrix(1,0,0,12.055,192.08748,-1205.1651)"
       fill="#3e3600"
       stroke="#3e3600"
       id="use15140" />
    <use
       x="0"
       y="0"
       inkscape:tiled-clone-of="#path12126"
       xlink:href="#path12126"
       transform="matrix(1,0,0,12.39,194.9979,-1241.2883)"
       fill="#3e3600"
       stroke="#3e3600"
       id="use15142" />
    <use
       x="0"
       y="0"
       inkscape:tiled-clone-of="#path12126"
       xlink:href="#path12126"
       transform="matrix(1,0,0,12.73,197.90832,-1277.9448)"
       fill="#3e3600"
       stroke="#3e3600"
       id="use15144" />
    <use
       x="0"
       y="0"
       inkscape:tiled-clone-of="#path12126"
       xlink:href="#path12126"
       transform="matrix(1,0,0,13.075,200.81873,-1315.1346)"
       fill="#3e3600"
       stroke="#3e3600"
       id="use15146" />
    <use
       x="0"
       y="0"
       inkscape:tiled-clone-of="#path12126"
       xlink:href="#path12126"
       transform="matrix(1,0,0,13.425,203.72915,-1352.8576)"
       fill="#3e3600"
       stroke="#3e3600"
       id="use15148" />
    <use
       x="0"
       y="0"
       inkscape:tiled-clone-of="#path12126"
       xlink:href="#path12126"
       transform="matrix(1,0,0,13.78,206.63957,-1391.1137)"
       fill="#3e3600"
       stroke="#3e3600"
       id="use15150" />
    <use
       x="0"
       y="0"
       inkscape:tiled-clone-of="#path12126"
       xlink:href="#path12126"
       transform="matrix(1,0,0,14.14,209.54998,-1429.9032)"
       fill="#3e3600"
       stroke="#3e3600"
       id="use15152" />
    <use
       x="0"
       y="0"
       inkscape:tiled-clone-of="#path12126"
       xlink:href="#path12126"
       transform="matrix(1,0,0,14.505,212.4604,-1469.2258)"
       fill="#3e3600"
       stroke="#3e3600"
       id="use15154" />
    <use
       x="0"
       y="0"
       inkscape:tiled-clone-of="#path12126"
       xlink:href="#path12126"
       transform="matrix(1,0,0,14.875,215.37081,-1509.0817)"
       fill="#3e3600"
       stroke="#3e3600"
       id="use15156" />
    <use
       x="0"
       y="0"
       inkscape:tiled-clone-of="#path12126"
       xlink:href="#path12126"
       transform="matrix(1,0,0,15.25,218.28123,-1549.4708)"
       fill="#3e3600"
       stroke="#3e3600"
       id="use15158" />
    <use
       x="0"
       y="0"
       inkscape:tiled-clone-of="#path12126"
       xlink:href="#path12126"
       transform="matrix(1,0,0,15.63,221.19165,-1590.3932)"
       fill="#3e3600"
       stroke="#3e3600"
       id="use15160" />
    <use
       x="0"
       y="0"
       inkscape:tiled-clone-of="#path12126"
       xlink:href="#path12126"
       transform="matrix(1,0,0,16.015,224.10206,-1631.8488)"
       fill="#3e3600"
       stroke="#3e3600"
       id="use15162" />
    <use
       x="0"
       y="0"
       inkscape:tiled-clone-of="#path12126"
       xlink:href="#path12126"
       transform="matrix(1,0,0,16.405,227.01248,-1673.8376)"
       fill="#3e3600"
       stroke="#3e3600"
       id="use15164" />
    <use
       x="0"
       y="0"
       inkscape:tiled-clone-of="#path12126"
       xlink:href="#path12126"
       transform="matrix(1,0,0,16.8,229.9229,-1716.3596)"
       fill="#3e3600"
       stroke="#3e3600"
       id="use15166" />
  </g>
  <g
     inkscape:label="Layer 1"
     inkscape:groupmode="layer"
     id="layer1"
     transform="translate(0,-161.53332)">
    <flowRoot
       xml:space="preserve"
       id="flowRoot815"
       style="fill:black;fill-opacity:1;stroke:none;font-family:'Poiret One';font-style:normal;font-weight:normal;font-size:40px;line-height:1.25;letter-spacing:0px;word-spacing:0px;-inkscape-font-specification:'Poiret One';font-stretch:normal;font-variant:normal;"><flowRegion
         id="flowRegion817"
         style="line-height:1.25;-inkscape-font-specification:'Poiret One';font-family:'Poiret One';font-weight:normal;font-style:normal;font-stretch:normal;font-variant:normal;"><rect
           id="rect819"
           width="947.14288"
           height="143.57143"
           x="30.714285"
           y="334.14285"
           style="line-height:1.25;-inkscape-font-specification:'Poiret One';font-family:'Poiret One';font-weight:normal;font-style:normal;font-stretch:normal;font-variant:normal;" /></flowRegion><flowPara
         id="flowPara821" /></flowRoot>    <flowRoot
       xml:space="preserve"
       id="flowRoot819"
       style="font-style:normal;font-variant:normal;font-weight:normal;font-stretch:normal;font-size:93.33333588px;line-height:1.25;font-family:'Poiret One';-inkscape-font-specification:'Poiret One';letter-spacing:0px;word-spacing:0px;fill:#000000;fill-opacity:1;stroke:#ffffff;stroke-width:10;stroke-linecap:round;stroke-miterlimit:4;stroke-dasharray:none;stroke-opacity:1;paint-order:markers stroke fill"
       transform="matrix(0.26458333,0,0,0.26458333,20.04291,147.57161)"><flowRegion
         id="flowRegion821"
         style="font-style:normal;font-variant:normal;font-weight:normal;font-stretch:normal;font-size:93.33333588px;line-height:1.25;font-family:'Poiret One';-inkscape-font-specification:'Poiret One';fill:#000000;fill-opacity:1;stroke:#ffffff;stroke-width:10;stroke-linecap:round;stroke-miterlimit:4;stroke-dasharray:none;stroke-opacity:1;paint-order:markers stroke fill"><rect
           id="rect823"
           width="1145.5131"
           height="192.93913"
           x="37.375645"
           y="293.80704"
           style="font-style:normal;font-variant:normal;font-weight:normal;font-stretch:normal;font-size:93.33333588px;line-height:1.25;font-family:'Poiret One';-inkscape-font-specification:'Poiret One';fill:#000000;fill-opacity:1;stroke:#ffffff;stroke-width:10;stroke-linecap:round;stroke-miterlimit:4;stroke-dasharray:none;stroke-opacity:1;paint-order:markers stroke fill" /></flowRegion><flowPara
         id="flowPara825"
         style="font-style:normal;font-variant:normal;font-weight:normal;font-stretch:normal;font-size:93.33333588px;line-height:1.25;font-family:'Poiret One';-inkscape-font-specification:'Poiret One';fill:#000000;fill-opacity:1;stroke:#ffffff;stroke-width:10;stroke-linecap:round;stroke-miterlimit:4;stroke-dasharray:none;stroke-opacity:1;paint-order:markers stroke fill">Q   U   O   R   U   S</flowPara></flowRoot>    <g
       transform="matrix(0.0514068,0,0,0.59543548,237.15223,115.6922)"
       style="stroke:#000000;stroke-width:1.51228918;stroke-miterlimit:4;stroke-dasharray:none;stroke-opacity:1;stroke-linecap:round"
       id="g878" />
    <flowRoot
       xml:space="preserve"
       id="flowRoot921"
       style="font-style:normal;font-variant:normal;font-weight:normal;font-stretch:normal;font-size:26.66666794px;line-height:1.25;font-family:'Poiret One';-inkscape-font-specification:'Poiret One';letter-spacing:0px;word-spacing:0px;fill:#000000;fill-opacity:1;stroke:none"
       transform="matrix(0.26458333,0,0,0.26458333,59.673427,168.78202)"><flowRegion
         id="flowRegion923"
         style="font-style:normal;font-variant:normal;font-weight:normal;font-stretch:normal;font-size:26.66666794px;font-family:'Poiret One';-inkscape-font-specification:'Poiret One'"><rect
           id="rect925"
           width="744.28571"
           height="58.57143"
           x="158.57143"
           y="403.42856"
           style="font-style:normal;font-variant:normal;font-weight:normal;font-stretch:normal;font-size:26.66666794px;font-family:'Poiret One';-inkscape-font-specification:'Poiret One'" /></flowRegion><flowPara
         id="flowPara927"
         style="font-style:italic;font-variant:normal;font-weight:300;font-stretch:normal;font-size:26.66666794px;font-family:Montserrat;-inkscape-font-specification:'Montserrat Light Italic'">Quroum Sensing+</flowPara></flowRoot>  </g>
  <g
     inkscape:groupmode="layer"
     id="layer3"
     inkscape:label="Layer 2" />
</svg>
