<?xml version="1.0" encoding="UTF-8"?>
<svg width="270.93mm" height="94.726mm" version="1.1" viewBox="0 0 270.93 94.726" xmlns="http://www.w3.org/2000/svg" xmlns:cc="http://creativecommons.org/ns#" xmlns:dc="http://purl.org/dc/elements/1.1/" xmlns:rdf="http://www.w3.org/1999/02/22-rdf-syntax-ns#" xmlns:xlink="http://www.w3.org/1999/xlink">
 <defs>
  <linearGradient id="linearGradient5352" x1="300.72" x2="509" y1="9.446" y2="9.446" gradientUnits="userSpaceOnUse" xlink:href="#linearGradient5199-4-5"/>
  <linearGradient id="linearGradient5199-4-5">
   <stop stop-color="#26fffa" offset="0"/>
   <stop stop-color="#7a6df0" offset=".5"/>
   <stop stop-color="#eb0068" offset="1"/>
  </linearGradient>
 </defs>
 <metadata>
  <rdf:RDF>
   <cc:Work rdf:about="">
    <dc:format>image/svg+xml</dc:format>
    <dc:type rdf:resource="http://purl.org/dc/dcmitype/StillImage"/>
    <dc:title/>
   </cc:Work>
  </rdf:RDF>
 </metadata>
 <g transform="translate(140 -68.964)">
  <path d="m-140 68.964h270.93v94.726h-270.93z" enable-background="new" fill="#1a1a1a" style="paint-order:markers stroke fill"/>
  <g transform="matrix(1.1422 0 0 1.1422 -464.56 103.99)" enable-background="new" fill="none" opacity=".97" stroke="url(#linearGradient5352)" stroke-linecap="square" stroke-linejoin="bevel">
   <path d="m508.32 41.691h-38.878c-26.758 0-42.265-31.001-64.565-31.001-22.774 0-37.807 31.001-64.565 31.001h-37.79" stroke-width=".52917"/>
   <path d="m508.27 41.645h-38.861c-26.746 0-42.245-42.882-64.536-42.882-22.764 0-37.79 42.882-64.536 42.882h-37.773" stroke-width="1.0583"/>
   <path d="m508.2 41.575h-38.834c-26.728 0-42.217-64.258-64.492-64.258-22.749 0-37.764 64.258-64.492 64.258h-38.87" stroke-width="1.5875"/>
   <path d="m508.3 41.67h-38.87c-26.752 0-42.256-36.104-64.552-36.104-22.77 0-37.799 36.104-64.552 36.104h-37.782" stroke-width=".79375"/>
   <path d="m508.24 41.614h-38.849c-26.738 0-42.233-51.615-64.517-51.615-22.757 0-37.779 51.615-64.517 51.615h-37.762" stroke-width="1.3229"/>
  </g>
  <g transform="matrix(1.1422 0 0 1.1422 -456.98 132.91)" enable-background="new" fill="#fff" opacity=".97" stroke="#1a1a1a" stroke-width="7.0039" style="paint-order:markers stroke fill">
   <g transform="matrix(.26458 0 0 .26458 273.07 -84.886)" style="paint-order:markers stroke fill" aria-label="Q ">
    <path d="m114.38 347.12q0 8.3067-3.92 15.96-3.8267 7.56-10.267 12.693l7.56 7.56h-4.1067l-5.7867-5.7867q-8.8667 5.7867-19.413 5.7867h-1.0267q-9.6133 0-17.92-5.04-8.3067-5.04-13.16-13.347-4.76-8.4-4.76-17.827 0-14.84 10.733-25.48 10.733-10.733 25.76-10.733 15.027 0 25.667 10.64 10.64 10.64 10.64 25.573zm-36.4 33.507q9.4267 0 17.827-5.1333l-16.147-15.96h4.0133l14.373 14.187q5.9733-4.76 9.6133-11.853 3.64-7.0933 3.64-14.747 0-13.813-9.8-23.613-9.7067-9.8933-23.52-9.8933-13.72 0-23.52 9.8933-9.8 9.8-9.8 23.613 0 13.72 9.8 23.613 9.8 9.8933 23.52 9.8933z" fill="#fff" stroke="#1a1a1a" stroke-width="7.0039" style="paint-order:markers stroke fill"/>
   </g>
   <g transform="matrix(.26458 0 0 .26458 405.82 -84.886)" style="paint-order:markers stroke fill" aria-label="R ">
    <path d="m44.375 312.21h4.0133q9.0533 0 15.867 6.72 6.9067 6.6267 6.9067 15.68 0 8.96-7 15.587-7 6.6267-15.027 6.6267h-0.65333l24.08 25.387h-4.0133l-21.187-22.213v22.213h-2.9867zm2.9867 41.907h1.68q7.56 0 13.347-5.7867t5.7867-13.72-5.9733-13.813q-5.9733-5.88-13.627-5.88h-1.2133z" fill="#fff" stroke="#1a1a1a" stroke-width="7.0039" style="paint-order:markers stroke fill"/>
   </g>
   <g transform="matrix(.26458 0 0 .26458 446.53 -84.886)" style="paint-order:markers stroke fill" aria-label="U ">
    <path d="m65.748 383.52h-0.93333q-8.5867 0-14.56-5.9733-5.88-5.9733-5.88-15.027v-50.307h3.08v50.213q0 7.9333 5.1333 13.16 5.1333 5.2267 12.693 5.2267 7.56 0 12.6-5.1333 5.1333-5.2267 5.1333-13.253v-50.213h3.08v50.12q0 9.1467-5.9733 15.213-5.88 5.9733-14.373 5.9733z" fill="#fff" stroke="#1a1a1a" stroke-width="7.0039" style="paint-order:markers stroke fill"/>
   </g>
   <g transform="matrix(.26458 0 0 .26458 485.81 -85.011)" style="paint-order:markers stroke fill" aria-label="S">
    <path d="m72.562 322.11q-2.1467-3.92-5.88-6.16-3.64-2.24-8.2133-2.24-4.5733 0-7.84 2.8933-3.1733 2.8-3.1733 7.7467v0.46667q0 5.88 6.5333 10.733 2.8 2.0533 6.2533 4.1067 3.5467 1.96 7 4.2933 3.5467 2.24 6.3467 4.8533 2.8933 2.52 4.6667 6.2533 1.8667 3.7333 1.8667 8.2133v0.93334q0 8.8667-6.0667 14.093-5.9733 5.2267-14.84 5.2267-11.667 0-18.107-9.6133v-5.04q2.4267 5.32 7.0933 8.68 4.76 3.2667 11.76 3.2667t12.133-4.48q5.1333-4.48 5.1333-11.947v-0.56q0-4.6667-2.4267-8.4933-2.4267-3.92-6.0667-6.3467-3.64-2.52-7.9333-5.2267-4.2933-2.7067-7.9333-5.04-3.64-2.3333-6.0667-5.88-2.4267-3.5467-2.4267-7.7467v-0.65333q0-6.5333 4.2-9.9867t10.36-3.4533q8.5867 0 13.627 6.3467z" fill="#fff" stroke="#1a1a1a" stroke-width="7.0039" style="paint-order:markers stroke fill"/>
   </g>
   <g transform="matrix(.26458 0 0 .26458 318.37 -84.886)" style="paint-order:markers stroke fill" aria-label="U ">
    <path d="m65.748 383.52h-0.93333q-8.5867 0-14.56-5.9733-5.88-5.9733-5.88-15.027v-50.307h3.08v50.213q0 7.9333 5.1333 13.16 5.1333 5.2267 12.693 5.2267 7.56 0 12.6-5.1333 5.1333-5.2267 5.1333-13.253v-50.213h3.08v50.12q0 9.1467-5.9733 15.213-5.88 5.9733-14.373 5.9733z" fill="#fff" stroke="#1a1a1a" stroke-width="7.0039" style="paint-order:markers stroke fill"/>
   </g>
   <g transform="matrix(.26458 0 0 .26458 359.43 -84.886)" style="paint-order:markers stroke fill" aria-label="O ">
    <path d="m77.228 383.43q-14.467 0-25.107-10.92-10.547-10.92-10.547-25.48 0-14.653 10.733-25.293 10.733-10.733 25.76-10.733 15.027 0 25.667 10.64 10.64 10.64 10.64 25.387 0 14.653-10.547 25.573-10.547 10.827-25.2 10.827zm34.067-36.213q0-13.813-9.8-23.613-9.7067-9.8933-23.52-9.8933-13.72 0-23.52 9.8933-9.8 9.8-9.8 23.613 0 13.72 9.8 23.613 9.8 9.8933 23.52 9.8933t23.52-9.8933q9.8-9.8933 9.8-23.613z" fill="#fff" stroke="#1a1a1a" stroke-width="7.0039" style="paint-order:markers stroke fill"/>
   </g>
  </g>
 </g>
</svg>
