<?xml version="1.0" encoding="UTF-8"?>
<svg width="127.66mm" height="104.18mm" version="1.1" viewBox="0 0 127.66 104.18" xmlns="http://www.w3.org/2000/svg" xmlns:cc="http://creativecommons.org/ns#" xmlns:dc="http://purl.org/dc/elements/1.1/" xmlns:rdf="http://www.w3.org/1999/02/22-rdf-syntax-ns#" xmlns:xlink="http://www.w3.org/1999/xlink">
 <defs>
  <linearGradient id="linearGradient24293" x1="50.913" x2="204.6" y1="52.149" y2="148.9" gradientTransform="matrix(2.5231,0,0,2.5231,115.86,-963.62)" gradientUnits="userSpaceOnUse">
   <stop stop-color="#9600f6" offset="0"/>
   <stop stop-color="#ea53ba" offset="1"/>
  </linearGradient>
  <linearGradient id="linearGradient5170" x1="93.178" x2="118.53" y1="183.21" y2="164.25" gradientTransform="matrix(3.5176 0 0 3.5176 -401.77 -480.82)" gradientUnits="userSpaceOnUse" xlink:href="#linearGradient24293"/>
  <linearGradient id="linearGradient5942" x1="-73.659" x2="18.23" y1="167.92" y2="97.211" gradientUnits="userSpaceOnUse" xlink:href="#linearGradient24293"/>
 </defs>
 <metadata>
  <rdf:RDF>
   <cc:Work rdf:about="">
    <dc:format>image/svg+xml</dc:format>
    <dc:type rdf:resource="http://purl.org/dc/dcmitype/StillImage"/>
    <dc:title/>
   </cc:Work>
  </rdf:RDF>
 </metadata>
 <g transform="translate(108.81 -96.745)" stroke-linecap="round">
  <g fill="#fff" stroke="#fff" stroke-linejoin="round">
   <g stroke-width=".45092">
    <path d="m-85.401 150.18v-4.7002l5.4233-3.5e-4v9.3997l-2.7117 5.2e-4 -2.7117 4.6e-4z" opacity=".97"/>
    <path d="m-65.151 154.65c-1.8158-0.59861-2.9163-1.306-3.8338-2.4644-1.4922-1.884-2.1624-4.8487-1.7115-7.5716 0.90582-5.4704 3.7578-7.7368 9.6824-7.6945 3.1651 0.0216 4.9555 0.51242 6.2944 1.722 0.87874 0.79388 1.9009 2.3623 1.9009 2.9169 0 0.11968-0.94908 0.40146-2.1091 0.62608-1.16 0.22478-2.2808 0.45801-2.4906 0.51855-0.23842 0.0689-0.48521-0.11752-0.65793-0.49651-1.0259-2.2517-5.4688-1.9647-6.638 0.42884-0.94639 1.9373-0.92791 5.853 0.03377 7.141 0.90654 1.2142 1.6659 1.574 3.4981 1.6577 1.4403 0.0657 1.9196-0.0135 2.8199-0.478 1.0119-0.51987 1.0847-0.62194 1.0847-1.5214v-0.96414l-3.495-0.1416v-3.3534h8.1952v3.6987c0 2.1494 0.0035 2.48 0.0549 3.9282-1.0774 0.63332-1.3605 0.75446-2.8278 1.4519-1.9015 0.90381-1.9708 1.0977-5.1813 1.1616-2.6535 0.0527-3.5059-0.19911-4.6191-0.56602z" opacity=".97"/>
    <path d="m-42.979 146.08v-8.7978h14.944v3.6156h-9.6414v3.1334h8.6773v3.3745h-8.6773v3.8566h9.6414v3.6155h-14.944z" opacity=".97"/>
    <path d="m-20.804 146.08v-8.7978l3.5553 8.9e-4 3.5553 9.2e-4 1.1837 4.6391c1.6226 6.3589 1.6017 6.2898 1.8279 6.0539 0.19768-0.20613 0.71601-1.9621 2.2669-7.6818l0.78428-2.8924 7.0737-0.1334v17.609h-4.3386v-6.9177c0-4.0185-0.089343-6.8218-0.21316-6.6887-0.11714 0.1259-0.51069 1.4763-0.87444 3.0009-0.36375 1.5245-1.0214 4.0735-1.4614 5.6643-0.43998 1.5908-0.91841 3.3534-1.0632 3.9169l-0.26311 1.0244h-3.8194l-0.27684-1.0244c-0.15232-0.56343-0.48634-1.7837-0.74246-2.7117-0.25609-0.92801-0.88788-3.3016-1.4038-5.2748-0.51596-1.9731-1.0538-3.7032-1.1951-3.8445-0.18188-0.18182-0.25679 1.6573-0.25679 6.2992v6.5562h-4.3387z" opacity=".97"/>
   </g>
   <path d="m-82.819 144.3c-0.13079-8e-3 -0.18928-0.0316-0.25069-0.0992-0.06789-0.0754-0.079-0.11292-0.07918-0.26989-1.89e-4 -0.29618 0.02134-0.77432 0.03715-0.8116 0.01162-0.0281 0.01189-0.0373 0.0022-0.0402-7e-3 -1e-3 -0.07232-0.0189-0.14492-0.0316-0.14721-0.0316-0.36719-0.10213-0.49655-0.15859l-0.08524-0.0373-0.0068 0.0773c-0.0035 0.0424-0.0127 0.0889-0.02053 0.10348-0.0078 0.0135-0.1216 0.1829-0.25339 0.37507-0.25436 0.37061-0.27968 0.39919-0.3794 0.42883-0.06824 0.0216-0.1162 0.0189-0.1819-3e-3 -0.05625-0.0216-0.31018-0.19182-0.35894-0.24342-0.07451-0.0789-0.09783-0.21586-0.05355-0.31553 0.02567-0.0578 0.44621-0.67603 0.49665-0.73036 0.01837-0.0216 0.05311-0.0476 0.0777-0.0619l0.04471-0.0281-0.14592-0.14211c-0.08024-0.0781-0.17947-0.1829-0.22045-0.23288l-0.07456-0.091-0.02242 0.0511c-0.01243 0.0281-0.03904 0.0673-0.05909 0.0873-0.03974 0.0397-0.73675 0.44593-0.80238 0.46752-0.06222 0.0216-0.1752 0.0108-0.23096-0.0243-0.06881-0.0408-0.10399-0.084-0.1922-0.23774-0.09721-0.16913-0.10774-0.19911-0.10218-0.29021 0.0049-0.0827 0.02991-0.13995 0.08305-0.19317 0.0208-0.0216 0.19357-0.12698 0.38384-0.23639 0.45027-0.25855 0.40588-0.23748 0.50211-0.23775l0.08156-1.3e-4 -0.01594-0.0373c-0.04539-0.1059-0.09483-0.25638-0.13114-0.39943-0.03555-0.13995-0.04298-0.1594-0.06022-0.15481-0.01081 3e-3 -0.23302 3e-3 -0.49372 3e-3l-0.47403 3.8e-4 -0.05325-0.0281c-0.06786-0.0359-0.11493-0.0854-0.14592-0.15264-0.02296-0.0497-0.02458-0.0667-0.02458-0.25584 0-0.1721 3e-3 -0.20965 0.01972-0.25045 0.02991-0.0735 0.08518-0.13346 0.15364-0.16696l0.06114-0.0316 0.43674 3e-3c0.24023 1e-3 0.45211 3e-3 0.47089 0.0108 0.03928 8e-3 0.03482 0.0189 0.06208-0.15615 0.02215-0.1413 0.07743-0.35824 0.12563-0.49267l0.03723-0.10375h-0.03482c-0.06314 0-0.11971-0.0281-0.47938-0.24477-0.38139-0.2291-0.42471-0.26314-0.45762-0.35956-0.01972-0.0578-0.02134-0.11914-0.0049-0.17858 0.01945-0.0702 0.1883-0.34224 0.24182-0.38957 0.07397-0.0651 0.1775-0.0886 0.27356-0.0619 0.02351 8e-3 0.20665 0.10969 0.4072 0.22964 0.27342 0.16318 0.375 0.22964 0.40622 0.2653l0.04166 0.0476 0.0784-0.0932c0.10107-0.12022 0.27054-0.28775 0.37976-0.37523l0.08594-0.0689-0.05709-0.0538c-0.04976-0.0467-0.08199-0.1-0.25133-0.41581-0.19717-0.36767-0.22256-0.4243-0.22256-0.49662 0-0.0643 0.0402-0.15696 0.08959-0.20532 0.05808-0.0573 0.33484-0.20506 0.41135-0.21938 0.11317-0.0216 0.23653 0.0316 0.30128 0.13184 0.04901 0.0754 0.39037 0.71207 0.40776 0.76087 0.0078 0.0216 0.01432 0.0546 0.01432 0.0727l3.89e-4 0.0351 0.16245-0.0527c0.08934-0.0281 0.23718-0.0675 0.32851-0.0854l0.16607-0.0316-0.02742-0.0489-0.02745-0.0489-3e-3 -0.45663c-0.0027-0.40541-0.0012-0.46277 0.01486-0.5108 0.02323-0.0697 0.09488-0.1467 0.16702-0.17939 0.05209-0.0243 0.06813-0.0243 0.25795-0.0243 0.19536 0 0.20443 6e-4 0.26103 0.0281 0.07381 0.0351 0.1242 0.0848 0.15661 0.15562l0.0254 0.0551-3e-3 0.46679-3e-3 0.46682-0.02707 0.0481-0.0271 0.0481 0.13908 0.0243c0.1554 0.0281 0.3838 0.09 0.50993 0.1394 0.04577 0.0189 0.08535 0.0316 0.08786 0.0316 0.0025 0 0.0046-0.0135 0.0049-0.0281 1.67e-4 -0.0465 0.03653-0.11401 0.25393-0.47136 0.21835-0.35897 0.25882-0.41008 0.34958-0.44104 0.07292-0.0243 0.15805-0.0216 0.22194 8e-3 0.08199 0.0384 0.30016 0.17561 0.33614 0.21127 0.06946 0.0697 0.10169 0.19371 0.07538 0.29089-0.01756 0.0654-0.44125 0.75921-0.49173 0.80541-0.02323 0.0216-0.04231 0.0408-0.04231 0.044 0 3e-3 0.04625 0.0451 0.10277 0.0943 0.11377 0.0992 0.26965 0.26666 0.36711 0.39466l0.06349 0.0835 0.06084-0.0611c0.05814-0.0583 0.0784-0.0694 0.455-0.24152 0.38882-0.17831 0.39515-0.18074 0.46871-0.18128 0.06076-2.2e-4 0.08589 3e-3 0.1356 0.0281 0.03342 0.0189 0.07516 0.047 0.09248 0.0684 0.01729 0.0216 0.06638 0.11292 0.10909 0.20424 0.06419 0.13751 0.07835 0.17777 0.08178 0.2318 0.0059 0.0965-0.01999 0.16561-0.08786 0.23261-0.04922 0.0486-0.09134 0.0702-0.43525 0.22721-0.2496 0.11401-0.40285 0.17804-0.44493 0.1856-0.05003 0.0108-0.06281 0.0135-0.05803 0.0281 0.04666 0.12184 0.11576 0.42192 0.13522 0.58747 0.01054 0.0905 0.01513 0.10591 0.02921 0.1 0.07527-0.0316 0.13122-0.0362 0.56015-0.0362h0.43766l0.05522 0.0281c0.07124 0.0357 0.13627 0.10941 0.1567 0.17831 0.02296 0.077 0.02242 0.41038-8.08e-4 0.47805-0.02215 0.0651-0.07516 0.12482-0.14475 0.16318l-0.05709 0.0316-0.43675 8e-3c-0.46157 8e-3 -0.50127 3e-3 -0.57686-0.0394l-0.04425-0.0243-0.01783 0.0824c-0.04085 0.18749-0.11633 0.42029-0.18504 0.57118-0.01837 0.04-0.03342 0.0773-0.03342 0.0827 0 3e-3 0.0154 0.0108 0.03447 0.0108 0.01891 1.4e-4 0.05484 0.0108 0.07956 0.0216 0.07756 0.0351 0.71282 0.4676 0.75406 0.51323 0.06754 0.0748 0.0921 0.16912 0.06897 0.26557-0.01297 0.0548-0.17031 0.3085-0.23266 0.37561-0.06619 0.0713-0.20081 0.10834-0.2979 0.0819-0.02885-8e-3 -0.18412-0.10455-0.41253-0.25666-0.31954-0.21316-0.37106-0.25125-0.40241-0.29793l-0.03596-0.0535-0.07348 0.0778c-0.10353 0.10969-0.20006 0.19641-0.33111 0.29761-0.10039 0.0773-0.1109 0.0886-0.09291 0.0986 0.01135 8e-3 0.0419 0.0316 0.06827 0.0597 0.03961 0.04 0.08127 0.11671 0.23923 0.44107l0.19128 0.39249-8.11e-4 0.0724c-9.51e-4 0.0916-0.03842 0.17398-0.10347 0.22721-0.02459 0.0216-0.11671 0.0719-0.20435 0.11482-0.15737 0.0767-0.16034 0.0778-0.24455 0.0778-0.07446 0-0.09237-3e-3 -0.14202-0.0316-0.03131-0.0189-0.06881-0.0456-0.08348-0.0632-0.01486-0.0189-0.11328-0.20479-0.21908-0.41598-0.18712-0.37363-0.19252-0.38633-0.1976-0.46203-0.0046-0.0662-0.0078-0.0767-0.02242-0.071-0.09302 0.0365-0.40514 0.11184-0.53197 0.12832-0.05522 8e-3 -0.05649 8e-3 -0.04795 0.0351 0.01027 0.0316 0.0062 0.53314-0.0059 0.78412-0.0095 0.19425-0.02323 0.23991-0.09305 0.3085-0.08535 0.0838-0.17228 0.0992-0.46216 0.0816zm0.48256-2.3607c0.72537-0.0965 1.3062-0.65029 1.4416-1.3744 0.0278-0.14913 0.0278-0.45807 0-0.6072-0.1293-0.69159-0.65454-1.2205-1.3508-1.3601-0.17261-0.0351-0.46242-0.0351-0.6344-1.9e-4 -0.66617 0.13373-1.1929 0.64704-1.3347 1.3008-0.08386 0.38666-0.03412 0.77375 0.14443 1.1266 0.26195 0.51742 0.74821 0.85196 1.3418 0.92312 0.08129 0.0108 0.28784 3e-3 0.39202-0.0108z" enable-background="new" opacity=".97" stroke-width=".020131"/>
  </g>
  <path d="m-64.128 170.68c-5.3784-0.67108-9.007-3.594-10.892-8.7734-0.95407-2.6216-1.3622-5.1646-1.4384-8.9635-0.06735-3.3564 0.12563-6.0363 0.7047-9.7847 0.50571-3.2735 1.0664-5.6787 2.5925-11.121 1.7302-6.1701 2.823-9.6364 3.8918-12.344 2.8677-7.264 6.223-10.852 11.107-11.876 1.0018-0.20991 3.4495-0.20505 4.6444 0.0108 3.2463 0.58274 7.5766 2.3186 10.366 4.1555 1.3492 0.88841 2.8661 2.3841 3.5604 3.5105 1.482 2.4043 1.7415 5.1887 0.81869 8.7844-0.6579 2.5637-1.9252 5.5974-4.4338 10.614-2.4328 4.865-3.3818 7.2783-3.8536 9.8002-0.13262 0.70926-0.14632 1.174-0.10939 3.7497 0.08864 6.197 0.05206 9.7523-0.11293 10.975-0.47463 3.5138-1.5633 5.919-3.5225 7.7817-1.9002 1.8068-4.4839 2.8696-8.1669 3.3595-1.2197 0.1621-4.2578 0.23424-5.1558 0.12239z" fill="none" opacity=".97" stroke="url(#linearGradient5170)" stroke-linejoin="round" stroke-width="1.8037"/>
  <g fill="url(#linearGradient5942)" stroke="url(#linearGradient5942)">
   <g stroke-width=".36711">
    <path d="m-81.293 129.95c-8.5353-16.398-9.8036-18.75-10.848-20.117-0.90588-1.186-4.7786-4.8648-6.6121-6.281-2.0919-1.6158-4.6151-3.3114-7.5647-5.0835-1.2298-0.73887-2.2967-1.3975-2.3708-1.4635-0.14778-0.13157 48.542 0.0027 52.169 0.14643l2.2201 0.08645-2.7058 1.3989c-4.155 2.148-6.6817 3.8361-8.4534 5.6477-1.4772 1.5105-2.0899 2.6705-2.0915 3.9603-8.1e-4 0.63369 0.50586 2.3051 0.98126 3.237l0.28313 0.55497-1.6393 2.4798-0.69996-1.4932c-0.38498-0.82125-0.87037-2.0404-1.0786-2.7091-0.49578-1.5918-0.45903-3.209 0.10061-4.4272 0.77804-1.6937 2.2264-3.394 4.4759-5.2548 0.97221-0.8042 1.0401-0.89246 0.76504-0.99418-0.16604-0.06133-8.179-0.09564-17.807-0.07646l-17.505 0.03512 2.4775 1.9993c3.6937 2.9807 6.3695 5.6445 7.8183 7.7832 0.64335 0.94974 2.6703 4.7538 8.6426 16.22l5.449 10.461-0.39707 1.784c-0.21837 0.98116-0.43652 1.784-0.48474 1.784-0.04822 0-2.3547-4.3553-5.1254-9.6784z" opacity=".97"/>
    <path d="m-9.1972 129.92c-0.22618-0.38085-0.57717-0.87425-0.7801-1.0965l-0.36896-0.40395 2.9082-5.5266c5.1728-9.8301 6.2884-11.782 8.1434-14.25 1.9401-2.5812 4.8826-5.7271 7.567-8.09l0.96235-0.8471-1.7255-0.08159c-3.0392-0.14346-32.911-0.25666-32.858-0.12454 0.02815 0.06862 0.54952 0.56329 1.1601 1.0994 2.5819 2.267 4.1205 4.2289 4.6006 5.8661 0.34473 1.1754 0.19557 3.0824-0.36404 4.6574-0.40041 1.1269-2.7343 5.994-3.0658 6.3934-0.07456 0.0897-0.38468 0.2029-0.68945 0.2518-1.0609 0.16966-2.0523 1.4569-4.1016 5.3254-0.62793 1.1854-0.70838 1.2796-1.0281 1.2043-0.19066-0.0451-0.39038-0.12428-0.44357-0.17588-0.05311-0.0516 0.87567-1.8738 2.0641-4.0489 2.574-4.711 4.4769-8.5507 4.9635-10.015 0.77015-2.3179 0.34578-3.6865-1.8577-5.9933-1.7523-1.8342-4.3635-3.6504-8.2992-5.7721-1.1637-0.62738-2.1565-1.2063-2.2061-1.2866-0.09672-0.15642 50.084-0.03512 51.895 0.1259l0.95039 0.08429-1.0198 0.55335c-2.2165 1.2028-3.9908 2.2596-5.1826 3.0869-2.9039 2.0159-6.6678 5.7511-9.2267 9.1564-1.8811 2.5033-2.9654 4.418-8.7426 15.438-1.4882 2.8388-2.737 5.1616-2.7752 5.1617-0.038336 5e-5 -0.25433-0.31131-0.48047-0.69227z" opacity=".97"/>
    <path d="m-52.143 186.11c-4.1435-7.9396-7.5099-14.453-7.481-14.475 0.02885-0.0216 0.66232-0.13265 1.4076-0.24666l1.3551-0.20749 0.81238 1.5353c0.44681 0.84443 3.171 6.0624 6.0537 11.595 2.8827 5.533 5.2792 10.104 5.3256 10.157 0.04644 0.0535 2.1136-3.8642 4.594-8.7054 3.6785-7.1799 4.5608-8.8029 4.7872-8.8054 0.5104-8e-3 1.6937-0.65906 2.0466-1.1302 0.73156-0.97676 0.798-1.2402 0.798-3.1658v-1.8117l0.83571-1.5775c0.81281-1.5343 0.85056-1.58 1.3755-1.6639 0.29689-0.0475 0.62392-0.1186 0.72681-0.15804 0.1203-0.0462 0.3493 0.22342 0.64274 0.757l0.45564 0.82884-5.5384 10.794c-3.0461 5.9369-6.5888 12.855-7.8725 15.373s-2.4368 4.7505-2.5624 4.96l-0.22829 0.38088z" opacity=".97"/>
   </g>
   <path d="m-51.653 131.48c-0.10182-0.0359-0.29034-0.19587-0.33671-0.28562-0.01675-0.0316-0.04509-0.14426-0.06246-0.24774-0.05147-0.30534-0.14194-1.3149-0.14608-1.6301l-0.0035-0.29159-0.13849-0.0108c-0.3872-0.0351-0.59276-0.0627-0.88416-0.12238-0.49923-0.10266-0.44724-0.10807-0.47779 0.0476-0.02745 0.13967-0.08586 0.28035-0.35316 0.85147-0.28837 0.61603-0.45966 0.94606-0.52902 1.0192-0.15602 0.16453-0.40641 0.22964-0.62172 0.1621-0.19163-0.0605-0.69966-0.31693-0.79142-0.39981-0.13724-0.12428-0.18825-0.24909-0.18825-0.46201v-0.18101l0.24226-0.52198c0.32731-0.70513 0.52521-1.0978 0.61604-1.2222 0.06306-0.0862 0.07035-0.10671 0.04355-0.12184-0.07421-0.0416-0.38352-0.27052-0.56944-0.42167-0.43832-0.35619-0.41043-0.33733-0.4367-0.29337-0.09059 0.15156-0.20065 0.24801-0.68658 0.60141-0.59503 0.43261-0.87048 0.62205-1.0051 0.69135-0.07791 0.04-0.11598 0.0457-0.25566 0.0373-0.27163-0.0189-0.39211-0.10833-0.68606-0.52444-0.2197-0.31093-0.25566-0.38974-0.25566-0.55981 0-0.20235 0.05933-0.35143 0.18709-0.47027 0.11709-0.10915 1.034-0.78372 1.3205-0.97184 0.10782-0.0708 0.22978-0.13994 0.27096-0.15345 0.04123-0.0135 0.07492-0.037 0.07492-0.0521 0-0.0135-0.07078-0.1748-0.15734-0.35522-0.08656-0.18047-0.20789-0.46554-0.2696-0.63358-0.06171-0.16805-0.12552-0.31061-0.14167-0.31693-0.01621-8e-3 -0.08424 3e-3 -0.15116 0.0216-0.14278 0.0397-0.43796 0.0789-1.1524 0.15237-0.68153 0.07-0.81336 0.07-0.95664-1e-3 -0.13438-0.0667-0.2946-0.23991-0.32418-0.34965-0.04209-0.15643-0.0881-0.52428-0.09194-0.7352-0.0035-0.18965 0.0018-0.22613 0.05122-0.3303 0.07386-0.15697 0.14375-0.23531 0.27159-0.30496 0.09088-0.0497 0.16129-0.064 0.4758-0.1 0.67974-0.0767 1.2622-0.12779 1.4592-0.12779l0.19528-6e-5 0.0127-0.16507c0.02459-0.31938 0.07883-0.80576 0.10553-0.94571l0.0271-0.14129-0.14675-0.0135c-0.17277-0.0189-0.32239-0.0697-1.2126-0.42572-0.64297-0.2572-0.67133-0.27087-0.76535-0.37153-0.12033-0.12887-0.16853-0.22721-0.18387-0.37567-0.01378-0.13427 0.01054-0.24342 0.11485-0.50831 0.10812-0.27508 0.21327-0.48306 0.27909-0.55203 0.03096-0.0316 0.11352-0.0875 0.18317-0.12238 0.24623-0.1232 0.33213-0.10239 1.4636 0.35208 0.60699 0.24368 0.65678 0.26692 0.77069 0.35848 0.04393 0.0351 0.08297 0.0602 0.08686 0.0551 0.0035-3e-3 0.05808-0.0954 0.12049-0.20046 0.18101-0.30569 0.45271-0.68084 0.68198-0.94174 0.07-0.0794 0.12744-0.15589 0.12765-0.16966 1.97e-4 -0.0135-0.04123-0.0489-0.09196-0.0789-0.05076-0.0281-0.12522-0.0908-0.16539-0.13508-0.17626-0.1956-1.0045-1.289-1.1022-1.4551-0.04771-0.0813-0.05611-0.11995-0.0553-0.25585 0.0018-0.28459 0.06789-0.38377 0.45664-0.68489 0.35867-0.27789 0.40562-0.3018 0.60832-0.31272 0.31433-0.0189 0.38709 0.0454 1.034 0.88023 0.47445 0.61224 0.58569 0.77196 0.61592 0.88424 0.0127 0.0467 0.03166 0.0851 0.04201 0.0851 0.01054 0 0.13722-0.0605 0.28148-0.13428 0.30297-0.15507 0.67032-0.31201 0.91572-0.39133l0.17101-0.0551-0.01405-0.0665c-0.0462-0.21586-0.10134-0.83659-0.13927-1.5662-0.02675-0.51502-0.01324-0.58307 0.14654-0.75416 0.17293-0.18507 0.29041-0.21776 0.86611-0.24207 0.36576-0.0135 0.43834 3e-3 0.6051 0.15372 0.13646 0.1232 0.18763 0.22802 0.21311 0.43559 0.02134 0.17668 0.1293 1.6143 0.1293 1.7267v0.0567l0.26038 0.0135c0.30617 0.0189 0.71775 0.0675 0.90739 0.1105 0.07394 0.0189 0.14256 0.0316 0.15245 0.0316 0.0097 0 0.02486-0.0503 0.03307-0.11185 0.0081-0.0616 0.04639-0.19803 0.0847-0.30358 0.14089-0.38891 0.46345-1.1788 0.57588-1.4101 0.12663-0.26071 0.18328-0.32044 0.37121-0.39174 0.20192-0.0767 0.32221-0.0548 0.84025 0.15264 0.34789 0.13941 0.50365 0.29513 0.54822 0.54808 0.03166 0.1748 0.0035 0.26855-0.28844 1.0031-0.33382 0.83853-0.38578 0.95722-0.46074 1.0505-0.03588 0.0446-0.06052 0.0889-0.05487 0.0981 0.0035 0.0108 0.09499 0.0683 0.19838 0.13076 0.24377 0.14778 0.59736 0.41422 0.88943 0.67009 0.12803 0.11212 0.23991 0.20397 0.24798 0.20397 7e-3 0 0.02107-0.0216 0.02815-0.0478 0.03518-0.1313 0.29724-0.33628 1.1961-0.93126 0.55353-0.36623 0.5581-0.3685 0.75572-0.36948 0.29266-1e-3 0.4092 0.0843 0.70447 0.52026 0.22829 0.33697 0.25398 0.39655 0.25433 0.59522 5.62e-4 0.19074-0.05979 0.33558-0.18714 0.45067-0.21176 0.19127-1.5144 1.0539-1.6392 1.0856-0.05873 0.0135-0.09075 0.0351-0.09075 0.0567 0 0.0189 0.05663 0.154 0.12592 0.3011 0.12557 0.26665 0.30111 0.7235 0.37466 0.97562 0.02107 0.0732 0.04925 0.13292 0.06227 0.13292 0.01405 0 0.07492-0.0216 0.13859-0.044 0.15337-0.0584 0.50893-0.0808 1.3867-0.0883 0.68618-3e-3 0.69328-3e-3 0.79312 0.0435 0.13368 0.0654 0.28106 0.23207 0.32784 0.37144 0.03166 0.091 0.03763 0.18966 0.03869 0.54798 5.97e-4 0.41575-5.62e-4 0.44115-0.0475 0.52817-0.06052 0.11293-0.19206 0.24315-0.29583 0.29267-0.12873 0.0608-0.37793 0.0767-1.2894 0.0808l-0.8672 3e-3 -0.01054 0.11698c-0.04539 0.43734-0.08688 0.72658-0.14176 0.98823-0.10201 0.48608-0.10482 0.4307 0.02459 0.4478 0.14281 0.0189 0.27789 0.0708 0.79895 0.30569 0.67207 0.30321 1.0382 0.48311 1.1144 0.54792 0.03869 0.0316 0.0985 0.10915 0.13298 0.16885 0.05487 0.0956 0.06262 0.12968 0.06262 0.28211 2.11e-4 0.20749-0.01756 0.26557-0.21386 0.66196-0.15899 0.32219-0.21527 0.38936-0.40185 0.47705-0.07846 0.037-0.12557 0.0432-0.26698 0.0365-0.15653-8e-3 -0.20016-0.0216-0.49127-0.14805-0.77556-0.34016-1.262-0.57669-1.3961-0.67876-0.07597-0.0578-0.14421-0.10509-0.15232-0.10563-7e-3 -4.3e-4 -0.07457 0.0829-0.14808 0.1856-0.19276 0.26909-0.34262 0.45515-0.56669 0.70375-0.10869 0.12023-0.19733 0.22667-0.19733 0.23559 0 0.0108 0.03799 0.0316 0.08408 0.0535 0.11325 0.05 0.2385 0.19182 0.5683 0.64404 0.69789 0.95676 0.75326 1.049 0.75358 1.2567 2.1e-4 0.19668-0.05101 0.31976-0.1903 0.45652-0.14881 0.14562-0.61273 0.47076-0.72016 0.50437-0.14951 0.0467-0.32221 0.0351-0.46464-0.0316-0.15618-0.0738-0.1882-0.1105-0.59887-0.67925-0.5638-0.78112-0.68576-0.96827-0.71348-1.0946-0.01405-0.063-0.03166-0.12185-0.03904-0.13076-7e-3 -0.0108-0.11398 0.0316-0.23604 0.0929-0.28668 0.14102-0.58086 0.25935-0.90973 0.36556-0.21851 0.0708-0.26063 0.091-0.24834 0.11995 0.07078 0.16669 0.24396 1.798 0.21662 2.0406-0.0254 0.22505-0.2218 0.4653-0.42563 0.52017-0.12506 0.0351-0.59641 0.0838-0.77248 0.0819-0.08208-5.9e-4 -0.18963-0.0135-0.23912-0.0351zm0.17526-4.8332c1.2667-0.18993 2.3054-0.96006 2.8652-2.1241 0.4131-0.85902 0.47428-1.87 0.1692-2.797-0.08829-0.26801-0.33417-0.75217-0.49809-0.98005-0.5688-0.79104-1.3831-1.3187-2.3553-1.5261-0.19241-0.0411-0.29077-0.0478-0.70306-0.0492-0.42481-5.7e-4 -0.50723 3e-3 -0.72436 0.0492-1.3489 0.27824-2.4215 1.2133-2.852 2.486-0.37962 1.1222-0.21802 2.3341 0.4418 3.3135 0.59646 0.88538 1.5057 1.4606 2.5706 1.626 0.26082 0.0405 0.82107 0.0416 1.086 1e-3z" opacity=".97" stroke-linejoin="round" stroke-width=".45092"/>
   <path d="m-62.841 135.05c-0.06141-0.0281-0.15326-0.10833-0.18004-0.16048-0.03536-0.0681-0.1973-0.83626-0.21581-1.0232l-0.0097-0.0986-0.34648-0.0108c-0.19057-3e-3 -0.37426-0.0135-0.4082-0.0216l-0.06171-0.0108-0.0097 0.0956c-0.0095 0.0943-0.2687 0.89241-0.32763 1.0092-0.03342 0.0662-0.1343 0.14346-0.21637 0.16534-0.08046 0.0216-0.16856 8e-3 -0.35414-0.0546-0.28862-0.097-0.36178-0.1675-0.37326-0.3584-0.0062-0.10564-0.0018-0.12212 0.13962-0.53817 0.14392-0.42275 0.18458-0.52495 0.22883-0.57534 0.02053-0.0243 0.0154-0.0281-0.05592-0.0678-0.11868-0.064-0.35934-0.21397-0.44821-0.27895l-0.079-0.0581-0.02405 0.0597c-0.01702 0.0421-0.08513 0.11752-0.2298 0.25314-0.28109 0.26422-0.51278 0.47276-0.5689 0.51226-0.07008 0.0492-0.17028 0.0673-0.26536 0.0476-0.07394-0.0135-0.09145-0.0281-0.2469-0.18642-0.09386-0.0954-0.18147-0.19938-0.1996-0.23666-0.03777-0.0781-0.04331-0.21289-0.01189-0.2881 0.03482-0.0835 0.72442-0.72629 0.84949-0.79196 0.01864-0.0108 0.03377-0.0243 0.03377-0.0316 0-8e-3 -0.04509-0.0875-0.10015-0.17669-0.10269-0.16615-0.26144-0.4689-0.26144-0.49897 0-0.0243-7e-3 -0.0216-0.07854 0.0135-0.06735 0.0351-0.86475 0.21775-1.0148 0.23369-0.14319 0.0135-0.27532-0.0535-0.33758-0.17479-0.03817-0.0746-0.10555-0.3862-0.10555-0.48824 0-0.15156 0.09388-0.27333 0.24485-0.31728 0.19779-0.0573 0.93787-0.21884 1.0036-0.21884 0.03166 0 0.03201-3e-3 0.03201-0.34259l-8e-6 -0.34262-0.10169-1e-3c-0.14708-1e-3 -0.97544-0.22721-1.0853-0.29513-0.07132-0.044-0.1384-0.16804-0.13859-0.25612-1.97e-4 -0.14643 0.09793-0.47535 0.16699-0.5591 0.02405-0.0281 0.07305-0.0673 0.10877-0.0843 0.11698-0.0567 0.17531-0.0478 0.7885 0.11995 0.32344 0.0883 0.3852 0.10942 0.44023 0.14859l0.04139 0.0281 0.1152-0.22856c0.06338-0.1259 0.16294-0.3018 0.22129-0.39155 0.05836-0.0897 0.10607-0.16534 0.10607-0.16804 0-3e-3 -0.02134-0.0108-0.04725-0.0189-0.05663-0.0135-0.20257-0.14913-0.55125-0.51688-0.25712-0.27122-0.30452-0.34052-0.30494-0.44685-3.86e-4 -0.12968 0.02351-0.17129 0.20081-0.34825 0.18193-0.18155 0.23007-0.21397 0.33814-0.22639 0.15678-0.0189 0.17172-8e-3 0.56291 0.38541 0.24201 0.24342 0.37188 0.38601 0.40421 0.44332l0.04763 0.0843 0.10798-0.0727c0.14089-0.0951 0.41136-0.25044 0.51721-0.29723 0.07359-0.0316 0.08235-0.0411 0.07313-0.0702-0.04995-0.1594-0.18015-0.83638-0.19765-1.0277-0.01081-0.1186 0.0062-0.17777 0.0764-0.26071 0.0636-0.0757 0.13665-0.10455 0.37224-0.14805 0.18628-0.0351 0.22491-0.0373 0.28345-0.0216 0.08656 0.0216 0.17228 0.0819 0.21211 0.14643 0.03412 0.0548 0.0911 0.31131 0.1641 0.7363 0.02567 0.14913 0.05033 0.28986 0.0549 0.31272l0.0081 0.0419 0.7432-6e-3 0.0097-0.11293c0.0097-0.10969 0.10807-0.49048 0.21789-0.84364 0.04763-0.15346 0.06141-0.18047 0.11947-0.2364 0.10766-0.10374 0.20387-0.11671 0.43032-0.0586 0.32358 0.0827 0.41466 0.14697 0.45015 0.31798 0.01486 0.0713 0.01243 0.10023-0.0208 0.2364-0.06851 0.28315-0.23518 0.8451-0.26627 0.89786-0.01702 0.0281-0.02885 0.0538-0.02648 0.0559 0.0027 1e-3 0.06846 0.0359 0.14664 0.0748 0.1755 0.0881 0.33168 0.18155 0.49439 0.29618 0.06846 0.0486 0.13054 0.0878 0.138 0.0878 7e-3 0 0.0285-0.0316 0.04636-0.0678 0.03447-0.0713 0.1819-0.20829 0.59166-0.55005 0.25136-0.20965 0.28841-0.23072 0.40369-0.23072 0.13638 0 0.20692 0.0451 0.36412 0.2318 0.15607 0.18533 0.19233 0.25233 0.1919 0.35437-8.1e-4 0.15129-0.05963 0.22046-0.51237 0.60217-0.28229 0.23775-0.34342 0.28565-0.39591 0.30956-0.02215 0.0108-0.0405 0.0243-0.0405 0.0351s0.04428 0.0883 0.09834 0.17695c0.05411 0.0886 0.13976 0.24829 0.19033 0.35473 0.05057 0.10617 0.09407 0.1956 0.09656 0.19884 0.0026 3e-3 0.04058-0.0108 0.08459-0.0316 0.08378-0.04 0.31025-0.08 0.8346-0.14562 0.28872-0.0362 0.33414-0.0316 0.43877 0.044 0.0781 0.0567 0.11663 0.13995 0.14621 0.31658 0.03342 0.19884 0.03131 0.36407-0.0046 0.4348-0.03969 0.077-0.10274 0.13346-0.1805 0.16075-0.07865 0.0281-0.7409 0.12481-0.95632 0.14048l-0.15262 0.0108 0.0046 0.18074c0.0046 0.16183-0.01243 0.43645-0.03609 0.60285l-0.0092 0.0605 0.12546 0.0189c0.13465 0.0189 0.84469 0.2472 0.99169 0.31904 0.06643 0.0316 0.09256 0.0567 0.13181 0.12238 0.06973 0.11645 0.06665 0.18912-0.01945 0.45172-0.07721 0.23612-0.12744 0.30639-0.2539 0.35462-0.10518 0.04-0.18001 0.0243-0.64961-0.12887-0.38121-0.12509-0.50567-0.17399-0.58304-0.22856-0.03096-0.0216-0.01945-0.0362-0.11852 0.14589-0.04498 0.0827-0.13519 0.22504-0.20041 0.31623-0.06522 0.0916-0.12122 0.17263-0.12446 0.18101-0.0035 8e-3 0.0271 0.0316 0.06765 0.0489 0.07513 0.0351 0.19055 0.15048 0.54381 0.54624 0.20581 0.23072 0.25936 0.31201 0.26854 0.40716 0.01405 0.14697-0.04539 0.24153-0.27279 0.43386-0.15707 0.13292-0.19833 0.15345-0.30688 0.15291-0.13565-3.7e-4 -0.18728-0.0316-0.38205-0.24206-0.40742-0.43705-0.54509-0.60323-0.56478-0.68163-0.0054-0.0216-0.01486-0.04-0.02053-0.04-0.0054 0-0.058 0.0281-0.1162 0.0651-0.16561 0.10212-0.31852 0.18371-0.45772 0.24423-0.07043 0.0316-0.13327 0.0605-0.13968 0.0662-0.0062 8e-3 0.0018 0.0408 0.01756 0.0773 0.06684 0.15265 0.2362 1.0311 0.21392 1.109-0.02215 0.0767-0.05779 0.13347-0.11906 0.18885-0.04809 0.0435-0.08488 0.0594-0.19306 0.0848-0.27578 0.064-0.39024 0.0743-0.46623 0.0411zm-0.35172-2.5789c0.84981-0.14454 1.5109-0.79085 1.6813-1.644 0.03996-0.19993 0.03572-0.57956-0.0092-0.78742-0.08956-0.41906-0.28106-0.76308-0.59164-1.063-0.38494-0.37161-0.87391-0.56818-1.4135-0.56818-0.56754 0-1.0804 0.2191-1.4768 0.63135-0.26952 0.28035-0.446 0.61495-0.52922 1.0038-0.04355 0.2037-0.04744 0.58531-0.0081 0.7834 0.1691 0.84664 0.838 1.5042 1.6727 1.6445 0.17307 0.0281 0.50121 0.0281 0.67366-4.1e-4z" opacity=".97" stroke-linejoin="round" stroke-width=".45092"/>
   <path d="m-13.402 137.47c-0.0422-0.1575-0.10096-0.31342-0.13049-0.34684-0.0489-0.0551-0.14738-0.0608-1.0806-0.0619-0.92418-7.3e-4 -1.0197-8e-3 -0.95725-0.0535 0.03834-0.0281 0.61576-0.35877 1.2835-0.73314 2.7651-1.5501 3.8532-2.1891 4.0856-2.399 0.24201-0.21856 0.37023-0.60276 0.37142-1.1117 5.971e-4 -0.25179-0.00351-0.26692-0.24131-0.7168-0.38989-0.74111-0.91546-1.5886-1.2099-1.951-0.19346-0.23801-0.57449-0.39052-0.98071-0.39247-0.19911-7.2e-4 -0.25679 0.0189-0.70472 0.2391-0.77859 0.38353-4.3169 2.3614-5.1364 2.8712-0.19066 0.1186-0.4072 0.23504-0.48086 0.25854-0.1678 0.0538-0.45085 0.0316-0.61832-0.0486-0.1625-0.0778-0.79688-0.72887-1.2873-1.3215-0.2385-0.2881-0.77408-0.79031-2.2446-2.1043-0.18114-0.1621-0.36474-0.34648-0.40769-0.40986-0.17166-0.25315-0.18644-0.61333-0.03588-0.8685 0.04361-0.0743 0.21351-0.33452 0.37782-0.57886 0.36151-0.53797 0.7407-1.1683 1.5354-2.5523 1.2494-2.1759 1.5741-2.8036 1.6208-3.1338 0.0415-0.29337-0.01054-0.63264-0.13508-0.8595-0.16991-0.31271-1.0284-0.90589-2.0522-1.4181l-0.57105-0.28562h-0.41761c-0.38764 0-0.43193 8e-3 -0.61632 0.0975-0.32995 0.1621-0.48771 0.37809-1.3348 1.8277-1.0242 1.7527-2.1972 3.9526-2.3482 4.4036-0.14281 0.42659-0.61509 0.70308-1.0616 0.62146-0.10482-0.0189-0.22653-0.0575-0.27016-0.0862-0.3755-0.24207-3.3934-0.96746-4.7425-1.14-0.58969-0.0754-0.75639-0.13076-0.93698-0.31131-0.28739-0.28738-0.27226-0.0732-0.25222-3.5513 0.01756-3.2734 0.0015-4.1219-0.08653-4.2923-0.06719-0.12941-0.48255-0.53047-0.67475-0.65137l-0.14667-0.0921h-2.7766v0.0762c0 0.0419-0.13122-0.1883-0.29126-0.51166-0.1604-0.32328-0.36988-0.71289-0.4658-0.8655l-0.17447-0.27754 0.19417-0.0613c0.35816-0.11266 0.77795-0.13373 2.4383-0.12319l1.614 0.0108 0.2589 0.15616c0.85404 0.51504 1.5563 1.2542 1.732 1.823 0.15232 0.49289 0.15864 0.66269 0.1474 3.8909l-0.01054 3.0602 0.08021 0.0135c1.6051 0.29583 3.763 0.7935 4.0162 0.9261 0.03939 0.0216 0.12206-0.11104 0.3691-0.58956 0.72737-1.4083 2.1266-3.8633 2.6603-4.6678 0.28844-0.43505 0.51909-0.69195 0.82266-0.91697 0.60306-0.44704 1.2071-0.60784 2.0837-0.55465 0.3486 0.0216 0.50471 0.0486 0.75379 0.13185 0.7705 0.25827 2.292 1.1407 2.9613 1.7177 0.59479 0.51279 0.91088 1.1244 1.0027 1.9401 0.07951 0.70605-0.04398 1.2545-0.46788 2.0805-0.44462 0.86618-1.7179 3.1039-2.4798 4.3579-0.37061 0.61006-0.38546 0.64185-0.32608 0.69748 0.03518 0.0316 0.25749 0.23504 0.49591 0.45134 0.89312 0.80954 1.193 1.103 1.5672 1.5336 0.2114 0.24315 0.39928 0.44228 0.4175 0.44228 0.01756 0 0.48058-0.2553 1.0275-0.56729 2.6283-1.4993 4.0836-2.2781 4.5416-2.4304 0.72181-0.24017 1.5726-0.15804 2.3425 0.2264 0.52127 0.26044 0.78524 0.51798 1.2716 1.242 0.54688 0.8142 1.2756 2.1918 1.3777 2.6047 0.076673 0.31025 0.045739 1.1762-0.056978 1.5942-0.19171 0.77975-0.6268 1.3767-1.3358 1.8331-0.43632 0.2807-3.7628 2.1925-3.8152 2.1925-7e-3 0-0.04504-0.12887-0.08724-0.28635z" opacity=".97" stroke-width=".080502"/>
   <path d="m-38.38 176.84c-0.58125-0.0657-1.0953-0.34263-1.622-0.87263-0.88081-0.88644-0.95162-1.2992-0.95278-5.5532l-7.38e-4 -2.8255-0.34332-0.0883c-0.1889-0.0486-0.69392-0.19614-1.1223-0.32855-0.42838-0.13238-0.78284-0.23396-0.7877-0.22613-0.0035 8e-3 -0.13684 0.24531-0.29302 0.52758-0.6923 1.2501-2.9312 4.7905-3.3339 5.2721-0.26276 0.31412-0.81411 0.67127-1.2935 0.83761-0.50221 0.17426-1.2204 0.21884-1.6816 0.10402-0.78746-0.1956-2.6703-1.3293-3.3899-2.0411-0.39487-0.39057-0.64995-0.82616-0.70602-1.2056l-0.0285-0.19398 0.84822-0.41684c0.46652-0.22937 0.85926-0.42235 0.87275-0.42913 0.01324-8e-3 0.02459 0.16318 0.02459 0.37804v0.39034l0.22078 0.22612c0.29217 0.29935 1.4122 1.0445 2.0371 1.3551 0.55624 0.27649 0.82913 0.31272 1.2469 0.16534 0.45711-0.16156 0.60348-0.34929 1.9497-2.503 1.6255-2.6007 1.9837-3.2344 2.0739-3.669 0.03166-0.15102 0.10553-0.34719 0.16499-0.43669 0.12592-0.18966 0.47871-0.38323 0.69835-0.38323 0.08443 0 0.58857 0.14291 1.1204 0.31763 0.53183 0.1748 1.2584 0.3969 1.6145 0.49362 1.472 0.39989 1.547 0.4338 1.7819 0.80522l0.14105 0.22289-0.02459 0.68681c-0.01405 0.37774-0.02458 1.8458-0.02107 3.2624 0.0035 3.3759 0.05136 3.7586 0.5033 4.1128 0.36154 0.28316 0.32046 0.27684 1.861 0.29373 1.4292 0.0135 1.4367 0.0135 1.6925-0.10267 0.3194-0.14696 0.5217-0.35199 0.72631-0.73595l0.15864-0.29794-0.05663-3.4266c-0.06227-3.7597-0.07035-3.6188 0.22443-3.9263 0.16674-0.17399 0.26382-0.20181 1.3206-0.37756 0.48937-0.0813 1.4166-0.27119 2.0605-0.42188 1.6326-0.38221 1.8288-0.4176 2.0444-0.36894 0.2181 0.0492 0.39123 0.15588 0.50017 0.30815 0.0436 0.0611 0.36168 0.60784 0.70648 1.215 0.72733 1.2806 1.9783 3.3387 2.5654 4.2205 0.3614 0.54286 0.4377 0.62837 0.67714 0.75864 0.22653 0.1232 0.32503 0.14697 0.61322 0.14697 0.32327 3.8e-4 0.37375-0.0135 0.8616-0.27543 0.57939-0.3085 1.4154-0.82678 1.7876-1.1084 0.34297-0.25963 0.53936-0.6575 0.5395-1.0932 1.75e-4 -0.38085 0.05171-0.2828-1.8308-3.4831-0.6904-1.1738-1.3103-2.2665-1.3777-2.4284-0.14808-0.35561-0.15302-0.61211-0.01756-0.91229 0.08162-0.18101 0.25363-0.35383 0.87905-0.88138 0.4277-0.36075 1.2981-1.169 1.9343-1.7962 0.63613-0.62713 1.2171-1.1633 1.291-1.1914 0.07386-0.0281 0.23885-0.0511 0.36664-0.0511 0.23426 0 0.24482 3e-3 0.8462 0.41238 0.52205 0.35351 3.8566 2.2042 5.0397 2.7971 0.63665 0.31903 0.64879 0.32293 1.0463 0.32293 0.5548 0 0.75284-0.10132 1.092-0.55795 0.5148-0.69313 1.2548-2.1416 1.292-2.5289 0.031663-0.33805-0.14-0.83734-0.35405-1.0254-0.34578-0.30358-1.9452-1.2086-4.3932-2.4857-0.6071-0.31657-1.2197-0.64426-1.3614-0.72779l-0.25749-0.15183v-1.8953l1.6627 0.83553c1.4749 0.74112 1.6665 0.85072 1.6965 0.97003 0.05452 0.21802 0.1175 0.25773 0.4065 0.25773 0.24517 0 0.33945 0.0373 1.012 0.40063 2.5119 1.3572 2.9345 1.7476 3.2672 3.0179 0.24131 0.92099 0.078807 1.5587-0.81084 3.1822-0.48293 0.88133-0.79593 1.3272-1.1948 1.702-0.39682 0.37286-0.7107 0.54808-1.2111 0.67609-0.47087 0.12022-1.2458 0.13022-1.6658 0.0216-0.46591-0.12103-2.5555-1.2126-5.026-2.6252l-1.0051-0.57472-0.73602 0.71501c-0.40481 0.39331-1.0122 0.95695-1.3497 1.2525-0.33769 0.29548-0.60865 0.55497-0.6025 0.57631 7e-3 0.0216 0.49035 0.85161 1.076 1.845 1.3873 2.3533 1.8662 3.2173 1.966 3.5477 0.11044 0.3657 0.10693 1.1482-7e-3 1.5699-0.12417 0.45834-0.43949 1.0343-0.73233 1.3373-0.27754 0.28702-0.9138 0.74295-1.6768 1.2013-1.4831 0.89084-2.2022 1.086-3.1282 0.8492-0.62406-0.15966-1.2196-0.49083-1.5429-0.85815-0.30322-0.34473-1.8607-2.8168-2.9687-4.7127-0.26803-0.45869-0.50193-0.84886-0.51969-0.86707-0.01756-0.0189-0.34121 0.0419-0.71907 0.13373-0.37775 0.0916-0.75875 0.17804-0.84665 0.19236-0.08794 0.0135-0.4301 0.0792-0.7604 0.14427-0.3303 0.0651-0.68336 0.13211-0.78457 0.1494-0.14808 0.0243-0.18363 0.0524-0.18293 0.1394 5.97e-4 0.0594 0.02107 0.84775 0.04679 1.7516 0.02458 0.90391 0.05066 2.2948 0.05627 3.0909l0.01054 1.4475-0.25995 0.5064c-0.46028 0.89608-0.84243 1.3092-1.5325 1.6567-0.56644 0.28529-0.77971 0.31307-2.345 0.30674-0.76898-3e-3 -1.5637-0.0243-1.7661-0.0475zm8.8495-9.975c-0.01405-0.0386-0.06017-0.0578-0.10061-0.0421-0.05979 0.0243-0.06157 0.0359-7e-3 0.0697 0.0978 0.0619 0.1393 0.0516 0.10904-0.0281z" opacity=".97" stroke-width=".11385"/>
  </g>
 </g>
</svg>
