<?xml version="1.0" encoding="UTF-8" standalone="no"?>
<!-- Created with Inkscape (http://www.inkscape.org/) -->

<svg
   xmlns:dc="http://purl.org/dc/elements/1.1/"
   xmlns:cc="http://creativecommons.org/ns#"
   xmlns:rdf="http://www.w3.org/1999/02/22-rdf-syntax-ns#"
   xmlns:svg="http://www.w3.org/2000/svg"
   xmlns="http://www.w3.org/2000/svg"
   xmlns:xlink="http://www.w3.org/1999/xlink"
   xmlns:sodipodi="http://sodipodi.sourceforge.net/DTD/sodipodi-0.dtd"
   xmlns:inkscape="http://www.inkscape.org/namespaces/inkscape"
   width="278.76978"
   height="278.76978"
   viewBox="0 0 73.757837 73.757837"
   version="1.1"
   id="svg1028"
   inkscape:version="0.92.3 (2405546, 2018-03-11)">
  <defs
     id="defs1022">
    <linearGradient
       id="linearGradient5199-4-5"
       inkscape:collect="always">
      <stop
         id="stop5195"
         offset="0"
         style="stop-color:#26fffa;stop-opacity:1" />
      <stop
         style="stop-color:#7a6df0;stop-opacity:1"
         offset="0.5"
         id="stop5201" />
      <stop
         id="stop5197"
         offset="1"
         style="stop-color:#eb0068;stop-opacity:1" />
    </linearGradient>
    <filter
       inkscape:collect="always"
       style="color-interpolation-filters:sRGB"
       id="filter9890">
      <feBlend
         inkscape:collect="always"
         mode="screen"
         in2="BackgroundImage"
         id="feBlend9892" />
    </filter>
    <linearGradient
       inkscape:collect="always"
       xlink:href="#linearGradient5199-4-5"
       id="linearGradient9481-8-1"
       gradientUnits="userSpaceOnUse"
       gradientTransform="matrix(13.647309,0,0,13.647309,-626.81736,-2885.5085)"
       x1="47.893299"
       y1="223.51443"
       x2="68.126518"
       y2="223.51443" />
    <linearGradient
       inkscape:collect="always"
       xlink:href="#linearGradient5199-4-5"
       id="linearGradient7503"
       x1="350.28845"
       y1="378.08414"
       x2="406.35654"
       y2="378.08414"
       gradientUnits="userSpaceOnUse" />
    <inkscape:path-effect
       is_visible="true"
       id="path-effect7434"
       effect="spiro" />
    <inkscape:path-effect
       effect="spiro"
       id="path-effect7430"
       is_visible="true" />
    <linearGradient
       inkscape:collect="always"
       xlink:href="#linearGradient5199-4-5"
       id="linearGradient9709"
       x1="197.7339"
       y1="506.22375"
       x2="251.82228"
       y2="506.22375"
       gradientUnits="userSpaceOnUse" />
    <linearGradient
       inkscape:collect="always"
       xlink:href="#linearGradient5199-4-5"
       id="linearGradient18281"
       x1="-15.512155"
       y1="187.38147"
       x2="22.393375"
       y2="187.38147"
       gradientUnits="userSpaceOnUse" />
    <linearGradient
       inkscape:collect="always"
       xlink:href="#linearGradient5199-4-5"
       id="linearGradient19052"
       x1="340.4769"
       y1="689.1485"
       x2="386.95975"
       y2="689.1485"
       gradientUnits="userSpaceOnUse" />
    <inkscape:path-effect
       effect="spiro"
       id="path-effect19035"
       is_visible="true" />
    <inkscape:path-effect
       is_visible="true"
       id="path-effect19039"
       effect="spiro" />
    <linearGradient
       inkscape:collect="always"
       xlink:href="#linearGradient5199-4-5"
       id="linearGradient19013"
       gradientUnits="userSpaceOnUse"
       gradientTransform="matrix(3.3314539,0,0,3.3314539,54.175021,-216.36769)"
       x1="47.893299"
       y1="223.51443"
       x2="68.126518"
       y2="223.51443" />
    <linearGradient
       inkscape:collect="always"
       xlink:href="#linearGradient5199-4-5"
       id="linearGradient19011"
       gradientUnits="userSpaceOnUse"
       gradientTransform="matrix(3.6108505,0,0,3.6108505,37.967252,-278.81682)"
       x1="47.893299"
       y1="223.51443"
       x2="68.126518"
       y2="223.51443" />
    <linearGradient
       inkscape:collect="always"
       xlink:href="#linearGradient5199-4-5"
       id="linearGradient19185"
       gradientUnits="userSpaceOnUse"
       x1="340.4769"
       y1="689.1485"
       x2="386.95975"
       y2="689.1485" />
    <linearGradient
       inkscape:collect="always"
       xlink:href="#linearGradient5199-4-5"
       id="linearGradient19187"
       gradientUnits="userSpaceOnUse"
       x1="340.4769"
       y1="689.1485"
       x2="386.95975"
       y2="689.1485" />
    <linearGradient
       inkscape:collect="always"
       xlink:href="#linearGradient5199-4-5"
       id="linearGradient19189"
       gradientUnits="userSpaceOnUse"
       x1="340.4769"
       y1="689.1485"
       x2="386.95975"
       y2="689.1485" />
  </defs>
  <sodipodi:namedview
     id="base"
     pagecolor="#ffffff"
     bordercolor="#666666"
     borderopacity="1.0"
     inkscape:pageopacity="0.0"
     inkscape:pageshadow="2"
     inkscape:zoom="1.979899"
     inkscape:cx="64.809456"
     inkscape:cy="153.83971"
     inkscape:document-units="mm"
     inkscape:current-layer="g9696"
     showgrid="false"
     fit-margin-top="0"
     fit-margin-left="0"
     fit-margin-right="0"
     fit-margin-bottom="0"
     inkscape:window-width="1920"
     inkscape:window-height="1017"
     inkscape:window-x="-8"
     inkscape:window-y="-8"
     inkscape:window-maximized="1"
     units="px" />
  <metadata
     id="metadata1025">
    <rdf:RDF>
      <cc:Work
         rdf:about="">
        <dc:format>image/svg+xml</dc:format>
        <dc:type
           rdf:resource="http://purl.org/dc/dcmitype/StillImage" />
        <dc:title></dc:title>
      </cc:Work>
    </rdf:RDF>
  </metadata>
  <g
     inkscape:label="Layer 1"
     inkscape:groupmode="layer"
     id="layer1"
     transform="translate(77.819994,-56.532738)">
    <g
       transform="translate(-288.37345,-434.84866)"
       id="g9696"
       style="stroke:url(#linearGradient9709)">
      <circle
         inkscape:export-ydpi="182"
         inkscape:export-xdpi="182"
         inkscape:export-filename="C:\Users\Mantissa\g17529.png"
         r="36.349751"
         cy="528.26031"
         cx="247.43237"
         id="circle18999"
         style="display:inline;opacity:1;fill:none;fill-opacity:1;fill-rule:nonzero;stroke:url(#linearGradient19011);stroke-width:1.05833328;stroke-linecap:round;stroke-linejoin:round;stroke-miterlimit:4;stroke-dasharray:none;stroke-opacity:1;paint-order:markers stroke fill;enable-background:new" />
      <circle
         style="display:inline;opacity:1;fill:none;fill-opacity:1;fill-rule:nonzero;stroke:url(#linearGradient19013);stroke-width:0.52916682;stroke-linecap:round;stroke-linejoin:round;stroke-miterlimit:4;stroke-dasharray:none;stroke-opacity:1;paint-order:markers stroke fill;enable-background:new"
         id="circle19001"
         cx="247.43237"
         cy="528.26031"
         r="33.537117"
         inkscape:export-filename="C:\Users\Mantissa\g17529.png"
         inkscape:export-xdpi="182"
         inkscape:export-ydpi="182" />
      <g
         transform="translate(-116.60498,-158.77182)"
         id="g19044"
         style="stroke:url(#linearGradient19052)">
        <path
           sodipodi:nodetypes="ccccccccc"
           inkscape:connector-curvature="0"
           d="m 352.18893,712.57912 v -4.13696 c 0,0 8.59837,0.32446 9.08507,-6.48934 0.4867,-6.81381 -9.16619,-15.81777 -8.7606,-34.3935 h 22.40619 c 0.40559,18.57573 -9.2473,27.57969 -8.7606,34.3935 0.4867,6.8138 9.08507,6.48934 9.08507,6.48934 v 4.13696 z"
           style="fill:none;stroke:url(#linearGradient19185);stroke-width:0.5291667;stroke-linecap:butt;stroke-linejoin:miter;stroke-miterlimit:4;stroke-dasharray:none;stroke-opacity:1"
           id="path19022" />
        <path
           inkscape:original-d="m 350.42844,676.08998 c -3.15726,-1.01685 -6.33629,-2.02098 -9.50452,-3.03116 -3.16824,-1.01018 9.84184,10.72805 14.76268,16.09238 4.92083,5.36433 -2.45577,1.96158 -3.68374,2.94267 -1.22798,0.98109 -0.05,-4.50951 -0.0751,-6.76395"
           inkscape:path-effect="#path-effect19035"
           inkscape:connector-curvature="0"
           id="path19033"
           d="m 350.42844,676.08998 c 0.79678,-0.67517 1.40862,-1.56645 1.75232,-2.55265 0.34371,-0.98619 0.41837,-2.06469 0.21383,-3.08884 -0.20454,-1.02414 -0.68774,-1.99123 -1.38389,-2.76975 -0.69615,-0.77851 -1.6034,-1.36641 -2.5984,-1.68373 -0.995,-0.31732 -2.0751,-0.36323 -3.09344,-0.1315 -1.01834,0.23174 -1.97221,0.74052 -2.73192,1.45715 -0.7597,0.71663 -1.32323,1.63922 -1.61394,2.64232 -0.29072,1.00309 -0.30785,2.08404 -0.0491,3.09584 0.48287,1.88805 1.88096,3.42875 3.47983,4.54298 1.59887,1.11423 3.4135,1.86985 5.15929,2.73594 1.7458,0.86609 3.47152,1.88036 4.71908,3.37751 0.62378,0.74858 1.11823,1.61324 1.38335,2.55089 0.26512,0.93765 0.29464,1.94982 0.0211,2.88506 -0.23677,0.80959 -0.70365,1.55643 -1.35426,2.09328 -0.6506,0.53686 -1.486,0.8558 -2.32948,0.84939 -0.87504,-0.007 -1.74223,-0.36883 -2.36208,-0.98651 -0.61985,-0.61768 -0.98506,-1.4836 -0.99478,-2.35861 -0.01,-0.87501 0.33619,-1.74883 0.94217,-2.38012 0.60597,-0.63129 1.46492,-1.01263 2.33959,-1.03871"
           style="fill:none;stroke:url(#linearGradient19187);stroke-width:0.5291667;stroke-linecap:butt;stroke-linejoin:miter;stroke-miterlimit:4;stroke-dasharray:none;stroke-opacity:1" />
        <path
           style="fill:none;stroke:url(#linearGradient19189);stroke-width:0.5291667;stroke-linecap:butt;stroke-linejoin:miter;stroke-miterlimit:4;stroke-dasharray:none;stroke-opacity:1"
           d="m 377.00822,676.08998 c -0.79678,-0.67517 -1.40862,-1.56645 -1.75232,-2.55265 -0.34371,-0.98619 -0.41837,-2.06469 -0.21383,-3.08884 0.20454,-1.02414 0.68774,-1.99123 1.38389,-2.76975 0.69615,-0.77851 1.6034,-1.36641 2.5984,-1.68373 0.995,-0.31732 2.0751,-0.36323 3.09344,-0.1315 1.01834,0.23174 1.97221,0.74052 2.73192,1.45715 0.7597,0.71663 1.32323,1.63922 1.61394,2.64232 0.29072,1.00309 0.30785,2.08404 0.0491,3.09584 -0.48287,1.88805 -1.88096,3.42875 -3.47983,4.54298 -1.59887,1.11423 -3.4135,1.86985 -5.15929,2.73594 -1.7458,0.86609 -3.47152,1.88036 -4.71908,3.37751 -0.62378,0.74858 -1.11823,1.61324 -1.38335,2.55089 -0.26512,0.93765 -0.29464,1.94982 -0.0211,2.88506 0.23677,0.80959 0.70365,1.55643 1.35426,2.09328 0.6506,0.53686 1.486,0.8558 2.32948,0.84939 0.87504,-0.007 1.74223,-0.36883 2.36208,-0.98651 0.61985,-0.61768 0.98506,-1.4836 0.99478,-2.35861 0.01,-0.87501 -0.33619,-1.74883 -0.94217,-2.38012 -0.60597,-0.63129 -1.46492,-1.01263 -2.33959,-1.03871"
           id="path19037"
           inkscape:connector-curvature="0"
           inkscape:path-effect="#path-effect19039"
           inkscape:original-d="m 377.00822,676.08998 c 3.15726,-1.01685 6.33629,-2.02098 9.50452,-3.03116 3.16824,-1.01018 -9.84184,10.72805 -14.76268,16.09238 -4.92083,5.36433 2.45577,1.96158 3.68374,2.94267 1.22798,0.98109 0.05,-4.50951 0.0751,-6.76395" />
      </g>
    </g>
  </g>
</svg>
