<?xml version="1.0" encoding="UTF-8" standalone="no"?>
<!-- Created with Inkscape (http://www.inkscape.org/) -->

<svg
   xmlns:dc="http://purl.org/dc/elements/1.1/"
   xmlns:cc="http://creativecommons.org/ns#"
   xmlns:rdf="http://www.w3.org/1999/02/22-rdf-syntax-ns#"
   xmlns:svg="http://www.w3.org/2000/svg"
   xmlns="http://www.w3.org/2000/svg"
   xmlns:xlink="http://www.w3.org/1999/xlink"
   xmlns:sodipodi="http://sodipodi.sourceforge.net/DTD/sodipodi-0.dtd"
   xmlns:inkscape="http://www.inkscape.org/namespaces/inkscape"
   width="278.76978"
   height="278.76978"
   viewBox="0 0 73.757837 73.757837"
   version="1.1"
   id="svg1028"
   inkscape:version="0.92.3 (2405546, 2018-03-11)">
  <defs
     id="defs1022">
    <linearGradient
       id="linearGradient5199-4-5"
       inkscape:collect="always">
      <stop
         id="stop5195"
         offset="0"
         style="stop-color:#26fffa;stop-opacity:1" />
      <stop
         style="stop-color:#7a6df0;stop-opacity:1"
         offset="0.5"
         id="stop5201" />
      <stop
         id="stop5197"
         offset="1"
         style="stop-color:#eb0068;stop-opacity:1" />
    </linearGradient>
    <filter
       inkscape:collect="always"
       style="color-interpolation-filters:sRGB"
       id="filter9890">
      <feBlend
         inkscape:collect="always"
         mode="screen"
         in2="BackgroundImage"
         id="feBlend9892" />
    </filter>
    <linearGradient
       inkscape:collect="always"
       xlink:href="#linearGradient5199-4-5"
       id="linearGradient9481-8-1"
       gradientUnits="userSpaceOnUse"
       gradientTransform="matrix(13.647309,0,0,13.647309,-626.81736,-2885.5085)"
       x1="47.893299"
       y1="223.51443"
       x2="68.126518"
       y2="223.51443" />
    <linearGradient
       inkscape:collect="always"
       xlink:href="#linearGradient5199-4-5"
       id="linearGradient7503"
       x1="350.28845"
       y1="378.08414"
       x2="406.35654"
       y2="378.08414"
       gradientUnits="userSpaceOnUse" />
    <inkscape:path-effect
       is_visible="true"
       id="path-effect7434"
       effect="spiro" />
    <inkscape:path-effect
       effect="spiro"
       id="path-effect7430"
       is_visible="true" />
    <linearGradient
       inkscape:collect="always"
       xlink:href="#linearGradient5199-4-5"
       id="linearGradient9709"
       x1="197.7339"
       y1="506.22375"
       x2="251.82228"
       y2="506.22375"
       gradientUnits="userSpaceOnUse" />
    <linearGradient
       inkscape:collect="always"
       xlink:href="#linearGradient5199-4-5"
       id="linearGradient8258-7"
       gradientUnits="userSpaceOnUse"
       gradientTransform="matrix(3.3314539,0,0,3.3314539,42.052018,-228.59013)"
       x1="47.893299"
       y1="223.51443"
       x2="68.126518"
       y2="223.51443" />
    <linearGradient
       inkscape:collect="always"
       xlink:href="#linearGradient5199-4-5"
       id="linearGradient9357"
       gradientUnits="userSpaceOnUse"
       x1="250.32393"
       y1="269.23367"
       x2="272.59467"
       y2="290.84244"
       gradientTransform="matrix(0.66031429,0,0,0.66031429,51.111463,-7.8055445)" />
    <linearGradient
       inkscape:collect="always"
       xlink:href="#linearGradient5199-4-5"
       id="linearGradient9481"
       gradientUnits="userSpaceOnUse"
       gradientTransform="matrix(3.6108505,0,0,3.6108505,25.844252,-291.03926)"
       x1="47.893299"
       y1="223.51443"
       x2="68.126518"
       y2="223.51443" />
    <linearGradient
       inkscape:collect="always"
       xlink:href="#linearGradient5199-4-5"
       id="linearGradient17873"
       gradientUnits="userSpaceOnUse"
       gradientTransform="matrix(0.66031429,0,0,0.66031429,51.111463,-7.8055445)"
       x1="250.32393"
       y1="269.23367"
       x2="272.59467"
       y2="290.84244" />
    <linearGradient
       inkscape:collect="always"
       xlink:href="#linearGradient5199-4-5"
       id="linearGradient17875"
       gradientUnits="userSpaceOnUse"
       gradientTransform="matrix(0.66031429,0,0,0.66031429,51.111463,-7.8055445)"
       x1="250.32393"
       y1="269.23367"
       x2="272.59467"
       y2="290.84244" />
    <linearGradient
       inkscape:collect="always"
       xlink:href="#linearGradient5199-4-5"
       id="linearGradient17877"
       gradientUnits="userSpaceOnUse"
       gradientTransform="matrix(0.66031429,0,0,0.66031429,51.111463,-7.8055445)"
       x1="250.32393"
       y1="269.23367"
       x2="272.59467"
       y2="290.84244" />
    <linearGradient
       inkscape:collect="always"
       xlink:href="#linearGradient5199-4-5"
       id="linearGradient17879"
       gradientUnits="userSpaceOnUse"
       gradientTransform="matrix(0.66031429,0,0,0.66031429,51.111463,-7.8055445)"
       x1="250.32393"
       y1="269.23367"
       x2="272.59467"
       y2="290.84244" />
    <linearGradient
       inkscape:collect="always"
       xlink:href="#linearGradient5199-4-5"
       id="linearGradient17881"
       gradientUnits="userSpaceOnUse"
       gradientTransform="matrix(0.66031429,0,0,0.66031429,51.111463,-7.8055445)"
       x1="250.32393"
       y1="269.23367"
       x2="272.59467"
       y2="290.84244" />
    <linearGradient
       inkscape:collect="always"
       xlink:href="#linearGradient5199-4-5"
       id="linearGradient17883"
       gradientUnits="userSpaceOnUse"
       gradientTransform="matrix(0.66031429,0,0,0.66031429,51.111463,-7.8055445)"
       x1="250.32393"
       y1="269.23367"
       x2="272.59467"
       y2="290.84244" />
    <linearGradient
       inkscape:collect="always"
       xlink:href="#linearGradient5199-4-5"
       id="linearGradient17885"
       gradientUnits="userSpaceOnUse"
       x1="197.7339"
       y1="506.22375"
       x2="251.82228"
       y2="506.22375" />
  </defs>
  <sodipodi:namedview
     id="base"
     pagecolor="#ffffff"
     bordercolor="#666666"
     borderopacity="1.0"
     inkscape:pageopacity="0.0"
     inkscape:pageshadow="2"
     inkscape:zoom="1.4"
     inkscape:cx="62.91281"
     inkscape:cy="67.574026"
     inkscape:document-units="mm"
     inkscape:current-layer="g9696"
     showgrid="false"
     fit-margin-top="0"
     fit-margin-left="0"
     fit-margin-right="0"
     fit-margin-bottom="0"
     inkscape:window-width="1920"
     inkscape:window-height="1017"
     inkscape:window-x="-8"
     inkscape:window-y="-8"
     inkscape:window-maximized="1"
     units="px" />
  <metadata
     id="metadata1025">
    <rdf:RDF>
      <cc:Work
         rdf:about="">
        <dc:format>image/svg+xml</dc:format>
        <dc:type
           rdf:resource="http://purl.org/dc/dcmitype/StillImage" />
        <dc:title></dc:title>
      </cc:Work>
    </rdf:RDF>
  </metadata>
  <g
     inkscape:label="Layer 1"
     inkscape:groupmode="layer"
     id="layer1"
     transform="translate(89.94301,-44.310326)">
    <g
       transform="translate(-288.37345,-434.84866)"
       id="g9696"
       style="stroke:url(#linearGradient9709)">
      <circle
         inkscape:export-ydpi="182"
         inkscape:export-xdpi="182"
         inkscape:export-filename="C:\Users\Mantissa\g17529.png"
         r="36.349751"
         cy="516.0379"
         cx="235.30936"
         id="circle9479"
         style="display:inline;opacity:1;fill:none;fill-opacity:1;fill-rule:nonzero;stroke:url(#linearGradient9481);stroke-width:1.05833328;stroke-linecap:round;stroke-linejoin:round;stroke-miterlimit:4;stroke-dasharray:none;stroke-opacity:1;paint-order:markers stroke fill;enable-background:new" />
      <g
         transform="translate(10.252155,338.1542)"
         id="g9594"
         style="stroke:url(#linearGradient17885);stroke-width:0.5291667;stroke-miterlimit:4;stroke-dasharray:none">
        <path
           inkscape:connector-curvature="0"
           id="path9425"
           d="m 246.811,152.39864 c -0.0495,-0.0463 -0.0991,-0.0925 -0.14882,-0.1385 -0.38461,-0.30587 -0.7759,-0.60325 -1.17358,-0.89193 -0.0642,0.057 -0.18971,0.17714 -0.20825,0.1912 l -0.0444,0.0336 -1.93735,-1.71307 -0.27595,-0.24392 c -0.616,-0.40633 -1.24525,-0.79222 -1.88671,-1.15703 -0.20226,-0.10024 -0.40553,-0.19843 -0.60978,-0.29456 -0.0771,0.0443 -0.14885,0.0984 -0.22945,0.18914 -0.11818,0.13289 -0.13666,0.1645 -0.17776,0.30592 -0.0566,0.19461 -0.0462,0.41316 0.0284,0.59428 l 0.0558,0.13591 1.84278,1.63763 c 1.82189,1.61881 1.84234,1.63798 1.81384,1.67018 -0.036,0.0407 -0.52786,0.4082 -0.96583,0.7214 l -0.33124,0.2372 -1.3901,-1.22939 c -1.295,-1.14534 -1.39746,-1.23235 -1.5012,-1.27485 -0.35664,-0.14592 -0.7311,-0.0603 -0.98392,0.22531 -0.2441,0.27561 -0.28753,0.63288 -0.11886,0.97668 l 0.0574,0.11782 1.2144,1.08262 c 0.66791,0.59549 1.20303,1.09554 1.20303,1.09554 0,0 -0.50024,0.31228 -1.06919,0.65629 l -0.17311,0.10439 -0.62994,-0.55707 c -0.68221,-0.6034 -0.75373,-0.65495 -0.97358,-0.69815 -0.14113,-0.0277 -0.36478,-0.005 -0.49661,0.0501 -0.43909,0.18408 -0.6444,0.69238 -0.46044,1.13946 l 0.0537,0.13074 0.45424,0.41083 c 0.34971,0.31623 0.44973,0.4156 0.43563,0.4315 -0.0225,0.0255 -1.01491,0.56448 -1.70015,0.92346 l -0.50747,0.26561 -0.0403,0.10387 c -0.0527,0.13695 -0.72603,2.07016 -0.72603,2.07016 0,0 1.50027,-0.67231 2.48002,-1.18597 3.84448,-2.01553 6.73018,-3.97014 9.12089,-6.11642 z"
           style="opacity:1;fill:none;fill-opacity:1;fill-rule:nonzero;stroke:url(#linearGradient17873);stroke-width:0.5291667;stroke-linecap:butt;stroke-linejoin:miter;stroke-miterlimit:4;stroke-dasharray:none;stroke-opacity:1;paint-order:normal"
           sodipodi:nodetypes="cccccccccccccccccccccccccccccccccccccccc"
           inkscape:export-filename="C:\Users\Mantissa\g17529.png"
           inkscape:export-xdpi="182"
           inkscape:export-ydpi="182" />
        <path
           inkscape:connector-curvature="0"
           id="path9421"
           d="m 200.83603,201.09024 c 0.0542,0.0622 0.10864,0.12422 0.1633,0.18603 0.33606,0.32651 0.67892,0.64594 1.02836,0.95808 0.25504,-0.29577 0.92411,-1.09012 1.39837,-1.72496 1.57878,-2.11335 2.92776,-4.46046 4.20542,-7.3179 0.72514,-1.62173 1.40503,-3.37406 2.70268,-6.96856 1.02233,-2.83183 1.51942,-4.14498 2.14147,-5.65651 1.61283,-3.91901 3.01467,-6.37561 5.24413,-9.1891 0.50638,-0.63932 1.04671,-1.27892 1.65261,-1.94097 l 0.16846,-0.16743 2.17093,1.91203 2.17041,1.91203 0.13436,0.0481 c 0.0974,0.0347 0.19064,0.0441 0.33952,0.0351 0.27257,-0.0167 0.4067,-0.0823 0.59117,-0.28991 0.11818,-0.13289 0.13667,-0.16452 0.17777,-0.30592 0.0567,-0.19462 0.0462,-0.41369 -0.0284,-0.5948 l -0.0558,-0.13539 -2.14819,-1.90841 c -2.02663,-1.79972 -2.14739,-1.90932 -2.12339,-1.93631 0.0817,-0.092 0.95419,-0.88798 1.15497,-1.05369 l 0.0646,-0.0532 1.93166,1.70068 1.93167,1.70067 0.15709,0.0455 c 0.19989,0.0579 0.4045,0.0452 0.59583,-0.0367 0.13806,-0.0591 0.16226,-0.0778 0.29611,-0.22996 0.12699,-0.14429 0.15062,-0.18255 0.18552,-0.29972 0.0515,-0.17309 0.0355,-0.44098 -0.0367,-0.60771 l -0.0558,-0.1292 -1.81798,-1.61592 -1.81798,-1.61541 0.0336,-0.0382 c 0.0361,-0.0408 0.61644,-0.46988 1.03198,-0.76325 l 0.25477,-0.17984 1.32498,1.17202 c 0.77752,0.68766 1.36535,1.1958 1.42265,1.2299 0.13707,0.0816 0.2889,0.12089 0.45785,0.11989 0.64543,-0.005 1.04262,-0.67814 0.74828,-1.26762 l -0.0615,-0.12351 -1.1896,-1.0604 c -0.65424,-0.58348 -1.17977,-1.07177 -1.17977,-1.07177 0,0 0.2827,-0.17743 0.6165,-0.38085 0.33379,-0.20342 0.61443,-0.37828 0.61443,-0.37828 0,0 0.28456,0.23659 0.62322,0.53589 0.66683,0.58937 0.72528,0.63108 0.94568,0.67438 0.68812,0.13523 1.23554,-0.56403 0.94981,-1.21337 -0.0455,-0.10347 -0.0717,-0.13042 -0.47749,-0.49816 -0.32291,-0.2925 -0.47868,-0.40876 -0.47868,-0.40876 0,0 0.74935,-0.38338 1.50704,-0.77825 0.35147,-0.18316 0.64623,-0.34033 0.65423,-0.34933 0.0149,-0.0157 0.28439,-0.74025 0.64905,-1.74666 0.11127,-0.30696 0.20642,-0.55479 0.20642,-0.55479 0,0 -0.19958,0.0874 -1.29162,0.64987 -3.39419,1.74806 -5.53823,3.02244 -7.61711,4.52738 -1.82376,1.32025 -3.46693,2.76289 -4.85397,4.26227 -2.509,2.69674 -4.54811,5.94951 -6.44818,9.75961 -0.88364,1.92049 -1.3463,3.10375 -3.15226,8.06152 -1.0177,2.79381 -1.32924,3.61941 -1.82573,4.84105 -1.27773,3.14385 -2.64163,5.73891 -4.11758,7.8326 -0.44065,0.62508 -0.74266,1.01974 -1.34927,1.76371 -0.32914,0.40368 -0.37857,0.47922 -0.51987,0.6625 z"
           style="opacity:1;fill:none;fill-opacity:1;fill-rule:nonzero;stroke:url(#linearGradient17875);stroke-width:0.5291667;stroke-linecap:butt;stroke-linejoin:miter;stroke-miterlimit:4;stroke-dasharray:none;stroke-opacity:1;paint-order:normal"
           sodipodi:nodetypes="cccccccccccccccccccccccccccccccccccccccccccccccccccccccccsccccc"
           inkscape:export-filename="C:\Users\Mantissa\g17529.png"
           inkscape:export-xdpi="182"
           inkscape:export-ydpi="182" />
        <path
           inkscape:connector-curvature="0"
           id="path9417"
           d="m 195.43068,193.57958 c 0.43406,0.8364 0.90319,1.65413 1.40612,2.45102 0.58106,0.90099 1.205,1.7736 1.86965,2.61482 l 1.15962,1.02165 0.13436,0.0481 c 0.0974,0.0347 0.19065,0.0441 0.33951,0.0351 0.27257,-0.0167 0.40671,-0.0823 0.59118,-0.2899 0.11809,-0.13289 0.13667,-0.16504 0.17777,-0.30644 0.0566,-0.19462 0.0462,-0.41317 -0.0284,-0.59428 l -0.0558,-0.13591 -2.14819,-1.90789 c -2.02664,-1.79972 -2.12338,-1.93632 -2.12338,-1.93632 0,0 0.9542,-0.88797 1.15497,-1.05368 l 0.0646,-0.0532 1.93167,1.70068 1.93166,1.70067 0.1571,0.0455 c 0.19989,0.0579 0.40451,0.0452 0.59583,-0.0367 0.13806,-0.0592 0.16224,-0.0778 0.2961,-0.22996 0.12698,-0.14429 0.15062,-0.18255 0.18552,-0.29972 0.0515,-0.17309 0.0355,-0.44099 -0.0367,-0.60772 l -0.0558,-0.12919 -1.81797,-1.61592 -1.81798,-1.61541 0.0336,-0.0382 c 0.0361,-0.0408 0.61645,-0.46988 1.03198,-0.76326 l 0.25476,-0.17983 1.32498,1.1715 c 0.7775,0.68766 1.36536,1.19632 1.42266,1.23042 0.13707,0.0816 0.28888,0.12089 0.45785,0.11989 0.64541,-0.005 1.04313,-0.67866 0.74879,-1.26814 l -0.0615,-0.12299 -1.18959,-1.06092 c -0.65424,-0.58348 -1.17978,-1.07177 -1.17978,-1.07177 0,0 0.2827,-0.17742 0.6165,-0.38085 0.33378,-0.20341 0.61392,-0.37776 0.61392,-0.37776 0,0 0.28457,0.23659 0.62322,0.53589 0.66683,0.58937 0.72528,0.63108 0.94567,0.67437 0.68813,0.13524 1.23555,-0.56402 0.94982,-1.21336 -0.0455,-0.10347 -0.0717,-0.13042 -0.47749,-0.49816 -0.323,-0.29251 -0.42465,-0.39418 -0.41135,-0.40928 0.0248,-0.028 0.68203,-0.38288 1.43971,-0.77773 0.35149,-0.18316 0.64622,-0.34033 0.65422,-0.34933 0.0149,-0.0157 0.28441,-0.74025 0.64906,-1.74666 0.11128,-0.30696 0.18921,-0.56069 0.18921,-0.56069 0,0 -0.18187,0.0933 -1.2739,0.65577 -3.3942,1.74806 -5.53874,3.02243 -7.61762,4.52737 -1.34105,0.97081 -2.54043,2.02142 -3.65611,3.09852 z"
           style="opacity:1;fill:none;fill-opacity:1;fill-rule:nonzero;stroke:url(#linearGradient17877);stroke-width:0.5291667;stroke-linecap:butt;stroke-linejoin:miter;stroke-miterlimit:4;stroke-dasharray:none;stroke-opacity:1;paint-order:normal"
           sodipodi:nodetypes="ccccccccccccccccccccccccccccccccccccccccccccccscc"
           inkscape:export-filename="C:\Users\Mantissa\g17529.png"
           inkscape:export-xdpi="182"
           inkscape:export-ydpi="182" />
        <path
           inkscape:connector-curvature="0"
           id="path9415"
           d="m 239.64814,147.76067 c -0.49919,-0.25673 -1.00474,-0.50089 -1.51619,-0.73225 -0.82064,1.32899 -1.59974,2.77161 -2.3151,4.32635 -0.88366,1.92049 -1.34631,3.10428 -3.15227,8.06204 -1.0177,2.79382 -1.32872,3.61942 -1.82521,4.84105 -1.27774,3.14386 -2.64215,5.73838 -4.1181,7.83208 -0.44065,0.62507 -0.74266,1.01974 -1.34927,1.76372 -0.39916,0.49088 -0.91329,1.11952 -1.54306,1.81332 l -0.139,0.13488 -2.15129,-1.9017 c -1.35919,-1.20168 -2.18266,-1.9189 -2.23656,-1.9482 -0.30572,-0.16606 -0.68125,-0.13428 -0.96221,0.0811 -0.2954,0.22654 -0.39864,0.65234 -0.24547,1.01131 l 0.062,0.14625 2.15646,1.91512 c 1.79268,1.63535 2.1301,1.94562 2.1301,1.94562 0,0 -1.07377,1.00199 -1.17874,1.08159 l -0.045,0.0341 -1.93735,-1.71308 -1.93684,-1.71359 -0.13436,-0.0475 c -0.0974,-0.0347 -0.19064,-0.0447 -0.33951,-0.0357 -0.27257,0.0167 -0.40671,0.0823 -0.59118,0.28991 -0.11819,0.1329 -0.13666,0.16503 -0.17776,0.30644 -0.0566,0.19461 -0.0462,0.41317 0.0284,0.59428 l 0.0558,0.13591 1.84278,1.63763 c 1.60633,1.43573 1.81384,1.67018 1.81384,1.67018 0,0 -0.52785,0.40821 -0.96583,0.7214 l -0.33124,0.23668 -1.3901,-1.22938 c -1.295,-1.14534 -1.39747,-1.23236 -1.5012,-1.27486 -0.35665,-0.14593 -0.73111,-0.0603 -0.98392,0.22531 -0.2441,0.27562 -0.28753,0.63287 -0.11886,0.97668 l 0.0579,0.11782 1.21388,1.08314 c 0.66791,0.59549 1.20303,1.09554 1.20303,1.09554 0,0 -0.50023,0.31177 -1.06919,0.65578 l -0.1726,0.1049 -0.62993,-0.55707 c -0.6822,-0.60339 -0.75425,-0.65495 -0.9741,-0.69815 -0.14114,-0.0278 -0.36479,-0.005 -0.49661,0.0501 -0.4391,0.18408 -0.64441,0.69187 -0.46044,1.13895 l 0.0537,0.13126 0.45424,0.41083 c 0.34971,0.31623 0.44973,0.41508 0.43563,0.43098 -0.0225,0.0255 -1.01491,0.56447 -1.70015,0.92346 l -0.50747,0.26613 -0.0403,0.10387 c -0.0527,0.13698 -0.74096,2.0719 -0.74096,2.0719 0,0 1.51519,-0.67404 2.49496,-1.18769 4.34851,-2.27979 7.51091,-4.46634 10.06657,-6.95979 1.18012,-1.15923 2.53865,-2.73301 3.7021,-4.19406 1.57878,-2.11335 2.92776,-4.46046 4.20543,-7.3179 0.72514,-1.62174 1.40451,-3.37407 2.70216,-6.96856 1.02232,-2.83184 1.51942,-4.14498 2.14147,-5.65651 1.04025,-2.5277 2.01346,-4.4325 3.15692,-6.23166 z"
           style="opacity:1;fill:none;fill-opacity:1;fill-rule:nonzero;stroke:url(#linearGradient17879);stroke-width:0.5291667;stroke-linecap:butt;stroke-linejoin:miter;stroke-miterlimit:4;stroke-dasharray:none;stroke-opacity:1;paint-order:normal"
           sodipodi:nodetypes="cccscccccccccccccccccccccccccccccccccccccccccccccccccscccc"
           inkscape:export-filename="C:\Users\Mantissa\g17529.png"
           inkscape:export-xdpi="182"
           inkscape:export-ydpi="182" />
        <path
           inkscape:connector-curvature="0"
           id="path9442"
           d="m 205.82901,205.36853 c 0.0969,0.0744 0.19424,0.14833 0.29197,0.22169 0.378,0.24227 0.76083,0.47693 1.14825,0.70383 0.4867,-1.31295 1.00023,-2.72874 1.40974,-3.7238 1.61283,-3.91901 3.01519,-6.37561 5.24464,-9.1891 h 5.1e-4 c 0.49525,-0.62575 1.04081,-1.27867 1.67122,-1.85054 l 0.16795,-0.16795 2.17093,1.91203 2.1704,1.91203 0.13436,0.0481 c 0.0974,0.0347 0.19117,0.0441 0.34003,0.0351 0.27258,-0.0167 0.4062,-0.0823 0.59067,-0.2899 0.11809,-0.13291 0.13666,-0.16452 0.17776,-0.30593 0.0566,-0.19461 0.0462,-0.41369 -0.0284,-0.5948 l -0.0558,-0.13539 -2.14819,-1.90841 c -2.02664,-1.79973 -2.12338,-1.93631 -2.12338,-1.93631 0,0 0.95419,-0.88799 1.15497,-1.05369 l 0.0646,-0.0532 1.93167,1.70067 1.93166,1.70067 0.1571,0.0455 c 0.19989,0.0579 0.40451,0.0456 0.59583,-0.0362 0.13806,-0.0592 0.16224,-0.0778 0.2961,-0.22996 0.12698,-0.14428 0.15062,-0.18307 0.18552,-0.30024 0.0515,-0.17309 0.0355,-0.44098 -0.0367,-0.60771 l -0.0558,-0.1292 -1.81798,-1.6154 -1.81797,-1.61592 0.0336,-0.0382 c 0.0361,-0.0408 0.61644,-0.46988 1.03198,-0.76326 l 0.25476,-0.17984 1.32498,1.17202 c 0.77751,0.68765 1.36536,1.1958 1.42265,1.2299 0.13707,0.0816 0.28889,0.12089 0.45786,0.11989 0.64541,-0.005 1.04313,-0.67813 0.74879,-1.26762 l -0.0615,-0.12299 -1.1896,-1.06092 c -0.65424,-0.58348 -1.17977,-1.07177 -1.17977,-1.07177 0,0 0.2827,-0.17743 0.6165,-0.38085 0.33378,-0.20342 0.61392,-0.37827 0.61392,-0.37827 0,0 0.28456,0.23658 0.62321,0.53588 0.66683,0.58937 0.72529,0.63108 0.94568,0.67438 0.68812,0.13524 1.23555,-0.56402 0.94981,-1.21336 -0.0455,-0.10348 -0.0717,-0.13044 -0.47749,-0.49816 -0.32299,-0.29251 -0.42464,-0.39367 -0.41134,-0.40876 0.0248,-0.028 0.68203,-0.3834 1.43971,-0.77825 0.35149,-0.18317 0.64622,-0.33982 0.65422,-0.34882 0.0149,-0.0157 0.2844,-0.74077 0.64905,-1.74718 0.11128,-0.30696 0.1931,-0.56059 0.1931,-0.56059 0,0 -0.18575,0.0933 -1.27778,0.65568 -3.3942,1.74806 -5.53875,3.02243 -7.61763,4.52737 -1.82377,1.32025 -3.46694,2.7634 -4.85396,4.26279 -2.4784,2.6835 -4.57399,5.89033 -6.46628,9.66969 -0.6592,1.4327 -1.25297,2.95005 -2.17609,5.43533 z"
           style="opacity:1;fill:none;fill-opacity:1;fill-rule:nonzero;stroke:url(#linearGradient17881);stroke-width:0.5291667;stroke-linecap:butt;stroke-linejoin:miter;stroke-miterlimit:4;stroke-dasharray:none;stroke-opacity:1;paint-order:normal"
           sodipodi:nodetypes="ccccccccccccccccccccccccccccccccccccccccccccccccccccccccc"
           inkscape:export-filename="C:\Users\Mantissa\g17529.png"
           inkscape:export-xdpi="182"
           inkscape:export-ydpi="182" />
        <path
           inkscape:connector-curvature="0"
           id="path9438"
           d="m 251.04227,156.73894 c -0.36214,-0.43379 -0.73519,-0.85837 -1.11879,-1.27331 -2.73666,1.44661 -4.75366,2.63704 -6.58255,3.961 -1.82376,1.32025 -3.46694,2.76289 -4.85397,4.26227 -2.50899,2.69674 -4.54811,5.94951 -6.44818,9.75961 -0.88364,1.92049 -1.3463,3.10377 -3.15226,8.06153 -1.0177,2.79382 -1.32924,3.61941 -1.82573,4.84104 -1.27773,3.14386 -2.64163,5.7389 -4.11758,7.8326 -0.44065,0.62507 -0.74266,1.01974 -1.34927,1.76372 h 5.2e-4 c -0.38833,0.47673 -0.96883,1.10781 -1.56166,1.72341 l -0.13901,0.13539 -2.15129,-1.90221 c -1.35919,-1.20168 -2.18256,-1.9189 -2.23656,-1.9482 -0.30571,-0.16606 -0.68124,-0.13429 -0.96222,0.0811 -0.29549,0.22653 -0.39863,0.65235 -0.24546,1.01131 l 0.062,0.14624 2.15698,1.91513 c 2.07675,1.84413 2.1558,1.91652 2.1301,1.94562 -0.0784,0.0887 -1.0743,1.00199 -1.17926,1.08159 l -0.045,0.0341 -1.93684,-1.71307 -1.93735,-1.71359 -0.13436,-0.0475 c -0.0974,-0.0347 -0.19063,-0.0447 -0.33951,-0.0357 -0.27257,0.0167 -0.40671,0.0823 -0.59118,0.2899 -0.11819,0.1329 -0.13667,0.16504 -0.17777,0.30645 -0.0566,0.1946 -0.0462,0.41316 0.0284,0.59427 l 0.0558,0.13591 1.84278,1.63763 c 1.82189,1.61881 1.84234,1.63798 1.81384,1.67018 -0.036,0.0407 -0.52786,0.40821 -0.96583,0.7214 l -0.33125,0.23668 -1.39009,-1.22886 c -1.295,-1.14534 -1.39746,-1.23288 -1.5012,-1.27538 -0.35664,-0.14593 -0.7311,-0.0598 -0.98392,0.22583 -0.2441,0.27561 -0.28753,0.63288 -0.11886,0.97668 l 0.0579,0.11731 1.21388,1.08314 c 0.66791,0.5955 1.20303,1.09554 1.20303,1.09554 0,0 -0.50024,0.31176 -1.06919,0.65577 l -0.1726,0.1049 -0.62994,-0.55707 c -0.6822,-0.60339 -0.75425,-0.65495 -0.9741,-0.69815 -0.14112,-0.0277 -0.36477,-0.005 -0.49661,0.0501 -0.43908,0.18408 -0.64439,0.69239 -0.46043,1.13947 l 0.0543,0.13074 0.45372,0.41082 c 0.34971,0.31623 0.45025,0.41508 0.43614,0.43099 -0.0225,0.0255 -1.01491,0.56499 -1.70015,0.92397 l -0.50798,0.26562 -0.0398,0.10387 c -0.0126,0.0327 -0.11562,0.31838 -0.18138,0.49816 0.34151,0.21794 0.68693,0.42968 1.03611,0.6351 0.0707,0.0344 0.14147,0.0685 0.21239,0.10232 0.305,-0.15768 0.41899,-0.21128 0.68626,-0.3514 4.34851,-2.27979 7.51143,-4.46633 10.06709,-6.95978 1.16936,-1.14906 2.56378,-2.65603 3.71967,-4.10414 1.57878,-2.11335 2.92777,-4.46046 4.20543,-7.3179 0.72513,-1.62174 1.40502,-3.37408 2.70267,-6.96857 1.02233,-2.83184 1.51943,-4.14499 2.14147,-5.6565 1.61284,-3.91902 3.01467,-6.37561 5.24413,-9.18911 0.50638,-0.63932 1.04723,-1.27892 1.65313,-1.94096 l 0.16795,-0.16743 2.17092,1.91203 2.17041,1.91202 0.13436,0.0481 c 0.0974,0.0347 0.19116,0.0441 0.34003,0.0351 0.27258,-0.0167 0.40619,-0.0823 0.59066,-0.2899 0.11818,-0.1329 0.13667,-0.16503 0.17777,-0.30645 0.0567,-0.19461 0.0462,-0.41316 -0.0284,-0.59427 l -0.0558,-0.13591 -2.14819,-1.9079 c -2.02663,-1.79973 -2.12339,-1.93631 -2.12339,-1.93631 0,0 0.95471,-0.88798 1.15549,-1.05369 l 0.0641,-0.0532 1.93166,1.70067 1.93167,1.70067 0.15709,0.0455 c 0.19989,0.0579 0.4045,0.0451 0.59584,-0.0367 0.13806,-0.0592 0.16225,-0.0778 0.2961,-0.22996 0.12699,-0.14428 0.15062,-0.18256 0.18552,-0.29973 0.0515,-0.17309 0.0355,-0.44097 -0.0367,-0.60771 l -0.0558,-0.12919 -1.81798,-1.61593 -1.81798,-1.6154 0.0336,-0.0382 c 0.0361,-0.0408 0.61644,-0.46988 1.03198,-0.76326 l 0.25477,-0.17984 1.32498,1.17202 c 0.77752,0.68766 1.36535,1.1958 1.42265,1.2299 0.13707,0.0816 0.28891,0.12089 0.45786,0.11989 0.64542,-0.005 1.04261,-0.67814 0.74827,-1.26762 l -0.0615,-0.12351 -1.18908,-1.0604 c -0.65424,-0.58348 -1.18029,-1.07228 -1.18029,-1.07228 0,0 0.28322,-0.17693 0.61702,-0.38034 0.33379,-0.20343 0.61391,-0.37827 0.61391,-0.37827 0,0 0.28456,0.23658 0.62322,0.53588 0.66683,0.58938 0.72528,0.63108 0.94568,0.67438 0.68812,0.13523 1.23554,-0.56402 0.94981,-1.21336 -0.0455,-0.10346 -0.0717,-0.13043 -0.47749,-0.49816 -0.32291,-0.29251 -0.41134,-0.40876 -0.41134,-0.40876 0,0 0.68201,-0.3834 1.4397,-0.77825 0.16237,-0.0846 0.18682,-0.0998 0.30231,-0.16123 z"
           style="opacity:1;fill:none;fill-opacity:1;fill-rule:nonzero;stroke:url(#linearGradient17883);stroke-width:0.5291667;stroke-linecap:butt;stroke-linejoin:miter;stroke-miterlimit:4;stroke-dasharray:none;stroke-opacity:1;paint-order:normal"
           sodipodi:nodetypes="cccccscccccccccccccccccccccccccccccccccccccccccccccccccccccccccccccccccccccccccccccccccccccccccccccccccccc"
           inkscape:export-filename="C:\Users\Mantissa\g17529.png"
           inkscape:export-xdpi="182"
           inkscape:export-ydpi="182" />
        <path
           inkscape:connector-curvature="0"
           id="path9436"
           d="m 253.01166,159.41784 c -0.37591,-0.56053 -0.76866,-1.10958 -1.1777,-1.64641 -0.20558,0.53842 -0.55082,1.49988 -0.75655,2.00608 -1.27774,3.14386 -2.64215,5.73838 -4.11809,7.83208 -0.44065,0.62507 -0.74266,1.01974 -1.34927,1.76372 -0.39917,0.49089 -0.91382,1.11953 -1.54358,1.81332 l -0.13849,0.13488 -2.15129,-1.90169 c -1.35919,-1.20168 -2.18266,-1.9189 -2.23656,-1.9482 -0.30572,-0.16605 -0.68125,-0.13429 -0.96222,0.0811 -0.29549,0.22654 -0.39914,0.65234 -0.24597,1.01131 l 0.0625,0.14624 2.15646,1.91513 c 2.07665,1.84414 2.1558,1.91652 2.13011,1.94562 -0.0784,0.0886 -1.07429,1.00199 -1.17926,1.08159 l -0.0444,0.0341 -1.93735,-1.71307 -1.93683,-1.71359 -0.13436,-0.0476 c -0.0974,-0.0347 -0.19116,-0.0446 -0.34003,-0.0356 -0.27258,0.0167 -0.40619,0.0823 -0.59067,0.2899 -0.11819,0.1329 -0.13666,0.16504 -0.17776,0.30644 -0.0566,0.19462 -0.0462,0.41317 0.0284,0.59428 l 0.0558,0.13591 1.84278,1.63763 c 1.82189,1.61881 1.84234,1.63798 1.81384,1.67018 -0.036,0.0407 -0.52785,0.4082 -0.96583,0.7214 l -0.33176,0.23668 -1.38958,-1.22938 c -1.295,-1.14535 -1.39747,-1.23236 -1.5012,-1.27486 -0.35665,-0.14593 -0.73111,-0.0603 -0.98392,0.22531 -0.2441,0.27561 -0.28804,0.63287 -0.11937,0.97668 l 0.0579,0.11783 1.2144,1.08313 c 0.66791,0.59549 1.20303,1.09555 1.20303,1.09555 0,0 -0.50023,0.31175 -1.06919,0.65577 l -0.17311,0.1049 -0.62994,-0.55707 c -0.6822,-0.6034 -0.75373,-0.65495 -0.97358,-0.69815 -0.14113,-0.0278 -0.36478,-0.005 -0.49661,0.0501 -0.43909,0.18409 -0.64441,0.69187 -0.46044,1.13895 l 0.0537,0.13125 0.45424,0.41032 c 0.34971,0.31622 0.44973,0.41559 0.43563,0.43149 -0.0225,0.0255 -1.01491,0.56447 -1.70015,0.92346 l -0.50747,0.26614 -0.0403,0.10386 c -0.0527,0.13698 -0.72647,2.0704 -0.72647,2.0704 0,0 1.5007,-0.67254 2.48048,-1.1862 4.3485,-2.27978 7.5109,-4.46632 10.06656,-6.95978 1.18012,-1.15923 2.53865,-2.73301 3.7021,-4.19406 1.57878,-2.11335 2.92776,-4.46047 4.20543,-7.3179 0.35923,-0.80341 0.70847,-1.64358 1.12603,-2.71922 z"
           style="opacity:1;fill:none;fill-opacity:1;fill-rule:nonzero;stroke:url(#linearGradient9357);stroke-width:0.5291667;stroke-linecap:butt;stroke-linejoin:miter;stroke-miterlimit:4;stroke-dasharray:none;stroke-opacity:1;paint-order:normal"
           sodipodi:nodetypes="cccccccccccccccccccccccccccccccccccccccccccccccccccccc"
           inkscape:export-filename="C:\Users\Mantissa\g17529.png"
           inkscape:export-xdpi="182"
           inkscape:export-ydpi="182" />
      </g>
      <circle
         style="display:inline;opacity:1;fill:none;fill-opacity:1;fill-rule:nonzero;stroke:url(#linearGradient8258-7);stroke-width:0.52916676;stroke-linecap:round;stroke-linejoin:round;stroke-miterlimit:4;stroke-dasharray:none;stroke-opacity:1;paint-order:markers stroke fill;enable-background:new"
         id="circle8256-2"
         cx="235.30936"
         cy="516.0379"
         r="33.537117"
         inkscape:export-filename="C:\Users\Mantissa\g17529.png"
         inkscape:export-xdpi="182"
         inkscape:export-ydpi="182" />
    </g>
  </g>
</svg>
