<?xml version="1.0" encoding="UTF-8" standalone="no"?>
<!-- Created with Inkscape (http://www.inkscape.org/) -->

<svg
   xmlns:dc="http://purl.org/dc/elements/1.1/"
   xmlns:cc="http://creativecommons.org/ns#"
   xmlns:rdf="http://www.w3.org/1999/02/22-rdf-syntax-ns#"
   xmlns:svg="http://www.w3.org/2000/svg"
   xmlns="http://www.w3.org/2000/svg"
   xmlns:xlink="http://www.w3.org/1999/xlink"
   xmlns:sodipodi="http://sodipodi.sourceforge.net/DTD/sodipodi-0.dtd"
   xmlns:inkscape="http://www.inkscape.org/namespaces/inkscape"
   width="278.76978"
   height="278.76978"
   viewBox="0 0 73.757837 73.757837"
   version="1.1"
   id="svg1028"
   inkscape:version="0.92.3 (2405546, 2018-03-11)">
  <defs
     id="defs1022">
    <linearGradient
       id="linearGradient5199-4-5"
       inkscape:collect="always">
      <stop
         id="stop5195"
         offset="0"
         style="stop-color:#26fffa;stop-opacity:1" />
      <stop
         style="stop-color:#7a6df0;stop-opacity:1"
         offset="0.5"
         id="stop5201" />
      <stop
         id="stop5197"
         offset="1"
         style="stop-color:#eb0068;stop-opacity:1" />
    </linearGradient>
    <filter
       inkscape:collect="always"
       style="color-interpolation-filters:sRGB"
       id="filter9890">
      <feBlend
         inkscape:collect="always"
         mode="screen"
         in2="BackgroundImage"
         id="feBlend9892" />
    </filter>
    <linearGradient
       inkscape:collect="always"
       xlink:href="#linearGradient5199-4-5"
       id="linearGradient9481-8-1"
       gradientUnits="userSpaceOnUse"
       gradientTransform="matrix(13.647309,0,0,13.647309,-626.81736,-2885.5085)"
       x1="47.893299"
       y1="223.51443"
       x2="68.126518"
       y2="223.51443" />
    <linearGradient
       inkscape:collect="always"
       xlink:href="#linearGradient5199-4-5"
       id="linearGradient7503"
       x1="350.28845"
       y1="378.08414"
       x2="406.35654"
       y2="378.08414"
       gradientUnits="userSpaceOnUse" />
    <inkscape:path-effect
       is_visible="true"
       id="path-effect7434"
       effect="spiro" />
    <inkscape:path-effect
       effect="spiro"
       id="path-effect7430"
       is_visible="true" />
    <linearGradient
       inkscape:collect="always"
       xlink:href="#linearGradient5199-4-5"
       id="linearGradient9709"
       x1="197.7339"
       y1="506.22375"
       x2="251.82228"
       y2="506.22375"
       gradientUnits="userSpaceOnUse" />
    <linearGradient
       inkscape:collect="always"
       xlink:href="#linearGradient5199-4-5"
       id="linearGradient9659-3"
       gradientUnits="userSpaceOnUse"
       gradientTransform="matrix(3.3314539,0,0,3.3314539,4.6848511,-210.12185)"
       x1="47.893299"
       y1="223.51443"
       x2="68.126518"
       y2="223.51443" />
    <linearGradient
       inkscape:collect="always"
       xlink:href="#linearGradient5199-4-5"
       id="linearGradient9657-0"
       gradientUnits="userSpaceOnUse"
       gradientTransform="matrix(3.6108505,0,0,3.6108505,-11.522917,-272.571)"
       x1="47.893299"
       y1="223.51443"
       x2="68.126518"
       y2="223.51443" />
    <linearGradient
       inkscape:collect="always"
       xlink:href="#linearGradient5199-4-5"
       id="linearGradient10549"
       x1="3.4698308"
       y1="500.0033"
       x2="996.41467"
       y2="500.0033"
       gradientUnits="userSpaceOnUse" />
    <linearGradient
       inkscape:collect="always"
       xlink:href="#linearGradient5199-4-5"
       id="linearGradient10676"
       gradientUnits="userSpaceOnUse"
       x1="3.4698308"
       y1="500.0033"
       x2="996.41467"
       y2="500.0033" />
    <linearGradient
       inkscape:collect="always"
       xlink:href="#linearGradient5199-4-5"
       id="linearGradient10678"
       gradientUnits="userSpaceOnUse"
       x1="3.4698308"
       y1="500.0033"
       x2="996.41467"
       y2="500.0033" />
    <linearGradient
       inkscape:collect="always"
       xlink:href="#linearGradient5199-4-5"
       id="linearGradient10680"
       gradientUnits="userSpaceOnUse"
       x1="3.4698308"
       y1="500.0033"
       x2="996.41467"
       y2="500.0033" />
  </defs>
  <sodipodi:namedview
     id="base"
     pagecolor="#ffffff"
     bordercolor="#666666"
     borderopacity="1.0"
     inkscape:pageopacity="0.0"
     inkscape:pageshadow="2"
     inkscape:zoom="1.979899"
     inkscape:cx="135.17907"
     inkscape:cy="173.32491"
     inkscape:document-units="mm"
     inkscape:current-layer="g9696"
     showgrid="false"
     fit-margin-top="0"
     fit-margin-left="0"
     fit-margin-right="0"
     fit-margin-bottom="0"
     inkscape:window-width="1920"
     inkscape:window-height="1017"
     inkscape:window-x="-8"
     inkscape:window-y="-8"
     inkscape:window-maximized="1"
     units="px" />
  <metadata
     id="metadata1025">
    <rdf:RDF>
      <cc:Work
         rdf:about="">
        <dc:format>image/svg+xml</dc:format>
        <dc:type
           rdf:resource="http://purl.org/dc/dcmitype/StillImage" />
        <dc:title></dc:title>
      </cc:Work>
    </rdf:RDF>
  </metadata>
  <g
     inkscape:label="Layer 1"
     inkscape:groupmode="layer"
     id="layer1"
     transform="translate(127.31018,-62.778648)">
    <g
       transform="translate(-288.37345,-434.84866)"
       id="g9696"
       style="stroke:url(#linearGradient9709)">
      <g
         id="g10445"
         transform="matrix(0.06031665,0,0,0.06010636,167.58945,507.63033)"
         style="fill:none;stroke:url(#linearGradient10549);stroke-width:13.18271637;stroke-miterlimit:4;stroke-dasharray:none;stroke-opacity:1">
        <path
           id="path10439"
           d="m 242,165.5 -59.9,-30.4 c 0,0 -18.5,-10.8 -30.6,11.9 -0.4,9.1 -139.3,301.4 -139.3,301.4 0,0 -8.8,24 9.3,33.6 l 54.8,29.4 c 0,0 24.9,14.9 38.1,-12.9 L 250.2,202.8 c -0.1,-0.2 12.8,-25.4 -8.2,-37.3 z"
           inkscape:connector-curvature="0"
           style="fill:none;stroke:url(#linearGradient10676);stroke-width:13.18271637;stroke-miterlimit:4;stroke-dasharray:none;stroke-opacity:1" />
        <path
           id="path10441"
           d="M 986.5,445.8 846.8,152.1 c 0,0 -11.2,-26 -33.1,-16.3 L 753.8,166 c 0,0 -19.6,8.6 -10,32.4 6.7,6 141.7,300.3 141.7,300.3 0,0 12.6,22 31,13.1 l 56,-26.8 c 0.1,0.1 26.9,-11.2 14,-39.2 z"
           inkscape:connector-curvature="0"
           style="fill:none;stroke:url(#linearGradient10678);stroke-width:13.18271637;stroke-miterlimit:4;stroke-dasharray:none;stroke-opacity:1" />
        <path
           id="path10443"
           d="m 720.2,230.2 c -35.2,6.1 -113.8,-20 -113.8,-20 -15.9,-9.5 -75.3,-12.8 -75.3,-12.8 -45.5,-3.3 -105.9,32.3 -105.9,32.3 H 278.3 l -21.4,46.2 h 97.3 C 329,308.1 326.9,346 326.9,346 c 1.6,52.8 -16.6,77.9 -16.6,77.9 -14.4,42.4 47.6,47.3 47.6,47.3 90.9,-15.5 96.1,-100.7 96.1,-100.7 30,-52.3 80.2,-27.3 80.2,-27.3 l 270.1,245.5 c 21.9,21.7 5.6,48.1 5.6,48.1 -12.9,24.5 -41.7,15.1 -41.7,15.1 l -191,-141.7 c -34.7,-8.8 -23.5,25 -23.5,25 L 738.9,676 c 13.6,19.1 0,37.5 0,37.5 -10,18.5 -33.9,8.6 -33.9,8.6 L 537.3,598.5 C 505.2,596.2 517.7,626 517.7,626 l 141.4,106.4 c 18.2,20.1 5.4,38.6 5.4,38.6 -13.2,21.5 -34.9,11.8 -34.9,11.8 L 496.7,685.3 c -32.7,-4.4 -22.3,24.1 -22.3,24.1 l 89.2,70.8 c -2.1,39.6 -40.1,23.9 -40.1,23.9 L 499.7,785.8 C 481.3,772 471,763.5 471,763.5 l -26.5,-20.2 c 1.3,-19.3 -15.7,-35.7 -15.7,-35.7 -13.9,-17.4 -42.4,-10 -42.4,-10 -9.3,-6.9 -13.9,-12.3 -13.9,-12.3 1.8,-26 -14.2,-39.3 -14.2,-39.3 -17.5,-21.5 -46.5,-14.2 -46.5,-14.2 -3.2,-3.8 -9.4,-10.7 -9.4,-10.7 6.1,-31.5 -7.8,-48.2 -7.8,-48.2 -14.8,-27.5 -57,-17.4 -57,-17.4 l -64.9,-85.3 -18.5,40.8 54.8,73.2 -36.9,52.6 c -22.8,36.1 3.8,59.8 3.8,59.8 47.2,38.6 78,-2.1 78,-2.1 -21.1,41.9 5.3,64.4 5.3,64.4 38.8,37.9 74,-3.9 74,-3.9 -22.8,40.3 1.9,59.6 1.9,59.6 44.4,46.2 81.7,-15.3 81.7,-15.3 -19.5,33.9 8.3,57.8 8.3,57.8 43.8,34 74.6,-26.4 74.6,-26.4 17.1,17.2 46.5,12.5 46.5,12.5 40.3,-6.9 48.3,-40.3 48.3,-40.3 50.5,35.6 83.1,6.4 83.1,6.4 27.5,-19.8 25.1,-49.6 25.1,-49.6 41.4,6.7 58.5,-17.7 58.5,-17.7 23.3,-19 18.2,-52.7 18.2,-52.7 33.2,-1.6 53.5,-17.8 61.4,-34.5 28.4,-49.9 -10.1,-91.1 -10.1,-91.1 l 20.9,-49.6 z"
           inkscape:connector-curvature="0"
           style="fill:none;stroke:url(#linearGradient10680);stroke-width:13.18271637;stroke-miterlimit:4;stroke-dasharray:none;stroke-opacity:1" />
      </g>
      <circle
         style="display:inline;opacity:1;fill:none;fill-opacity:1;fill-rule:nonzero;stroke:url(#linearGradient9657-0);stroke-width:1.05833328;stroke-linecap:round;stroke-linejoin:round;stroke-miterlimit:4;stroke-dasharray:none;stroke-opacity:1;paint-order:markers stroke fill;enable-background:new"
         id="circle9653-6"
         cx="197.94218"
         cy="534.50623"
         r="36.349751"
         inkscape:export-filename="C:\Users\Mantissa\g17529.png"
         inkscape:export-xdpi="182"
         inkscape:export-ydpi="182" />
      <circle
         inkscape:export-ydpi="182"
         inkscape:export-xdpi="182"
         inkscape:export-filename="C:\Users\Mantissa\g17529.png"
         r="33.537117"
         cy="534.50623"
         cx="197.94218"
         id="circle9655-1"
         style="display:inline;opacity:1;fill:none;fill-opacity:1;fill-rule:nonzero;stroke:url(#linearGradient9659-3);stroke-width:0.52916682;stroke-linecap:round;stroke-linejoin:round;stroke-miterlimit:4;stroke-dasharray:none;stroke-opacity:1;paint-order:markers stroke fill;enable-background:new" />
    </g>
  </g>
</svg>
