<?xml version="1.0" encoding="UTF-8" standalone="no"?>
<!-- Created with Inkscape (http://www.inkscape.org/) -->

<svg
   xmlns:dc="http://purl.org/dc/elements/1.1/"
   xmlns:cc="http://creativecommons.org/ns#"
   xmlns:rdf="http://www.w3.org/1999/02/22-rdf-syntax-ns#"
   xmlns:svg="http://www.w3.org/2000/svg"
   xmlns="http://www.w3.org/2000/svg"
   xmlns:xlink="http://www.w3.org/1999/xlink"
   xmlns:sodipodi="http://sodipodi.sourceforge.net/DTD/sodipodi-0.dtd"
   xmlns:inkscape="http://www.inkscape.org/namespaces/inkscape"
   width="279.75256"
   height="279.75256"
   viewBox="0 0 74.017866 74.017866"
   version="1.1"
   id="svg1028"
   inkscape:version="0.92.3 (2405546, 2018-03-11)">
  <defs
     id="defs1022">
    <linearGradient
       id="linearGradient5199-4-5"
       inkscape:collect="always">
      <stop
         id="stop5195"
         offset="0"
         style="stop-color:#26fffa;stop-opacity:1" />
      <stop
         style="stop-color:#7a6df0;stop-opacity:1"
         offset="0.5"
         id="stop5201" />
      <stop
         id="stop5197"
         offset="1"
         style="stop-color:#eb0068;stop-opacity:1" />
    </linearGradient>
    <filter
       inkscape:collect="always"
       style="color-interpolation-filters:sRGB"
       id="filter9890">
      <feBlend
         inkscape:collect="always"
         mode="screen"
         in2="BackgroundImage"
         id="feBlend9892" />
    </filter>
    <linearGradient
       inkscape:collect="always"
       xlink:href="#linearGradient5199-4-5"
       id="linearGradient9481-8-1"
       gradientUnits="userSpaceOnUse"
       gradientTransform="matrix(13.647309,0,0,13.647309,-626.81736,-2885.5085)"
       x1="47.893299"
       y1="223.51443"
       x2="68.126518"
       y2="223.51443" />
    <linearGradient
       inkscape:collect="always"
       xlink:href="#linearGradient5199-4-5"
       id="linearGradient7435"
       x1="3460.4043"
       y1="-807.47485"
       x2="4710.8667"
       y2="-807.47485"
       gradientUnits="userSpaceOnUse" />
    <linearGradient
       inkscape:collect="always"
       xlink:href="#linearGradient5199-4-5"
       id="linearGradient7443"
       x1="47.893299"
       y1="223.51443"
       x2="68.126518"
       y2="223.51443"
       gradientUnits="userSpaceOnUse"
       gradientTransform="matrix(3.3314539,0,0,3.3314539,-293.01075,-662.93245)" />
    <linearGradient
       inkscape:collect="always"
       xlink:href="#linearGradient5199-4-5"
       id="linearGradient9489"
       gradientUnits="userSpaceOnUse"
       gradientTransform="matrix(3.6475548,0,0,3.6475548,-311.34775,-733.58559)"
       x1="47.893299"
       y1="223.51443"
       x2="68.126518"
       y2="223.51443" />
    <linearGradient
       inkscape:collect="always"
       xlink:href="#linearGradient5199-4-5"
       id="linearGradient3810"
       gradientUnits="userSpaceOnUse"
       x1="3460.4043"
       y1="-807.47485"
       x2="4710.8667"
       y2="-807.47485" />
    <linearGradient
       inkscape:collect="always"
       xlink:href="#linearGradient5199-4-5"
       id="linearGradient3812"
       gradientUnits="userSpaceOnUse"
       x1="3460.4043"
       y1="-807.47485"
       x2="4710.8667"
       y2="-807.47485" />
    <linearGradient
       inkscape:collect="always"
       xlink:href="#linearGradient5199-4-5"
       id="linearGradient3814"
       gradientUnits="userSpaceOnUse"
       x1="3460.4043"
       y1="-807.47485"
       x2="4710.8667"
       y2="-807.47485" />
    <linearGradient
       inkscape:collect="always"
       xlink:href="#linearGradient5199-4-5"
       id="linearGradient3816"
       gradientUnits="userSpaceOnUse"
       x1="3460.4043"
       y1="-807.47485"
       x2="4710.8667"
       y2="-807.47485" />
    <linearGradient
       inkscape:collect="always"
       xlink:href="#linearGradient5199-4-5"
       id="linearGradient3818"
       gradientUnits="userSpaceOnUse"
       x1="3460.4043"
       y1="-807.47485"
       x2="4710.8667"
       y2="-807.47485" />
    <linearGradient
       inkscape:collect="always"
       xlink:href="#linearGradient5199-4-5"
       id="linearGradient3820"
       gradientUnits="userSpaceOnUse"
       x1="3460.4043"
       y1="-807.47485"
       x2="4710.8667"
       y2="-807.47485" />
    <linearGradient
       inkscape:collect="always"
       xlink:href="#linearGradient5199-4-5"
       id="linearGradient3822"
       gradientUnits="userSpaceOnUse"
       x1="3460.4043"
       y1="-807.47485"
       x2="4710.8667"
       y2="-807.47485" />
    <linearGradient
       inkscape:collect="always"
       xlink:href="#linearGradient5199-4-5"
       id="linearGradient3824"
       gradientUnits="userSpaceOnUse"
       x1="3460.4043"
       y1="-807.47485"
       x2="4710.8667"
       y2="-807.47485" />
    <linearGradient
       inkscape:collect="always"
       xlink:href="#linearGradient5199-4-5"
       id="linearGradient3826"
       gradientUnits="userSpaceOnUse"
       x1="3460.4043"
       y1="-807.47485"
       x2="4710.8667"
       y2="-807.47485" />
  </defs>
  <sodipodi:namedview
     id="base"
     pagecolor="#ffffff"
     bordercolor="#666666"
     borderopacity="1.0"
     inkscape:pageopacity="0.0"
     inkscape:pageshadow="2"
     inkscape:zoom="1.979899"
     inkscape:cx="139.87628"
     inkscape:cy="139.8763"
     inkscape:document-units="mm"
     inkscape:current-layer="layer1"
     showgrid="false"
     fit-margin-top="0"
     fit-margin-left="0"
     fit-margin-right="0"
     fit-margin-bottom="0"
     inkscape:window-width="1920"
     inkscape:window-height="1017"
     inkscape:window-x="-8"
     inkscape:window-y="-8"
     inkscape:window-maximized="1"
     units="px" />
  <metadata
     id="metadata1025">
    <rdf:RDF>
      <cc:Work
         rdf:about="">
        <dc:format>image/svg+xml</dc:format>
        <dc:type
           rdf:resource="http://purl.org/dc/dcmitype/StillImage" />
        <dc:title></dc:title>
      </cc:Work>
    </rdf:RDF>
  </metadata>
  <g
     inkscape:label="Layer 1"
     inkscape:groupmode="layer"
     id="layer1"
     transform="translate(136.76237,-44.686623)">
    <circle
       style="display:inline;opacity:1;fill:none;fill-opacity:1;fill-rule:nonzero;stroke:url(#linearGradient9489);stroke-width:0.5793761;stroke-linecap:round;stroke-linejoin:round;stroke-miterlimit:4;stroke-dasharray:none;stroke-opacity:1;paint-order:markers stroke fill;enable-background:new"
       id="circle9487"
       cx="-99.753433"
       cy="81.695557"
       r="36.719246"
       inkscape:export-filename="C:\Users\Mantissa\g17529.png"
       inkscape:export-xdpi="182"
       inkscape:export-ydpi="182" />
    <circle
       inkscape:export-ydpi="182"
       inkscape:export-xdpi="182"
       inkscape:export-filename="C:\Users\Mantissa\g17529.png"
       r="33.537117"
       cy="81.695557"
       cx="-99.753433"
       id="path17492"
       style="display:inline;opacity:1;fill:none;fill-opacity:1;fill-rule:nonzero;stroke:url(#linearGradient7443);stroke-width:0.52916676;stroke-linecap:round;stroke-linejoin:round;stroke-miterlimit:4;stroke-dasharray:none;stroke-opacity:1;paint-order:markers stroke fill;enable-background:new" />
    <g
       inkscape:export-ydpi="182"
       inkscape:export-xdpi="182"
       inkscape:export-filename="C:\Users\Mantissa\g17529.png"
       transform="matrix(0.05308072,0,0,0.05308755,-316.8379,121.3119)"
       style="display:inline;opacity:0.97000002;fill:none;fill-opacity:1;stroke:url(#linearGradient7435);stroke-width:9.96845245;stroke-miterlimit:4;stroke-dasharray:none;stroke-opacity:1;paint-order:normal;enable-background:new"
       id="g17529">
      <path
         style="opacity:1;fill:none;fill-opacity:1;fill-rule:nonzero;stroke:url(#linearGradient3810);stroke-width:9.96845245;stroke-linecap:round;stroke-linejoin:round;stroke-miterlimit:4;stroke-dasharray:none;stroke-opacity:1;paint-order:normal"
         d="m 4540.8904,-562.0369 c -10.1268,-3.65018 -13.2386,-8.42415 -16.1885,-24.83588 -1.9466,-10.83029 -1.916,-11.05625 3.154,-23.25968 2.8158,-6.77774 5.3183,-12.42794 5.561,-12.556 0.2429,-0.12809 5.5506,-3.56261 11.7952,-7.63233 15.1174,-9.85218 23.9659,-21.82196 29.469,-39.86379 5.2663,-17.26543 9.7573,-22.17313 20.2903,-22.17313 13.0928,0 24.814,8.0891 34.2117,23.61016 1.719,2.83902 7.1239,7.53045 12.0106,10.42538 5.5193,3.26964 11.4109,8.60886 15.5529,14.0947 5.6514,7.48522 6.7659,10.18986 7.3123,17.74553 0.5807,8.02951 0.096,9.81746 -4.8826,18.01349 -10.0663,16.5712 -17.3892,20.61385 -40.5243,22.37201 -15.1335,1.1501 -15.2659,1.1962 -23.4406,8.16333 -9.5726,8.15849 -14.9267,11.06419 -24.6296,13.36674 -8.9601,2.12623 -26.633,3.63183 -29.6914,2.52947 z"
         id="path17502"
         inkscape:connector-curvature="0" />
      <path
         style="opacity:1;fill:none;fill-opacity:1;fill-rule:nonzero;stroke:url(#linearGradient3812);stroke-width:9.96845245;stroke-linecap:round;stroke-linejoin:round;stroke-miterlimit:4;stroke-dasharray:none;stroke-opacity:1;paint-order:normal"
         d="m 4603.1017,-794.32417 c -2.3432,-1.86296 -4.5587,-18.52896 -8.4464,-63.53801 -0.8486,-9.82461 -2.2714,-14.08461 -9.3943,-28.12867 -8.2414,-16.24926 -8.3946,-16.79956 -8.4113,-30.22426 -0.01,-7.84538 0.6319,-13.67367 1.5055,-13.67367 2.3193,0 6.2909,8.65431 6.2909,13.70835 0,7.81912 4.4872,18.00843 12.4583,28.29015 8.5105,10.97722 8.2786,10.03918 10.6695,43.16889 0.9587,13.28383 2.6187,23.67854 4.7963,30.03275 1.8316,5.34469 3.33,12.55268 3.33,16.01774 0,6.08899 -0.1732,6.30009 -5.1708,6.30009 -2.8439,0 -6.2764,-0.879 -7.6277,-1.95336 z"
         id="path17504"
         inkscape:connector-curvature="0" />
      <path
         style="opacity:1;fill:none;fill-opacity:1;fill-rule:nonzero;stroke:url(#linearGradient3814);stroke-width:9.96845245;stroke-linecap:round;stroke-linejoin:round;stroke-miterlimit:4;stroke-dasharray:none;stroke-opacity:1;paint-order:normal"
         d="m 4459.5281,-515.49131 c -4.2953,-1.86547 -20.1506,-16.37353 -21.0742,-19.28343 -0.4897,-1.5427 -3.2499,-5.62919 -6.1339,-9.08106 -2.8839,-3.45191 -6.8374,-9.80281 -8.7854,-14.11315 -2.2787,-5.04207 -5.3729,-8.91733 -8.6761,-10.8663 -2.9791,-1.75764 -5.4835,-4.70389 -5.9661,-7.01851 -0.4575,-2.19411 -1.1597,-5.59899 -1.5603,-7.56643 -0.7388,-3.62824 -30.7786,-35.49043 -33.4605,-35.49043 -0.8027,0 -2.4789,-2.98868 -3.725,-6.64148 l -2.2655,-6.64152 18.9177,0.5279 c 10.6398,0.29703 19.8258,1.27968 20.993,2.2459 1.1414,0.94491 3.7024,4.92664 5.6912,8.84834 1.9887,3.92167 5.1704,8.5351 7.0702,10.25205 1.8999,1.71695 4.4465,5.04027 5.6591,7.38518 1.6352,3.16219 4.3844,4.89712 10.643,6.71654 10.0953,2.93478 21.2118,10.58027 21.2118,14.5886 0,1.58533 -0.8125,5.21304 -1.8055,8.06156 -1.6148,4.63215 -1.4449,5.47106 1.6079,7.9431 1.8773,1.5202 4.1328,4.82796 5.0122,7.35062 1.1097,3.1832 3.4251,5.30398 7.5672,6.93102 l 5.9682,2.34441 1.1501,15.33957 c 1.0313,13.75604 0.86,15.5517 -1.6602,17.39448 -2.9443,2.15293 -12.1963,2.58958 -16.3789,0.77304 z"
         id="path17506"
         inkscape:connector-curvature="0" />
      <path
         style="opacity:1;fill:none;fill-opacity:1;fill-rule:nonzero;stroke:url(#linearGradient3816);stroke-width:9.96845245;stroke-linecap:round;stroke-linejoin:round;stroke-miterlimit:4;stroke-dasharray:none;stroke-opacity:1;paint-order:normal"
         d="m 4172.9168,-637.06171 c -3.5566,-3.55664 -5.9989,-14.27951 -6.1536,-27.01737 -0.098,-8.03944 0.4632,-11.7776 1.8378,-12.2495 2.5506,-0.87563 10.1277,7.24419 13.6121,14.58711 2.3979,5.05318 5.3684,24.07838 3.7595,24.07838 -0.3399,0 -2.898,0.65389 -5.6846,1.45306 -3.8668,1.10899 -5.6122,0.90732 -7.3712,-0.85168 z"
         id="path17508"
         inkscape:connector-curvature="0" />
      <path
         style="opacity:1;fill:none;fill-opacity:1;fill-rule:nonzero;stroke:url(#linearGradient3818);stroke-width:9.96845245;stroke-linecap:round;stroke-linejoin:round;stroke-miterlimit:4;stroke-dasharray:none;stroke-opacity:1;paint-order:normal"
         d="m 3758.6322,-301.86908 c -6.1952,-3.07946 -9.1398,-10.59081 -9.422,-24.03449 -0.397,-18.91261 -3.3612,-37.59684 -7.6754,-48.38086 -6.8567,-17.13909 -4.1037,-27.4103 7.347,-27.4103 8.8479,0 12.0254,-2.29839 16.1872,-11.70893 2.0234,-4.57538 4.4159,-8.7743 5.3165,-9.33092 0.9007,-0.55663 5.8193,0.51271 10.9304,2.37631 9.1602,3.33996 9.3166,3.49855 10.9474,11.10286 0.9099,4.24298 1.6545,9.78955 1.6545,12.32571 0,3.89205 -0.617,4.61119 -3.9558,4.61119 -2.1757,0 -4.2889,0.87903 -4.696,1.95339 -0.407,1.07436 -0.9181,14.96289 -1.1357,30.8634 -0.3466,25.33169 -0.8419,30.264 -4.0022,39.84896 -5.6976,17.28069 -6.6571,18.70783 -12.8254,19.07583 -2.9812,0.17788 -6.8829,-0.4036 -8.6705,-1.29215 z"
         id="path17510"
         inkscape:connector-curvature="0" />
      <path
         style="opacity:1;fill:none;fill-opacity:1;fill-rule:nonzero;stroke:url(#linearGradient3820);stroke-width:9.96845245;stroke-linecap:round;stroke-linejoin:round;stroke-miterlimit:4;stroke-dasharray:none;stroke-opacity:1;paint-order:normal"
         d="m 4488.9041,-498.14959 c -2.378,-0.355 -6.0415,-1.53666 -8.1409,-2.62584 -3.551,-1.84229 -3.6519,-2.2162 -1.4477,-5.36313 2.8534,-4.07381 13.8954,-4.71674 18.6925,-1.08841 2.0971,1.58617 7.1132,2.3097 16.2505,2.34404 12.8541,0.0483 13.3692,-0.0931 18.7525,-5.15175 5.0237,-4.72066 16.8213,-9.81805 18.602,-8.03737 0.3982,0.3982 -0.072,2.47161 -1.0454,4.60758 -1.5296,3.35687 -1.321,4.12362 1.5376,5.65351 1.8189,0.97346 6.3997,1.42135 10.1793,0.99534 4.7082,-0.53068 6.6888,-0.21751 6.2897,0.99459 -0.7072,2.14792 -11.0304,3.40291 -44.8736,5.45521 -14.1815,0.85998 -26.8394,1.85569 -28.1286,2.21268 -1.2893,0.35698 -4.2898,0.35859 -6.6679,0.003 z"
         id="path17512"
         inkscape:connector-curvature="0" />
      <path
         style="opacity:1;fill:none;fill-opacity:1;fill-rule:nonzero;stroke:url(#linearGradient3822);stroke-width:9.96845245;stroke-linecap:round;stroke-linejoin:round;stroke-miterlimit:4;stroke-dasharray:none;stroke-opacity:1;paint-order:normal"
         d="m 4700.2862,-609.21283 c 0,-2.54485 -1.0547,-5.50243 -2.344,-6.57239 -1.5897,-1.31925 -2.344,-4.85693 -2.344,-10.99136 0,-8.01776 0.504,-9.47011 4.4346,-12.77747 2.439,-2.05234 5.0862,-4.89581 5.8826,-6.31887 0.9932,-1.77468 2.159,-2.14779 3.7125,-1.18781 1.9489,1.20458 1.7274,4.16953 -1.5903,21.28768 -2.2212,11.4615 -4.68,20.16339 -5.8028,20.53771 -1.2639,0.42124 -1.9486,-0.97659 -1.9486,-3.97749 z"
         id="path17514"
         inkscape:connector-curvature="0" />
      <path
         style="opacity:1;fill:none;fill-opacity:1;fill-rule:nonzero;stroke:url(#linearGradient3824);stroke-width:9.96845245;stroke-linecap:round;stroke-linejoin:round;stroke-miterlimit:4;stroke-dasharray:none;stroke-opacity:1;paint-order:normal"
         d="m 4642.6998,-725.10479 c 0.6739,-14.83596 2.943,-18.46469 6.8371,-10.93387 3.1612,6.11306 2.34,15.88526 -1.711,20.36165 -4.7523,5.2511 -5.7124,3.48496 -5.1261,-9.42778 z"
         id="path17516"
         inkscape:connector-curvature="0" />
      <path
         style="opacity:1;fill:none;fill-opacity:1;fill-rule:nonzero;stroke:url(#linearGradient3826);stroke-width:9.96845245;stroke-linecap:round;stroke-linejoin:round;stroke-miterlimit:4;stroke-dasharray:none;stroke-opacity:1;paint-order:normal"
         d="m 3674.2221,-290.99298 c -2.1251,-1.44293 -6.0446,-4.49399 -8.7099,-6.78012 -2.6654,-2.28613 -8.078,-5.72114 -12.0282,-7.63335 -5.7719,-2.79417 -7.8245,-3.1329 -10.4546,-1.72534 -2.9322,1.56929 -4.4441,0.49824 -14.5378,-10.29878 -71.4858,-76.46687 -124.9522,-174.88934 -150.1755,-276.44755 -4.9717,-20.01791 -11.1896,-52.85586 -14.351,-75.79116 -3.3505,-24.30665 -4.7584,-100.72722 -2.364,-128.30859 5.9816,-68.90074 20.8572,-129.48905 47.7263,-194.38984 12.2766,-29.65349 39.9239,-80.69609 57.111,-105.43879 l 2.3441,-3.3746 12.5016,3.405 c 14.2833,3.8902 14.2259,3.8597 12.2689,6.5296 -0.8027,1.0951 -2.3858,4.804 -3.518,8.2419 -1.2924,3.9242 -5.1944,9.194 -10.4835,14.158 -9.6504,9.0572 -10.8904,14.6693 -5.0012,22.6349 2.5604,3.4631 3.3903,6.6982 3.2911,12.829 -0.073,4.509 0.6592,9.6046 1.6271,11.3236 0.9678,1.719 2.4755,5.9383 3.3504,9.3762 2.1744,8.545 6.2005,8.2987 12.7713,-0.7813 14.2483,-19.6895 17.2192,-21.1284 22.4506,-10.8741 4.284,8.3974 13.2554,17.0954 22.1312,21.4567 6.5563,3.22153 7.8868,3.3735 14.3656,1.6407 6.6123,-1.7685 7.4106,-1.6556 10.7997,1.52835 5.0686,4.76163 13.829,4.52593 22.5889,-0.60765 5.1182,-2.9995 9.1463,-7.5461 15.5756,-17.5805 4.7695,-7.444 11.073,-16.5033 14.0077,-20.1317 7.3297,-9.0622 11.7366,-19.5952 11.1513,-26.6527 -0.7188,-8.6674 -5.4498,-8.6339 -13.1699,0.093 -3.8873,4.3943 -7.8731,7.2121 -11.1007,7.8477 -4.4246,0.8713 -5.5248,0.3502 -9.0674,-4.2944 -5.3558,-7.0218 -8.5786,-8.1086 -11.715,-3.9505 -2.1451,2.8438 -3.2795,3.1196 -7.8777,1.9149 -6.1903,-1.6217 -6.1914,-1.6399 -1.24,-21.4931 4.6005,-18.4464 5.5861,-19.5338 17.7051,-19.5338 16.1296,0 24.9853,-2.5372 30.4065,-8.7116 2.5849,-2.944 5.5339,-5.3527 6.5534,-5.3527 1.0195,0 4.2921,1.8599 7.2725,4.1332 4.116,3.1395 8.0966,4.4145 16.5559,5.3033 6.1254,0.6436 15.3291,2.2999 20.4528,3.6808 10.7959,2.9096 14.5098,2.193 16.5584,-3.1952 2.9695,-7.8105 1.678,-17.1826 -3.8875,-28.2104 l -5.3606,-10.6217 5.2329,-2.7066 c 6.462,-3.3422 17.1153,-16.0125 15.5681,-18.5158 -2.3774,-3.8468 -30.0466,2.5463 -34.739,8.0267 -2.9958,3.4988 -5.0321,3.9203 -5.0321,1.0413 0,-4.323 -6.276,-7.5545 -13.7308,-7.0698 -6.4648,0.4203 -7.7717,1.1745 -11.9985,6.9242 -2.6089,3.5488 -6.8098,7.7104 -9.3354,9.2479 -4.0088,2.4403 -10.5821,8.0619 -21.5863,18.4606 -2.4456,2.311 -2.878,4.1463 -2.1095,8.9525 0.8623,5.3925 0.5855,6.1243 -2.5625,6.7753 -8.9963,1.86 -14.7051,1.8711 -17.5853,0.034 -2.6258,-1.6749 -4.4877,-1.4867 -11.4883,1.1612 -7.0741,2.6756 -8.8054,4.1526 -11.2953,9.6361 -1.6174,3.5619 -2.9561,8.8079 -2.975,11.6577 -0.019,2.8499 -0.7286,6.4789 -1.5773,8.0645 -1.4702,2.7473 -10.8484,9.4132 -13.2431,9.4132 -1.2909,0 0.2107,-13.438 2.5022,-22.3904 0.842,-3.2901 5.7085,-13.5706 10.8142,-22.8455 8.3855,-15.2328 9.2832,-17.7564 9.2832,-26.0964 0,-5.8546 0.8963,-10.5125 2.4496,-12.7302 3.2385,-4.6235 2.344,-10.3541 -1.7067,-10.9343 -4.6686,-0.6688 -11.2302,7.09 -14.9526,17.6811 -1.7798,5.0638 -4.2332,11.1354 -5.4521,13.4924 -1.2188,2.3569 -2.2161,8.4737 -2.2161,13.5929 0,8.4249 -0.2858,9.2327 -3.0153,8.519 -2.3101,-0.6041 -3.7733,0.6971 -6.2559,5.5635 -3.0812,6.0396 -8.7522,10.8319 -10.6143,8.9698 -0.476,-0.4761 0.8864,-3.1701 3.0276,-5.9868 5.8302,-7.6696 8.334,-13.2394 12.0129,-26.7229 1.8345,-6.724 4.73,-14.9587 6.4343,-18.2996 4.2128,-8.2576 3.9937,-9.8638 -1.1986,-8.79 -2.3636,0.4888 -7.6208,1.5094 -11.6826,2.268 -6.2053,1.1588 -9.6149,3.417 -21.341,14.1343 -7.6757,7.0152 -14.3732,12.755 -14.8834,12.755 -7.0739,0 43.8047,-55.948 78.7704,-86.6188 45.3087,-39.7433 98.8895,-74.6387 151.341,-98.5634 l 16.167,-7.3743 25.2446,12.0338 c 13.8846,6.6186 30.1672,13.6881 36.1836,15.7101 6.0164,2.022 14.2352,5.1362 18.2641,6.9205 5.2844,2.3404 13.1207,3.6786 28.1287,4.8036 24.8979,1.8662 30.229,2.7532 71.5914,11.912 34.0763,7.5454 47.3633,8.6714 56.2744,4.7689 6.4859,-2.8405 26.2671,-5.7986 38.7729,-5.7982 4.8799,10e-5 14.4983,1.1292 21.3741,2.5091 8.3693,1.6795 21.7994,2.5762 40.6303,2.7129 32.3803,0.2352 38.3167,-0.998 59.2196,-12.3 l 12.7064,-6.8701 21.8571,-0.932 c 12.0214,-0.5125 33.8118,-2.3199 48.423,-4.0164 14.6113,-1.6966 35.9547,-3.9904 47.4297,-5.0975 l 20.8636,-2.0128 23.7399,14.1753 c 51.6739,30.8549 98.9836,69.1058 139.2406,112.579 11.2828,12.1842 14.8922,17.0272 13.3845,17.959 -1.5189,0.9388 -1.7662,3.2645 -0.9358,8.802 0.8732,5.8227 2.6876,9.26 8.0169,15.1875 3.7885,4.2137 6.8882,8.8541 6.8882,10.3118 0,3.5539 7.7959,15.4584 13.8181,21.1005 2.6742,2.5054 5.6686,7.0763 6.6544,10.1576 0.9857,3.0813 3.5279,7.9257 5.6492,10.7653 3.473,4.6488 3.7493,6.0909 2.7753,14.4829 -1.0596,9.1297 -0.9668,9.4471 4.5445,15.5474 8.6366,9.5597 6.7121,12.9269 -3.1077,5.4371 -2.8171,-2.1487 -6.2103,-3.9068 -7.5406,-3.9068 -4.1518,0 -4.6643,7.3177 -1.1547,16.4888 3.7492,9.7971 3.4424,11.2692 -3.2395,15.5467 -2.7745,1.7761 -5.654,5.446 -6.6696,8.5005 -0.9829,2.9563 -2.5361,5.6248 -3.4515,5.9299 -2.86,0.9534 -6.3859,-3.9497 -7.4747,-10.3945 -0.5746,-3.401 -3.5307,-10.2713 -6.5691,-15.2673 -3.0384,-4.9961 -6.8781,-12.1921 -8.5326,-15.9913 -1.6545,-3.7991 -5.2674,-9.4655 -8.0285,-12.592 -2.7612,-3.1265 -7.2913,-8.9841 -10.0669,-13.017 -6.6238,-9.6241 -12.0191,-10.0506 -19.0616,-1.5069 -4.9129,5.9602 -5.9002,10.3374 -3.2681,14.4896 1.1608,1.8312 0.3863,2.7144 -3.54,4.0364 -3.7347,1.2575 -5.1528,2.761 -5.5196,5.852 -0.3983,3.3555 0.5799,4.7933 5.0588,7.4358 3.9413,2.3255 6.0869,5.06 7.3944,9.424 1.3427,4.4814 3.8463,7.5879 9.2362,11.4602 5.1409,3.6933 7.9953,7.134 9.3663,11.29 1.0845,3.2877 4.321,10.88028 7.1921,16.87246 4.8931,10.21198 5.2203,11.92098 5.2203,27.26668 0,16.53781 -0.031,16.68979 -10.2502,51.33079 -1.3357,4.52745 -4.1833,10.15317 -6.3279,12.50164 -2.1447,2.34846 -6.0162,7.31272 -8.6033,11.03167 -2.7947,4.0174 -7.0429,7.73682 -10.467,9.1643 -3.1698,1.32144 -7.7134,3.78801 -10.0968,5.48129 -3.9361,2.79641 -4.3085,3.89042 -4.0614,11.93221 0.2333,7.59326 -0.7825,15.41856 -4.243,32.68474 -0.8786,4.38391 -4.7794,4.59758 -6.132,0.33585 -0.5551,-1.7491 -0.7874,-9.77233 -0.5162,-17.8294 0.4244,-12.60884 0.081,-15.10425 -2.4636,-17.91629 -1.6261,-1.7969 -4.1767,-3.2671 -5.6679,-3.2671 -3.5081,0 -19.7797,11.98456 -25.4973,18.77947 -5.3217,6.32447 -4.9793,11.55704 1.6081,24.57692 4.0306,7.96617 6.9234,11.30621 24.6213,28.42708 4.1275,3.9929 7.8208,9.29264 8.7122,12.50164 0.8511,3.0637 1.5514,17.65317 1.5562,32.42097 l 0.01,26.8506 -12.6034,11.43565 c -6.9319,6.28964 -13.4221,11.43566 -14.4228,11.43566 -1.0006,0 -3.2402,-2.29092 -4.977,-5.09092 -1.7367,-2.80001 -6.1464,-9.03778 -9.7992,-13.86169 -3.6528,-4.82391 -6.6415,-9.61837 -6.6415,-10.6544 0,-3.23418 -6.7549,-8.32622 -13.3741,-10.08178 -3.488,-0.92508 -7.8785,-3.44922 -9.7565,-5.60917 -3.6939,-4.24831 -8.3478,-5.09043 -10.9083,-1.97382 -1.8102,2.20259 -8.1548,37.84846 -8.1548,45.81272 0,2.84975 0.6109,5.55892 1.3575,6.02033 0.7466,0.4614 1.7995,3.60323 2.3397,6.98182 0.9206,5.7569 8.0708,14.24154 12.0018,14.24154 0.7671,0 3.8786,3.88287 6.9144,8.62863 3.0358,4.74573 8.7082,10.87605 12.6052,13.62293 8.1318,5.73184 9.3006,8.85192 7.9423,21.20257 -0.932,8.47464 -0.7188,9.22181 4.4963,15.75788 3.3816,4.23806 5.4748,8.56975 5.4748,11.3296 0,5.25032 -1.5616,5.4643 -10.4446,1.43128 -7.0173,-3.18598 -9.3385,-6.62298 -13.7798,-20.40364 -4.0912,-12.69417 -7.5803,-18.90302 -15.115,-26.89695 -7.3681,-7.81726 -19.2061,-23.73538 -24.2688,-32.63346 -3.1785,-5.58656 -4.0805,-14.30089 -7.4886,-72.34977 -0.4683,-7.97763 -1.8555,-14.67056 -3.9278,-18.95135 -3.9608,-8.18204 -13.2309,-17.94054 -17.0425,-17.94054 -1.5678,0 -4.6323,2.70459 -6.8335,6.03079 -3.9184,5.9211 -12.5612,9.80039 -15.3304,6.88105 -0.6217,-0.65534 -1.3689,-7.57878 -1.6604,-15.3854 l -0.5301,-14.19383 -16.478,-16.47575 c -10.871,-10.86949 -18.2137,-19.73212 -21.5788,-26.04576 -5.3502,-10.03791 -7.0825,-10.95361 -13.9807,-7.39032 -2.3209,1.19886 -9.1423,2.68513 -15.1588,3.30284 -11.6809,1.1993 -20.3095,5.20315 -21.8806,10.15308 -0.52,1.63839 -6.7094,8.04835 -13.7543,14.24439 -7.0449,6.19603 -21.9507,20.03344 -33.124,30.7498 -11.1734,10.71637 -22.8962,21.12213 -26.0508,23.12392 -7.0394,4.46695 -12.3445,11.26094 -17.5858,22.52145 -3.6859,7.91858 -3.9966,10.28596 -4.0107,30.55968 l -0.015,21.97619 -4.8313,4.58979 c -5.28,5.01617 -9.7408,12.89798 -11.442,20.21686 -3.5358,15.21228 -3.8972,15.86849 -10.3403,18.77393 -3.7898,1.70891 -6.8521,2.27217 -7.6729,1.41124 -4.6774,-4.90578 -23.5791,-41.14935 -25.0384,-48.01029 -2.4986,-11.74784 -9.7769,-29.99419 -22.0841,-55.36367 -5.9344,-12.23381 -10.7902,-23.33913 -10.7902,-24.67846 0,-5.04386 -5.0412,-26.58191 -7.1979,-30.75256 -1.2352,-2.38863 -5.5758,-6.28239 -9.6458,-8.65276 -4.07,-2.37037 -12.4374,-8.45809 -18.5943,-13.52829 -9.4937,-7.81809 -11.6893,-10.57636 -14.4532,-18.15643 -3.4849,-9.5577 -8.9991,-15.35474 -28.9386,-30.42275 -12.2427,-9.25163 -13.393,-9.73185 -26.156,-10.91921 -5.4301,-0.50515 -14.7955,-1.63882 -20.8119,-2.51931 -6.0164,-0.88046 -20.7661,-2.08969 -32.777,-2.6872 l -21.8381,-1.08636 -1.1179,-6.56878 c -2.4759,-14.54818 -6.9647,-16.70727 -24.1955,-11.63788 -6.2831,1.84854 -12.1174,3.36095 -12.9651,3.36095 -0.8477,0 -4.1282,-2.28544 -7.29,-5.07877 -3.1617,-2.79335 -8.6361,-6.48523 -12.1653,-8.20419 -6.6622,-3.24505 -8.1864,-6.14026 -13.3323,-25.32415 -2.5384,-9.46308 -5.1164,-11.39943 -15.1766,-11.39943 -11.1036,0 -14.6313,1.91692 -14.6313,7.95071 0,8.59497 4.9205,27.12049 8.7982,33.12467 2.1008,3.25296 4.6726,8.52708 5.715,11.72027 1.4361,4.39948 2.843,5.91656 5.8079,6.26312 3.6226,0.42344 3.8715,0.97649 3.3558,7.45931 -0.7571,9.5193 0.6652,14.23731 5.1847,17.19857 3.2647,2.13913 5.3999,2.24866 14.9502,0.76688 12.0297,-1.86645 20.7733,-5.66526 29.8754,-12.97993 6.5461,-5.26063 9.1361,-4.66151 9.1361,2.11335 0,7.68861 4.1927,13.79319 11.6766,17.00117 4.7047,2.0167 8.7751,5.5777 13.1599,11.51316 3.4915,4.72639 7.1371,9.08092 8.1011,9.67673 1.1024,0.68129 -1.435,4.34777 -6.8379,9.88055 -4.7249,4.83849 -10.4008,12.69099 -12.6131,17.45002 -2.2123,4.759 -7.5964,12.14279 -11.9646,16.40839 -4.3682,4.2656 -9.6431,11.03514 -11.7221,15.04338 -4.4315,8.54395 -7.1412,9.7046 -28.4508,12.18608 -17.2297,2.00639 -21.3494,3.41815 -26.7753,9.17556 -5.3472,5.67386 -25.4387,12.12642 -46.9017,15.06293 -13.9616,1.91017 -17.7556,3.10746 -27.231,8.59333 -6.0551,3.50565 -12.5115,6.75095 -14.3474,7.21174 -5.7098,1.43304 -7.0522,-4.74719 -7.0522,-32.46745 v -25.15357 l -5.3512,-11.10575 c -2.9431,-6.10816 -8.1428,-19.89597 -11.5547,-30.63957 -5.3738,-16.92097 -6.3417,-22.22284 -7.2361,-39.63728 -0.8588,-16.72206 -1.5668,-20.82625 -4.2092,-24.40037 -2.7069,-3.66131 -3.3605,-7.83406 -4.4184,-28.21156 -0.6966,-13.41959 -0.6365,-26.0241 0.1371,-28.72129 2.974,-10.36959 -0.6051,-14.31437 -5.7974,-6.38991 -1.4079,2.14872 -3.1322,3.90676 -3.8319,3.90676 -0.6996,0 -2.386,-3.83188 -3.7475,-8.51532 -2.5681,-8.8338 -5.085,-11.97133 -7.0511,-8.78996 -0.6281,1.01616 -1.6197,32.57524 -2.2038,70.13122 -1.0109,65.01292 -0.9146,68.79291 2.0116,78.91554 1.6903,5.84756 3.5081,15.6926 4.0394,21.87787 1.7415,20.27536 9.3397,35.48 25.1431,50.31358 l 9.9892,9.3762 1.0267,12.20146 c 1.1769,13.98799 3.5706,18.08973 13.5927,23.29194 9.7322,5.05176 19.2775,4.36443 36.9665,-2.66192 10.2715,-4.08005 17.4939,-5.95371 23.4406,-6.08122 7.8571,-0.16862 8.6388,0.12593 9.1071,3.43026 0.8118,5.72807 -4.0991,27.49941 -10.9932,48.73607 -4.7156,14.52629 -8.4915,22.80035 -14.7292,32.27627 -4.6134,7.00836 -8.388,13.43391 -8.388,14.27901 0,1.96902 -19.5341,17.78602 -26.2637,21.26603 -2.8187,1.45761 -9.4898,6.34606 -14.8246,10.86317 -5.3348,4.51715 -12.0592,9.58174 -14.9433,11.25469 -6.0138,3.48852 -16.6832,20.55531 -23.1425,37.01884 l -4.1499,10.57744 3.5874,13.66492 c 1.9731,7.51572 4.9109,19.50854 6.5286,26.65079 1.6177,7.14221 5.4955,18.04205 8.6175,24.22191 5.0857,10.067 14.0251,36.0765 16.8021,48.8863 1.1313,5.21825 1.2267,5.10776 -19.1894,22.20989 -7.3451,6.15282 -8.0286,7.28873 -7.992,13.28299 0.028,4.7591 1.5274,8.88952 5.4695,15.07725 l 5.4294,8.52246 v 35.55041 c 0,23.65003 -0.6071,36.88279 -1.8135,39.5307 -2.1433,4.70385 -2.5654,4.77915 -7.6057,1.35675 z m 189.4931,-754.76112 c 5.0646,-0.6545 8.18,-0.3041 9.886,1.1116 3.2381,2.6874 5.3202,-0.2587 5.3542,-7.5763 0.012,-2.836 1.1001,-7.2374 2.4154,-9.781 1.8754,-3.6266 2.0057,-5.3455 0.6037,-7.965 -1.4503,-2.71 -1.3118,-3.6069 0.7339,-4.7517 2.3071,-1.2911 2.3114,-1.8178 0.05,-6.19 -1.6803,-3.2492 -2.0725,-6.1003 -1.2255,-8.9079 0.6852,-2.271 1.3604,-6.5904 1.5005,-9.5986 0.1402,-3.0082 0.7377,-7.9307 1.3279,-10.9389 0.9594,-4.89 0.607,-5.7307 -3.3267,-7.936 -2.7701,-1.5528 -5.051,-4.6365 -6.1578,-8.3245 -1.712,-5.7054 -1.6624,-5.8341 1.9043,-4.9389 2.9675,0.7448 4.1426,-0.01 6.1954,-3.9796 2.401,-4.6432 2.8929,-4.8495 9.4253,-3.9541 5.9213,0.8116 6.8921,0.5526 6.8921,-1.8383 0,-1.5307 0.7914,-3.5743 1.7586,-4.5415 1.0797,-1.0798 1.354,-3.9148 0.7105,-7.3447 l -1.048,-5.5862 h -9.9411 c -7.5474,0 -12.3279,1.0675 -19.8537,4.4332 -5.4519,2.4383 -11.8335,4.9097 -14.1813,5.4921 -5.4861,1.3607 -15.265,9.9223 -15.265,13.3646 0,1.458 0.7683,3.4193 1.7074,4.3585 1.2349,1.2348 1.2349,2.5906 0,4.8979 -0.9391,1.7547 -1.7074,4.743 -1.7074,6.6407 0,5.3778 6.0889,24.4987 8.6016,27.0114 1.9675,1.9675 1.9615,2.3704 -0.047,3.1411 -1.2671,0.4862 -2.3039,1.9448 -2.3039,3.2411 0,1.2965 -1.8611,3.5766 -4.1359,5.0671 -6.6042,4.3273 -13.0538,14.3543 -13.0538,20.2944 0,4.2712 0.7897,5.574 4.1542,6.8531 2.2849,0.8688 6.595,3.7225 9.5781,6.3417 3.8454,3.3763 6.3883,4.4854 8.7381,3.8113 1.8228,-0.523 6.642,-1.3809 10.7093,-1.9066 z"
         id="path17518"
         inkscape:connector-curvature="0" />
    </g>
  </g>
</svg>
