<?xml version="1.0" encoding="UTF-8" standalone="no"?>
<!-- Created with Inkscape (http://www.inkscape.org/) -->

<svg
   xmlns:dc="http://purl.org/dc/elements/1.1/"
   xmlns:cc="http://creativecommons.org/ns#"
   xmlns:rdf="http://www.w3.org/1999/02/22-rdf-syntax-ns#"
   xmlns:svg="http://www.w3.org/2000/svg"
   xmlns="http://www.w3.org/2000/svg"
   xmlns:xlink="http://www.w3.org/1999/xlink"
   xmlns:sodipodi="http://sodipodi.sourceforge.net/DTD/sodipodi-0.dtd"
   xmlns:inkscape="http://www.inkscape.org/namespaces/inkscape"
   width="278.76978"
   height="278.76978"
   viewBox="0 0 73.757837 73.757837"
   version="1.1"
   id="svg1028"
   inkscape:version="0.92.3 (2405546, 2018-03-11)">
  <defs
     id="defs1022">
    <linearGradient
       id="linearGradient5199-4-5"
       inkscape:collect="always">
      <stop
         id="stop5195"
         offset="0"
         style="stop-color:#26fffa;stop-opacity:1" />
      <stop
         style="stop-color:#7a6df0;stop-opacity:1"
         offset="0.5"
         id="stop5201" />
      <stop
         id="stop5197"
         offset="1"
         style="stop-color:#eb0068;stop-opacity:1" />
    </linearGradient>
    <filter
       inkscape:collect="always"
       style="color-interpolation-filters:sRGB"
       id="filter9890">
      <feBlend
         inkscape:collect="always"
         mode="screen"
         in2="BackgroundImage"
         id="feBlend9892" />
    </filter>
    <linearGradient
       inkscape:collect="always"
       xlink:href="#linearGradient5199-4-5"
       id="linearGradient9481-8-1"
       gradientUnits="userSpaceOnUse"
       gradientTransform="matrix(13.647309,0,0,13.647309,-626.81736,-2885.5085)"
       x1="47.893299"
       y1="223.51443"
       x2="68.126518"
       y2="223.51443" />
    <linearGradient
       inkscape:collect="always"
       xlink:href="#linearGradient5199-4-5"
       id="linearGradient7503"
       x1="350.28845"
       y1="378.08414"
       x2="406.35654"
       y2="378.08414"
       gradientUnits="userSpaceOnUse" />
    <inkscape:path-effect
       is_visible="true"
       id="path-effect7434"
       effect="spiro" />
    <inkscape:path-effect
       effect="spiro"
       id="path-effect7430"
       is_visible="true" />
    <linearGradient
       inkscape:collect="always"
       xlink:href="#linearGradient5199-4-5"
       id="linearGradient9709"
       x1="197.7339"
       y1="506.22375"
       x2="251.82228"
       y2="506.22375"
       gradientUnits="userSpaceOnUse" />
    <linearGradient
       gradientTransform="translate(-336.4216,-79.479134)"
       inkscape:collect="always"
       xlink:href="#linearGradient5199-4-5"
       id="linearGradient17622"
       x1="554.83356"
       y1="609.66852"
       x2="584.5415"
       y2="609.66852"
       gradientUnits="userSpaceOnUse" />
    <linearGradient
       gradientTransform="translate(-336.4216,-79.479134)"
       inkscape:collect="always"
       xlink:href="#linearGradient5199-4-5"
       id="linearGradient17624"
       x1="540.30286"
       y1="601.97601"
       x2="598.91138"
       y2="601.97601"
       gradientUnits="userSpaceOnUse" />
    <linearGradient
       inkscape:collect="always"
       xlink:href="#linearGradient5199-4-5"
       id="linearGradient17602"
       gradientUnits="userSpaceOnUse"
       gradientTransform="matrix(3.3314539,0,0,3.3314539,39.6214,-223.13579)"
       x1="47.893299"
       y1="223.51443"
       x2="68.126518"
       y2="223.51443" />
    <linearGradient
       inkscape:collect="always"
       xlink:href="#linearGradient5199-4-5"
       id="linearGradient17600"
       gradientUnits="userSpaceOnUse"
       gradientTransform="matrix(3.6108505,0,0,3.6108505,23.413629,-285.58492)"
       x1="47.893299"
       y1="223.51443"
       x2="68.126518"
       y2="223.51443" />
  </defs>
  <sodipodi:namedview
     id="base"
     pagecolor="#ffffff"
     bordercolor="#666666"
     borderopacity="1.0"
     inkscape:pageopacity="0.0"
     inkscape:pageshadow="2"
     inkscape:zoom="1.4"
     inkscape:cx="72.099339"
     inkscape:cy="88.189113"
     inkscape:document-units="mm"
     inkscape:current-layer="g9696"
     showgrid="false"
     fit-margin-top="0"
     fit-margin-left="0"
     fit-margin-right="0"
     fit-margin-bottom="0"
     inkscape:window-width="1920"
     inkscape:window-height="1017"
     inkscape:window-x="-8"
     inkscape:window-y="-8"
     inkscape:window-maximized="1"
     units="px" />
  <metadata
     id="metadata1025">
    <rdf:RDF>
      <cc:Work
         rdf:about="">
        <dc:format>image/svg+xml</dc:format>
        <dc:type
           rdf:resource="http://purl.org/dc/dcmitype/StillImage" />
        <dc:title></dc:title>
      </cc:Work>
    </rdf:RDF>
  </metadata>
  <g
     inkscape:label="Layer 1"
     inkscape:groupmode="layer"
     id="layer1"
     transform="translate(92.373613,-49.764732)">
    <g
       transform="translate(-288.37345,-434.84866)"
       id="g9696"
       style="stroke:url(#linearGradient9709)">
      <circle
         style="display:inline;opacity:1;fill:none;fill-opacity:1;fill-rule:nonzero;stroke:url(#linearGradient17600);stroke-width:1.05833328;stroke-linecap:round;stroke-linejoin:round;stroke-miterlimit:4;stroke-dasharray:none;stroke-opacity:1;paint-order:markers stroke fill;enable-background:new"
         id="circle17596"
         cx="232.87875"
         cy="521.49231"
         r="36.349751"
         inkscape:export-filename="C:\Users\Mantissa\g17529.png"
         inkscape:export-xdpi="182"
         inkscape:export-ydpi="182" />
      <circle
         inkscape:export-ydpi="182"
         inkscape:export-xdpi="182"
         inkscape:export-filename="C:\Users\Mantissa\g17529.png"
         r="33.537117"
         cy="521.49231"
         cx="232.87875"
         id="circle17598"
         style="display:inline;opacity:1;fill:none;fill-opacity:1;fill-rule:nonzero;stroke:url(#linearGradient17602);stroke-width:0.52916682;stroke-linecap:round;stroke-linejoin:round;stroke-miterlimit:4;stroke-dasharray:none;stroke-opacity:1;paint-order:markers stroke fill;enable-background:new" />
      <path
         style="opacity:1;fill:none;fill-opacity:1;fill-rule:nonzero;stroke:url(#linearGradient17624);stroke-width:0.79374999;stroke-linecap:round;stroke-linejoin:miter;stroke-miterlimit:4;stroke-dasharray:none;stroke-opacity:1;paint-order:normal"
         d="m 211.02147,540.67687 c -1.45135,-0.44651 -1.47365,-0.52501 -1.46929,-5.17557 0.003,-2.23763 0.0983,-4.62121 0.21381,-5.29685 0.23927,-1.39956 0.24929,-1.96024 0.0598,-3.3443 -0.18053,-1.31808 -0.0241,-1.82042 0.86762,-2.78795 l 0.75422,-0.81822 -0.0519,-3.17614 -0.0519,-3.17614 -3.21281,-1.02115 c -1.76702,-0.56164 -3.36161,-1.15356 -3.54351,-1.31541 -0.42281,-0.37618 -0.42281,-1.03166 0,-1.52352 0.28437,-0.33086 11.49268,-3.90446 27.28854,-8.70053 0.69048,-0.20966 1.45587,-0.33483 1.70087,-0.27819 1.48424,0.34325 27.38446,8.4622 27.84875,8.72977 0.62034,0.35751 0.87333,1.33726 0.47059,1.82251 -0.11915,0.14359 -1.0817,0.53067 -2.139,0.86021 -18.16283,5.66081 -26.19621,8.11403 -26.57126,8.11421 -0.25212,1.6e-4 -4.39325,-1.23287 -9.2025,-2.74007 -4.80928,-1.50718 -8.83396,-2.74032 -8.94376,-2.74032 -0.13031,0 -0.19963,0.88381 -0.19963,2.54503 v 2.54502 l 0.84108,0.94703 c 0.91837,1.03402 1.18349,1.87005 0.95068,2.99767 -0.0793,0.38397 -0.12772,0.95327 -0.10761,1.26511 0.17357,2.69393 0.18979,11.2994 0.022,11.61312 -0.45341,0.84719 -3.66268,1.2275 -5.52463,0.65468 z m 23.81512,-25.22416 c 1.86841,-0.41219 2.67906,-1.66145 1.68444,-2.59585 -1.87269,-1.75929 -7.14391,-0.9893 -6.90713,1.00899 0.0814,0.68659 0.78385,1.18385 2.26076,1.60031 1.2478,0.35181 1.30733,0.35155 2.96193,-0.0135 z"
         id="path17612"
         inkscape:connector-curvature="0" />
      <path
         style="opacity:1;fill:none;fill-opacity:1;fill-rule:nonzero;stroke:url(#linearGradient17622);stroke-width:0.79374999;stroke-linecap:round;stroke-linejoin:miter;stroke-miterlimit:4;stroke-dasharray:none;stroke-opacity:1;paint-order:normal"
         d="m 229.74794,537.20144 c -5.27545,-0.51279 -9.69005,-2.27899 -10.72656,-4.29149 -0.14089,-0.27355 -0.21259,-2.01496 -0.21259,-5.16266 0,-4.43764 0.0217,-4.74297 0.33073,-4.64497 2.76236,0.87598 12.31445,3.81992 13.10389,4.0386 l 1.05589,0.29244 6.88161,-2.12124 c 3.78489,-1.16671 7.03042,-2.16479 7.21233,-2.21797 0.30871,-0.0903 0.33067,0.21552 0.32975,4.59348 0,4.52633 -0.0159,4.71466 -0.4254,5.39126 -1.04717,1.72971 -4.15317,3.12872 -8.51096,3.83354 -2.11685,0.34237 -6.91227,0.4957 -9.03869,0.28901 z"
         id="path17614"
         inkscape:connector-curvature="0" />
    </g>
  </g>
</svg>
