<?xml version="1.0" encoding="UTF-8" standalone="no"?>
<!-- Created with Inkscape (http://www.inkscape.org/) -->

<svg
   xmlns:dc="http://purl.org/dc/elements/1.1/"
   xmlns:cc="http://creativecommons.org/ns#"
   xmlns:rdf="http://www.w3.org/1999/02/22-rdf-syntax-ns#"
   xmlns:svg="http://www.w3.org/2000/svg"
   xmlns="http://www.w3.org/2000/svg"
   xmlns:xlink="http://www.w3.org/1999/xlink"
   xmlns:sodipodi="http://sodipodi.sourceforge.net/DTD/sodipodi-0.dtd"
   xmlns:inkscape="http://www.inkscape.org/namespaces/inkscape"
   width="278.76978"
   height="278.76978"
   viewBox="0 0 73.757837 73.757837"
   version="1.1"
   id="svg1028"
   inkscape:version="0.92.3 (2405546, 2018-03-11)">
  <defs
     id="defs1022">
    <linearGradient
       id="linearGradient5199-4-5"
       inkscape:collect="always">
      <stop
         id="stop5195"
         offset="0"
         style="stop-color:#26fffa;stop-opacity:1" />
      <stop
         style="stop-color:#7a6df0;stop-opacity:1"
         offset="0.5"
         id="stop5201" />
      <stop
         id="stop5197"
         offset="1"
         style="stop-color:#eb0068;stop-opacity:1" />
    </linearGradient>
    <filter
       inkscape:collect="always"
       style="color-interpolation-filters:sRGB"
       id="filter9890">
      <feBlend
         inkscape:collect="always"
         mode="screen"
         in2="BackgroundImage"
         id="feBlend9892" />
    </filter>
    <linearGradient
       inkscape:collect="always"
       xlink:href="#linearGradient5199-4-5"
       id="linearGradient9481-8-1"
       gradientUnits="userSpaceOnUse"
       gradientTransform="matrix(13.647309,0,0,13.647309,-626.81736,-2885.5085)"
       x1="47.893299"
       y1="223.51443"
       x2="68.126518"
       y2="223.51443" />
    <linearGradient
       inkscape:collect="always"
       xlink:href="#linearGradient5199-4-5"
       id="linearGradient7503"
       x1="350.28845"
       y1="378.08414"
       x2="406.35654"
       y2="378.08414"
       gradientUnits="userSpaceOnUse" />
    <inkscape:path-effect
       is_visible="true"
       id="path-effect7434"
       effect="spiro" />
    <inkscape:path-effect
       effect="spiro"
       id="path-effect7430"
       is_visible="true" />
    <linearGradient
       inkscape:collect="always"
       xlink:href="#linearGradient5199-4-5"
       id="linearGradient9884"
       x1="-20.703114"
       y1="444.77625"
       x2="182.70496"
       y2="444.77625"
       gradientUnits="userSpaceOnUse"
       gradientTransform="matrix(0.26458333,0,0,0.26458333,-79.702178,-67.270192)" />
    <linearGradient
       inkscape:collect="always"
       xlink:href="#linearGradient5199-4-5"
       id="linearGradient8258-7-4"
       gradientUnits="userSpaceOnUse"
       gradientTransform="matrix(3.3314539,0,0,3.3314539,-251.04343,-693.78089)"
       x1="47.893299"
       y1="223.51443"
       x2="68.126518"
       y2="223.51443" />
    <linearGradient
       inkscape:collect="always"
       xlink:href="#linearGradient5199-4-5"
       id="linearGradient9481-8"
       gradientUnits="userSpaceOnUse"
       gradientTransform="matrix(3.6108505,0,0,3.6108505,-267.25119,-756.23002)"
       x1="47.893299"
       y1="223.51443"
       x2="68.126518"
       y2="223.51443" />
  </defs>
  <sodipodi:namedview
     id="base"
     pagecolor="#ffffff"
     bordercolor="#666666"
     borderopacity="1.0"
     inkscape:pageopacity="0.0"
     inkscape:pageshadow="2"
     inkscape:zoom="1.4"
     inkscape:cx="-23.491387"
     inkscape:cy="127.10618"
     inkscape:document-units="mm"
     inkscape:current-layer="layer1"
     showgrid="false"
     fit-margin-top="0"
     fit-margin-left="0"
     fit-margin-right="0"
     fit-margin-bottom="0"
     inkscape:window-width="1920"
     inkscape:window-height="1017"
     inkscape:window-x="-8"
     inkscape:window-y="-8"
     inkscape:window-maximized="1"
     units="px" />
  <metadata
     id="metadata1025">
    <rdf:RDF>
      <cc:Work
         rdf:about="">
        <dc:format>image/svg+xml</dc:format>
        <dc:type
           rdf:resource="http://purl.org/dc/dcmitype/StillImage" />
        <dc:title></dc:title>
      </cc:Work>
    </rdf:RDF>
  </metadata>
  <g
     inkscape:label="Layer 1"
     inkscape:groupmode="layer"
     id="layer1"
     transform="translate(94.664985,-13.968216)">
    <circle
       inkscape:export-ydpi="182"
       inkscape:export-xdpi="182"
       inkscape:export-filename="C:\Users\Mantissa\g17529.png"
       r="36.349751"
       cy="50.847134"
       cx="-57.786068"
       id="circle9479-0"
       style="display:inline;opacity:1;fill:none;fill-opacity:1;fill-rule:nonzero;stroke:url(#linearGradient9481-8);stroke-width:1.05833328;stroke-linecap:round;stroke-linejoin:round;stroke-miterlimit:4;stroke-dasharray:none;stroke-opacity:1;paint-order:markers stroke fill;enable-background:new" />
    <circle
       style="display:inline;opacity:1;fill:none;fill-opacity:1;fill-rule:nonzero;stroke:url(#linearGradient8258-7-4);stroke-width:0.52916682;stroke-linecap:round;stroke-linejoin:round;stroke-miterlimit:4;stroke-dasharray:none;stroke-opacity:1;paint-order:markers stroke fill;enable-background:new"
       id="circle8256-2-8"
       cx="-57.786068"
       cy="50.847134"
       r="33.537117"
       inkscape:export-filename="C:\Users\Mantissa\g17529.png"
       inkscape:export-xdpi="182"
       inkscape:export-ydpi="182" />
    <path
       style="opacity:1;fill:none;fill-opacity:1;fill-rule:nonzero;stroke:url(#linearGradient9884);stroke-width:0.79374999;stroke-linecap:butt;stroke-linejoin:miter;stroke-miterlimit:4;stroke-dasharray:none;stroke-opacity:1;paint-order:normal"
       d="m -82.893039,67.940577 c -0.49672,-0.133721 -0.72402,-0.26483 -1.13814,-0.65645 -0.41998,-0.39715 -0.70592,-0.919181 -0.80904,-1.47701 -0.0955,-0.516871 -0.0114,-27.087851 0.01,-27.677011 0.0398,-1.10995 0.62626,-1.83683 1.95537,-1.85759 l 2.13816,-0.0334 2.13815,-0.0334 0.70159,-0.31329 c 3.25982,-1.45564 6.86307,-2.54903 9.78874,-2.97035 1.154718,-0.16629 3.564329,-0.1652 4.476768,0.002 1.46176,0.26789 2.816072,0.8143 3.708361,1.49618 0.434329,0.3319 1.125881,1.02604 1.503389,1.50901 l 0.200451,0.25645 0.412689,-0.52456 c 2.244622,-2.85305 6.608672,-3.61754 12.373411,-2.16754 2.069251,0.52047 4.273161,1.2792 6.470949,2.22773 l 1.122262,0.48434 2.138148,0.0334 2.138162,0.0334 c 1.038489,0.0162 1.9377,0.93807 1.9377,1.87088 v 13.964819 c 0,0 -0.10237,8.908291 -0.153551,13.36244 -0.0182,1.58116 -1.130901,2.588241 -2.35825,2.59288 -0.786281,0.003 -3.821999,0.005 -24.11226,-0.02379 -20.753839,-0.004 -24.342049,-0.0182 -24.642899,-0.0992 z m 2.52368,-3.436559 c 4.51889,-2.043721 9.21677,-3.457721 12.895759,-3.881451 0.90832,-0.104611 3.014771,-0.105881 3.741772,-0.0021 0.788548,0.112401 1.80507,0.386019 2.437408,0.65609 0.664612,0.28384 1.501431,0.838531 1.93662,1.283671 0.182362,0.18655 0.375852,0.431038 0.375852,0.431038 0,0 0.061,-5.777809 0.061,-12.727289 V 37.628656 l -0.246009,-0.46816 c -0.287121,-0.54639 -1.078752,-1.41903 -1.620901,-1.78678 -3.058301,-2.07445 -8.237,-1.67319 -15.39084,1.19253 -1.2085,0.48411 -3.18486,1.3742 -4.37685,1.97118 l -1.01649,0.5091 v 12.996461 12.99646 l 0.21716,-0.0938 c 0.11943,-0.0516 0.56293,-0.250201 0.98555,-0.441341 z m 45.502641,-12.462092 v -12.99546 l -0.818512,-0.41045 c -3.500329,-1.75526 -7.319229,-3.22285 -10.20636,-3.92229 -1.854219,-0.4492 -3.261019,-0.63091 -4.844259,-0.62572 -2.570009,0.008 -4.29165,0.60263 -5.65177,1.95064 -0.536451,0.53168 -0.688369,0.73161 -0.93544,1.23108 l -0.294981,0.59631 -0.0172,12.583421 c -0.009,6.920881 0.0355,12.646059 0.0355,12.646059 0,0 0.232191,-0.24429 0.45153,-0.466288 1.4146,-1.431751 3.362119,-2.086232 6.21193,-2.087571 1.858129,-7.93e-4 3.520059,0.222938 5.804361,0.78168 2.871559,0.702379 6.54391,2.004849 9.329779,3.309009 0.45937,0.21504 0.885331,0.398021 0.885331,0.398021 0,0 0.0501,-5.840932 0.0501,-12.988441 z"
       id="path9868"
       inkscape:connector-curvature="0"
       sodipodi:nodetypes="cccsscccscccccccccsscsscccccccccscccccccccccccccccccccccccccc"
       inkscape:export-filename="C:\Users\Mantissa\g17529.png"
       inkscape:export-xdpi="182"
       inkscape:export-ydpi="182" />
  </g>
</svg>
