<?xml version="1.0" encoding="UTF-8" standalone="no"?>
<!-- Created with Inkscape (http://www.inkscape.org/) -->

<svg
   xmlns:dc="http://purl.org/dc/elements/1.1/"
   xmlns:cc="http://creativecommons.org/ns#"
   xmlns:rdf="http://www.w3.org/1999/02/22-rdf-syntax-ns#"
   xmlns:svg="http://www.w3.org/2000/svg"
   xmlns="http://www.w3.org/2000/svg"
   xmlns:sodipodi="http://sodipodi.sourceforge.net/DTD/sodipodi-0.dtd"
   xmlns:inkscape="http://www.inkscape.org/namespaces/inkscape"
   width="675.24542"
   height="233.16354"
   viewBox="0 0 178.65867 61.691184"
   version="1.1"
   id="svg13304"
   inkscape:version="0.92.3 (2405546, 2018-03-11)"
   sodipodi:docname="Plasmid-Gallery.svg">
  <defs
     id="defs13298">
    <marker
       inkscape:stockid="Arrow1Mend"
       orient="auto"
       refY="0"
       refX="0"
       id="marker16670"
       style="overflow:visible"
       inkscape:isstock="true">
      <path
         id="path16668"
         d="M 0,0 5,-5 -12.5,0 5,5 Z"
         style="fill:#000000;fill-opacity:1;fill-rule:evenodd;stroke:#000000;stroke-width:1.00000003pt;stroke-opacity:1"
         transform="matrix(-0.4,0,0,-0.4,-4,0)"
         inkscape:connector-curvature="0" />
    </marker>
    <marker
       inkscape:stockid="Arrow1Mend"
       orient="auto"
       refY="0"
       refX="0"
       id="marker16600"
       style="overflow:visible"
       inkscape:isstock="true">
      <path
         id="path16598"
         d="M 0,0 5,-5 -12.5,0 5,5 Z"
         style="fill:#000000;fill-opacity:1;fill-rule:evenodd;stroke:#000000;stroke-width:1.00000003pt;stroke-opacity:1"
         transform="matrix(-0.4,0,0,-0.4,-4,0)"
         inkscape:connector-curvature="0" />
    </marker>
    <marker
       inkscape:stockid="Arrow1Mend"
       orient="auto"
       refY="0"
       refX="0"
       id="Arrow1Mend"
       style="overflow:visible"
       inkscape:isstock="true">
      <path
         id="path5613"
         d="M 0,0 5,-5 -12.5,0 5,5 Z"
         style="fill:#000000;fill-opacity:1;fill-rule:evenodd;stroke:#000000;stroke-width:1.00000003pt;stroke-opacity:1"
         transform="matrix(-0.4,0,0,-0.4,-4,0)"
         inkscape:connector-curvature="0" />
    </marker>
    <marker
       inkscape:stockid="Arrow1Lend"
       orient="auto"
       refY="0"
       refX="0"
       id="Arrow1Lend"
       style="overflow:visible"
       inkscape:isstock="true">
      <path
         id="path5607"
         d="M 0,0 5,-5 -12.5,0 5,5 Z"
         style="fill:#000000;fill-opacity:1;fill-rule:evenodd;stroke:#000000;stroke-width:1.00000003pt;stroke-opacity:1"
         transform="matrix(-0.8,0,0,-0.8,-10,0)"
         inkscape:connector-curvature="0" />
    </marker>
    <marker
       inkscape:stockid="Arrow2Mend"
       orient="auto"
       refY="0"
       refX="0"
       id="marker16388"
       style="overflow:visible"
       inkscape:isstock="true">
      <path
         id="path16386"
         style="fill:#000000;fill-opacity:1;fill-rule:evenodd;stroke:#000000;stroke-width:0.625;stroke-linejoin:round;stroke-opacity:1"
         d="M 8.7185878,4.0337352 -2.2072895,0.01601326 8.7185884,-4.0017078 c -1.7454984,2.3720609 -1.7354408,5.6174519 -6e-7,8.035443 z"
         transform="scale(-0.6)"
         inkscape:connector-curvature="0" />
    </marker>
    <marker
       inkscape:isstock="true"
       style="overflow:visible"
       id="marker14849"
       refX="0"
       refY="0"
       orient="auto"
       inkscape:stockid="Arrow2Send">
      <path
         transform="matrix(-0.3,0,0,-0.3,0.69,0)"
         d="M 8.7185878,4.0337352 -2.2072895,0.01601326 8.7185884,-4.0017078 c -1.7454984,2.3720609 -1.7354408,5.6174519 -6e-7,8.035443 z"
         style="fill:#000000;fill-opacity:1;fill-rule:evenodd;stroke:#000000;stroke-width:0.625;stroke-linejoin:round;stroke-opacity:1"
         id="path14847"
         inkscape:connector-curvature="0" />
    </marker>
    <marker
       inkscape:isstock="true"
       style="overflow:visible"
       id="marker14457"
       refX="0"
       refY="0"
       orient="auto"
       inkscape:stockid="Arrow2Send">
      <path
         transform="matrix(-0.3,0,0,-0.3,0.69,0)"
         d="M 8.7185878,4.0337352 -2.2072895,0.01601326 8.7185884,-4.0017078 c -1.7454984,2.3720609 -1.7354408,5.6174519 -6e-7,8.035443 z"
         style="fill:#000000;fill-opacity:1;fill-rule:evenodd;stroke:#000000;stroke-width:0.625;stroke-linejoin:round;stroke-opacity:1"
         id="path14455"
         inkscape:connector-curvature="0" />
    </marker>
    <marker
       inkscape:stockid="Arrow2Mend"
       orient="auto"
       refY="0"
       refX="0"
       id="Arrow2Mend"
       style="overflow:visible"
       inkscape:isstock="true">
      <path
         id="path5631"
         style="fill:#000000;fill-opacity:1;fill-rule:evenodd;stroke:#000000;stroke-width:0.625;stroke-linejoin:round;stroke-opacity:1"
         d="M 8.7185878,4.0337352 -2.2072895,0.01601326 8.7185884,-4.0017078 c -1.7454984,2.3720609 -1.7354408,5.6174519 -6e-7,8.035443 z"
         transform="scale(-0.6)"
         inkscape:connector-curvature="0" />
    </marker>
  </defs>
  <sodipodi:namedview
     id="base"
     pagecolor="#ffffff"
     bordercolor="#666666"
     borderopacity="1.0"
     inkscape:pageopacity="0.0"
     inkscape:pageshadow="2"
     inkscape:zoom="0.98994949"
     inkscape:cx="258.56304"
     inkscape:cy="10.534936"
     inkscape:document-units="mm"
     inkscape:current-layer="layer1"
     showgrid="false"
     inkscape:window-width="1920"
     inkscape:window-height="1017"
     inkscape:window-x="-8"
     inkscape:window-y="-8"
     inkscape:window-maximized="1"
     inkscape:snap-global="false"
     fit-margin-top="0"
     fit-margin-left="0"
     fit-margin-right="0"
     fit-margin-bottom="0"
     units="px" />
  <metadata
     id="metadata13301">
    <rdf:RDF>
      <cc:Work
         rdf:about="">
        <dc:format>image/svg+xml</dc:format>
        <dc:type
           rdf:resource="http://purl.org/dc/dcmitype/StillImage" />
        <dc:title></dc:title>
      </cc:Work>
    </rdf:RDF>
  </metadata>
  <g
     inkscape:label="Layer 1"
     inkscape:groupmode="layer"
     id="layer1"
     transform="translate(36.336286,-120.05277)">
    <circle
       r="0"
       cy="123.36323"
       cx="53.453903"
       id="ellipse14397"
       style="opacity:1;fill:#ffffff;fill-opacity:1;fill-rule:nonzero;stroke:#000000;stroke-width:0.5291667;stroke-linecap:round;stroke-linejoin:miter;stroke-miterlimit:4;stroke-dasharray:none;stroke-opacity:1;paint-order:normal" />
    <path
       style="opacity:1;fill:#000000;fill-opacity:1;fill-rule:nonzero;stroke:none;stroke-width:0.78079343;stroke-linecap:round;stroke-linejoin:miter;stroke-miterlimit:4;stroke-dasharray:none;stroke-opacity:1;paint-order:normal"
       d="m -19.745817,172.54441 c -1.368004,-0.33121 -2.501866,-1.44186 -2.908161,-2.84855 -0.122999,-0.42582 -0.159947,-1.28064 -0.07617,-1.76186 l 0.04955,-0.28479 -0.649011,-0.26646 c -0.356956,-0.14663 -0.953336,-0.41798 -1.32529,-0.60317 l -0.676282,-0.33666 -0.377221,0.64378 c -0.207457,0.35407 -0.573445,0.98142 -0.813278,1.39412 -0.239831,0.41268 -0.463974,0.76759 -0.49809,0.78867 -0.133416,0.0823 -1.744926,-0.98388 -2.96354,-1.96099 -2.202554,-1.76606 -4.243718,-4.29901 -5.536819,-6.87085 -0.31501,-0.62656 -0.842607,-1.81956 -0.815125,-1.84319 0.0095,-0.009 0.676103,-0.28772 1.481295,-0.62147 0.805194,-0.33363 1.489515,-0.63108 1.520709,-0.66098 0.0312,-0.0299 -0.05276,-0.38166 -0.186563,-0.78162 -1.442895,-4.31263 -1.222344,-8.95029 0.623783,-13.11654 0.92058,-2.07749 2.198559,-3.89519 3.907055,-5.55705 5.359181,-5.21292 13.325568,-6.5263 20.0809116,-3.31065 2.616053,1.24528 4.8440849,3.06759 6.599163,5.3975 1.96435538,2.60768 3.23825634,5.9071 3.5380847,9.16366 0.1008907,1.09587 0.046922,3.20656 -0.1080864,4.22729 -0.63482284,4.1801 -2.7012664,8.03287 -5.8111364,10.8346 -0.2038874,0.18383 -0.3558505,0.36993 -0.3377049,0.41389 0.029976,0.0726 0.7125323,0.9166 1.916539,2.36966 l 0.4531119,0.54685 -0.6911992,0.67526 c -0.755652,0.73824 -1.4983937,1.29344 -2.6779446,2.00175 -0.4218211,0.25318 -0.7669443,0.46778 -0.7669443,0.47664 0,0.009 0.5011537,0.23136 1.1136719,0.49461 0.61252,0.26322 1.1016531,0.49047 1.0869651,0.50513 -0.02361,0.0237 -6.3475774,0.64169 -6.5809804,0.64313 -0.05112,3.5e-4 -0.08248,-0.0295 -0.0697,-0.065 0.02971,-0.0834 5.1413328,-3.97799 5.2214001,-3.97799 0.053886,0 -0.2936872,0.88337 -0.4971863,1.26365 -0.0705,0.13163 -0.065484,0.1458 0.038041,0.10594 0.4594288,-0.17618 2.5864701,-1.76567 2.7783986,-2.07607 0.05672,-0.0919 -0.1101904,-0.33573 -0.8584337,-1.25485 -0.5108646,-0.62753 -0.9642881,-1.18008 -1.0076142,-1.22789 -0.061585,-0.0678 -0.184647,-0.009 -0.5645182,0.26529 -0.7546906,0.54719 -1.9052152,1.22239 -2.8659074,1.68195 -1.5168549,0.72556 -3.8748449,1.4156 -5.3392539,1.56244 l -0.469188,0.0471 -0.03641,0.25202 c -0.173698,1.20136 -0.508215,1.93635 -1.192858,2.62099 -0.50096,0.50095 -1.301238,0.93868 -1.966307,1.0755 -0.480525,0.0988 -1.277377,0.0873 -1.741713,-0.0237 z m 1.526485,-0.66572 c 0.877392,-0.16263 1.773249,-0.80363 2.24126,-1.60349 0.204064,-0.34879 0.399948,-1.02197 0.399948,-1.37458 v -0.22986 l -0.470566,0.0433 c -1.075961,0.0995 -3.520337,-0.18916 -5.101986,-0.60245 -0.621124,-0.16231 -0.80948,-0.18886 -0.852928,-0.12051 -0.07873,0.12399 -0.06814,1.07424 0.01593,1.43948 0.204595,0.8875 0.873797,1.73115 1.693679,2.13514 0.731694,0.36056 1.330092,0.45077 2.074553,0.31271 z m -8.378427,-4.67369 c 0.357487,-0.61499 0.638154,-1.12891 0.623705,-1.14201 -0.01447,-0.0112 -0.292918,-0.20362 -0.618834,-0.42348 -2.564038,-1.72922 -4.682701,-4.18929 -6.109164,-7.09366 -0.145958,-0.29714 -0.289614,-0.54028 -0.319245,-0.54028 -0.147316,0 -2.303295,0.94047 -2.332909,1.01763 -0.01889,0.0489 0.211206,0.56942 0.511273,1.15611 1.561015,3.0523 3.83165,5.63796 6.681488,7.60846 0.421767,0.29156 0.799894,0.5314 0.840281,0.53283 0.0404,10e-4 0.365919,-0.50058 0.723405,-1.1156 z m 12.114057,0.66248 c 3.747409,-0.48813 7.1342149,-2.11211 9.8069726,-4.70253 2.8568829,-2.76885 4.57224381,-6.21038 5.1428958,-10.31818 0.13721698,-0.9877 0.11591715,-3.45998 -0.0387428,-4.49653 -0.57809181,-3.87476 -2.337744,-7.32371 -5.1041555,-10.00431 -2.6286832,-2.54713 -5.8618451,-4.12181 -9.6116901,-4.68137 -0.973677,-0.14512 -3.840445,-0.12563 -4.842618,0.033 -2.475363,0.39211 -4.841555,1.31213 -6.907711,2.68581 -2.618888,1.74119 -4.562661,3.95287 -5.922164,6.73838 -0.589931,1.20874 -0.915613,2.08275 -1.217219,3.26656 -1.056774,4.14789 -0.645217,8.22761 1.210627,12.00074 1.677989,3.41154 4.349487,6.10899 7.718542,7.79358 1.832012,0.91603 3.772314,1.47553 6.056574,1.74636 0.62641,0.0743 2.963977,0.0355 3.708685,-0.0614 z"
       id="path16854"
       inkscape:connector-curvature="0" />
    <path
       style="opacity:1;fill:#000000;fill-opacity:1;fill-rule:nonzero;stroke:none;stroke-width:0.78079343;stroke-linecap:round;stroke-linejoin:miter;stroke-miterlimit:4;stroke-dasharray:none;stroke-opacity:1;paint-order:normal"
       d="m 121.99648,172.5622 c -0.0133,-0.0443 -0.16017,-0.80133 -0.32638,-1.68248 -0.16622,-0.88115 -0.31058,-1.61064 -0.32081,-1.6211 -0.01,-0.0112 -0.31322,0.0265 -0.67331,0.0842 -1.19898,0.18887 -1.72042,0.22784 -3.04549,0.22723 -1.80514,-6.1e-4 -3.12141,-0.15879 -4.73234,-0.56847 -6.48434,-1.64934 -11.65997,-6.53501 -13.702677,-12.93499 -0.403218,-1.26331 -0.730619,-2.94938 -0.842915,-4.34085 -0.08257,-1.02306 -0.03303,-3.08171 0.09721,-4.03932 0.511599,-3.76197 2.003482,-7.14581 4.433652,-10.05616 0.57672,-0.69068 1.88786,-1.97018 2.61104,-2.54798 2.89369,-2.31207 6.07033,-3.65948 9.81915,-4.16499 0.82916,-0.1118 3.55888,-0.12814 4.38726,-0.0265 3.20078,0.39405 5.98056,1.41012 8.60199,3.14427 2.82902,1.87148 5.21897,4.62387 6.70607,7.7232 0.1528,0.31855 0.29168,0.57918 0.30849,0.57918 0.0168,0 0.84995,-0.30297 1.85144,-0.67326 1.75566,-0.6492 1.82351,-0.66996 1.89338,-0.57923 0.14329,0.18621 0.64975,1.28755 0.82232,1.78864 0.25943,0.75335 0.58893,2.106 0.7275,2.98673 0.0112,0.0738 0.20987,-0.11217 0.82784,-0.77637 0.44693,-0.48031 0.832,-0.87327 0.85576,-0.87327 0.0237,0 0.0335,0.0387 0.0218,0.0862 -0.0112,0.0476 -0.37384,1.52295 -0.80461,3.27887 -0.43074,1.75593 -0.8049,3.18535 -0.83149,3.17647 -0.0427,-0.0149 -2.1004,-6.24143 -2.1004,-6.35642 0,-0.0843 0.0919,-0.0149 0.62333,0.47601 0.29137,0.26883 0.53796,0.46402 0.54799,0.43393 0.029,-0.0872 -0.36483,-1.62597 -0.55961,-2.18679 -0.16279,-0.46866 -0.4854,-1.2254 -0.52225,-1.22502 -0.0263,2.9e-4 -3.06047,1.13048 -3.07558,1.1456 -0.009,0.009 0.0845,0.28597 0.20508,0.61849 1.10625,3.04871 1.40591,6.48321 0.85463,9.79541 -0.21049,1.26473 -0.64131,2.78309 -1.13431,3.99771 -0.13313,0.32801 -0.242,0.61638 -0.24195,0.64085 5e-5,0.0237 0.10519,0.11093 0.2336,0.19211 0.33076,0.20893 0.87296,0.73335 1.12838,1.09131 0.26726,0.37453 0.57082,1.01982 0.68104,1.44773 0.11565,0.44896 0.15295,1.24742 0.0794,1.7028 -0.28142,1.74436 -1.54085,3.11467 -3.24601,3.53167 -0.58612,0.14347 -1.45054,0.14164 -2.00675,-0.004 -0.49939,-0.1308 -1.22698,-0.48718 -1.5916,-0.78008 -0.15489,-0.12425 -0.30849,-0.24699 -0.34134,-0.27238 -0.0416,-0.0321 -0.22132,0.0832 -0.59153,0.37992 -0.2925,0.23431 -0.84793,0.64005 -1.23427,0.9014 -0.38636,0.26145 -0.70246,0.49178 -0.70246,0.51209 0,0.0319 1.17823,2.21449 1.58243,2.93125 l 0.14185,0.25143 -0.55406,0.2895 c -2.08823,1.09111 -4.00096,1.78367 -6.18453,2.23924 -0.58764,0.12251 -0.65408,0.12813 -0.67588,0.0555 z m 1.47808,-0.99371 c 0.96304,-0.24317 2.2893,-0.68556 3.17295,-1.05822 0.74162,-0.31273 1.7293,-0.79696 1.7293,-0.84777 0,-0.0177 -0.3028,-0.59253 -0.67288,-1.27604 l -0.67287,-1.24278 -0.81831,0.40835 c -1.21375,0.60571 -2.57926,1.12301 -3.71916,1.4089 -0.2594,0.065 -0.42416,0.13013 -0.41249,0.16313 0.0112,0.0301 0.1277,0.6372 0.25996,1.34888 0.13917,0.74882 0.26303,1.29402 0.29396,1.29402 0.0293,0 0.40718,-0.0895 0.83954,-0.19861 z m -3.7244,-2.83267 c 2.11185,-0.25437 4.1004,-0.84342 5.98936,-1.77451 1.99948,-0.98562 3.45455,-2.02243 4.97985,-3.54843 1.44062,-1.44129 2.52588,-2.93446 3.42533,-4.71282 2.55972,-5.06088 2.73279,-10.77373 0.48519,-16.01481 -1.85239,-4.31949 -5.54747,-7.95092 -9.91983,-9.7489 -2.32025,-0.95411 -4.55123,-1.39241 -7.0933,-1.39355 -2.12156,-9.5e-4 -3.82857,0.26766 -5.78025,0.90939 -6.99706,2.30094 -11.952911,8.47536 -12.712643,15.8385 -0.08952,0.8679 -0.103082,2.70815 -0.02626,3.56114 0.460544,5.10834 2.974723,9.77593 6.997753,12.99132 2.81363,2.2488 6.3487,3.64218 10.05618,3.96371 0.74362,0.0646 2.81186,0.0237 3.59853,-0.0712 z m 14.02079,-3.35326 c 0.8034,-0.14013 1.42663,-0.47986 1.99343,-1.0868 0.59773,-0.64003 0.94327,-1.5186 0.94327,-2.39822 0,-0.58404 -0.1098,-1.05116 -0.37852,-1.61126 -0.18606,-0.3877 -0.29194,-0.53345 -0.64899,-0.89325 -0.23468,-0.23637 -0.49763,-0.46609 -0.58433,-0.51022 l -0.15763,-0.0803 -0.23162,0.43129 c -0.9189,1.71092 -1.99002,3.1795 -3.31902,4.55051 -0.35313,0.36432 -0.64262,0.6753 -0.6433,0.69106 -0.002,0.0525 0.56155,0.44771 0.83934,0.58837 0.44134,0.2234 1.03636,0.3716 1.55609,0.38736 0.11167,0.004 0.39576,-0.0265 0.63131,-0.0685 z"
       id="path16858"
       inkscape:connector-curvature="0" />
    <path
       style="opacity:1;fill:#000000;fill-opacity:1;fill-rule:nonzero;stroke:none;stroke-width:0.78079343;stroke-linecap:round;stroke-linejoin:miter;stroke-miterlimit:4;stroke-dasharray:none;stroke-opacity:1;paint-order:normal"
       d="m 43.073252,181.64075 c -0.569357,-0.0508 -1.072434,-0.12829 -1.117945,-0.17233 -0.0455,-0.0439 0.05327,-1.15819 0.219497,-2.47588 0.166227,-1.31771 0.292212,-2.40142 0.279935,-2.40827 -0.01232,-0.006 -0.621262,-0.1293 -1.353295,-0.27181 -1.139036,-0.22191 -2.635312,-0.60448 -3.157584,-0.80706 -0.120673,-0.0471 -0.304825,0.39724 -0.927262,2.23594 -0.427174,1.26188 -0.812644,2.33496 -0.856597,2.38464 -0.195947,0.22132 -4.025022,-1.47065 -6.080073,-2.68675 -1.727845,-1.02244 -4.812925,-3.34844 -5.434384,-4.09726 -0.106406,-0.1283 0.121942,-0.41663 1.535258,-1.93897 0.913152,-0.98363 1.675631,-1.82997 1.694399,-1.88082 0.0189,-0.0508 -0.292653,-0.43463 -0.692022,-0.85279 -3.948423,-4.13411 -6.425338,-9.50547 -7.079156,-15.35162 -0.149348,-1.33547 -0.122852,-4.46187 0.04964,-5.85513 1.307578,-10.56182 8.710967,-19.23421 18.89825,-22.13754 3.522415,-1.00389 7.740178,-1.22312 11.366302,-0.59084 0.48802,0.085 1.031497,0.17942 1.207731,0.20984 0.227671,0.039 0.320416,0.0177 0.320416,-0.0753 0,-0.0716 0.269813,-1.13304 0.599587,-2.35858 l 0.599588,-2.2282 0.777289,0.0753 c 1.316224,0.12714 3.207993,0.6875 4.852762,1.43716 0.421262,0.19209 0.791676,0.32334 0.823141,0.29184 0.03146,-0.0316 -0.0359,-0.45389 -0.14973,-0.93874 -0.230446,-0.98161 -0.247148,-1.13491 -0.11837,-1.08713 0.17411,0.0646 4.249489,4.66655 4.159214,4.69662 -0.07744,0.0265 -1.696417,-0.42684 -5.258358,-1.47021 -0.626811,-0.18356 -0.822417,-0.33875 -0.542247,-0.43014 0.06779,-0.0207 0.345069,-0.10109 0.616187,-0.17558 l 0.492953,-0.13546 -0.492953,-0.22191 c -1.282272,-0.57758 -3.692828,-1.28595 -4.396094,-1.29181 -0.248742,-0.001 -0.26869,0.0478 -0.776151,1.94377 -0.286455,1.07026 -0.540354,1.99676 -0.564202,2.05891 -0.02626,0.0685 0.240067,0.19596 0.67756,0.32405 3.057856,0.89514 6.413573,2.60744 8.832929,4.50711 l 0.619157,0.48619 0.514627,-0.49614 c 1.351145,-1.30259 3.682782,-1.77243 5.507879,-1.10995 0.943597,0.34249 1.534736,0.71691 2.20382,1.39586 2.103023,2.13401 2.179939,5.58823 0.172725,7.75627 -0.452143,0.48837 -0.777703,0.75744 -1.47738,1.22093 -0.01266,0.009 0.170361,0.45595 0.406707,0.9946 0.439987,1.00275 1.341608,3.64898 1.341608,3.93756 0,0.10719 0.05745,0.14313 0.172516,0.10831 0.307344,-0.093 4.999263,-1.14416 5.107148,-1.14416 0.21749,0 0.685303,2.94346 0.848846,5.34075 0.129669,1.90058 0.02303,4.4248 -0.267954,6.34218 -0.991171,6.53145 -3.902607,12.45624 -8.423903,17.14266 -1.013345,1.05032 -2.983004,2.82182 -3.137503,2.82182 -0.06006,0 -2.68931,-3.23586 -2.987782,-3.67704 -0.03409,-0.0504 -0.411206,0.17383 -0.838016,0.49851 -0.426811,0.32456 -1.130446,0.82081 -1.563636,1.10272 -0.433188,0.28183 -0.802141,0.52712 -0.819892,0.54489 -0.01772,0.0177 0.507712,0.96862 1.167695,2.11305 0.659984,1.1444 1.177003,2.14061 1.148927,2.21376 -0.07266,0.18947 -3.460285,1.84588 -4.751306,2.32335 -2.511939,0.92904 -5.192741,1.56045 -7.761166,1.82805 -1.586298,0.16529 -4.518045,0.18002 -6.189328,0.031 z m 7.344959,-0.86287 c 2.457603,-0.37351 5.041776,-1.07741 7.139482,-1.94472 0.959337,-0.39665 3.360362,-1.58247 3.360362,-1.6596 0,-0.0265 -0.467325,-0.86702 -1.0385,-1.86461 l -1.038502,-1.81383 -1.500193,0.72487 c -3.970733,1.91859 -8.602735,2.84311 -12.739462,2.54276 -0.759143,-0.0551 -1.3923,-0.091 -1.407006,-0.0793 -0.07808,0.0609 -0.540358,4.09972 -0.476536,4.16372 0.147531,0.14814 1.422695,0.20511 3.855341,0.17322 1.883976,-0.0236 2.789988,-0.082 3.845014,-0.24226 z m -14.018058,-3.37961 c 0.357332,-1.04379 0.662902,-1.95467 0.679047,-2.02411 0.01772,-0.0768 -0.31907,-0.27357 -0.857959,-0.50114 -2.380291,-1.0056 -4.968045,-2.56578 -6.802716,-4.10137 -0.488021,-0.40848 -0.91857,-0.74274 -0.956779,-0.74284 -0.09178,-1.7e-4 -2.937529,3.06105 -2.937529,3.15993 0,0.11478 1.69528,1.50668 2.760521,2.26655 1.293878,0.92293 2.902955,1.88824 4.190081,2.51369 1.132115,0.55012 2.976927,1.32243 3.165966,1.32542 0.06032,0.001 0.402038,-0.85228 0.759368,-1.89613 z m 13.334623,-1.54318 c 8.987068,-1.34237 16.604874,-7.36801 19.959263,-15.78772 0.839799,-2.10792 1.440049,-4.56345 1.681813,-6.88 0.15018,-1.43902 0.06434,-5.13966 -0.150147,-6.47525 -1.077816,-6.71018 -4.621237,-12.62179 -9.94806,-16.59661 -3.401749,-2.53837 -7.27553,-4.15181 -11.549549,-4.81039 -1.673832,-0.25792 -5.616591,-0.25821 -7.295664,-8.6e-4 -7.912215,1.21359 -14.643331,5.87046 -18.573224,12.84982 -1.370246,2.4335 -2.446582,5.58332 -2.924387,8.55803 -0.21451,1.33557 -0.300344,5.03624 -0.15018,6.47526 0.800848,7.67359 4.984199,14.56544 11.394405,18.77162 3.672403,2.40973 7.301986,3.63425 12.225168,4.12449 0.917282,0.0911 4.104096,-0.0452 5.33056,-0.22842 z m 18.074069,-4.02716 c 2.641143,-2.63812 4.27319,-4.87993 5.831647,-8.01042 2.928505,-5.88253 3.854626,-12.119 2.791287,-18.79642 -0.08765,-0.55047 -0.188186,-1.04746 -0.223393,-1.10444 -0.062,-0.10034 -4.406261,0.81147 -4.562449,0.95752 -0.03724,0.0349 -0.0024,0.37389 0.0777,0.75345 0.551029,2.61536 0.585432,6.49112 0.08401,9.46467 -0.899709,5.33553 -3.65677,10.53397 -7.623769,14.37467 -0.549016,0.53156 -0.998212,0.99106 -0.998212,1.02112 0,0.14363 2.517338,3.18842 2.63626,3.18842 0.07495,0 0.969099,-0.83184 1.986955,-1.84857 z m 2.247982,-33.84596 c 1.023409,-0.79435 1.70459,-2.15186 1.780911,-3.54911 0.08646,-1.58297 -0.353604,-2.75205 -1.448262,-3.8474 -1.843267,-1.84448 -4.589628,-1.96309 -6.688203,-0.28891 l -0.519554,0.4145 1.167042,1.15943 c 1.801733,1.78999 3.240944,3.66274 4.450942,5.7917 0.368301,0.64804 0.54867,0.88049 0.630443,0.8125 0.06301,-0.0525 0.345002,-0.27415 0.626681,-0.49276 z"
       id="path16872"
       inkscape:connector-curvature="0" />
  </g>
</svg>
