<?xml version="1.0" encoding="UTF-8"?>
<svg width="64mm" height="64mm" version="1.1" viewBox="0 0 64 64" xmlns="http://www.w3.org/2000/svg" xmlns:cc="http://creativecommons.org/ns#" xmlns:dc="http://purl.org/dc/elements/1.1/" xmlns:rdf="http://www.w3.org/1999/02/22-rdf-syntax-ns#" xmlns:xlink="http://www.w3.org/1999/xlink">
 <defs>
  <linearGradient id="linearGradient4354" x1="83.645" x2="119.4" y1="193.81" y2="164.33" gradientUnits="userSpaceOnUse" xlink:href="#linearGradient48403"/>
  <linearGradient id="linearGradient48403">
   <stop stop-color="#eb00c2" offset="0"/>
   <stop stop-color="#26fffa" offset="1"/>
  </linearGradient>
  <linearGradient id="linearGradient5158" x1="85.532" x2="118.41" y1="191.12" y2="160.13" gradientUnits="userSpaceOnUse" xlink:href="#linearGradient48403"/>
  <linearGradient id="linearGradient4342" x1="84.661" x2="118.34" y1="190.39" y2="159.7" gradientUnits="userSpaceOnUse" xlink:href="#linearGradient48403"/>
  <linearGradient id="linearGradient5166" x1="84.153" x2="119.07" y1="189.89" y2="159.99" gradientUnits="userSpaceOnUse" xlink:href="#linearGradient48403"/>
  <linearGradient id="linearGradient5170" x1="86.258" x2="117.18" y1="191.48" y2="158.53" gradientUnits="userSpaceOnUse" xlink:href="#linearGradient48403"/>
  <linearGradient id="linearGradient4350" x1="84.952" x2="118.2" y1="190.61" y2="158.97" gradientUnits="userSpaceOnUse" xlink:href="#linearGradient48403"/>
  <linearGradient id="linearGradient4883" x1="37.001" x2="79.057" y1="216.61" y2="171.84" gradientTransform="translate(-146.72 -124.9)" gradientUnits="userSpaceOnUse" xlink:href="#linearGradient48403"/>
 </defs>
 <metadata>
  <rdf:RDF>
   <cc:Work rdf:about="">
    <dc:format>image/svg+xml</dc:format>
    <dc:type rdf:resource="http://purl.org/dc/dcmitype/StillImage"/>
    <dc:title/>
   </cc:Work>
  </rdf:RDF>
 </metadata>
 <g transform="translate(120.22 -37.396)">
  <circle cx="-88.223" cy="69.396" r="30.984" enable-background="new" fill="#333" stroke="url(#linearGradient4883)" stroke-linecap="round" stroke-width="2.0329" style="paint-order:normal"/>
  <g transform="translate(-146.72 -124.9)" enable-background="new" opacity=".97">
   <g stroke-linecap="round">
    <g transform="matrix(.33381 0 0 .33381 23.656 148.9)" fill="#fff" opacity="1" stroke="#fff" stroke-linejoin="round" stroke-width=".5">
     <path d="m59.928 154.5v-5.2118l6.0136-3.8e-4v10.423l-6.0136 0.00105z" opacity="1"/>
     <path d="m82.382 159.46c-2.0134-0.66372-3.2337-1.4481-4.2511-2.7326-1.6546-2.0891-2.3977-5.3765-1.8978-8.3957 1.0044-6.0658 4.1667-8.5788 10.736-8.5319 3.5095 0.0251 5.4949 0.56821 6.9794 1.9094 0.97438 0.8803 2.1078 2.6195 2.1078 3.2344 0 0.13274-1.0524 0.44514-2.3386 0.69424-1.2862 0.24909-2.529 0.50782-2.7617 0.57495-0.26438 0.0763-0.53802-0.13023-0.72954-0.55057-1.1376-2.4968-6.064-2.1785-7.3605 0.47552-1.0494 2.1481-1.0289 6.49 0.03737 7.9182 1.0052 1.3464 1.8472 1.7454 3.8789 1.8381 1.5971 0.0729 2.1286-0.0171 3.1269-0.53004 1.122-0.57643 1.2027-0.68964 1.2027-1.687v-1.0691l-3.8754-0.157v-3.7184h9.0872v4.1013c0 2.3834 4e-3 2.7499 0.0609 4.3557-1.1947 0.70223-1.5086 0.83658-3.1356 1.6099-2.1084 1.0022-2.1853 1.2172-5.7452 1.2881-2.9423 0.0586-3.8875-0.22069-5.1219-0.6276z" opacity="1"/>
     <path d="m106.97 149.96v-9.7553h16.571v4.009h-10.691v3.4745h9.6217v3.7418h-9.6217v4.2763h10.691v4.009h-16.571z" opacity="1"/>
     <path d="m131.56 149.96v-9.7553l7.8844 2e-3 1.3126 5.144c1.7992 7.0511 1.776 6.9744 2.0268 6.7129 0.21939-0.22874 0.79393-2.1757 2.5136-8.5178l0.86964-3.2072 7.8435-0.148v19.525h-4.8108v-7.6706c0-4.4559-0.099-7.5642-0.23626-7.4167-0.12995 0.13965-0.56627 1.637-0.9696 3.3275-0.40334 1.6905-1.1325 4.5168-1.6204 6.2808s-1.0184 3.7184-1.1789 4.3431l-0.2918 1.1359h-4.2351l-0.30688-1.1359c-0.16879-0.62474-0.53927-1.9778-0.82329-3.0068-0.28402-1.029-0.98449-3.661-1.5566-5.8489-0.57212-2.1879-1.1684-4.1062-1.3252-4.263-0.20175-0.20175-0.28495 1.8376-0.28495 6.9848v7.2697h-4.8108z" opacity="1"/>
    </g>
    <path d="m44.617 198.3c-0.04841-3e-3 -0.07006-0.0117-0.0928-0.0367-0.02513-0.0279-0.02924-0.0418-0.02931-0.0999-7.1e-5 -0.10963 0.0079-0.28662 0.01375-0.30042 0.0043-0.0104 0.0044-0.0138 8.15e-4 -0.0148-0.0026-5.4e-4 -0.02677-7e-3 -0.05364-0.0117-0.05449-0.0117-0.13591-0.0378-0.1838-0.0587l-0.03155-0.0138-0.0025 0.0286c-0.0013 0.0158-0.0047 0.0329-0.0076 0.0383-0.0029 5e-3 -0.04501 0.0677-0.09378 0.13884-0.09415 0.13718-0.10352 0.14776-0.14043 0.15873-0.02526 8e-3 -0.04301 7e-3 -0.06733-1e-3 -0.02082-8e-3 -0.11481-0.071-0.13286-0.0901-0.02758-0.0292-0.03621-0.0799-0.01982-0.11679 0.0095-0.0214 0.16516-0.25023 0.18383-0.27035 0.0068-8e-3 0.01966-0.0176 0.02876-0.0229l0.01655-0.0104-0.05401-0.0526c-0.0297-0.0289-0.06643-0.0677-0.0816-0.0862l-0.0276-0.0337-0.0083 0.0189c-0.0046 0.0104-0.01445 0.0249-0.02187 0.0323-0.01471 0.0147-0.2727 0.16506-0.297 0.17306-0.02303 8e-3 -0.06485 4e-3 -0.08549-9e-3 -0.02547-0.0151-0.03849-0.0311-0.07114-0.088-0.03598-0.0626-0.03988-0.0737-0.03782-0.10741 0.0018-0.0306 0.01107-0.0518 0.03074-0.0715 0.0077-8e-3 0.07165-0.047 0.14208-0.0875 0.16667-0.0957 0.15024-0.0879 0.18585-0.088l0.03019-6e-5 -0.0059-0.0138c-0.0168-0.0392-0.0351-0.0949-0.04854-0.14786-0.01316-0.0518-0.01591-0.059-0.02229-0.0573-4e-3 1e-3 -0.08625 1e-3 -0.18275 1e-3l-0.17546 1.4e-4 -0.01971-0.0104c-0.02512-0.0133-0.04254-0.0316-0.05401-0.0565-0.0085-0.0184-0.0091-0.0247-0.0091-0.0947 0-0.0637 0.0011-0.0776 0.0073-0.0927 0.01107-0.0272 0.03153-0.0494 0.05687-0.0618l0.02263-0.0117 0.16166 1e-3c0.08892 5.4e-4 0.16735 1e-3 0.1743 4e-3 0.01454 3e-3 0.01289 7e-3 0.02298-0.0578 0.0082-0.0523 0.02866-0.1326 0.0465-0.18236l0.01377-0.0384h-0.01289c-0.02337 0-0.04431-0.0104-0.17744-0.0906-0.14117-0.0848-0.1572-0.0974-0.16938-0.13309-0.0073-0.0214-0.0079-0.0441-0.0018-0.0661 0.0072-0.026 0.0697-0.12668 0.08951-0.1442 0.02738-0.0241 0.0657-0.0328 0.10126-0.0229 0.0087 3e-3 0.07649 0.0406 0.15072 0.085 0.10121 0.0604 0.1388 0.085 0.15036 0.0982l0.01542 0.0176 0.02902-0.0345c0.03741-0.0445 0.10014-0.10651 0.14057-0.13889l0.03181-0.0255-0.02113-0.0199c-0.01842-0.0173-0.03035-0.037-0.09303-0.15391-0.07298-0.13608-0.08238-0.15705-0.08238-0.18382 0-0.0238 0.01488-0.0581 0.03316-0.076 0.0215-0.0212 0.12394-0.0759 0.15226-0.0813 0.04189-8e-3 0.08755 0.0117 0.11152 0.0488 0.01814 0.0279 0.14449 0.26358 0.15093 0.28163 0.0029 8e-3 0.0053 0.0202 0.0053 0.0269l1.45e-4 0.013 0.06013-0.0195c0.03307-0.0104 0.08779-0.025 0.1216-0.0316l0.06147-0.0117-0.02032-0.0362-0.0011-0.16902c-1e-3 -0.15006-4.35e-4 -0.17129 0.0055-0.18907 0.0086-0.0258 0.03511-0.0543 0.06182-0.0664 0.01928-9e-3 0.02522-9e-3 0.09548-9e-3 0.07232 0 0.07567 2.2e-4 0.09662 0.0104 0.02732 0.013 0.04597 0.0314 0.05797 0.0575l0.0094 0.0204-0.0011 0.17278-0.0011 0.17279-0.01003 0.0178-0.01002 0.0178 0.05148 9e-3c0.05752 0.0104 0.14206 0.0333 0.18875 0.0516 0.01694 7e-3 0.03159 0.0117 0.03252 0.0117 9.24e-4 0 0.0017-5e-3 0.0018-0.0104 6.2e-5 -0.0172 0.01351-0.0422 0.09399-0.17447 0.08082-0.13288 0.0958-0.1518 0.1294-0.16325 0.02699-9e-3 0.0585-8e-3 0.08215 3e-3 0.03035 0.0142 0.1111 0.065 0.12442 0.0782 0.02571 0.0258 0.03764 0.0717 0.0279 0.10768-0.0065 0.0242-0.16333 0.28102-0.18201 0.29812-0.0086 8e-3 -0.01566 0.0151-0.01566 0.0162 0 1e-3 0.01712 0.0167 0.03805 0.0349 0.04211 0.0367 0.09981 0.0987 0.13588 0.14609l0.0235 0.0309 0.02252-0.0226c0.02152-0.0216 0.02902-0.0257 0.16842-0.0894 0.14392-0.066 0.14626-0.0669 0.17349-0.067 0.02249-7e-5 0.0318 1e-3 0.05019 0.0104 0.01237 7e-3 0.02782 0.0174 0.03423 0.0253 0.0064 8e-3 0.02457 0.0418 0.04038 0.0756 0.02376 0.0509 0.029 0.0658 0.03027 0.0858 0.0022 0.0357-0.0074 0.0613-0.03252 0.0861-0.01822 0.018-0.03381 0.026-0.1611 0.0841-0.09239 0.0422-0.14911 0.0659-0.16469 0.0687-0.01852 4e-3 -0.02325 5e-3 -0.02148 0.0104 0.01726 0.045 0.04285 0.15618 0.05005 0.21745 0.0039 0.0335 0.0056 0.0392 0.01081 0.037 0.02786-0.0117 0.04857-0.0134 0.20734-0.0134h0.162l0.02044 0.0104c0.02637 0.0131 0.05044 0.0405 0.05801 0.066 0.0085 0.0285 0.0083 0.15189-3e-4 0.17694-0.0082 0.0241-0.02782 0.0462-0.05358 0.0604l-0.02113 0.0117-0.16166 3e-3c-0.17085 3e-3 -0.18554 1e-3 -0.21352-0.0146l-0.01638-9e-3 -0.0066 0.0305c-0.01512 0.0694-0.04306 0.15558-0.06849 0.21143-0.0068 0.0148-0.01237 0.0286-0.01237 0.0306 0 1e-3 0.0057 4e-3 0.01276 4e-3 7e-3 5e-5 0.0203 4e-3 0.02945 8e-3 0.02871 0.013 0.26385 0.17308 0.27911 0.18997 0.025 0.0277 0.03409 0.0626 0.02553 0.0983-0.0048 0.0203-0.06304 0.11419-0.08612 0.13903-0.0245 0.0264-0.07433 0.0401-0.11027 0.0303-0.01068-3e-3 -0.06815-0.0387-0.1527-0.095-0.11828-0.0789-0.13734-0.093-0.14895-0.11028l-0.01331-0.0198-0.0272 0.0288c-0.03832 0.0406-0.07405 0.0727-0.12256 0.11015-0.03716 0.0286-0.04106 0.0328-0.03439 0.0365 0.0042 3e-3 0.01551 0.0117 0.02527 0.0221 0.01466 0.0149 0.03008 0.0432 0.08855 0.16326l0.0708 0.14528-2.99e-4 0.0268c-3.53e-4 0.0339-0.01422 0.0644-0.03831 0.0841-0.0091 8e-3 -0.0432 0.0266-0.07564 0.0424-0.05825 0.0284-0.05935 0.0288-0.09052 0.0288-0.02756 0-0.03419-1e-3 -0.05258-0.0117-0.01159-7e-3 -0.02547-0.0169-0.0309-0.0234-0.0055-7e-3 -0.04192-0.0758-0.08109-0.15396-0.06926-0.1383-0.07126-0.143-0.07314-0.17102-0.0017-0.0245-0.0029-0.0284-0.0083-0.0263-0.03443 0.0135-0.14996 0.0414-0.1969 0.0475-0.02044 3e-3 -0.02091 3e-3 -0.01775 0.013 0.0038 0.0117 0.0023 0.19734-0.0022 0.29024-0.0035 0.0719-0.0086 0.0888-0.03444 0.11418-0.03159 0.031-0.06377 0.0367-0.17107 0.0302zm0.17862-0.87378c0.26849-0.0357 0.48348-0.2407 0.5336-0.50872 0.01029-0.0552 0.01029-0.16955 0-0.22475-0.04786-0.25599-0.24227-0.45175-0.49998-0.50345-0.06389-0.013-0.17116-0.013-0.23482-6e-5 -0.24658 0.0495-0.44155 0.2395-0.49403 0.4815-0.03104 0.14312-0.01263 0.2864 0.05346 0.41702 0.09696 0.19152 0.27694 0.31534 0.49667 0.34169 0.03009 4e-3 0.10654 1e-3 0.1451-4e-3z" fill="#fff" opacity="1" stroke="#fff" stroke-linejoin="round" stroke-width=".0074512"/>
    <g transform="matrix(1.302 0 0 1.302 -73.44 -33.085)" fill="url(#linearGradient4354)" stroke="url(#linearGradient4354)">
     <g stroke-width=".10436">
      <path d="m91.105 173.63c-2.4265-4.6617-2.787-5.3303-3.0839-5.719-0.25753-0.33717-1.3585-1.383-1.8797-1.7856-0.5947-0.45934-1.312-0.94137-2.1505-1.4452-0.34961-0.21005-0.6529-0.39727-0.67398-0.41606-0.04201-0.0374 13.8 1e-3 14.831 0.0416l0.63115 0.0246-0.76922 0.39767c-1.1812 0.61066-1.8995 1.0906-2.4032 1.6056-0.41995 0.42941-0.59412 0.75919-0.59459 1.1259-2.3e-4 0.18015 0.14381 0.6553 0.27896 0.92022l0.08049 0.15777-0.46603 0.70496-0.19899-0.42449c-0.10944-0.23347-0.24743-0.58004-0.30664-0.77015-0.14094-0.45252-0.1305-0.91227 0.0286-1.2586 0.22118-0.48149 0.63292-0.96487 1.2724-1.4938 0.27638-0.22862 0.29569-0.25371 0.21749-0.28263-0.0472-0.0174-2.3252-0.0272-5.0622-0.0217l-4.9763 0.01 0.70431 0.56836c1.0501 0.84736 1.8108 1.6046 2.2226 2.2127 0.18289 0.26999 0.75912 1.3514 2.457 4.6111l1.5491 2.974-0.11288 0.50717c-0.06208 0.27893-0.1241 0.50715-0.1378 0.50715-0.01371 0-0.66939-1.2381-1.4571-2.7514z" fill="url(#linearGradient5158)" opacity="1" stroke="url(#linearGradient5158)"/>
      <path d="m111.6 173.62c-0.0643-0.10827-0.16408-0.24853-0.22177-0.3117l-0.10489-0.11484 0.82676-1.5711c1.4705-2.7946 1.7877-3.3496 2.315-4.0512 0.55154-0.7338 1.388-1.6281 2.1512-2.2999l0.27358-0.24081-0.49054-0.0232c-0.86401-0.0408-9.356-0.073-9.3409-0.0354 8e-3 0.0195 0.15622 0.16014 0.32979 0.31254 0.73398 0.64448 1.1714 1.2022 1.3079 1.6676 0.098 0.33413 0.0556 0.87629-0.10349 1.324-0.11383 0.32036-0.77733 1.704-0.87157 1.8175-0.0212 0.0255-0.10936 0.0577-0.196 0.0716-0.30159 0.0482-0.58343 0.41416-1.166 1.5139-0.17851 0.33698-0.20138 0.36377-0.29228 0.34237-0.0542-0.0128-0.11098-0.0353-0.1261-0.05-0.0151-0.0147 0.24894-0.5327 0.58679-1.151 0.73175-1.3393 1.2727-2.4308 1.411-2.8472 0.21894-0.65895 0.0983-1.048-0.52812-1.7038-0.49815-0.52145-1.2405-1.0377-2.3593-1.6409-0.33083-0.17835-0.61305-0.34294-0.62715-0.36576-0.0275-0.0445 14.238-0.01 14.753 0.0358l0.27018 0.024-0.2899 0.15731c-0.63012 0.34194-1.1345 0.64237-1.4733 0.87756-0.82553 0.57309-1.8955 1.6349-2.623 2.603-0.53477 0.71165-0.84302 1.256-2.4854 4.3889-0.42307 0.80703-0.77809 1.4674-0.78894 1.4674-0.0109 2e-5 -0.0723-0.0885-0.13659-0.1968z" fill="url(#linearGradient4342)" opacity="1" stroke="url(#linearGradient4342)"/>
      <path d="m99.392 189.6c-1.1779-2.2571-2.135-4.1088-2.1267-4.1149 0.0082-6e-3 0.18829-0.0377 0.40016-0.0701l0.38522-0.059 0.23095 0.43647c0.12702 0.24006 0.90145 1.7234 1.721 3.2964 0.8195 1.573 1.5008 2.8723 1.514 2.8875 0.0132 0.0152 0.60087-1.0985 1.306-2.4748 1.0457-2.0411 1.2966-2.5025 1.3609-2.5032 0.1451-2e-3 0.48149-0.18736 0.58181-0.32129 0.20797-0.27767 0.22686-0.35257 0.22686-0.89998v-0.51504l0.23758-0.44847c0.23107-0.43617 0.2418-0.44915 0.39102-0.47301 0.0844-0.0135 0.17737-0.0337 0.20662-0.0449 0.0342-0.0131 0.0993 0.0635 0.18272 0.21521l0.12953 0.23562-1.5745 3.0687c-0.86597 1.6878-1.8731 3.6545-2.238 4.3704s-0.69275 1.3505-0.72846 1.41l-0.0649 0.10828z" fill="url(#linearGradient5166)" opacity="1" stroke="url(#linearGradient5166)"/>
     </g>
     <path d="m95.985 185.21c-1.529-0.19078-2.5605-1.0217-3.0964-2.4942-0.27123-0.74529-0.38724-1.4682-0.40892-2.5482-0.01915-0.95417 0.03571-1.716 0.20034-2.7816 0.14377-0.93061 0.30316-1.6144 0.73701-3.1616 0.49186-1.7541 0.80254-2.7395 1.1064-3.5091 0.81523-2.065 1.7691-3.0849 3.1575-3.376 0.28481-0.0597 0.98064-0.0583 1.3203 3e-3 0.92287 0.16566 2.1539 0.65915 2.9469 1.1814 0.38355 0.25256 0.8148 0.67776 1.0122 0.99798 0.4213 0.68351 0.49507 1.4751 0.23274 2.4973-0.18703 0.72881-0.5473 1.5912-1.2605 3.0174-0.6916 1.383-0.96139 2.0691-1.0955 2.786-0.0377 0.20163-0.0416 0.33375-0.0311 1.066 0.0252 1.7617 0.0148 2.7724-0.0321 3.1199-0.13493 0.99891-0.44443 1.6827-1.0014 2.2122-0.5402 0.51363-1.2747 0.81577-2.3217 0.95505-0.34675 0.0461-1.2104 0.0666-1.4657 0.0348z" fill="none" opacity="1" stroke="url(#linearGradient5170)" stroke-linejoin="round" stroke-width=".51276"/>
     <g>
      <path d="m99.531 174.07c-0.02895-0.0102-0.08254-0.0557-0.09572-0.0812-0.0048-9e-3 -0.01282-0.041-0.01776-0.0704-0.01463-0.0868-0.04035-0.3738-0.04153-0.46341l-1e-3 -0.0829-0.03937-3e-3c-0.11007-0.01-0.16851-0.0178-0.25135-0.0348-0.14192-0.0292-0.12714-0.0307-0.13583 0.0135-0.0078 0.0397-0.02441 0.0797-0.1004 0.24206-0.08198 0.17513-0.13068 0.26895-0.15039 0.28975-0.04435 0.0468-0.11554 0.0653-0.17675 0.0461-0.05448-0.0172-0.1989-0.0901-0.22499-0.11366-0.03902-0.0353-0.05352-0.0708-0.05352-0.13134v-0.0515l0.06887-0.14839c0.09305-0.20046 0.14931-0.31208 0.17513-0.34744 0.01793-0.0245 0.02-0.0303 0.01238-0.0346-0.0211-0.0118-0.10903-0.0769-0.16188-0.11987-0.12461-0.10126-0.11668-0.0959-0.12415-0.0834-0.02575 0.0431-0.05704 0.0705-0.19518 0.17097-0.16916 0.12298-0.24746 0.17684-0.28574 0.19654-0.02215 0.0114-0.03297 0.013-0.07268 0.0106-0.07722-5e-3 -0.11147-0.0308-0.19504-0.14909-0.06246-0.0884-0.07268-0.1108-0.07268-0.15915 0-0.0575 0.01687-0.0999 0.05319-0.13369 0.03329-0.031 0.29395-0.2228 0.3754-0.27628 0.03065-0.0201 0.06532-0.0398 0.07703-0.0436 0.01172-4e-3 0.0213-0.0105 0.0213-0.0148 0-4e-3 -0.02012-0.0497-0.04473-0.10098-0.02461-0.0513-0.0591-0.13235-0.07664-0.18012-0.01754-0.0478-0.03568-0.0883-0.04028-0.0901-0.0046-2e-3 -0.02395 1e-3 -0.04297 6e-3 -0.04059 0.0113-0.12451 0.0224-0.32761 0.0433-0.19375 0.0199-0.23122 0.0199-0.27196-4.2e-4 -0.0382-0.019-0.08375-0.0682-0.09216-0.0994-0.01197-0.0445-0.02505-0.14904-0.02614-0.209-1e-3 -0.0539 5.01e-4 -0.0643 0.01456-0.0939 0.021-0.0446 0.04087-0.0669 0.07721-0.0867 0.02584-0.0141 0.04585-0.0182 0.13526-0.0284 0.19324-0.0218 0.35883-0.0363 0.41482-0.0363l0.05551-1e-5 0.0036-0.0469c7e-3 -0.0908 0.02241-0.22907 0.03-0.26885l0.0077-0.0402-0.04172-4e-3c-0.04912-5e-3 -0.09165-0.0198-0.34472-0.12103-0.18279-0.0731-0.19085-0.077-0.21758-0.10562-0.03421-0.0366-0.04791-0.0646-0.05227-0.10679-0.0039-0.0382 3e-3 -0.0692 0.03265-0.14451 0.03074-0.0782 0.06063-0.13732 0.07934-0.15693 0.0088-9e-3 0.03227-0.0249 0.05207-0.0348 0.07-0.035 0.09442-0.0291 0.41609 0.10009 0.17256 0.0693 0.18671 0.0759 0.2191 0.10191 0.01249 0.01 0.02359 0.0171 0.02469 0.0157 1e-3 -1e-3 0.01651-0.0271 0.03425-0.057 0.05146-0.0869 0.1287-0.19355 0.19388-0.26772 0.0199-0.0226 0.03623-0.0443 0.03629-0.0482 5.6e-5 -4e-3 -0.01172-0.0139-0.02614-0.0224-0.01443-8e-3 -0.0356-0.0258-0.04702-0.0384-0.05011-0.0556-0.28558-0.36643-0.31334-0.41365-0.01356-0.0231-0.01595-0.0341-0.01572-0.0727 5.01e-4 -0.0809 0.0193-0.1091 0.12982-0.1947 0.10196-0.079 0.11531-0.0858 0.17294-0.0889 0.08936-5e-3 0.11004 0.0129 0.29395 0.25023 0.13488 0.17405 0.1665 0.21946 0.1751 0.25138 0.0036 0.0133 9e-3 0.0242 0.01194 0.0242 3e-3 0 0.03901-0.0172 0.08002-0.0382 0.08613-0.0441 0.19056-0.0887 0.26032-0.11125l0.04862-0.0157-4e-3 -0.0189c-0.01313-0.0614-0.02881-0.23783-0.03959-0.44524-0.0076-0.14641-0.0038-0.16576 0.04166-0.2144 0.04916-0.0526 0.08256-0.0619 0.24622-0.0688 0.10398-4e-3 0.12461 8.3e-4 0.17202 0.0437 0.03879 0.035 0.05334 0.0648 0.06058 0.12383 0.0061 0.0502 0.03676 0.45891 0.03676 0.49087v0.0161l0.07402 4e-3c0.08704 5e-3 0.20404 0.0192 0.25796 0.0314 0.02102 5e-3 0.04053 9e-3 0.04334 9e-3 0.0028 0 0.0071-0.0143 0.0094-0.0318s0.01319-0.0563 0.02408-0.0863c0.04005-0.11056 0.13175-0.3351 0.16372-0.40086 0.036-0.0741 0.0521-0.0911 0.10553-0.11137 0.0574-0.0218 0.0916-0.0156 0.23887 0.0434 0.0989 0.0396 0.14318 0.0839 0.15585 0.15581 9e-3 0.0497 1e-3 0.0763-0.082 0.28516-0.0949 0.23838-0.10967 0.27212-0.13098 0.29864-0.0102 0.0127-0.0172 0.0253-0.0156 0.0279 1e-3 3e-3 0.027 0.0194 0.0564 0.0372 0.0693 0.042 0.16982 0.11776 0.25285 0.1905 0.0364 0.0319 0.0682 0.058 0.0705 0.058 2e-3 0 6e-3 -6e-3 8e-3 -0.0136 0.01-0.0373 0.0845-0.0956 0.34003-0.26474 0.15736-0.10412 0.15866-0.10476 0.21484-0.10504 0.0832-4.1e-4 0.11633 0.024 0.20027 0.1479 0.0649 0.0958 0.0722 0.11273 0.0723 0.16921 1.6e-4 0.0542-0.017 0.0954-0.0532 0.12812-0.0602 0.0544-0.43052 0.29962-0.46601 0.30861-0.0167 4e-3 -0.0258 0.01-0.0258 0.0161 0 5e-3 0.0161 0.0438 0.0358 0.0856 0.0357 0.0758 0.0856 0.20568 0.10651 0.27735 6e-3 0.0208 0.014 0.0378 0.0177 0.0378 4e-3 0 0.0213-6e-3 0.0394-0.0125 0.0436-0.0166 0.14468-0.023 0.39422-0.0251 0.19507-1e-3 0.19709-1e-3 0.22547 0.0124 0.038 0.0186 0.0799 0.066 0.0932 0.1056 9e-3 0.0259 0.0107 0.0539 0.011 0.15578 1.7e-4 0.11819-1.6e-4 0.12541-0.0135 0.15015-0.0172 0.0321-0.0546 0.0691-0.0841 0.0832-0.0366 0.0173-0.10744 0.0218-0.36657 0.023l-0.24653 1e-3 -3e-3 0.0333c-0.0129 0.12433-0.0247 0.20655-0.0403 0.28094-0.029 0.13818-0.0298 0.12244 7e-3 0.1273 0.0406 5e-3 0.079 0.0201 0.22713 0.0869 0.19106 0.0862 0.29513 0.13734 0.31682 0.15577 0.011 9e-3 0.028 0.031 0.0378 0.048 0.0156 0.0272 0.0178 0.0369 0.0178 0.0802 6e-5 0.059-5e-3 0.0755-0.0608 0.18818-0.0452 0.0916-0.0612 0.11069-0.11424 0.13562-0.0223 0.0105-0.0357 0.0123-0.0759 0.0104-0.0445-2e-3 -0.0569-6e-3 -0.13966-0.0421-0.22048-0.0967-0.35878-0.16394-0.3969-0.19296-0.0216-0.0164-0.041-0.0299-0.0433-0.03-2e-3 -1.2e-4 -0.0212 0.0236-0.0421 0.0528-0.0548 0.0765-0.0974 0.12939-0.1611 0.20006-0.0309 0.0342-0.0561 0.0644-0.0561 0.067 0 3e-3 0.0108 9e-3 0.0239 0.0152 0.0322 0.0142 0.0678 0.0545 0.16156 0.18309 0.1984 0.27199 0.21414 0.29823 0.21423 0.35727 6e-5 0.0559-0.0145 0.0909-0.0541 0.12978-0.0423 0.0414-0.17419 0.13383-0.20473 0.14338-0.0425 0.0133-0.0916 0.01-0.13209-9e-3 -0.0444-0.021-0.0535-0.0314-0.17025-0.1931-0.16028-0.22206-0.19495-0.27526-0.20283-0.31118-4e-3 -0.0179-9e-3 -0.0346-0.0111-0.0372-2e-3 -3e-3 -0.0324 9e-3 -0.0671 0.0264-0.0815 0.0401-0.16513 0.0737-0.25862 0.10392-0.06212 0.0201-0.07409 0.0259-0.0706 0.0341 0.02012 0.0474 0.06935 0.51115 0.06158 0.5801-0.0072 0.064-0.06306 0.13228-0.121 0.14788-0.03555 0.01-0.16955 0.0238-0.2196 0.0233-0.02333-1.7e-4 -0.05391-4e-3 -0.06798-0.01zm0.04982-1.374c0.36012-0.054 0.65539-0.27293 0.81454-0.60385 0.11744-0.24421 0.13483-0.5316 0.0481-0.79515-0.0251-0.0762-0.095-0.21383-0.1416-0.27861-0.1617-0.22488-0.39321-0.37488-0.66957-0.43384-0.0547-0.0117-0.08266-0.0136-0.19987-0.014-0.12077-1.6e-4 -0.1442 1e-3 -0.20592 0.014-0.38347 0.0791-0.68839 0.34493-0.81078 0.70672-0.10792 0.31902-0.06198 0.66355 0.1256 0.94199 0.16956 0.2517 0.42806 0.41522 0.73077 0.46225 0.07415 0.0115 0.23342 0.0118 0.30872 4.2e-4z" fill="url(#linearGradient4342)" opacity="1" stroke="url(#linearGradient4342)" stroke-linejoin="round" stroke-width=".12819"/>
      <path d="m96.351 175.08c-0.01746-8e-3 -0.04357-0.0308-0.05118-0.0456-0.01005-0.0194-0.05609-0.23774-0.06135-0.29087l-0.0028-0.028-0.0985-3e-3c-0.05418-1e-3 -0.1064-4e-3 -0.11604-6e-3l-0.01754-3e-3 -0.0028 0.0272c-0.0027 0.0268-0.07639 0.2537-0.09314 0.28689-0.0095 0.0188-0.03818 0.0408-0.06151 0.047-0.02287 6e-3 -0.04792 2e-3 -0.10068-0.0155-0.08205-0.0276-0.10285-0.0476-0.10611-0.10189-0.0018-0.03-5.01e-4 -0.0347 0.03969-0.15299 0.04091-0.12018 0.05247-0.14924 0.06505-0.16356 0.0058-7e-3 0.0044-8e-3 -0.0159-0.0193-0.03374-0.0182-0.10216-0.0608-0.12742-0.0793l-0.02246-0.0165-0.0068 0.017c-0.0048 0.012-0.0242 0.0334-0.06533 0.072-0.07991 0.0751-0.14578 0.1344-0.16173 0.14563-0.01992 0.014-0.04841 0.0191-0.07544 0.0135-0.02102-4e-3 -0.026-8e-3 -0.07019-0.053-0.02668-0.0271-0.05159-0.0567-0.05674-0.0673-0.01074-0.0222-0.01231-0.0605-0.0034-0.0819 0.0099-0.0237 0.20594-0.20647 0.2415-0.22514 0.0053-3e-3 0.0096-7e-3 0.0096-9e-3s-0.01282-0.0249-0.02847-0.0502c-0.02919-0.0472-0.07432-0.1333-0.07432-0.14185 0-7e-3 -2e-3 -6e-3 -0.02233 4e-3 -0.01915 0.01-0.24583 0.0619-0.2885 0.0664-0.04071 4e-3 -0.07827-0.0152-0.09597-0.0497-0.01085-0.0212-0.03001-0.10979-0.03001-0.1388 0-0.0431 0.02669-0.0777 0.06961-0.0902 0.05623-0.0163 0.26662-0.0622 0.28532-0.0622 9e-3 0 0.0091-1e-3 0.0091-0.0974l-2e-6 -0.0974-0.02891-4.1e-4c-0.04181-4.2e-4 -0.2773-0.0646-0.30853-0.0839-0.02028-0.0125-0.03935-0.0478-0.0394-0.0728-5.6e-5 -0.0416 0.02784-0.13513 0.04747-0.15894 0.0068-8e-3 0.02077-0.0191 0.03092-0.024 0.03326-0.0161 0.04984-0.0136 0.22416 0.0341 0.09195 0.0251 0.1095 0.0311 0.12515 0.0422l0.01177 8e-3 0.03275-0.065c0.01802-0.0358 0.04632-0.0858 0.06291-0.11131 0.01659-0.0255 0.03015-0.047 0.03015-0.0478 0-8.3e-4 -0.0061-3e-3 -0.01343-5e-3 -0.0161-4e-3 -0.05759-0.0424-0.15671-0.14694-0.07309-0.0771-0.08657-0.0968-0.08669-0.12703-1.1e-4 -0.0369 0.0067-0.0487 0.05709-0.099 0.05172-0.0516 0.06541-0.0608 0.09613-0.0644 0.04457-5e-3 0.04882-2e-3 0.16003 0.10957 0.0688 0.0692 0.10572 0.10973 0.11491 0.12602l0.01354 0.024 0.0307-0.0207c0.04005-0.027 0.11694-0.0712 0.14703-0.0845 0.02092-9e-3 0.02341-0.0117 0.02079-0.02-0.0142-0.0453-0.05121-0.23777-0.05619-0.29215-0.0031-0.0337 0.0018-0.0505 0.02172-0.0741 0.01808-0.0215 0.03885-0.0297 0.10582-0.0421 0.05296-0.01 0.06394-0.0106 0.08058-6e-3 0.02461 6e-3 0.04898 0.0233 0.0603 0.0416 0.0097 0.0156 0.0259 0.0885 0.04665 0.20932 0.0073 0.0424 0.01431 0.0824 0.01561 0.0889l0.0023 0.0119 0.21128-2e-3 0.0028-0.0321c0.0028-0.0312 0.03072-0.13943 0.06194-0.23983 0.01354-0.0436 0.01746-0.0513 0.03396-0.0672 0.03061-0.0295 0.05796-0.0332 0.12233-0.0167 0.09199 0.0235 0.11788 0.0418 0.12797 0.0904 0.0042 0.0203 0.0035 0.0285-0.0059 0.0672-0.01948 0.0805-0.06686 0.24025-0.0757 0.25525-0.0048 8e-3 -0.0082 0.0153-0.0075 0.0159 7.73e-4 4.2e-4 0.01946 0.0102 0.04169 0.0213 0.04989 0.025 0.09429 0.0516 0.14055 0.0842 0.01946 0.0138 0.03711 0.025 0.03923 0.025 2e-3 0 0.0081-9e-3 0.01318-0.0193 0.0098-0.0203 0.05171-0.0592 0.1682-0.15637 0.07146-0.0596 0.08199-0.0656 0.11476-0.0656 0.03877 0 0.05882 0.0128 0.10351 0.0659 0.04437 0.0527 0.05468 0.0717 0.05455 0.10074-2.3e-4 0.043-0.01695 0.0627-0.14566 0.17119-0.08025 0.0676-0.09763 0.0812-0.11255 0.088-0.0063 3e-3 -0.01151 7e-3 -0.01151 0.01s0.01259 0.0251 0.02796 0.0503c0.01538 0.0252 0.03973 0.0706 0.05411 0.10084 0.01438 0.0302 0.02674 0.0556 0.02745 0.0565 7.52e-4 8.4e-4 0.01154-3e-3 0.02405-9e-3 0.02382-0.0114 0.0882-0.0227 0.23726-0.0414 0.08208-0.0103 0.09499-9e-3 0.12473 0.0125 0.0222 0.0161 0.03316 0.0398 0.04157 0.09 0.0095 0.0565 0.0089 0.1035-0.0013 0.12361-0.01128 0.0219-0.02921 0.0379-0.05131 0.0457-0.02236 8e-3 -0.21063 0.0355-0.27187 0.0399l-0.04339 3e-3 0.0013 0.0514c0.0013 0.046-0.0035 0.12408-0.01026 0.17138l-0.0026 0.0172 0.03567 5e-3c0.03828 5e-3 0.24013 0.0703 0.28192 0.0907 0.01889 9e-3 0.02631 0.0161 0.03747 0.0348 0.01982 0.0331 0.01895 0.0538-0.0055 0.12842-0.02195 0.0671-0.03623 0.0871-0.07218 0.10081-0.0299 0.0114-0.05117 7e-3 -0.18467-0.0366-0.10837-0.0356-0.14375-0.0495-0.16575-0.065-0.0088-6e-3 -0.0055-0.0103-0.03369 0.0415-0.01279 0.0235-0.03843 0.064-0.05697 0.0899-0.01854 0.026-0.03446 0.0491-0.03538 0.0515-1e-3 2e-3 0.0077 9e-3 0.01923 0.0139 0.02136 0.01 0.05417 0.0428 0.1546 0.15529 0.05851 0.0656 0.07373 0.0887 0.07634 0.11575 4e-3 0.0418-0.0129 0.0687-0.07755 0.12334-0.04465 0.0378-0.05638 0.0436-0.08724 0.0435-0.03856-1.1e-4 -0.05324-9e-3 -0.10861-0.0688-0.11582-0.12425-0.15496-0.17149-0.16056-0.19378-0.0015-6e-3 -0.0042-0.0114-0.0058-0.0114-0.0015 0-0.01649 8e-3 -0.03303 0.0185-0.04708 0.029-0.09055 0.0522-0.13012 0.0694-0.02002 9e-3 -0.03789 0.0172-0.03971 0.0188-0.0018 2e-3 5.01e-4 0.0116 5e-3 0.022 0.019 0.0434 0.06715 0.29313 0.06081 0.31526-0.0063 0.0218-0.01643 0.0379-0.03385 0.0537-0.01367 0.0124-0.02413 0.0169-0.05488 0.0241-0.0784 0.0182-0.11094 0.0211-0.13254 0.0117zm-0.09999-0.73313c0.24159-0.0411 0.42954-0.22483 0.47797-0.46736 0.01136-0.0568 0.01015-0.16476-0.0026-0.22385-0.02546-0.11913-0.0799-0.21693-0.16819-0.30218-0.10943-0.10565-0.24844-0.16153-0.40185-0.16153-0.16134 0-0.30714 0.0623-0.41983 0.17948-0.07662 0.0797-0.12679 0.17482-0.15045 0.28537-0.01238 0.0579-0.01349 0.1664-0.0023 0.22271 0.04807 0.24069 0.23823 0.42763 0.47553 0.4675 0.0492 8e-3 0.14249 8e-3 0.19151-1.1e-4z" fill="url(#linearGradient4342)" opacity="1" stroke="url(#linearGradient4342)" stroke-linejoin="round" stroke-width=".12819"/>
      <path d="m110.41 175.77c-0.012-0.0448-0.0287-0.0891-0.0371-0.0986-0.0139-0.0157-0.0419-0.0173-0.3072-0.0176-0.26273-2.1e-4 -0.28989-2e-3 -0.27213-0.0152 0.0109-8e-3 0.17505-0.102 0.36488-0.20842 0.78608-0.44068 1.0954-0.62232 1.1615-0.68201 0.0688-0.0621 0.10525-0.17136 0.10559-0.31605 1.7e-4 -0.0716-1e-3 -0.0759-0.0686-0.20377-0.11084-0.21069-0.26025-0.45161-0.34396-0.55464-0.055-0.0677-0.16332-0.11102-0.2788-0.11157-0.0566-2.1e-4 -0.073 5e-3 -0.20034 0.068-0.22134 0.10903-1.2272 0.6713-1.4602 0.81624-0.0542 0.0337-0.11576 0.0668-0.1367 0.0735-0.0477 0.0153-0.12817 9e-3 -0.17578-0.0138-0.0462-0.0221-0.22654-0.20721-0.36596-0.37568-0.0678-0.0819-0.22006-0.22467-0.6381-0.59821-0.0515-0.0461-0.10369-0.0985-0.1159-0.11652-0.0488-0.072-0.053-0.17436-0.0102-0.2469 0.0124-0.0211 0.0607-0.0951 0.10741-0.16456 0.10277-0.15294 0.21057-0.33214 0.43649-0.72557 0.35519-0.61857 0.44749-0.79701 0.46078-0.8909 0.0118-0.0834-3e-3 -0.17985-0.0384-0.24434-0.0483-0.0889-0.29235-0.25753-0.5834-0.40313l-0.16234-0.0812h-0.11872c-0.1102 0-0.12279 2e-3 -0.17521 0.0277-0.0938 0.0461-0.13865 0.10749-0.37947 0.5196-0.29117 0.49828-0.62464 1.1236-0.66756 1.2519-0.0406 0.12127-0.17486 0.19987-0.30179 0.17667-0.0298-5e-3 -0.0644-0.0164-0.0768-0.0245-0.10675-0.0688-0.9647-0.27503-1.3482-0.32407-0.16764-0.0214-0.21503-0.0372-0.26637-0.0885-0.0817-0.0817-0.0774-0.0208-0.0717-1.0096 5e-3 -0.93058 4.2e-4 -1.1718-0.0246-1.2202-0.0191-0.0368-0.13718-0.1508-0.19182-0.18517l-0.0417-0.0262h-0.78933v0.0217c0 0.0119-0.0373-0.0535-0.0828-0.14546-0.0456-0.0919-0.10515-0.20266-0.13242-0.24605l-0.0496-0.0789 0.0552-0.0174c0.10182-0.032 0.22116-0.038 0.69317-0.035l0.45884 3e-3 0.0736 0.0444c0.24279 0.14642 0.44243 0.35655 0.49237 0.51825 0.0433 0.14012 0.0451 0.18839 0.0419 1.1061l-3e-3 0.86997 0.0228 4e-3c0.45631 0.0841 1.0698 0.22558 1.1418 0.26327 0.0112 6e-3 0.0347-0.0316 0.10493-0.1676 0.20678-0.40034 0.60455-1.0983 0.75629-1.327 0.082-0.12368 0.14757-0.19671 0.23387-0.26068 0.17144-0.12709 0.34317-0.1728 0.59236-0.15768 0.0991 6e-3 0.14348 0.0138 0.21429 0.0375 0.21904 0.0734 0.65157 0.32428 0.84184 0.48833 0.16909 0.14578 0.25895 0.31966 0.28504 0.55154 0.0226 0.20072-0.0125 0.35664-0.13301 0.59146-0.1264 0.24624-0.48838 0.88238-0.70496 1.2389-0.10536 0.17343-0.10958 0.18247-0.0927 0.19828 0.01 9e-3 0.0732 0.0668 0.14098 0.12831 0.2539 0.23014 0.33916 0.31357 0.44553 0.43597 0.0601 0.0691 0.11351 0.12573 0.11869 0.12573 5e-3 0 0.13662-0.0726 0.29211-0.16127 0.74719-0.42622 1.1609-0.64762 1.2911-0.69094 0.2052-0.0683 0.44706-0.0449 0.66593 0.0644 0.14819 0.074 0.22323 0.14726 0.3615 0.3531 0.15547 0.23146 0.36263 0.62308 0.39167 0.74046 0.0218 0.0882 0.013 0.33436-0.0162 0.45321-0.0545 0.22167-0.17819 0.39137-0.37974 0.52111-0.12404 0.0798-1.0697 0.62328-1.0846 0.62328-2e-3 0-0.0128-0.0366-0.0248-0.0814z" fill="url(#linearGradient4350)" opacity="1" stroke="url(#linearGradient4350)" stroke-width=".022886"/>
      <path d="m103.3 186.96c-0.16524-0.0187-0.31137-0.0974-0.46112-0.24807-0.2504-0.252-0.27053-0.36934-0.27086-1.5787l-2.1e-4 -0.80323-0.0976-0.0251c-0.0537-0.0138-0.19727-0.0558-0.31904-0.0934-0.12178-0.0376-0.22255-0.0665-0.22393-0.0643-1e-3 2e-3 -0.0389 0.0697-0.0833 0.14998-0.19681 0.35538-0.83328 1.3619-0.94778 1.4988-0.0747 0.0893-0.23144 0.19083-0.36771 0.23812-0.14277 0.0495-0.34695 0.0622-0.47805 0.0296-0.22386-0.0556-0.75912-0.37789-0.9637-0.58024-0.11225-0.11104-0.18477-0.23487-0.20071-0.34274l-0.0081-0.0551 0.24114-0.1185c0.13262-0.0652 0.24427-0.12007 0.24811-0.122 0.0038-2e-3 7e-3 0.0464 7e-3 0.10747v0.11097l0.06276 0.0643c0.08306 0.0851 0.40146 0.29692 0.57912 0.38524 0.15813 0.0786 0.23571 0.0889 0.35448 0.047 0.12995-0.0459 0.17156-0.0993 0.55426-0.71157 0.4621-0.73934 0.56393-0.91949 0.58957-1.043 9e-3 -0.0429 0.03-0.0987 0.0469-0.12414 0.0358-0.0539 0.13609-0.10895 0.19853-0.10895 0.024 0 0.16732 0.0406 0.31851 0.0903s0.35774 0.11283 0.45899 0.14033c0.41846 0.11368 0.43978 0.12332 0.50658 0.22891l0.0401 0.0634-7e-3 0.19525c-4e-3 0.10739-7e-3 0.52474-6e-3 0.92745 1e-3 0.95971 0.0146 1.0685 0.14308 1.1692 0.10278 0.0805 0.0911 0.0787 0.52904 0.0835 0.40629 4e-3 0.40843 4e-3 0.48116-0.0292 0.0908-0.0418 0.14831-0.10007 0.20648-0.20922l0.0451-0.0847-0.0161-0.97413c-0.0177-1.0688-0.02-1.0288 0.0638-1.1162 0.0474-0.0495 0.075-0.0574 0.37543-0.10733 0.13912-0.0231 0.40271-0.0771 0.58576-0.11994 0.46413-0.10865 0.51989-0.11871 0.5812-0.10488 0.062 0.014 0.11122 0.0443 0.14219 0.0876 0.0124 0.0174 0.10282 0.1728 0.20084 0.34539 0.20677 0.36406 0.56241 0.94915 0.72929 1.1998 0.10274 0.15433 0.12443 0.17864 0.1925 0.21567 0.0644 0.035 0.0924 0.0418 0.17433 0.0418 0.0919 1.1e-4 0.10625-4e-3 0.24494-0.0783 0.16471-0.0877 0.40239-0.23504 0.50818-0.31511 0.0975-0.0738 0.15333-0.18692 0.15337-0.31079 5e-5 -0.10827 0.0147-0.0804-0.52046-0.99021-0.19627-0.33368-0.37251-0.64434-0.39166-0.69036-0.0421-0.1011-0.0435-0.17401-5e-3 -0.25935 0.0232-0.0515 0.0721-0.10059 0.2499-0.25056 0.12159-0.10256 0.36904-0.33234 0.54988-0.51062 0.18084-0.17829 0.34599-0.3307 0.36701-0.33869 0.021-8e-3 0.0679-0.0145 0.10423-0.0145 0.0666 0 0.0696 1e-3 0.24056 0.11723 0.14841 0.1005 1.0964 0.62662 1.4327 0.79517 0.18099 0.0907 0.18444 0.0918 0.29746 0.0918 0.15772 0 0.21402-0.0288 0.31045-0.15861 0.14635-0.19705 0.35672-0.60883 0.3673-0.71893 9e-3 -0.0961-0.0398-0.23804-0.10065-0.2915-0.0983-0.0863-0.553-0.34358-1.2489-0.70665-0.17259-0.09-0.34675-0.18315-0.38702-0.2069l-0.0732-0.0432v-0.53881l0.47268 0.23753c0.41928 0.21069 0.47377 0.24185 0.48228 0.27576 0.0155 0.062 0.0334 0.0733 0.11556 0.0733 0.0697 0 0.0965 0.0106 0.28769 0.11389 0.71408 0.38583 0.83423 0.49681 0.92882 0.85794 0.0686 0.26182 0.0224 0.4431-0.23051 0.90465-0.13729 0.25055-0.22627 0.3773-0.33966 0.48386-0.11281 0.106-0.20204 0.15581-0.34431 0.1922-0.13386 0.0342-0.35417 0.037-0.47355 6e-3 -0.13245-0.0344-0.7265-0.34473-1.4288-0.7463l-0.28573-0.16338-0.20924 0.20327c-0.11508 0.11181-0.28775 0.27204-0.38371 0.35607-0.096 0.084-0.17303 0.15777-0.17128 0.16384 2e-3 6e-3 0.1394 0.2421 0.30588 0.52449 0.3944 0.669 0.53052 0.91463 0.55891 1.0086 0.0314 0.10396 0.0304 0.32643-2e-3 0.44629-0.0353 0.1303-0.12494 0.29403-0.20819 0.38017-0.0789 0.0816-0.25978 0.21121-0.4767 0.3415-0.42163 0.25325-0.62606 0.30874-0.8893 0.24142-0.17741-0.0454-0.34672-0.13954-0.43863-0.24396-0.0862-0.098-0.52897-0.80078-0.84396-1.3398-0.0762-0.1304-0.14269-0.24132-0.14774-0.2465-5e-3 -5e-3 -0.097 0.0119-0.20442 0.038-0.10739 0.026-0.2157 0.0506-0.24069 0.0547-0.025 4e-3 -0.12227 0.0225-0.21617 0.041s-0.19427 0.0376-0.22304 0.0425c-0.0421 7e-3 -0.0522 0.0149-0.052 0.0396 1.7e-4 0.0169 6e-3 0.241 0.0133 0.49796 7e-3 0.25697 0.0144 0.65238 0.016 0.8787l3e-3 0.41149-0.0739 0.14396c-0.13085 0.25474-0.23949 0.37218-0.43567 0.47097-0.16103 0.0811-0.22166 0.089-0.66665 0.0872-0.21861-8.4e-4 -0.44454-7e-3 -0.50207-0.0135zm2.5158-2.8357c-4e-3 -0.011-0.0171-0.0164-0.0286-0.012-0.017 7e-3 -0.0175 0.0102-2e-3 0.0198 0.0278 0.0176 0.0396 0.0147 0.031-8e-3z" fill="url(#linearGradient4350)" opacity="1" stroke="url(#linearGradient4350)" stroke-width=".032365"/>
     </g>
    </g>
   </g>
  </g>
 </g>
</svg>
