<?xml version="1.0" encoding="UTF-8"?>
<svg width="67.733mm" height="67.733mm" version="1.1" viewBox="0 0 67.733 67.733" xmlns="http://www.w3.org/2000/svg" xmlns:cc="http://creativecommons.org/ns#" xmlns:dc="http://purl.org/dc/elements/1.1/" xmlns:rdf="http://www.w3.org/1999/02/22-rdf-syntax-ns#" xmlns:xlink="http://www.w3.org/1999/xlink">
 <defs>
  <linearGradient id="linearGradient5518" x1="83.645" x2="119.4" y1="193.81" y2="164.33" gradientUnits="userSpaceOnUse">
   <stop stop-color="#eb00c2" offset="0"/>
   <stop stop-color="#26fffa" offset="1"/>
  </linearGradient>
 </defs>
 <metadata>
  <rdf:RDF>
   <cc:Work rdf:about="">
    <dc:format>image/svg+xml</dc:format>
    <dc:type rdf:resource="http://purl.org/dc/dcmitype/StillImage"/>
    <dc:title/>
   </cc:Work>
  </rdf:RDF>
 </metadata>
 <g transform="translate(117.34 -24.366)">
  <circle cx="-83.474" cy="58.232" r="32.791" enable-background="new" fill="#232d4b" stroke="#e57200" stroke-linecap="round" stroke-width="2.1515" style="paint-order:normal"/>
  <g transform="matrix(4 0 0 4 -223.33 -813.07)" enable-background="new" opacity=".97">
   <g stroke-linecap="round">
    <g transform="matrix(.14741 0 0 .14741 19.247 196.24)" fill="#fff" opacity="1" stroke="#fff" stroke-linejoin="round" stroke-width=".5">
     <path d="m59.928 154.5v-5.2118l6.0136-3.8e-4v10.423l-6.0136 0.00105z" opacity="1"/>
     <path d="m82.382 159.46c-2.0134-0.66372-3.2337-1.4481-4.2511-2.7326-1.6546-2.0891-2.3977-5.3765-1.8978-8.3957 1.0044-6.0658 4.1667-8.5788 10.736-8.5319 3.5095 0.0251 5.4949 0.56821 6.9794 1.9094 0.97438 0.8803 2.1078 2.6195 2.1078 3.2344 0 0.13274-1.0524 0.44514-2.3386 0.69424-1.2862 0.24909-2.529 0.50782-2.7617 0.57495-0.26438 0.0763-0.53802-0.13023-0.72954-0.55057-1.1376-2.4968-6.064-2.1785-7.3605 0.47552-1.0494 2.1481-1.0289 6.49 0.03737 7.9182 1.0052 1.3464 1.8472 1.7454 3.8789 1.8381 1.5971 0.0729 2.1286-0.0171 3.1269-0.53004 1.122-0.57643 1.2027-0.68964 1.2027-1.687v-1.0691l-3.8754-0.157v-3.7184h9.0872v4.1013c0 2.3834 4e-3 2.7499 0.0609 4.3557-1.1947 0.70223-1.5086 0.83658-3.1356 1.6099-2.1084 1.0022-2.1853 1.2172-5.7452 1.2881-2.9423 0.0586-3.8875-0.22069-5.1219-0.6276z" opacity="1"/>
     <path d="m106.97 149.96v-9.7553h16.571v4.009h-10.691v3.4745h9.6217v3.7418h-9.6217v4.2763h10.691v4.009h-16.571z" opacity="1"/>
     <path d="m131.56 149.96v-9.7553l7.8844 2e-3 1.3126 5.144c1.7992 7.0511 1.776 6.9744 2.0268 6.7129 0.21939-0.22874 0.79393-2.1757 2.5136-8.5178l0.86964-3.2072 7.8435-0.148v19.525h-4.8108v-7.6706c0-4.4559-0.099-7.5642-0.23626-7.4167-0.12995 0.13965-0.56627 1.637-0.9696 3.3275-0.40334 1.6905-1.1325 4.5168-1.6204 6.2808s-1.0184 3.7184-1.1789 4.3431l-0.2918 1.1359h-4.2351l-0.30688-1.1359c-0.16879-0.62474-0.53927-1.9778-0.82329-3.0068-0.28402-1.029-0.98449-3.661-1.5566-5.8489-0.57212-2.1879-1.1684-4.1062-1.3252-4.263-0.20175-0.20175-0.28495 1.8376-0.28495 6.9848v7.2697h-4.8108z" opacity="1"/>
    </g>
    <path d="m28.503 218.06c-0.02138-1e-3 -0.03094-5e-3 -0.04098-0.0162-0.0111-0.0123-0.01291-0.0185-0.01294-0.0441-3.2e-5 -0.0484 0.0035-0.12657 0.0061-0.13266 0.0019-5e-3 0.0019-6e-3 3.7e-4 -7e-3 -0.0012-2.4e-4 -0.01182-3e-3 -0.02369-5e-3 -0.02406-5e-3 -0.06002-0.0167-0.08116-0.0259l-0.01393-6e-3 -0.0011 0.0126c-5.82e-4 7e-3 -0.0021 0.0145-0.0034 0.0169-0.0013 2e-3 -0.01988 0.0299-0.04141 0.0613-0.04158 0.0606-0.04572 0.0652-0.06201 0.0701-0.01115 4e-3 -0.019 3e-3 -0.02973-5.3e-4 -0.0092-4e-3 -0.0507-0.0314-0.05867-0.0398-0.01218-0.0129-0.01599-0.0353-0.0088-0.0516 0.0042-9e-3 0.07293-0.1105 0.08118-0.11938 3e-3 -4e-3 0.0087-8e-3 0.0127-0.0101l0.0073-5e-3 -0.02385-0.0232c-0.01312-0.0128-0.02933-0.0299-0.03603-0.0381l-0.01219-0.0149-0.0037 8e-3c-2e-3 5e-3 -0.0064 0.011-0.0097 0.0143-0.0065 7e-3 -0.12042 0.0729-0.13115 0.0764-0.01017 4e-3 -0.02864 2e-3 -0.03775-4e-3 -0.01125-7e-3 -0.017-0.0137-0.03142-0.0389-0.01589-0.0276-0.01761-0.0325-0.0167-0.0474 7.94e-4 -0.0135 0.0049-0.0229 0.01358-0.0316 0.0034-4e-3 0.03164-0.0207 0.06274-0.0386 0.0736-0.0423 0.06634-0.0388 0.08207-0.0389l0.01333-2e-5 -0.0026-6e-3c-0.0074-0.0173-0.0155-0.0419-0.02143-0.0653-0.0058-0.0229-7e-3 -0.026-0.0098-0.0253-0.0018 5.3e-4 -0.03809 5.3e-4 -0.0807 5.3e-4l-0.07748 6e-5 -0.0087-5e-3c-0.01109-6e-3 -0.01879-0.0139-0.02385-0.025-0.0038-8e-3 -4e-3 -0.0109-4e-3 -0.0418 0-0.0281 5.03e-4 -0.0343 0.0032-0.0409 0.0049-0.012 0.01392-0.0218 0.02511-0.0273l0.01-5e-3 0.07138 5.3e-4c0.03927 2.4e-4 0.0739 5.3e-4 0.07697 2e-3 0.0064 1e-3 0.0057 3e-3 0.01015-0.0255 0.0036-0.0231 0.01266-0.0586 0.02053-0.0805l0.0061-0.017h-0.0057c-0.01032 0-0.01957-5e-3 -0.07835-0.04-0.06234-0.0374-0.06942-0.043-0.0748-0.0588-0.0032-9e-3 -0.0035-0.0194-7.94e-4 -0.0292 0.0032-0.0115 0.03078-0.0559 0.03953-0.0637 0.01209-0.0106 0.02901-0.0145 0.04471-0.0101 0.0038 1e-3 0.03378 0.0179 0.06656 0.0375 0.04469 0.0267 0.06129 0.0375 0.0664 0.0434l0.0068 8e-3 0.01281-0.0152c0.01652-0.0197 0.04422-0.047 0.06207-0.0613l0.01405-0.0113-0.0093-9e-3c-0.0081-8e-3 -0.0134-0.0163-0.04108-0.068-0.03223-0.0601-0.03638-0.0694-0.03638-0.0812 0-0.0105 0.0066-0.0257 0.01464-0.0336 0.0095-9e-3 0.05473-0.0335 0.06723-0.0359 0.0185-4e-3 0.03866 5e-3 0.04924 0.0216 8e-3 0.0123 0.0638 0.11639 0.06665 0.12437 0.0013 4e-3 0.0024 9e-3 0.0024 0.0119l6.4e-5 6e-3 0.02655-9e-3c0.0146-5e-3 0.03877-0.0111 0.0537-0.0139l0.02714-5e-3 -9e-3 -0.016-5.03e-4 -0.0746c-4.5e-4 -0.0663-1.92e-4 -0.0756 0.0024-0.0835 0.0038-0.0114 0.01551-0.024 0.0273-0.0293 0.0085-4e-3 0.01114-4e-3 0.04216-4e-3 0.03193 0 0.03341 9e-5 0.04266 5e-3 0.01206 6e-3 0.0203 0.0139 0.0256 0.0254l0.0042 9e-3 -0.001006 0.1526-0.0088 0.016 0.02273 4e-3c0.0254 5e-3 0.06273 0.0147 0.08335 0.0228 0.0075 3e-3 0.01395 5e-3 0.01436 5e-3 4.23e-4 0 7.41e-4 -2e-3 7.94e-4 -5e-3 2.7e-5 -8e-3 6e-3 -0.0186 0.0415-0.077 0.03569-0.0587 0.0423-0.067 0.05714-0.0721 0.01192-4e-3 0.02583-4e-3 0.03628 1e-3 0.0134 6e-3 0.04906 0.0287 0.05494 0.0345 0.01135 0.0114 0.01662 0.0317 0.01232 0.0476-0.0029 0.0107-0.07212 0.12409-0.08037 0.13164-0.0038 4e-3 -0.0069 7e-3 -0.0069 7e-3 0 5.3e-4 0.0076 7e-3 0.0168 0.0154 0.0186 0.0162 0.04408 0.0436 0.06 0.0645l0.01038 0.0136 0.0099-0.01c0.0095-0.01 0.01281-0.0114 0.07437-0.0395 0.06355-0.0292 0.06459-0.0295 0.07661-0.0296 0.0099-3e-5 0.01404 5.3e-4 0.02216 5e-3 0.0055 3e-3 0.01228 8e-3 0.01512 0.0112 0.0028 4e-3 0.01085 0.0185 0.01783 0.0334 0.01049 0.0225 0.01281 0.0291 0.01337 0.0379 9.53e-4 0.0158-0.0033 0.0271-0.01436 0.038-8e-3 8e-3 -0.01493 0.0115-0.07114 0.0371-0.0408 0.0186-0.06585 0.0291-0.07272 0.0303-0.0082 2e-3 -0.01027 2e-3 -0.0095 5e-3 0.0076 0.0199 0.01892 0.069 0.0221 0.096 0.0017 0.0148 0.0025 0.0173 0.0048 0.0163 0.0123-5e-3 0.02145-6e-3 0.09156-6e-3h0.07153l9e-3 5e-3c0.01164 6e-3 0.02227 0.0179 0.02562 0.0291 0.0038 0.0126 0.0037 0.0671-1.33e-4 0.0781-0.0036 0.0106-0.01228 0.0204-0.02366 0.0267l-0.0093 5e-3 -0.07139 1e-3c-0.07544 1e-3 -0.08193 5.3e-4 -0.09429-6e-3l-0.0072-4e-3 -0.0029 0.0135c-0.0067 0.0306-0.01902 0.0687-0.03024 0.0934-3e-3 7e-3 -0.0055 0.0126-0.0055 0.0135 0 5.3e-4 0.0025 2e-3 0.0056 2e-3 0.0031 2e-5 9e-3 2e-3 0.013 4e-3 0.01268 6e-3 0.11651 0.0764 0.12325 0.0839 0.01104 0.0122 0.01505 0.0276 0.01127 0.0434-0.0021 9e-3 -0.02784 0.0504-0.03803 0.0614-0.01082 0.0117-0.03282 0.0177-0.04869 0.0134-0.0047-1e-3 -0.03009-0.0171-0.06743-0.0419-0.05223-0.0348-0.06065-0.0411-0.06577-0.0487l-0.0059-9e-3 -0.01201 0.0127c-0.01692 0.0179-0.0327 0.0321-0.05412 0.0486-0.01641 0.0126-0.01813 0.0145-0.01519 0.0161 0.0019 1e-3 0.0069 5e-3 0.01116 0.01 0.0065 7e-3 0.01328 0.0191 0.0391 0.0721l0.03126 0.0641-1.32e-4 0.0118c-1.56e-4 0.015-0.0063 0.0284-0.01692 0.0371-4e-3 4e-3 -0.01908 0.0117-0.0334 0.0187-0.02572 0.0125-0.02621 0.0127-0.03997 0.0127-0.01217 0-0.0151-5.3e-4 -0.02322-5e-3 -0.0051-3e-3 -0.01125-7e-3 -0.01364-0.0103-0.0024-3e-3 -0.01851-0.0335-0.03581-0.068-0.03058-0.0611-0.03147-0.0632-0.0323-0.0755-7.41e-4 -0.0108-0.0013-0.0125-0.0037-0.0116-0.0152 6e-3 -0.06622 0.0183-0.08695 0.021-9e-3 1e-3 -0.0092 1e-3 -0.0078 6e-3 0.0017 5e-3 1e-3 0.0872-9.53e-4 0.12817-0.0015 0.0317-0.0038 0.0392-0.0152 0.0504-0.01395 0.0137-0.02816 0.0162-0.07554 0.0133zm0.07888-0.38585c0.11856-0.0158 0.2135-0.10629 0.23563-0.22464 0.0045-0.0244 0.0045-0.0749 0-0.0992-0.02113-0.11305-0.10698-0.19949-0.22078-0.22232-0.02821-6e-3 -0.07558-6e-3 -0.10369-2e-5 -0.10889 0.0219-0.19498 0.10575-0.21816 0.21262-0.01371 0.0632-0.0056 0.12647 0.02361 0.18414 0.04282 0.0846 0.12229 0.13925 0.21932 0.15089 0.01329 2e-3 0.04705 5.3e-4 0.06408-2e-3z" fill="#fff" opacity="1" stroke="#fff" stroke-linejoin="round" stroke-width=".0032903"/>
    <g transform="matrix(1.302 0 0 1.302 -73.44 -33.085)" stroke="#e57200">
     <path d="m80.642 196.2c-0.67517-0.0842-1.1307-0.45117-1.3673-1.1014-0.11977-0.3291-0.171-0.64834-0.18057-1.1252-0.0085-0.42135 0.01577-0.75777 0.08846-1.2283 0.06349-0.41094 0.13387-0.71287 0.32545-1.3961 0.2172-0.77456 0.35439-1.2097 0.48855-1.5495 0.35999-0.91189 0.7812-1.3622 1.3943-1.4908 0.12577-0.0264 0.43303-0.0258 0.58304 1e-3 0.40752 0.0732 0.95112 0.29107 1.3013 0.52167 0.16937 0.11152 0.3598 0.29928 0.44696 0.44069 0.18604 0.30183 0.21862 0.65136 0.10277 1.1028-0.08259 0.32183-0.24168 0.70267-0.5566 1.3324-0.3054 0.61073-0.42453 0.91369-0.48377 1.2303-0.01665 0.089-0.01839 0.14738-0.01373 0.47072 0.01114 0.77793 0.0065 1.2242-0.01417 1.3777-0.05958 0.4411-0.19625 0.74303-0.4422 0.97688-0.23854 0.2268-0.56288 0.36023-1.0252 0.42173-0.15312 0.0204-0.5345 0.0294-0.64723 0.0154z" fill="none" opacity="1" stroke-linejoin="round" stroke-width=".22643"/>
     <g fill="#e57200">
      <path d="m82.208 191.28c-0.01278-5e-3 -0.03645-0.0246-0.04227-0.0359-0.0021-4e-3 -0.0057-0.0181-0.0078-0.0311-0.0065-0.0383-0.01782-0.16507-0.01834-0.20464l-4.5e-4 -0.0366-0.01738-1e-3c-0.04861-4e-3 -0.07441-8e-3 -0.11099-0.0153-0.06267-0.0129-0.05615-0.0136-0.05998 6e-3 -0.0034 0.0175-0.01078 0.0352-0.04433 0.10689-0.0362 0.0773-0.0577 0.11876-0.06641 0.12794-0.01958 0.0207-0.05102 0.0288-0.07805 0.0204-0.02406-8e-3 -0.08783-0.0398-0.09935-0.0502-0.01723-0.0156-0.02363-0.0313-0.02363-0.058v-0.0227l0.03041-0.0655c0.04109-0.0885 0.06593-0.13781 0.07733-0.15343 0.0079-0.0108 0.0088-0.0134 0.0055-0.0153-0.0093-5e-3 -0.04815-0.0339-0.07148-0.0529-0.05503-0.0447-0.05152-0.0423-0.05482-0.0368-0.01137 0.019-0.02519 0.0311-0.08619 0.0755-0.0747 0.0543-0.10928 0.0781-0.12618 0.0868-0.0098 5e-3 -0.01456 6e-3 -0.03209 5e-3 -0.0341-2e-3 -0.04922-0.0136-0.08612-0.0658-0.02758-0.039-0.03209-0.0489-0.03209-0.0703 0-0.0254 0.0075-0.0441 0.02349-0.059 0.0147-0.0137 0.1298-0.0984 0.16577-0.122 0.01353-9e-3 0.02884-0.0176 0.03402-0.0192 0.0052-2e-3 0.0094-5e-3 0.0094-7e-3s-0.0089-0.0219-0.01975-0.0446c-0.01087-0.0226-0.0261-0.0584-0.03384-0.0795-0.0077-0.0211-0.01576-0.039-0.01778-0.0398-2e-3 -7.9e-4 -0.01058 5.3e-4 -0.01897 3e-3 -0.01793 5e-3 -0.05498 0.01-0.14467 0.0191-0.08556 9e-3 -0.1021 9e-3 -0.12009-1.8e-4 -0.01687-8e-3 -0.03698-0.0301-0.0407-0.0439-0.0053-0.0197-0.01106-0.0658-0.01154-0.0923-4.5e-4 -0.0238 2.22e-4 -0.0284 0.0064-0.0415 0.0093-0.0197 0.01805-0.0296 0.03409-0.0383 0.01141-6e-3 0.02025-8e-3 0.05973-0.0125 0.08533-0.01 0.15845-0.016 0.18318-0.016l0.02451-1e-5 0.0016-0.0207c0.0031-0.0401 0.0099-0.10115 0.01325-0.11872l0.0034-0.0178-0.01842-2e-3c-0.02169-2e-3 -0.04047-9e-3 -0.15222-0.0534-0.08072-0.0323-0.08427-0.034-0.09608-0.0466-0.01511-0.0162-0.02115-0.0285-0.02308-0.0472-0.0017-0.0169 0.0013-0.0306 0.01442-0.0638 0.01358-0.0345 0.02677-0.0606 0.03504-0.0693 0.0039-4e-3 0.01425-0.011 0.02299-0.0154 0.03091-0.0154 0.04169-0.0129 0.18374 0.0442 0.0762 0.0306 0.08245 0.0335 0.09675 0.045 0.0055 4e-3 0.01042 8e-3 0.0109 7e-3 4.5e-4 -5.3e-4 0.0073-0.012 0.01512-0.0252 0.02272-0.0384 0.05683-0.0855 0.08561-0.11822 0.0088-0.01 0.016-0.0196 0.01603-0.0213 2.5e-5 -2e-3 -0.0052-6e-3 -0.01154-0.01-0.0064-4e-3 -0.01572-0.0114-0.02076-0.017-0.02213-0.0246-0.12611-0.16181-0.13837-0.18266-6e-3 -0.0102-7e-3 -0.0151-0.0069-0.0321 2.21e-4 -0.0357 0.0085-0.0482 0.05733-0.086 0.04503-0.0349 0.05092-0.0379 0.07636-0.0393 0.03946-2e-3 0.04859 6e-3 0.1298 0.1105 0.05956 0.0769 0.07353 0.0969 0.07732 0.11101 0.0016 6e-3 4e-3 0.0107 0.0053 0.0107s0.01723-8e-3 0.03534-0.0169c0.03803-0.0195 0.08415-0.0392 0.11496-0.0491l0.02147-7e-3 -0.0018-8e-3c-0.0058-0.0271-0.01272-0.10503-0.01748-0.19662-0.0034-0.0647-0.0017-0.0732 0.0184-0.0947 0.02171-0.0232 0.03646-0.0273 0.10873-0.0304 0.04592-2e-3 0.05503 2.6e-4 0.07596 0.0193 0.01713 0.0155 0.02356 0.0286 0.02675 0.0547 0.0027 0.0222 0.01623 0.20264 0.01623 0.21676v7e-3l0.03269 2e-3c0.03844 2e-3 0.0901 8e-3 0.11391 0.0139 0.0093 2e-3 0.0179 4e-3 0.01914 4e-3 0.0012 0 0.0031-6e-3 0.0042-0.014 1e-3 -8e-3 0.0058-0.0249 0.01063-0.0381 0.01769-0.0488 0.05818-0.14797 0.07229-0.17701 0.0159-0.0327 0.02301-0.0402 0.0466-0.0492 0.02535-0.01 0.04045-7e-3 0.10548 0.0192 0.04367 0.0175 0.06323 0.037 0.06882 0.0688 4e-3 0.0219 4.5e-4 0.0337-0.03621 0.12592-0.04191 0.10527-0.04843 0.12016-0.05784 0.13188-0.0045 6e-3 -0.0076 0.0112-0.0069 0.0123 4.5e-4 1e-3 0.01193 9e-3 0.02491 0.0164 0.0306 0.0186 0.07499 0.052 0.11166 0.0841 0.01608 0.0141 0.03012 0.0256 0.03113 0.0256 8.73e-4 0 0.0026-3e-3 0.0035-6e-3 0.0044-0.0165 0.03731-0.0422 0.15015-0.11691 0.06948-0.046 0.07006-0.0463 0.09487-0.0464 0.03674-1.8e-4 0.05137 0.0106 0.08843 0.0653 0.02866 0.0423 0.03189 0.0498 0.03193 0.0747 6.9e-5 0.0239-0.0075 0.0421-0.02349 0.0566-0.02657 0.024-0.19011 0.13231-0.20578 0.13628-0.0074 2e-3 -0.01138 4e-3 -0.01138 7e-3 0 2e-3 0.0071 0.0193 0.01579 0.0378 0.01577 0.0335 0.0378 0.0908 0.04703 0.12247 0.0028 9e-3 0.0062 0.0167 0.0078 0.0167s0.0094-3e-3 0.01738-6e-3c0.01926-7e-3 0.06389-0.0102 0.17408-0.0111 0.08614-5.3e-4 0.08703-5.3e-4 0.09956 5e-3 0.01677 8e-3 0.03528 0.0292 0.04115 0.0466 4e-3 0.0114 0.0047 0.0238 0.0048 0.0688 7.4e-5 0.0522-7.2e-5 0.0554-6e-3 0.0663-0.0076 0.0142-0.02413 0.0305-0.03714 0.0367-0.01617 8e-3 -0.04744 0.01-0.16187 0.0101l-0.10886 5.3e-4 -0.0013 0.0147c-0.0057 0.0549-0.01093 0.0912-0.01781 0.12406-0.01282 0.061-0.01315 0.0541 0.0031 0.0562 0.01791 2e-3 0.03489 9e-3 0.1003 0.0384 0.08437 0.0381 0.13032 0.0607 0.1399 0.0688 0.0048 4e-3 0.01238 0.0137 0.0167 0.0212 0.0069 0.012 0.0079 0.0163 0.0079 0.0354 2.6e-5 0.026-0.0021 0.0333-0.02685 0.0831-0.01995 0.0404-0.02701 0.0489-0.05045 0.0599-0.0098 5e-3 -0.01577 5e-3 -0.03352 5e-3 -0.01966-8e-4 -0.02511-3e-3 -0.06167-0.0186-0.09736-0.0427-0.15844-0.0724-0.17527-0.0852-0.0095-7e-3 -0.01811-0.0132-0.01913-0.0132-8.2e-4 -5e-5 -0.0094 0.0104-0.0186 0.0233-0.0242 0.0338-0.04301 0.0571-0.07114 0.0883-0.01364 0.0151-0.02477 0.0284-0.02477 0.0296 0 1e-3 0.0048 4e-3 0.01055 7e-3 0.01422 6e-3 0.02994 0.024 0.07134 0.0808 0.08761 0.12011 0.09456 0.1317 0.0946 0.15777 2.5e-5 0.0247-0.0064 0.0401-0.0239 0.0573-0.01869 0.0183-0.07692 0.0591-0.09041 0.0633-0.01877 6e-3 -0.04045 4e-3 -0.05833-4e-3 -0.01961-9e-3 -0.02362-0.0139-0.07518-0.0853-0.07078-0.0981-0.08609-0.12155-0.08957-0.13742-0.0018-8e-3 -4e-3 -0.0153-0.0049-0.0164-8.73e-4 -1e-3 -0.01431 4e-3 -0.02963 0.0117-0.03599 0.0177-0.07292 0.0325-0.1142 0.0459-0.02743 9e-3 -0.03272 0.0114-0.03118 0.0151 0.0089 0.0209 0.03062 0.22572 0.02719 0.25617-0.0032 0.0283-0.02785 0.0584-0.05343 0.0653-0.0157 4e-3 -0.07487 0.0105-0.09697 0.0103-0.0103-7e-5 -0.02381-2e-3 -0.03002-4e-3zm0.022-0.60674c0.15902-0.0238 0.28941-0.12052 0.35969-0.26664 0.05186-0.10784 0.05954-0.23475 0.02124-0.35113-0.01108-0.0337-0.04195-0.0944-0.06253-0.12303-0.0714-0.0993-0.17363-0.16554-0.29567-0.19158-0.02415-5e-3 -0.0365-6e-3 -0.08826-6e-3 -0.05333-7e-5 -0.06368 5.3e-4 -0.09093 6e-3 -0.16934 0.0349-0.30398 0.15232-0.35803 0.31208-0.04766 0.14087-0.02737 0.29301 0.05546 0.41597 0.07488 0.11114 0.18902 0.18335 0.3227 0.20412 0.03274 5e-3 0.10307 5e-3 0.13633 1.8e-4z" opacity="1" stroke-linejoin="round" stroke-width=".056607"/>
      <path d="m80.804 191.72c-0.0077-4e-3 -0.01924-0.0136-0.0226-0.0202-0.0044-9e-3 -0.02477-0.10498-0.02709-0.12844l-0.0012-0.0123-0.0435-1e-3c-0.02392-5.3e-4 -0.04698-2e-3 -0.05124-3e-3l-0.0077-1e-3 -0.0012 0.012c-0.0012 0.0118-0.03373 0.11203-0.04113 0.12669-0.0042 8e-3 -0.01686 0.018-0.02716 0.0208-0.0101 3e-3 -0.02116 7.9e-4 -0.04446-7e-3 -0.03623-0.0122-0.04542-0.021-0.04686-0.045-7.94e-4 -0.0133-2.22e-4 -0.0153 0.01753-0.0676 0.01807-0.0531 0.02317-0.0659 0.02872-0.0722 0.0026-3e-3 0.0019-4e-3 -7e-3 -9e-3 -0.0149-8e-3 -0.04511-0.0269-0.05626-0.035l-0.0099-7e-3 -3e-3 7e-3c-0.0021 5e-3 -0.01069 0.0147-0.02885 0.0318-0.03529 0.0332-0.06437 0.0593-0.07142 0.0643-0.0088 6e-3 -0.02138 8e-3 -0.03331 6e-3 -0.0093-2e-3 -0.01148-4e-3 -0.031-0.0234-0.01178-0.012-0.02278-0.025-0.02506-0.0297-0.0047-0.01-0.0054-0.0267-0.0015-0.0362 0.0044-0.0105 0.09094-0.0912 0.10664-0.0994 0.0024-1e-3 0.0042-3e-3 0.0042-4e-3 0-8e-4 -0.0057-0.011-0.01257-0.0222-0.01289-0.0208-0.03282-0.0589-0.03282-0.0626 0-3e-3 -8.73e-4 -3e-3 -0.0099 2e-3 -0.0085 4e-3 -0.10856 0.0274-0.1274 0.0293-0.01798 2e-3 -0.03456-7e-3 -0.04238-0.0219-0.0048-9e-3 -0.01325-0.0485-0.01325-0.0613 0-0.019 0.01179-0.0343 0.03074-0.0398 0.02483-7e-3 0.11774-0.0275 0.12599-0.0275 4e-3 0 4e-3 -5.3e-4 4e-3 -0.043l-1e-6 -0.043-0.01277-1.8e-4c-0.01846-1.8e-4 -0.12245-0.0285-0.13624-0.037-9e-3 -6e-3 -0.01738-0.0211-0.0174-0.0322-2.5e-5 -0.0184 0.01229-0.0597 0.02096-0.0702 3e-3 -4e-3 0.0092-8e-3 0.01365-0.0106 0.01469-7e-3 0.02201-6e-3 0.09898 0.0151 0.0406 0.0111 0.04836 0.0137 0.05526 0.0186l0.0052 4e-3 0.01446-0.0287c8e-3 -0.0158 0.02045-0.0379 0.02778-0.0492 0.0073-0.0113 0.01331-0.0207 0.01331-0.0211 0-2.7e-4 -0.0027-1e-3 -0.0059-2e-3 -0.0071-2e-3 -0.02543-0.0187-0.0692-0.0649-0.03228-0.034-0.03823-0.0427-0.03828-0.0561-4.8e-5 -0.0163 3e-3 -0.0215 0.02521-0.0437 0.02284-0.0228 0.02888-0.0268 0.04245-0.0284 0.01968-2e-3 0.02156-8e-4 0.07067 0.0484 0.03038 0.0306 0.04668 0.0485 0.05074 0.0557l6e-3 0.0106 0.01355-9e-3c0.01769-0.0119 0.05164-0.0314 0.06493-0.0373 0.0092-4e-3 0.01034-5e-3 0.0092-9e-3 -0.0063-0.02-0.02261-0.105-0.02481-0.12901-0.0014-0.0149 7.94e-4 -0.0223 0.0096-0.0327 8e-3 -9e-3 0.01716-0.0131 0.04673-0.0186 0.02339-4e-3 0.02823-5e-3 0.03558-3e-3 0.01087 3e-3 0.02163 0.0103 0.02663 0.0184 0.0043 7e-3 0.01144 0.0391 0.0206 0.0924 0.0032 0.0187 0.0063 0.0364 0.0069 0.0393l1e-3 5e-3 0.0933-0.00106 0.0012-0.0142c0.0012-0.0138 0.01357-0.0616 0.02735-0.10591 6e-3 -0.0193 0.0077-0.0226 0.015-0.0297 0.01352-0.013 0.0256-0.0147 0.05402-7e-3 0.04062 0.0104 0.05205 0.0185 0.05651 0.0399 0.0019 9e-3 0.0015 0.0126-0.0026 0.0297-0.0086 0.0356-0.02953 0.1061-0.03343 0.11272-0.0021 4e-3 -0.0036 7e-3 -0.0033 7e-3 3.18e-4 1.8e-4 0.0086 4e-3 0.01841 9e-3 0.02203 0.0111 0.04164 0.0228 0.06206 0.0372 0.0086 6e-3 0.01638 0.0111 0.01732 0.0111 8.73e-4 0 0.0036-4e-3 0.0058-9e-3 0.0043-9e-3 0.02283-0.0261 0.07427-0.0691 0.03155-0.0263 0.03621-0.029 0.05068-0.029 0.01712 0 0.02597 6e-3 0.04571 0.0291 0.01959 0.0233 0.02414 0.0317 0.02409 0.0445-1.01e-4 0.019-0.0075 0.0277-0.06432 0.0756-0.03544 0.0299-0.04311 0.0359-0.0497 0.0389-0.0028 1e-3 -0.0051 3e-3 -0.0051 4e-3s0.0056 0.0111 0.01234 0.0222c0.0068 0.0111 0.01754 0.0312 0.02389 0.0445 0.0063 0.0133 0.01181 0.0246 0.01212 0.025 3.17e-4 2.7e-4 0.0051-1e-3 0.01062-4e-3 0.01052-5e-3 0.03895-0.01 0.10477-0.0183 0.03625-5e-3 0.04195-4e-3 0.05508 6e-3 0.0098 7e-3 0.01464 0.0176 0.01836 0.0397 0.0042 0.0249 0.0039 0.0457-5.82e-4 0.0546-5e-3 0.01-0.0129 0.0167-0.02266 0.0202-0.0099 4e-3 -0.09301 0.0157-0.12005 0.0176l-0.01916 1e-3 5.82e-4 0.0227c5.82e-4 0.0203-0.0015 0.0548-0.0045 0.0757l-0.0012 8e-3 0.01575 2e-3c0.0169 2e-3 0.10604 0.031 0.12449 0.0401 0.0083 4e-3 0.01162 7e-3 0.01655 0.0153 0.0087 0.0146 0.0084 0.0238-0.0024 0.0567-0.0097 0.0296-0.016 0.0385-0.03187 0.0445-0.0132 5e-3 -0.0226 3e-3 -0.08155-0.0161-0.04785-0.0157-0.06348-0.0219-0.07319-0.0287-0.0039-3e-3 -0.0024-5e-3 -0.01488 0.0183-0.0056 0.0104-0.01697 0.0283-0.02516 0.0397-0.0082 0.0115-0.01522 0.0217-0.01562 0.0228-4.5e-4 7.9e-4 0.0034 4e-3 0.0085 6e-3 0.0094 4e-3 0.02392 0.0189 0.06827 0.0686 0.02584 0.029 0.03256 0.0392 0.03371 0.0511 0.0018 0.0185-0.0057 0.0303-0.03424 0.0545-0.01972 0.0167-0.02489 0.0193-0.03852 0.0192-0.01703-5e-5 -0.02351-4e-3 -0.04796-0.0304-0.05114-0.0549-0.06843-0.0757-0.0709-0.0856-6.61e-4 -3e-3 -0.0019-5e-3 -0.0026-5e-3 -6.62e-4 0-0.0073 4e-3 -0.01459 8e-3 -0.02079 0.0128-0.03998 0.0231-0.05746 0.0307-0.0088 4e-3 -0.01673 8e-3 -0.01754 8e-3 -7.93e-4 8e-4 2.21e-4 5e-3 0.0022 0.01 0.0084 0.0192 0.02965 0.12945 0.02685 0.13922-0.0028 0.01-0.0073 0.0167-0.01495 0.0237-6e-3 5e-3 -0.01065 7e-3 -0.02423 0.0106-0.03462 8e-3 -0.04899 9e-3 -0.05853 5e-3zm-0.04415-0.32375c0.10668-0.0181 0.18968-0.0993 0.21106-0.20637 5e-3 -0.0251 0.0045-0.0728-0.0012-0.0988-0.01124-0.0526-0.03528-0.0958-0.07427-0.13344-0.04832-0.0466-0.1097-0.0713-0.17745-0.0713-0.07125 0-0.13563 0.0275-0.18539 0.0793-0.03383 0.0352-0.05599 0.0772-0.06644 0.12601-0.0055 0.0256-6e-3 0.0735-1e-3 0.0984 0.02123 0.10628 0.1052 0.18883 0.20999 0.20644 0.02173 4e-3 0.06292 4e-3 0.08457-5e-5z" opacity="1" stroke-linejoin="round" stroke-width=".056607"/>
      <path d="m87.01 192.03c-0.0053-0.0198-0.01267-0.0394-0.01638-0.0435-0.0061-7e-3 -0.0185-8e-3 -0.13566-8e-3 -0.11602-9e-5 -0.12801-8e-4 -0.12017-7e-3 0.0048-4e-3 0.0773-0.045 0.16112-0.092 0.34712-0.1946 0.48371-0.27481 0.51289-0.30116 0.03038-0.0274 0.04648-0.0757 0.04663-0.13957 7.4e-5 -0.0316-5.3e-4 -0.0335-0.03029-0.09-0.04895-0.093-0.11492-0.19942-0.15189-0.24492-0.02429-0.0299-0.07212-0.049-0.12311-0.0493-0.025-9e-5 -0.03224 2e-3 -0.08847 0.03-0.09774 0.0482-0.54192 0.29644-0.6448 0.36044-0.02392 0.0149-0.05112 0.0295-0.06036 0.0325-0.02106 7e-3 -0.0566 4e-3 -0.07762-6e-3 -0.0204-0.01-0.10004-0.0915-0.1616-0.16589-0.02994-0.0362-0.09717-0.0992-0.28177-0.26416-0.02275-0.0204-0.04579-0.0435-0.05118-0.0515-0.02156-0.0318-0.02339-0.077-0.0045-0.10902 0.0055-9e-3 0.02682-0.042 0.04743-0.0727 0.04538-0.0675 0.09298-0.14667 0.19275-0.3204 0.15685-0.27315 0.19761-0.35195 0.20348-0.39341 0.0052-0.0368-0.0013-0.0794-0.01696-0.10789-0.02132-0.0393-0.1291-0.11372-0.25762-0.17802l-0.07169-0.0359h-0.05242c-0.04866 0-0.05422 8e-4 -0.07737 0.0122-0.04142 0.0204-0.06123 0.0475-0.16757 0.22945-0.12858 0.22003-0.27583 0.49619-0.29479 0.55282-0.01791 0.0535-0.07722 0.0883-0.13326 0.078-0.01315-2e-3 -0.02844-7e-3 -0.03391-0.0108-0.04714-0.0304-0.426-0.12145-0.59535-0.1431-0.07403-9e-3 -0.09496-0.0164-0.11763-0.0391-0.03608-0.0361-0.03418-9e-3 -0.03166-0.44581 0.0021-0.41093 1.87e-4 -0.51745-0.01085-0.53884-0.0084-0.0163-0.06058-0.0666-0.08471-0.0818l-0.01842-0.0116h-0.34855v0.01c0 5e-3 -0.01648-0.0236-0.03656-0.0642-0.02013-0.0406-0.04643-0.0895-0.05848-0.10865l-0.02191-0.0348 0.02437-8e-3c0.04496-0.0141 0.09766-0.0168 0.30609-0.0155l0.20262 1e-3 0.0325 0.0196c0.10722 0.0647 0.19537 0.15745 0.21742 0.22885 0.01913 0.0619 0.0199 0.0832 0.0185 0.48845l-0.0013 0.38417 0.01005 2e-3c0.2015 0.0371 0.47238 0.0996 0.50418 0.11626 0.0049 3e-3 0.01532-0.0139 0.04634-0.074 0.09131-0.17678 0.26696-0.48497 0.33396-0.58597 0.03621-0.0546 0.06517-0.0869 0.10327-0.11511 0.07571-0.0561 0.15154-0.0763 0.26158-0.0696 0.04376 3e-3 0.06335 6e-3 0.09463 0.0166 0.09673 0.0324 0.28772 0.14319 0.37174 0.21564 0.07466 0.0644 0.11435 0.14115 0.12587 0.24355 0.01 0.0886-0.0055 0.15748-0.05874 0.26118-0.05582 0.10873-0.21566 0.38964-0.3113 0.54707-0.04652 0.0766-0.04839 0.0806-0.04093 0.0875 0.0044 4e-3 0.03232 0.0295 0.06225 0.0567 0.11212 0.10163 0.14977 0.13847 0.19674 0.19252 0.02654 0.0305 0.05013 0.0555 0.05241 0.0555 0.0021 0 0.06033-0.0321 0.12899-0.0712 0.32995-0.18821 0.51263-0.28597 0.57014-0.3051 0.09061-0.0302 0.19742-0.0198 0.29407 0.0284 0.06544 0.0327 0.09857 0.065 0.15963 0.15592 0.06865 0.10221 0.16013 0.27514 0.17295 0.32698 0.0096 0.0389 0.0057 0.14764-0.0072 0.20012-0.02405 0.0979-0.07868 0.17283-0.16769 0.23011-0.05478 0.0352-0.47236 0.27524-0.47894 0.27524-7.94e-4 0-0.0057-0.0161-0.01095-0.036z" opacity="1" stroke-width=".010106"/>
      <path d="m83.874 196.97c-0.07297-8e-3 -0.1375-0.043-0.20362-0.10954-0.11057-0.11128-0.11946-0.1631-0.11961-0.69713l-9e-5 -0.35469-0.0431-0.0111c-0.02371-6e-3 -0.08711-0.0246-0.14088-0.0412-0.05377-0.0166-0.09827-0.0294-0.09888-0.0284-5.29e-4 7.9e-4 -0.01717 0.0308-0.03678 0.0662-0.08691 0.15693-0.36796 0.60138-0.41852 0.66184-0.03298 0.0394-0.1022 0.0843-0.16237 0.10515-0.06304 0.0219-0.15321 0.0274-0.2111 0.0131-0.09885-0.0246-0.33522-0.16687-0.42556-0.25622-0.04957-0.049-0.08159-0.10372-0.08863-0.15135l-0.0036-0.0243 0.10648-0.0523c0.05856-0.0288 0.10787-0.053 0.10956-0.0539 0.0017-8e-4 0.0031 0.0205 0.0031 0.0475v0.049l0.02771 0.0284c0.03668 0.0376 0.17728 0.13112 0.25573 0.17012 0.06983 0.0347 0.10408 0.0393 0.15653 0.0207 0.05738-0.0203 0.07576-0.0439 0.24475-0.31422 0.20405-0.32648 0.24902-0.40603 0.26034-0.46058 4e-3 -0.0189 0.01326-0.0436 0.02069-0.0548 0.0158-0.0238 0.0601-0.0481 0.08767-0.0481 0.01058 0 0.07389 0.0179 0.14065 0.0399 0.06676 0.0219 0.15797 0.0498 0.20268 0.062 0.18478 0.0502 0.1942 0.0545 0.2237 0.10109l0.0177 0.028-0.0031 0.0862c-0.0016 0.0474-0.0031 0.23172-0.0028 0.40955 5.29e-4 0.42379 0.0065 0.47183 0.06318 0.5163 0.04538 0.0355 0.04023 0.0348 0.23361 0.0369 0.17941 2e-3 0.18036 2e-3 0.21247-0.0129 0.04009-0.0185 0.06549-0.0442 0.09118-0.0924l0.0199-0.0374-0.0071-0.43016c-0.0078-0.47198-0.0088-0.45429 0.02817-0.49289 0.02093-0.0219 0.03312-0.0254 0.16578-0.0474 0.06143-0.0102 0.17783-0.034 0.25866-0.053 0.20495-0.048 0.22958-0.0524 0.25665-0.0463 0.02737 6e-3 0.04911 0.0196 0.06279 0.0387 0.0055 8e-3 0.0454 0.0763 0.08869 0.15252 0.09131 0.16076 0.24835 0.41912 0.32204 0.52981 0.04537 0.0682 0.05495 0.0789 0.085 0.0952 0.02844 0.0155 0.0408 0.0185 0.07698 0.0185 0.04058 4e-5 0.04692-2e-3 0.10816-0.0346 0.07273-0.0387 0.17769-0.10379 0.22441-0.13915 0.04305-0.0326 0.0677-0.0825 0.06773-0.13724 2.1e-5 -0.0478 0.0065-0.0355-0.22983-0.43726-0.08667-0.14735-0.1645-0.28453-0.17295-0.30485-0.01857-0.0446-0.01921-0.0768-0.0021-0.11453 0.01027-0.0227 0.03184-0.0444 0.11035-0.11064 0.05369-0.0453 0.16296-0.14675 0.24282-0.22548 0.07985-0.0787 0.15278-0.14603 0.16206-0.14956 0.0093-4e-3 0.02998-6e-3 0.04602-6e-3 0.02941 0 0.03074 5.3e-4 0.10623 0.0518 0.06553 0.0444 0.48413 0.2767 0.63267 0.35113 0.07992 0.04 0.08145 0.0405 0.13135 0.0405 0.06965 0 0.09451-0.0127 0.13709-0.07 0.06462-0.087 0.15752-0.26885 0.16219-0.31747 4e-3 -0.0424-0.0176-0.10512-0.04445-0.12872-0.04341-0.0381-0.2442-0.15172-0.5515-0.31205-0.07621-0.0397-0.15312-0.0809-0.1709-0.0914l-0.03232-0.0191v-0.23793l0.20873 0.10489c0.18515 0.093 0.20921 0.1068 0.21296 0.12177 0.0068 0.0274 0.01474 0.0324 0.05103 0.0324 0.03078 0 0.04261 5e-3 0.12704 0.0503 0.31532 0.17037 0.36838 0.21937 0.41015 0.37884 0.03029 0.11562 0.0099 0.19567-0.10179 0.39948-0.06062 0.11064-0.09991 0.16661-0.14999 0.21367-0.04981 0.0468-0.08922 0.0688-0.15204 0.0849-0.05911 0.0151-0.15639 0.0163-0.20911 3e-3 -0.05849-0.0152-0.32081-0.15223-0.63093-0.32955l-0.12618-0.0722-0.0924 0.0898c-0.05082 0.0494-0.12707 0.12013-0.16944 0.15724-0.04239 0.0371-0.07641 0.0697-0.07563 0.0724 7.94e-4 3e-3 0.06156 0.1069 0.13507 0.2316 0.17416 0.29542 0.23427 0.40389 0.2468 0.44536 0.01386 0.0459 0.01341 0.14415-7.94e-4 0.19708-0.01561 0.0575-0.05517 0.12983-0.09193 0.16787-0.03484 0.036-0.11471 0.0933-0.2105 0.1508-0.18618 0.11183-0.27646 0.13634-0.3927 0.10661-0.07834-0.02-0.1531-0.0616-0.19369-0.10773-0.03806-0.0433-0.23358-0.35361-0.37268-0.59161-0.03365-0.0576-0.06301-0.10656-0.06524-0.10885-0.0021-2e-3 -0.04283 5e-3 -0.09027 0.0168-0.04742 0.0115-0.09525 0.0224-0.10628 0.0242-0.01103 2e-3 -0.05399 0.01-0.09546 0.0181-0.04146 8e-3 -0.08579 0.0166-0.09849 0.0188-0.01857 3e-3 -0.02304 7e-3 -0.02297 0.0175 7.4e-5 7e-3 0.0028 0.10642 0.0059 0.21989s0.0064 0.28808 0.0071 0.38802l0.0013 0.1817-0.03263 0.0636c-0.05778 0.11249-0.10575 0.16434-0.19238 0.20797-0.07111 0.0358-0.09788 0.0393-0.29438 0.0385-0.09653-2.6e-4 -0.1963-3e-3 -0.22171-6e-3zm1.1109-1.2522c-0.0016-5e-3 -0.0075-7e-3 -0.01262-5e-3 -0.0075 3e-3 -0.0077 5e-3 -7.94e-4 9e-3 0.01228 8e-3 0.01746 7e-3 0.01371-4e-3z" opacity="1" stroke-width=".014292"/>
     </g>
    </g>
   </g>
  </g>
 </g>
</svg>
