<?xml version="1.0" encoding="UTF-8"?>
<svg width="64mm" height="64mm" version="1.1" viewBox="0 0 64 64" xmlns="http://www.w3.org/2000/svg" xmlns:cc="http://creativecommons.org/ns#" xmlns:dc="http://purl.org/dc/elements/1.1/" xmlns:rdf="http://www.w3.org/1999/02/22-rdf-syntax-ns#" xmlns:xlink="http://www.w3.org/1999/xlink">
 <defs>
  <linearGradient id="linearGradient4366" x1="83.645" x2="119.4" y1="193.81" y2="164.33" gradientUnits="userSpaceOnUse" xlink:href="#linearGradient48403"/>
  <linearGradient id="linearGradient48403">
   <stop stop-color="#eb00c2" offset="0"/>
   <stop stop-color="#26fffa" offset="1"/>
  </linearGradient>
  <linearGradient id="linearGradient5402" x1="86.258" x2="117.18" y1="191.48" y2="158.53" gradientTransform="matrix(1.669 0 0 1.669 -68.749 -121.29)" gradientUnits="userSpaceOnUse" xlink:href="#linearGradient48403"/>
  <linearGradient id="linearGradient4358" x1="84.661" x2="118.34" y1="190.39" y2="159.7" gradientTransform="matrix(1.669 0 0 1.669 -68.749 -121.29)" gradientUnits="userSpaceOnUse" xlink:href="#linearGradient48403"/>
  <linearGradient id="linearGradient4362" x1="84.952" x2="118.2" y1="190.61" y2="158.97" gradientTransform="matrix(1.669 0 0 1.669 -68.749 -121.29)" gradientUnits="userSpaceOnUse" xlink:href="#linearGradient48403"/>
  <linearGradient id="linearGradient5388" x1="37.001" x2="79.057" y1="216.61" y2="171.84" gradientTransform="translate(43.935 -11.442)" gradientUnits="userSpaceOnUse" xlink:href="#linearGradient48403"/>
 </defs>
 <metadata>
  <rdf:RDF>
   <cc:Work rdf:about="">
    <dc:format>image/svg+xml</dc:format>
    <dc:type rdf:resource="http://purl.org/dc/dcmitype/StillImage"/>
    <dc:title/>
   </cc:Work>
  </rdf:RDF>
 </metadata>
 <g transform="translate(-70.432 -150.85)">
  <circle cx="102.43" cy="182.85" r="30.984" enable-background="new" fill="#333" stroke="url(#linearGradient5388)" stroke-linecap="round" stroke-width="2.0329" style="paint-order:normal"/>
  <g transform="translate(43.935 -11.442)" enable-background="new" opacity=".97">
   <g stroke-linecap="round">
    <g transform="matrix(.55713 0 0 .55713 -.90258 112.72)" fill="#fff" opacity="1" stroke="#fff" stroke-linejoin="round" stroke-width=".5">
     <path d="m59.928 154.5v-5.2118l6.0136-3.8e-4v10.423l-6.0136 0.00105z" opacity="1"/>
     <path d="m82.382 159.46c-2.0134-0.66372-3.2337-1.4481-4.2511-2.7326-1.6546-2.0891-2.3977-5.3765-1.8978-8.3957 1.0044-6.0658 4.1667-8.5788 10.736-8.5319 3.5095 0.0251 5.4949 0.56821 6.9794 1.9094 0.97438 0.8803 2.1078 2.6195 2.1078 3.2344 0 0.13274-1.0524 0.44514-2.3386 0.69424-1.2862 0.24909-2.529 0.50782-2.7617 0.57495-0.26438 0.0763-0.53802-0.13023-0.72954-0.55057-1.1376-2.4968-6.064-2.1785-7.3605 0.47552-1.0494 2.1481-1.0289 6.49 0.03737 7.9182 1.0052 1.3464 1.8472 1.7454 3.8789 1.8381 1.5971 0.0729 2.1286-0.0171 3.1269-0.53004 1.122-0.57643 1.2027-0.68964 1.2027-1.687v-1.0691l-3.8754-0.157v-3.7184h9.0872v4.1013c0 2.3834 4e-3 2.7499 0.0609 4.3557-1.1947 0.70223-1.5086 0.83658-3.1356 1.6099-2.1084 1.0022-2.1853 1.2172-5.7452 1.2881-2.9423 0.0586-3.8875-0.22069-5.1219-0.6276z" opacity="1"/>
     <path d="m106.97 149.96v-9.7553h16.571v4.009h-10.691v3.4745h9.6217v3.7418h-9.6217v4.2763h10.691v4.009h-16.571z" opacity="1"/>
     <path d="m131.56 149.96v-9.7553l7.8844 2e-3 1.3126 5.144c1.7992 7.0511 1.776 6.9744 2.0268 6.7129 0.21939-0.22874 0.79393-2.1757 2.5136-8.5178l0.86964-3.2072 7.8435-0.148v19.525h-4.8108v-7.6706c0-4.4559-0.099-7.5642-0.23626-7.4167-0.12995 0.13965-0.56627 1.637-0.9696 3.3275-0.40334 1.6905-1.1325 4.5168-1.6204 6.2808s-1.0184 3.7184-1.1789 4.3431l-0.2918 1.1359h-4.2351l-0.30688-1.1359c-0.16879-0.62474-0.53927-1.9778-0.82329-3.0068-0.28402-1.029-0.98449-3.661-1.5566-5.8489-0.57212-2.1879-1.1684-4.1062-1.3252-4.263-0.20175-0.20175-0.28495 1.8376-0.28495 6.9848v7.2697h-4.8108z" opacity="1"/>
    </g>
    <path d="m34.08 195.17c-0.0808-5e-3 -0.11693-0.0196-0.15488-0.0613-0.04194-0.0466-0.0488-0.0698-0.04892-0.16674-1.19e-4 -0.18296 0.01319-0.47835 0.02295-0.50138 0.0072-0.0174 0.0073-0.023 0.0014-0.0247-0.0044-9.1e-4 -0.04468-0.0117-0.08952-0.0196-0.09095-0.0195-0.22684-0.0631-0.30675-0.0979l-0.05266-0.023-0.0042 0.0477c-0.0022 0.0263-0.0078 0.0549-0.01269 0.064-0.0048 8e-3 -0.07512 0.11299-0.15652 0.23172-0.15713 0.22895-0.17278 0.24661-0.23438 0.26492-0.04216 0.0133-0.07179 0.0117-0.11237-2e-3 -0.03475-0.0133-0.19162-0.1185-0.22174-0.15038-0.04604-0.0488-0.06043-0.13334-0.03308-0.19492 0.01586-0.0357 0.27565-0.41762 0.30682-0.4512 0.01134-0.0133 0.03282-0.0294 0.048-0.0382l0.02762-0.0174-0.09014-0.0878c-0.04957-0.0482-0.11087-0.11299-0.13619-0.14386l-0.04607-0.0563-0.01385 0.0316c-0.0077 0.0174-0.02412 0.0416-0.0365 0.0539-0.02455 0.0246-0.45514 0.27548-0.49568 0.28884-0.03844 0.0133-0.10823 6e-3 -0.14268-0.015-0.0425-0.0252-0.06423-0.0519-0.11873-0.14687-0.06005-0.10448-0.06656-0.12301-0.06312-0.17927 3e-3 -0.051 0.01848-0.0865 0.05131-0.11933 0.01286-0.0133 0.11958-0.0784 0.23712-0.14603 0.27816-0.15973 0.25074-0.14671 0.31018-0.14688l0.05039-9e-5 -0.0099-0.023c-0.02803-0.0654-0.05858-0.15839-0.08101-0.24677-0.02196-0.0865-0.02655-0.0984-0.0372-0.0956-0.0067 2e-3 -0.14395 2e-3 -0.305 2e-3l-0.29284 2.3e-4 -0.0329-0.0174c-0.04192-0.0222-0.071-0.0527-0.09014-0.0943-0.01419-0.0307-0.01519-0.0412-0.01519-0.15804 0-0.10632 0.0019-0.12951 0.01218-0.15472 0.01848-0.0454 0.05262-0.0824 0.09492-0.10314l0.03777-0.0195 0.2698 2e-3c0.14841 9e-4 0.2793 2e-3 0.2909 6e-3 0.02426 5e-3 0.02151 0.0117 0.03835-0.0965 0.01369-0.0873 0.04784-0.2213 0.07761-0.30435l0.02298-0.0641h-0.02151c-0.039 0-0.07395-0.0174-0.29614-0.15121-0.23561-0.14153-0.26237-0.16255-0.2827-0.22212-0.01218-0.0357-0.01319-0.0735-3e-3 -0.11032 0.01201-0.0434 0.11633-0.21143 0.14939-0.24067 0.0457-0.0402 0.10965-0.0547 0.169-0.0382 0.01452 5e-3 0.12766 0.0677 0.25155 0.14186 0.16891 0.10085 0.23166 0.14187 0.25095 0.16389l0.02573 0.0294 0.04843-0.0576c0.06243-0.0743 0.16713-0.17776 0.2346-0.2318l0.05309-0.0426-0.03526-0.0332c-0.03074-0.0289-0.05065-0.0618-0.15526-0.25687-0.1218-0.22711-0.13749-0.26211-0.13749-0.30679 0-0.0397 0.02483-0.097 0.05534-0.12685 0.03588-0.0354 0.20685-0.12666 0.25412-0.13569 0.06991-0.0133 0.14612 0.0196 0.18612 0.0815 0.03027 0.0466 0.24116 0.4399 0.2519 0.47003 0.0048 0.0133 0.0089 0.0337 0.0089 0.0449l2.42e-4 0.0217 0.10035-0.0325c0.05519-0.0174 0.14652-0.0418 0.20294-0.0527l0.10259-0.0195-0.03392-0.0604-0.0019-0.2821c-0.0017-0.25044-7.26e-4 -0.28588 0.0092-0.31555 0.01436-0.043 0.0586-0.0906 0.10318-0.11082 0.03218-0.015 0.04209-0.015 0.15935-0.015 0.1207 0 0.12629 3.6e-4 0.16126 0.0174 0.0456 0.0217 0.07673 0.0524 0.09675 0.0959l0.01569 0.0341-0.0019 0.28836-0.0019 0.28839-0.01674 0.0297-0.01672 0.0297 0.08592 0.015c0.096 0.0174 0.2371 0.0556 0.31502 0.0861 0.02827 0.0117 0.05272 0.0195 0.05427 0.0195 0.0016 0 0.0028-8e-3 3e-3 -0.0174 1.03e-4 -0.0288 0.02254-0.0704 0.15687-0.29119 0.13489-0.22177 0.15989-0.25334 0.21596-0.27246 0.04505-0.015 0.09763-0.0133 0.13711 5e-3 0.05065 0.0238 0.18542 0.10849 0.20766 0.13051 0.04291 0.043 0.06282 0.11967 0.04657 0.17972-0.01084 0.0404-0.27259 0.46902-0.30378 0.49756-0.01436 0.0133-0.02614 0.0252-0.02614 0.027 0 2e-3 0.02858 0.0278 0.06351 0.0582 0.07028 0.0613 0.16658 0.16473 0.22679 0.24382l0.03922 0.0516 0.03759-0.0377c0.03592-0.036 0.04843-0.0429 0.28108-0.14921 0.2402-0.11015 0.24411-0.11165 0.28955-0.11182 0.03753-1.1e-4 0.05308 2e-3 0.08377 0.0174 0.02065 0.0117 0.04643 0.0291 0.05713 0.0422 0.01068 0.0133 0.041 0.0698 0.06739 0.12617 0.03966 0.085 0.0484 0.10982 0.05053 0.1432 0.0036 0.0596-0.01235 0.1023-0.05427 0.1437-0.03041 0.03-0.05643 0.0434-0.26888 0.14036-0.1542 0.0704-0.24887 0.10998-0.27486 0.11466-0.03091 6e-3 -0.03881 8e-3 -0.03585 0.0174 0.02881 0.0751 0.07152 0.26065 0.08353 0.36291 0.0065 0.0559 0.0094 0.0654 0.01804 0.0618 0.04649-0.0195 0.08106-0.0224 0.34604-0.0224h0.27037l0.03412 0.0174c0.04401 0.0219 0.08418 0.0676 0.09682 0.11015 0.01419 0.0476 0.01386 0.2535-5.01e-4 0.29531-0.01369 0.0402-0.04643 0.0771-0.08942 0.10084l-0.03526 0.0195-0.26981 5e-3c-0.28514 5e-3 -0.30967 2e-3 -0.35636-0.0244l-0.02734-0.015-0.01101 0.051c-0.02523 0.11583-0.07187 0.25965-0.11431 0.35287-0.01134 0.0247-0.02065 0.0477-0.02065 0.0511 0 2e-3 0.0095 6e-3 0.02129 6e-3 0.01168 8e-5 0.03388 6e-3 0.04915 0.0133 0.04791 0.0217 0.44035 0.28887 0.46583 0.31705 0.04172 0.0463 0.05689 0.10449 0.04261 0.16407-8e-3 0.0339-0.10521 0.19057-0.14373 0.23204-0.04089 0.0441-0.12405 0.0669-0.18404 0.0505-0.01783-5e-3 -0.11374-0.0646-0.25485-0.15855-0.1974-0.13168-0.22922-0.15522-0.24859-0.18406l-0.02221-0.033-0.0454 0.048c-0.06395 0.0678-0.12359 0.12133-0.20455 0.18384-0.06202 0.0477-0.06853 0.0547-0.0574 0.0609 7e-3 5e-3 0.02589 0.0195 0.04218 0.0369 0.02447 0.0249 0.0502 0.0721 0.14779 0.27248l0.11816 0.24247-4.99e-4 0.0447c-5.88e-4 0.0566-0.02373 0.10749-0.06393 0.14037-0.01519 0.0133-0.0721 0.0444-0.12624 0.0707-0.09722 0.0474-0.09905 0.048-0.15108 0.048-0.04599 0-0.05706-2e-3 -0.08776-0.0195-0.01935-0.0117-0.0425-0.0282-0.05157-0.0391-0.0092-0.0117-0.06996-0.1265-0.13534-0.25695-0.11559-0.23082-0.11893-0.23866-0.12207-0.28543-0.0028-0.0409-0.0048-0.0474-0.01385-0.0439-0.05746 0.0225-0.25028 0.0691-0.32863 0.0793-0.03412 5e-3 -0.0349 5e-3 -0.02963 0.0217 0.0064 0.0196 0.0039 0.32936-0.0036 0.48441-0.0058 0.12-0.01435 0.1482-0.05747 0.19055-0.05272 0.0518-0.10643 0.0613-0.28551 0.0504zm0.29811-1.4583c0.4481-0.0596 0.80692-0.40173 0.89056-0.84905 0.01718-0.0921 0.01718-0.28297 0-0.37509-0.07988-0.42725-0.40435-0.75396-0.83445-0.84025-0.10663-0.0217-0.28566-0.0217-0.39191-1e-4 -0.41154 0.0826-0.73694 0.39972-0.82453 0.80362-0.05181 0.23885-0.02107 0.47799 0.08923 0.69598 0.16182 0.31965 0.46222 0.5263 0.82893 0.57028 0.05022 6e-3 0.17782 2e-3 0.24218-6e-3z" fill="#fff" opacity="1" stroke="#fff" stroke-linejoin="round" stroke-width=".012436"/>
    <g transform="matrix(1.302 0 0 1.302 -73.44 -33.085)" fill="url(#linearGradient4366)" stroke="url(#linearGradient4366)">
     <path d="m91.447 187.82c-2.5518-0.31842-4.2735-1.7052-5.1678-4.1627-0.45267-1.2439-0.6463-2.4504-0.68248-4.2528-0.03196-1.5925 0.0596-2.864 0.33436-4.6425 0.23994-1.5532 0.50597-2.6943 1.2301-5.2766 0.8209-2.9275 1.3394-4.5721 1.8465-5.8566 1.3606-3.4465 2.9526-5.1486 5.2697-5.6345 0.47534-0.0997 1.6367-0.0973 2.2036 5e-3 1.5403 0.27649 3.5948 1.1001 4.9183 1.9716 0.64013 0.42152 1.3599 1.1312 1.6893 1.6656 0.70314 1.1408 0.82627 2.4618 0.38844 4.1679-0.31214 1.2164-0.91344 2.6558-2.1037 5.036-1.1543 2.3082-1.6045 3.4533-1.8284 4.6498-0.06292 0.33652-0.06949 0.55702-0.05188 1.7791 0.04209 2.9402 0.02469 4.6271-0.05355 5.2071-0.22519 1.6672-0.74174 2.8083-1.6713 3.6921-0.90158 0.85723-2.1274 1.3615-3.8749 1.594-0.57871 0.077-2.0202 0.11116-2.4462 0.0581z" fill="none" opacity="1" stroke="url(#linearGradient5402)" stroke-linejoin="round" stroke-width=".85579"/>
     <g>
      <path d="m97.366 169.22c-0.04832-0.017-0.13776-0.0929-0.15976-0.13552-8e-3 -0.015-0.0214-0.0684-0.02964-0.1175-0.02442-0.14487-0.06734-0.62387-0.06931-0.77342l-0.0017-0.13836-0.0657-5e-3c-0.18371-0.0167-0.28124-0.0297-0.4195-0.058-0.23687-0.0488-0.2122-0.0513-0.2267 0.0225-0.01302 0.0662-0.04074 0.13302-0.16756 0.40399-0.13682 0.29229-0.2181 0.44887-0.251 0.48358-0.07402 0.0781-0.19283 0.10899-0.29498 0.077-0.09092-0.0288-0.33196-0.15038-0.3755-0.1897-0.06512-0.059-0.08932-0.11816-0.08932-0.2192v-0.0859l0.11494-0.24765c0.1553-0.33456 0.24919-0.52086 0.29229-0.57988 0.02992-0.0408 0.03338-0.0505 0.02066-0.0577-0.03521-0.0197-0.18197-0.12834-0.27018-0.20006-0.20797-0.169-0.19473-0.16005-0.2072-0.13919-0.04297 0.072-0.0952 0.11766-0.32576 0.28534-0.28232 0.20526-0.41301 0.29514-0.47689 0.32803-0.03697 0.0191-0.05503 0.0217-0.1213 0.0177-0.12888-8e-3 -0.18604-0.0515-0.32551-0.24884-0.10424-0.14753-0.1213-0.18492-0.1213-0.26561 0-0.096 0.02816-0.16672 0.08877-0.22313 0.05556-0.0518 0.4906-0.37184 0.62654-0.4611 0.05115-0.0335 0.10902-0.0665 0.12856-0.0727 0.01957-6e-3 0.03554-0.0175 0.03554-0.0247 0-6e-3 -0.03358-0.0829-0.07465-0.16854-0.04108-0.0856-0.09863-0.22089-0.12791-0.30062-0.02927-0.0798-0.05955-0.14736-0.06722-0.15036-0.0077-3e-3 -0.03997 2e-3 -0.07171 0.0104-0.06775 0.0189-0.2078 0.0374-0.54678 0.0723-0.32336 0.0332-0.38591 0.0332-0.45389-7e-4 -0.06375-0.0317-0.13978-0.11383-0.15381-0.1659-0.01998-0.0743-0.04181-0.24874-0.04363-0.34882-0.0017-0.0899 8.37e-4 -0.10731 0.0243-0.15671 0.03504-0.0744 0.06821-0.11166 0.12886-0.1447 0.04313-0.0235 0.07652-0.0304 0.22575-0.0474 0.32251-0.0364 0.59887-0.0606 0.69233-0.0606l0.09264-1e-5 6e-3 -0.0782c0.01168-0.15154 0.0374-0.38231 0.05007-0.4487l0.01285-0.0671-0.06963-6e-3c-0.08197-8e-3 -0.15296-0.033-0.57532-0.202-0.30507-0.122-0.31852-0.12851-0.36313-0.17627-0.0571-0.0611-0.07995-0.10782-0.08724-0.17824-0.0065-0.0637 5e-3 -0.11549 0.05449-0.24118 0.05131-0.13052 0.10119-0.22918 0.13242-0.26191 0.01469-0.015 0.05386-0.0416 0.0869-0.0581 0.11683-0.0584 0.15758-0.0486 0.69444 0.16704 0.288 0.11567 0.31162 0.12668 0.36567 0.17009 0.02085 0.0167 0.03937 0.0285 0.04121 0.0262 0.0017-2e-3 0.02755-0.0452 0.05716-0.0951 0.08588-0.14504 0.21479-0.32303 0.32357-0.44681 0.03321-0.0377 0.06046-0.074 0.06057-0.0804 9.4e-5 -6e-3 -0.01956-0.0232-0.04363-0.0374-0.02408-0.0133-0.05941-0.043-0.07847-0.0641-0.08363-0.0928-0.47662-0.61157-0.52296-0.69038-0.02263-0.0385-0.02662-0.0569-0.02623-0.12133 8.35e-4 -0.13502 0.03221-0.18209 0.21666-0.32496 0.17018-0.13184 0.19245-0.14318 0.28863-0.14836 0.14914-8e-3 0.18366 0.0216 0.49059 0.41763 0.22511 0.29048 0.27789 0.36627 0.29223 0.41954 6e-3 0.0222 0.01502 0.0404 0.01993 0.0404 5e-3 0 0.06511-0.0288 0.13355-0.0637 0.14375-0.0737 0.31804-0.14805 0.43448-0.18567l0.08114-0.0263-0.0067-0.0316c-0.02191-0.10251-0.04809-0.39694-0.06608-0.7431-0.01269-0.24435-0.0064-0.27665 0.06953-0.35783 0.08205-0.0878 0.13779-0.10334 0.41094-0.11482 0.17354-6e-3 0.20797 1e-3 0.2871 0.0729 0.06474 0.0584 0.08903 0.10815 0.1011 0.20666 0.01021 0.0838 0.06135 0.76591 0.06135 0.81926v0.0269l0.12354 6e-3c0.14527 8e-3 0.34055 0.0321 0.43052 0.0524 0.03509 8e-3 0.06764 0.015 0.07233 0.015 0.0047 0 0.01185-0.0239 0.01569-0.053 0.0039-0.0292 0.02201-0.094 0.04019-0.14404 0.06684-0.18452 0.21989-0.55927 0.27324-0.66902 0.06009-0.12368 0.08696-0.15205 0.17613-0.18588 0.0958-0.0364 0.15288-0.026 0.39867 0.0724 0.16506 0.0661 0.23896 0.14003 0.26011 0.26004 0.01502 0.0829 0.0017 0.12735-0.13686 0.47593-0.15839 0.39786-0.18304 0.45416-0.2186 0.49843-0.01702 0.0211-0.02871 0.0422-0.02603 0.0466 0.0017 5e-3 0.04507 0.0324 0.09413 0.0621 0.11566 0.0701 0.28343 0.19654 0.422 0.31795 0.06076 0.0532 0.11382 0.0968 0.11766 0.0968 0.0033 0 0.01-0.0104 0.01336-0.0227 0.01669-0.0623 0.14103-0.15956 0.56751-0.44184 0.26262-0.17378 0.26479-0.17485 0.35856-0.17532 0.13885-6.8e-4 0.19415 0.0401 0.33423 0.24684 0.10833 0.15989 0.12051 0.18814 0.12068 0.28241 2.6e-4 0.0904-0.0283 0.15922-0.0888 0.21383-0.10042 0.0908-0.71851 0.50006-0.77775 0.51507-0.02792 6e-3 -0.04302 0.0167-0.04302 0.0269 0 8e-3 0.02688 0.0731 0.05969 0.14286 0.05959 0.1265 0.14286 0.34327 0.17776 0.46289 0.01042 0.0347 0.02334 0.0631 0.02959 0.0631 6e-3 0 0.0355-0.0104 0.0657-0.0208 0.0728-0.0277 0.24147-0.0384 0.65795-0.0419 0.32557-2e-3 0.32893-2e-3 0.3763 0.0207 0.0634 0.0311 0.13334 0.11016 0.15554 0.17625 0.015 0.0432 0.0178 0.0899 0.0183 0.25999 2.8e-4 0.19726-2.7e-4 0.20931-0.0225 0.25059-0.0288 0.0536-0.0912 0.11534-0.14037 0.13887-0.0611 0.0289-0.17931 0.0364-0.61179 0.0383l-0.41145 2e-3 -5e-3 0.0555c-0.0216 0.2075-0.0413 0.34472-0.0673 0.46888-0.04844 0.23062-0.04969 0.20435 0.0117 0.21247 0.0677 8e-3 0.13185 0.0335 0.37907 0.14503 0.31888 0.14387 0.49256 0.22922 0.52877 0.25997 0.0183 0.015 0.0468 0.0518 0.0631 0.0801 0.026 0.0454 0.0297 0.0616 0.0297 0.13386 1e-4 0.0984-8e-3 0.12601-0.10147 0.31407-0.0754 0.15287-0.10209 0.18473-0.19066 0.22634-0.0372 0.0175-0.0596 0.0205-0.12668 0.0174-0.0743-3e-3 -0.0949-0.0104-0.23308-0.0702-0.36798-0.16139-0.5989-0.27362-0.66252-0.32205-0.03605-0.0274-0.06844-0.0499-0.0723-0.0501-0.0031-1.9e-4 -0.03542 0.0394-0.07032 0.0881-0.09147 0.12767-0.16256 0.21594-0.26887 0.33389-0.05157 0.0571-0.09363 0.10748-0.09363 0.11182 0 5e-3 0.01802 0.015 0.03989 0.0253 0.05374 0.0238 0.11316 0.0909 0.26964 0.30556 0.33113 0.45395 0.3574 0.49775 0.35755 0.59629 9.4e-5 0.0933-0.02417 0.15171-0.09032 0.2166-0.07063 0.0691-0.29072 0.22335-0.3417 0.23929-0.07094 0.0222-0.15288 0.0167-0.22046-0.015-0.0741-0.035-0.08929-0.0524-0.28414-0.32228-0.2675-0.37061-0.32537-0.4594-0.33852-0.51935-0.0067-0.0299-0.01502-0.0577-0.01852-0.0621-0.0033-5e-3 -0.05408 0.015-0.11199 0.0441-0.13602 0.0669-0.2756 0.123-0.43163 0.17343-0.10368 0.0336-0.12365 0.0432-0.11783 0.0569 0.03358 0.0791 0.11574 0.85311 0.10278 0.96818-0.01201 0.10681-0.10525 0.22077-0.20195 0.24681-0.05933 0.0167-0.28297 0.0397-0.36651 0.0389-0.03894-2.8e-4 -0.08998-6e-3 -0.11346-0.0167zm0.08314-2.2932c0.60103-0.0901 1.0938-0.45551 1.3594-1.0078 0.196-0.40759 0.22503-0.88724 0.08028-1.3271-0.04189-0.12717-0.15855-0.35687-0.23633-0.46499-0.26987-0.37532-0.65625-0.62567-1.1175-0.72407-0.09129-0.0195-0.13796-0.0227-0.33357-0.0233-0.20156-2.6e-4 -0.24066 2e-3 -0.34368 0.0233-0.64 0.13202-1.1489 0.57569-1.3532 1.1795-0.18012 0.53244-0.10345 1.1074 0.20962 1.5722 0.283 0.42008 0.71442 0.69299 1.2196 0.77149 0.12375 0.0192 0.38957 0.0197 0.51525 7e-4z" fill="url(#linearGradient4358)" opacity="1" stroke="url(#linearGradient4358)" stroke-linejoin="round" stroke-width=".21395"/>
      <path d="m92.058 170.92c-0.02914-0.0133-0.07272-0.0515-0.08541-0.0762-0.01677-0.0324-0.09361-0.39678-0.10239-0.48545l-0.0047-0.0467-0.1644-5e-3c-0.09042-2e-3 -0.17757-6e-3 -0.19368-0.0104l-0.02927-5e-3 -0.0047 0.0454c-0.0045 0.0447-0.12749 0.42342-0.15545 0.47881-0.01586 0.0314-0.06372 0.0681-0.10266 0.0785-0.03817 0.0104-0.07998 3e-3 -0.16803-0.0258-0.13694-0.046-0.17165-0.0795-0.1771-0.17004-3e-3 -0.0501-8.37e-4 -0.0579 0.06624-0.25534 0.06828-0.20058 0.08757-0.24908 0.10857-0.27298 0.0097-0.0117 0.0073-0.0133-0.02653-0.0322-0.05631-0.0304-0.1705-0.10147-0.21266-0.13236l-0.03748-0.0275-0.01134 0.0283c-8e-3 0.02-0.04039 0.0557-0.10903 0.12016-0.13337 0.12534-0.2433 0.2243-0.26992 0.24306-0.03324 0.0233-0.0808 0.0319-0.12591 0.0225-0.03509-6e-3 -0.04339-0.0133-0.11715-0.0885-0.04453-0.0452-0.0861-0.0946-0.0947-0.11232-0.01793-0.0371-0.02054-0.10095-0.0056-0.13669 0.01652-0.0396 0.34371-0.34459 0.40305-0.37575 0.0089-5e-3 0.01602-0.0117 0.01602-0.015 0-3e-3 -0.0214-0.0416-0.04752-0.0838-0.04871-0.0788-0.12404-0.22248-0.12404-0.23675 0-0.0117-0.0033-0.0104-0.03726 6e-3 -0.03196 0.0167-0.41029 0.10335-0.4815 0.11082-0.06794 6e-3 -0.13063-0.0253-0.16017-0.0829-0.01811-0.0354-0.05009-0.18323-0.05009-0.23165 0-0.072 0.04455-0.12968 0.11618-0.15055 0.09385-0.0272 0.44498-0.10376 0.47619-0.10376 0.01502 0 0.01519-2e-3 0.01519-0.16255l-4e-6 -0.16256-0.04825-6.9e-4c-0.06978-6.9e-4 -0.46281-0.10781-0.51492-0.14002-0.03385-0.0208-0.06567-0.0798-0.06576-0.12151-9.4e-5 -0.0694 0.04646-0.22552 0.07922-0.26526 0.01135-0.0133 0.03467-0.0319 0.05161-0.0401 0.05551-0.0269 0.08318-0.0227 0.37411 0.0569 0.15346 0.0419 0.18276 0.0519 0.20887 0.0704l0.01965 0.0133 0.05466-0.10849c0.03008-0.0597 0.07731-0.1432 0.105-0.18578 0.02769-0.0426 0.05032-0.0784 0.05032-0.0798 0-1e-3 -0.01021-5e-3 -0.02242-8e-3 -0.02687-6e-3 -0.09611-0.0707-0.26155-0.24524-0.12198-0.12868-0.14448-0.16156-0.14468-0.21201-1.83e-4 -0.0616 0.01118-0.0813 0.09528-0.16522 0.08632-0.0862 0.10917-0.10147 0.16044-0.10749 0.07438-8e-3 0.08148-3e-3 0.26708 0.18287 0.11483 0.1155 0.17644 0.18314 0.19178 0.21033l0.02259 0.04 0.05123-0.0346c0.06684-0.0451 0.19517-0.11882 0.2454-0.14102 0.03492-0.015 0.03907-0.0195 0.0347-0.0333-0.0237-0.0756-0.08547-0.39684-0.09378-0.48759-0.0052-0.0563 3e-3 -0.0843 0.03625-0.12368 0.03018-0.0358 0.06484-0.0496 0.17662-0.0702 0.08839-0.0167 0.10672-0.0177 0.13449-0.0104 0.04108 0.0104 0.08175 0.0388 0.10064 0.0695 0.01619 0.026 0.04322 0.14771 0.07786 0.34935 0.01219 0.0707 0.02389 0.13753 0.02605 0.14837l0.0039 0.0199 0.35262-4e-3 0.0047-0.0535c0.0047-0.0521 0.05127-0.23271 0.10337-0.40028 0.0226-0.0728 0.02914-0.0856 0.05668-0.11215 0.05109-0.0493 0.09674-0.0554 0.20417-0.0278 0.15353 0.0392 0.19674 0.0698 0.21358 0.15087 7e-3 0.0339 0.0058 0.0476-0.0099 0.11215-0.03251 0.13436-0.11159 0.40098-0.12634 0.42601-8e-3 0.0133-0.01369 0.0255-0.01252 0.0266 0.0012 7e-4 0.03248 0.017 0.06958 0.0355 0.08327 0.0418 0.15737 0.0862 0.23457 0.14053 0.03248 0.023 0.06193 0.0418 0.06548 0.0418 0.0033 0 0.01352-0.015 0.022-0.0322 0.01635-0.0339 0.0863-0.0988 0.28072-0.26099 0.11926-0.0995 0.13684-0.10948 0.19153-0.10948 0.0647 0 0.09816 0.0213 0.17276 0.10998 0.07405 0.0879 0.09126 0.11967 0.09104 0.16814-3.84e-4 0.0718-0.02829 0.10465-0.2431 0.28572-0.13394 0.11282-0.16294 0.13551-0.18785 0.14686-0.01051 5e-3 -0.01921 0.0117-0.01921 0.0167s0.02101 0.0419 0.04666 0.084c0.02567 0.0421 0.06631 0.11783 0.09031 0.1683 0.024 0.0504 0.04463 0.0928 0.04582 0.0943 0.0012 1e-3 0.01926-5e-3 0.04014-0.015 0.03975-0.0191 0.1472-0.0379 0.39599-0.0691 0.13699-0.0172 0.15854-0.015 0.20818 0.0208 0.03705 0.0269 0.05534 0.0665 0.06938 0.1502 0.01586 0.0943 0.01485 0.17274-0.0022 0.20631-0.01883 0.0366-0.04875 0.0632-0.08563 0.0762-0.03732 0.0133-0.35153 0.0593-0.45374 0.0666l-0.07241 5e-3 0.0022 0.0857c0.0022 0.0768-0.0058 0.20708-0.01713 0.28602l-0.0044 0.0288 0.05954 8e-3c0.06389 8e-3 0.40077 0.11732 0.47052 0.15138 0.03152 0.015 0.04391 0.0269 0.06254 0.058 0.03307 0.0552 0.03163 0.0898-0.0092 0.21433-0.03664 0.11199-0.06046 0.14537-0.12047 0.16825-0.0499 0.0191-0.0854 0.0117-0.30822-0.061-0.18087-0.0594-0.23992-0.0826-0.27663-0.10849-0.01469-0.0104-0.0092-0.0172-0.05622 0.0693-0.02135 0.0393-0.06414 0.10681-0.09508 0.15003-0.03094 0.0434-0.05751 0.082-0.05905 0.086-0.0017 3e-3 0.01286 0.015 0.0321 0.0232 0.03565 0.0167 0.0904 0.0715 0.25802 0.25918 0.09766 0.10948 0.12305 0.14803 0.12741 0.19318 0.0067 0.0698-0.02153 0.11466-0.12943 0.20585-0.07452 0.0631-0.09409 0.0728-0.1456 0.0726-0.06436-1.9e-4 -0.08886-0.015-0.18127-0.11483-0.19331-0.20736-0.25863-0.28621-0.26797-0.32341-0.0025-0.0104-7e-3 -0.0191-0.0097-0.0191-0.0025 0-0.02752 0.0133-0.05513 0.0308-0.07858 0.0484-0.15113 0.0871-0.21717 0.11582-0.03341 0.015-0.06323 0.0288-0.06628 0.0314-3e-3 3e-3 8.35e-4 0.0194 0.0083 0.0367 0.03171 0.0724 0.11207 0.48923 0.10149 0.52616-0.01051 0.0363-0.02742 0.0632-0.05649 0.0896-0.02281 0.0207-0.04027 0.0282-0.09159 0.0402-0.13085 0.0304-0.18515 0.0352-0.22121 0.0195zm-0.16688-1.2236c0.40321-0.0686 0.71689-0.37523 0.79772-0.78 0.01896-0.0948 0.01694-0.27498-0.0044-0.37361-0.04249-0.19882-0.13335-0.36205-0.28071-0.50432-0.18264-0.17633-0.41464-0.2696-0.67068-0.2696-0.26928 0-0.51261 0.10397-0.70068 0.29955-0.12788 0.13302-0.21161 0.29177-0.2511 0.47628-0.02066 0.0967-0.02251 0.27771-0.0039 0.3717 0.08023 0.4017 0.3976 0.71369 0.79365 0.78024 0.08211 0.0133 0.23781 0.0133 0.31963-1.9e-4z" fill="url(#linearGradient4358)" opacity="1" stroke="url(#linearGradient4358)" stroke-linejoin="round" stroke-width=".21395"/>
      <path d="m115.51 172.06c-0.02-0.0748-0.0479-0.1487-0.0619-0.16456-0.0232-0.0261-0.0699-0.0289-0.51271-0.0294-0.43849-3.5e-4 -0.48381-3e-3 -0.45418-0.0253 0.0182-0.0133 0.29215-0.17023 0.60898-0.34785 1.312-0.73548 1.8282-1.0386 1.9385-1.1382 0.11483-0.10366 0.17566-0.286 0.17623-0.52749 2.8e-4 -0.11949-2e-3 -0.12667-0.11449-0.34008-0.185-0.35163-0.43435-0.75373-0.57406-0.92568-0.0918-0.11299-0.27258-0.18529-0.46531-0.18621-0.0945-3.5e-4 -0.12184 8e-3 -0.33437 0.11349-0.36941 0.18197-2.0482 1.1204-2.437 1.3623-0.0904 0.0563-0.1932 0.11148-0.22815 0.12266-0.0796 0.0255-0.21392 0.015-0.29337-0.023-0.0771-0.0369-0.3781-0.34582-0.61079-0.62699-0.11315-0.13669-0.36727-0.37497-1.065-0.9984-0.086-0.077-0.17306-0.1644-0.19344-0.19448-0.0815-0.12016-0.0884-0.291-0.0171-0.41206 0.0207-0.0352 0.10136-0.15872 0.17926-0.27465 0.17153-0.25525 0.35144-0.55433 0.72849-1.211 0.59282-1.0324 0.74686-1.3302 0.76904-1.4869 0.0197-0.13919-5e-3 -0.30016-0.0641-0.40779-0.0806-0.14838-0.48793-0.42982-0.97368-0.67282l-0.27094-0.13553h-0.19814c-0.18392 0-0.20493 3e-3 -0.29242 0.0463-0.15655 0.077-0.2314 0.1794-0.63332 0.8672-0.48596 0.83161-1.0425 1.8754-1.1142 2.0894-0.0677 0.20239-0.29184 0.33357-0.50368 0.29486-0.0497-8e-3 -0.10748-0.0274-0.12818-0.0409-0.17816-0.11483-1.6101-0.45902-2.2501-0.54086-0.27979-0.0357-0.35889-0.0621-0.44457-0.1477-0.13636-0.13636-0.12918-0.0347-0.11967-1.685 8e-3 -1.5531 7.1e-4 -1.9557-0.041-2.0365-0.0319-0.0615-0.22895-0.25168-0.32015-0.30905l-0.0696-0.0437h-1.3174v0.0362c0 0.0199-0.0623-0.0893-0.13819-0.24276-0.0761-0.15338-0.17549-0.33824-0.22101-0.41065l-0.0828-0.13169 0.0921-0.0291c0.16994-0.0534 0.36912-0.0634 1.1569-0.0584l0.76579 5e-3 0.12283 0.0741c0.40522 0.24438 0.73841 0.59507 0.82176 0.86495 0.0723 0.23385 0.0752 0.31441 0.0699 1.8461l-5e-3 1.452 0.038 6e-3c0.76157 0.14036 1.7854 0.37649 1.9056 0.43939 0.0187 0.0104 0.0579-0.0527 0.17513-0.27972 0.3451-0.66816 1.009-1.833 1.2622-2.2147 0.13686-0.20642 0.2463-0.3283 0.39033-0.43506 0.28613-0.21212 0.57274-0.2884 0.98864-0.26317 0.16539 0.0104 0.23945 0.023 0.35764 0.0626 0.36558 0.1225 1.0874 0.54121 1.405 0.815 0.2822 0.24331 0.43218 0.53351 0.47573 0.92051 0.0377 0.335-0.0208 0.59523-0.222 0.98714-0.21096 0.41096-0.81509 1.4727-1.1766 2.0677-0.17584 0.28945-0.18288 0.30453-0.15471 0.33092 0.0167 0.015 0.12216 0.11149 0.23529 0.21414 0.42375 0.38411 0.56605 0.52335 0.74357 0.72763 0.10032 0.11533 0.18946 0.20984 0.1981 0.20984 8e-3 0 0.22801-0.12117 0.48753-0.26916 1.247-0.71134 1.9375-1.0808 2.1548-1.1532 0.34248-0.11399 0.74614-0.0749 1.1114 0.10749 0.24732 0.1235 0.37256 0.24577 0.60333 0.58931 0.25947 0.3863 0.60522 1.0399 0.65368 1.2358 0.0364 0.1472 0.0217 0.55803-0.0271 0.75639-0.0909 0.36996-0.29739 0.65319-0.63378 0.86971-0.20703 0.13319-1.7853 1.0402-1.8102 1.0402-3e-3 0-0.0214-0.061-0.0414-0.13585z" fill="url(#linearGradient4362)" opacity="1" stroke="url(#linearGradient4362)" stroke-width=".038195"/>
      <path d="m103.66 190.74c-0.27579-0.0313-0.51967-0.16256-0.7696-0.41403-0.41791-0.42058-0.45151-0.61642-0.45206-2.6348l-3.4e-4 -1.3406-0.1629-0.0419c-0.0896-0.023-0.32924-0.0931-0.53247-0.15588-0.20324-0.0627-0.37143-0.11099-0.37374-0.10732-2e-3 3e-3 -0.0649 0.11633-0.13902 0.25031-0.32846 0.59312-1.3907 2.2729-1.5818 2.5014-0.12467 0.14904-0.38627 0.31849-0.6137 0.39741-0.23828 0.0826-0.57905 0.10376-0.79785 0.0494-0.37362-0.0928-1.267-0.63069-1.6084-0.9684-0.18735-0.18532-0.30838-0.39199-0.33498-0.57202l-0.01352-0.092 0.40245-0.19776c0.22135-0.10883 0.40769-0.20041 0.41409-0.20363 0.0064-3e-3 0.01168 0.0774 0.01168 0.17937v0.18521l0.10474 0.10731c0.13862 0.14203 0.67003 0.49555 0.96653 0.64296 0.26392 0.13118 0.39339 0.14837 0.59162 0.0784 0.21688-0.0766 0.28633-0.16573 0.92505-1.1876 0.77122-1.2339 0.94118-1.5346 0.98396-1.7408 0.015-0.0716 0.0501-0.16474 0.0782-0.20719 0.0597-0.09 0.22713-0.18184 0.33134-0.18184 0.04 0 0.27925 0.0678 0.53159 0.15071 0.25233 0.0829 0.59706 0.18831 0.76604 0.23421 0.69839 0.18973 0.73398 0.20582 0.84547 0.38204l0.0669 0.10582-0.0117 0.32587c-6e-3 0.17922-0.0117 0.87577-0.0104 1.5479 2e-3 1.6017 0.0244 1.7833 0.2388 1.9514 0.17153 0.13435 0.15204 0.13135 0.88295 0.13936 0.67809 6e-3 0.68166 6e-3 0.80305-0.0488 0.15154-0.0698 0.24752-0.16701 0.34461-0.34919l0.0752-0.14136-0.0269-1.6258c-0.0296-1.7838-0.0333-1.717 0.10648-1.8629 0.0791-0.0826 0.12516-0.0958 0.62658-0.17913 0.23219-0.0386 0.67211-0.12868 0.97762-0.20018 0.77462-0.18133 0.86769-0.19813 0.97001-0.17504 0.10344 0.0233 0.18562 0.074 0.23731 0.1462 0.0207 0.0291 0.1716 0.2884 0.3352 0.57645 0.34509 0.6076 0.93864 1.5841 1.2172 2.0024 0.17148 0.25757 0.20768 0.29815 0.32128 0.35995 0.10748 0.0584 0.15421 0.0698 0.29095 0.0698 0.15338 1.8e-4 0.17733-6e-3 0.4088-0.13068 0.2749-0.14638 0.67158-0.39229 0.84815-0.52591 0.16272-0.12318 0.25589-0.31198 0.25597-0.5187 8e-5 -0.18071 0.0246-0.13419-0.86864-1.6526-0.32757-0.5569-0.62171-1.0754-0.65367-1.1522-0.0702-0.16873-0.0726-0.29042-8e-3 -0.43285 0.0388-0.0859 0.12034-0.16788 0.41708-0.41818 0.20293-0.17116 0.61592-0.55466 0.91774-0.85221 0.30181-0.29756 0.57744-0.55193 0.61253-0.56527 0.035-0.0133 0.11332-0.0242 0.17395-0.0242 0.11116 0 0.11617 2e-3 0.40149 0.19567 0.24769 0.16772 1.8298 1.0458 2.3912 1.3271 0.30207 0.15138 0.30783 0.15321 0.49645 0.15321 0.26323 0 0.3572-0.048 0.51814-0.26472 0.24425-0.32886 0.59535-1.0161 0.61301-1.1999 0.015-0.16039-0.0665-0.39729-0.16799-0.4865-0.16405-0.14404-0.92294-0.57344-2.0844-1.1794-0.28805-0.15021-0.57872-0.30567-0.64594-0.34531l-0.12216-0.0721v-0.89926l0.78889 0.39643c0.69977 0.35164 0.79071 0.40365 0.80491 0.46023 0.0258 0.10345 0.0557 0.12235 0.19287 0.12235 0.11633 0 0.16106 0.0177 0.48015 0.19008 1.1918 0.64394 1.3923 0.82915 1.5502 1.4319 0.1145 0.43698 0.0374 0.73952-0.38471 1.5098-0.22913 0.41816-0.37763 0.62971-0.56688 0.80756-0.18827 0.17691-0.3372 0.26004-0.57465 0.32077-0.22341 0.0571-0.59109 0.0618-0.79034 0.0104-0.22105-0.0574-1.2125-0.57535-2.3846-1.2456l-0.47688-0.27268-0.34922 0.33925c-0.19207 0.18661-0.48025 0.45403-0.6404 0.59428-0.16022 0.14019-0.28878 0.2633-0.28586 0.27344 3e-3 0.0104 0.23265 0.40405 0.51051 0.87535 0.65824 1.1166 0.88542 1.5265 0.9328 1.6832 0.0524 0.17351 0.0507 0.54481-3e-3 0.74485-0.059 0.21747-0.20852 0.49073-0.34746 0.63449-0.13168 0.13619-0.43356 0.35251-0.7956 0.56996-0.70369 0.42267-1.0449 0.51528-1.4842 0.40293-0.29608-0.0757-0.57866-0.2329-0.73206-0.40717-0.14386-0.16356-0.88284-1.3365-1.4086-2.236-0.12717-0.21763-0.23814-0.40275-0.24657-0.4114-8e-3 -8e-3 -0.16189 0.0199-0.34117 0.0634-0.17923 0.0434-0.36 0.0845-0.40171 0.0913-0.0417 6e-3 -0.20406 0.0375-0.36078 0.0685-0.15671 0.0308-0.32423 0.0627-0.37225 0.0709-0.0702 0.0117-0.0871 0.0249-0.0868 0.0662 2.8e-4 0.0282 0.0104 0.40222 0.0222 0.83108 0.0117 0.42887 0.0241 1.0888 0.0267 1.4665l5e-3 0.68676-0.12334 0.24027c-0.21838 0.42516-0.3997 0.62116-0.72712 0.78604-0.26875 0.13536-0.36994 0.14854-1.1126 0.14553-0.36485-1e-3 -0.74193-0.0117-0.83795-0.0225zm4.1988-4.7328c-6e-3 -0.0183-0.0285-0.0274-0.0477-0.02-0.0283 0.0117-0.0292 0.017-3e-3 0.033 0.0464 0.0294 0.066 0.0246 0.0518-0.0133z" fill="url(#linearGradient4362)" opacity="1" stroke="url(#linearGradient4362)" stroke-width=".054016"/>
     </g>
    </g>
   </g>
  </g>
 </g>
</svg>
