<?xml version="1.0" encoding="UTF-8"?>
<svg width="67.733mm" height="67.733mm" version="1.1" viewBox="0 0 67.733 67.733" xmlns="http://www.w3.org/2000/svg" xmlns:cc="http://creativecommons.org/ns#" xmlns:dc="http://purl.org/dc/elements/1.1/" xmlns:rdf="http://www.w3.org/1999/02/22-rdf-syntax-ns#" xmlns:xlink="http://www.w3.org/1999/xlink">
 <defs>
  <linearGradient id="linearGradient8217" x1="3624.5" x2="3978.4" y1="7886.8" y2="7886.8" gradientTransform="matrix(.16601 0 0 .16601 -746.01 -1248.1)" gradientUnits="userSpaceOnUse">
   <stop stop-color="#26fffa" offset="0"/>
   <stop stop-color="#eb00c2" offset="1"/>
  </linearGradient>
 </defs>
 <metadata>
  <rdf:RDF>
   <cc:Work rdf:about="">
    <dc:format>image/svg+xml</dc:format>
    <dc:type rdf:resource="http://purl.org/dc/dcmitype/StillImage"/>
    <dc:title/>
   </cc:Work>
  </rdf:RDF>
 </metadata>
 <g transform="translate(148.91 -27.608)">
  <g fill="#333">
   <circle cx="-115.05" cy="61.474" r="33.701" enable-background="new" stroke="#fff" stroke-linecap="square" stroke-width=".33203" style="paint-order:markers stroke fill"/>
   <path d="m-116.65 90.08c-0.1827-0.0181-0.7616-0.0735-1.2867-0.12298-4.5794-0.43182-9.5277-2.2594-13.401-4.9494-2.0355-1.4138-4.6453-3.8426-6.1366-5.711-3.4295-4.2967-5.551-9.4013-6.1924-14.9-0.34-2.915-0.1317-6.5972 0.5434-9.6075 1.6132-7.1925 6.0872-13.641 12.32-17.758 3.7213-2.458 7.6518-3.9089 12.368-4.5658 1.4916-0.20773 5.5785-0.20482 7.097 5e-3 6.2386 0.86232 11.636 3.3756 16.02 7.4606 4.7359 4.412 7.7325 9.8448 8.8705 16.082 0.3386 1.8558 0.4222 2.8938 0.4243 5.2709 0 2.3985-0.093 3.4432-0.5031 5.5199-1.0857 5.4998-3.7244 10.512-7.654 14.539-4.7211 4.8381-10.652 7.7702-17.366 8.5859-0.9874 0.11998-4.3996 0.22061-5.1048 0.15059zm5.0218-0.7506c0.6164-0.0703 1.132-0.13902 1.1458-0.15269 0.014-0.0136-0.106-0.10587-0.2662-0.20489-0.3966-0.24506-1.0158-0.94828-1.1417-1.2965-0.1253-0.3465-0.1948-0.35676-0.3524-0.052-0.2243 0.43382-0.9176 1.1223-1.5436 1.5328l-0.6226 0.40826 0.8301-0.0535c0.4565-0.0294 1.3343-0.11106 1.9506-0.18137zm-3.462-0.19834c1.9919-0.61962 3.289-2.7196 2.9819-4.8272-0.3979-2.7299-3.2279-4.4509-5.7899-3.5209-1.0181 0.36954-1.7056 0.91429-2.2848 1.8104-0.5071 0.78472-0.6174 1.204-0.6174 2.3477 0 1.1439 0.1114 1.5676 0.6153 2.3397 0.7122 1.0914 1.7482 1.7907 2.9955 2.0219 0.5232 0.097 1.4899 0.01791 2.0994-0.17165zm-4.2161-0.0802c-0.379-0.24963-1.1025-0.9924-1.3533-1.3894-0.1231-0.19489-0.2425-0.35321-0.2653-0.35185-0.023 0.0021-0.1433 0.17028-0.2678 0.37535-0.1308 0.21562-0.3836 0.46831-0.5992 0.59918-0.2051 0.12446-0.3741 0.24963-0.3755 0.27817 0 0.0579 0 0.0579 1.6161 0.39871 1.4361 0.30233 1.5838 0.313 1.245 0.0899zm11.042-0.44562c0.8022-0.37353 1.2777-1.0537 1.3479-1.9279 0.1123-1.3993-0.9139-2.4822-2.3457-2.4751-1.2142 6e-3 -2.1491 0.87956-2.2609 2.1125-0.1564 1.7243 1.6891 3.0214 3.2587 2.2904zm2.499-0.58547c2.6547-0.9096 4.9981-2.1148 7.3142-3.7616 0.3998-0.2843 0.839-0.61262 0.9759-0.72961l0.2491-0.21273-0.4509 0.21989c-1.1808 0.57586-2.7479 1.0583-4.1975 1.2923-0.8574 0.1384-3.382 0.13817-4.2197 0-0.3577-0.0592-0.6667-0.0911-0.6869-0.0711-0.02 0.02011 0.064 0.23047 0.1871 0.4675 0.4316 0.83185 0.3528 2.0814-0.1809 2.8678-0.1097 0.16166-0.1679 0.29394-0.1292 0.29394 0.039 0 0.5511-0.16475 1.1388-0.36612zm-16.577-0.10259c1.0193-0.5079 1.2968-1.8406 0.5677-2.7252-0.6331-0.76802-1.8516-0.83536-2.5814-0.14265-0.7611 0.72233-0.7317 2.0087 0.06 2.6405 0.6194 0.49429 1.2668 0.56961 1.9536 0.22736zm-2.8984-0.3927c0-0.0173-0.056-0.16547-0.1246-0.32938-0.1805-0.43224-0.1585-1.3408 0.043-1.7857 0.09-0.19901 0.1642-0.36905 0.1642-0.37787 0-9e-3 -0.3268 0.0348-0.7263 0.0969-1.3675 0.21268-3.3808 0.01209-4.6691-0.46517-0.5438-0.20144-0.4926-0.15906 0.817 0.67572 1.3143 0.8377 4.4954 2.3843 4.4954 2.1855zm-0.2076-3.0733c3.7973-0.81587 6.6506-3.8184 7.2254-7.6032 0.7119-4.6874-2.1927-9.0488-6.8377-10.267-0.7022-0.1842-0.9793-0.21116-2.2138-0.21541-1.2666-4e-3 -1.4933 0.0172-2.2137 0.21054-3.9933 1.0717-6.6756 4.3402-6.9313 8.446-0.092 1.4833 0.2246 3.008 0.9231 4.4409 0.9375 1.923 2.3899 3.3682 4.2944 4.2733 0.7801 0.37064 1.9139 0.71629 2.7202 0.82921 0.7216 0.10107 2.3103 0.0414 3.0334-0.11401zm4.0259-0.12518c0-0.13289 0.071-0.46866 0.157-0.74616 0.094-0.3031 0.1192-0.48003 0.062-0.44317-0.052 0.0338-0.3693 0.24306-0.705 0.46514l-0.6103 0.40377 0.3198 0.14745c0.1758 0.0811 0.3944 0.20638 0.4857 0.27839 0.2373 0.18718 0.2905 0.16788 0.2905-0.10542zm10.983-0.4684 0.4104-0.19017-0.571-0.29417c-0.3141-0.16182-0.7631-0.40826-0.9978-0.54766l-0.4268-0.25347 0.1917 0.47896c0.1055 0.26341 0.237 0.71206 0.2922 0.99699l0.1004 0.51803 0.2952-0.25918c0.1624-0.14256 0.4799-0.34476 0.7057-0.44933zm7.7885 0.4563c2.3319-0.23793 4.5017-1.0159 6.4246-2.3036 5.2108-3.4895 7.4381-10.058 5.4373-16.036-0.3138-0.93755-1.2804-2.8218-1.884-3.6724-0.6059-0.85384-2.0969-2.3642-2.98-3.0188-5.3843-3.9905-12.858-3.614-17.751 0.89416-2.5159 2.3183-4.0495 5.3633-4.4455 8.8267-0.3568 3.1212 0.4777 6.4641 2.3001 9.2137 2.7925 4.2134 7.8633 6.61 12.898 6.0963zm-14.815-4.2715c0.8152-0.17275 1.356-0.15293 2.4321 0.0891l0.2876 0.0647-0.4247-0.49123c-0.6327-0.73185-1.3098-1.7839-1.8462-2.8683l-0.4778-0.96593-0.1045 0.79881c-0.1401 1.0713-0.4293 2.0383-0.9131 3.0541l-0.4011 0.84195 0.4402-0.2015c0.2421-0.11084 0.6955-0.25561 1.0075-0.32172zm-18.526-0.20929c-0.6294-1.2498-1.0349-2.9121-1.0356-4.245v-0.63746l-0.3787 0.21165c-0.4432 0.24767-1.2364 0.34086-1.7333 0.20362-0.1801-0.0498-0.335-0.0821-0.3441-0.0719-0.048 0.0525 1.1748 1.8989 1.8806 2.8407 0.729 0.97268 1.8066 2.2827 1.8778 2.2827 0.015 0-0.1045-0.2629-0.2663-0.58423zm-1.7169-5.1919c0.5373-0.26771 0.7444-0.55347 0.8816-1.2163 0.183-0.88386-0.1194-1.5438-0.8816-1.9236-0.5635-0.28081-1.0601-0.28216-1.6176-4e-3 -1.2938 0.64478-1.2938 2.504 0 3.1488 0.5575 0.27777 1.0541 0.27641 1.6176-4e-3zm48.121-0.70313c1.2113-2.4152 2.1494-5.2543 2.604-7.8809 0.083-0.47937 0.1373-0.88728 0.1207-0.90649-0.01601-0.01921-0.1138 0.042-0.2164 0.1359-0.6786 0.62165-1.9394 0.81423-2.9103 0.44453-0.1285-0.0489-0.2479-0.089-0.2653-0.089-0.01799 0 0.039 0.20526 0.1253 0.45614 0.4559 1.3252 0.7074 3.2554 0.6382 4.8978-0.06 1.4245-0.2146 2.3707-0.6069 3.7145-0.1062 0.36425 0.088 0.0703 0.5107-0.77252zm-50.592-2.5421 0.3341-0.33076-0.6042-0.30052c-0.3324-0.16528-0.7857-0.45166-1.0076-0.63636-0.2218-0.18472-0.4157-0.33586-0.4308-0.33586-0.042 0 0.342 1.1064 0.6847 1.9744l0.3043 0.7708 0.1927-0.40547c0.106-0.223 0.3431-0.55431 0.5268-0.73622zm4.3924-0.71331c0-0.0354-0.099-0.01241-0.2242 0.051-0.1254 0.0635-0.4259 0.18004-0.6676 0.25903l-0.4394 0.14364 0.1996 0.18503c0.1098 0.10177 0.2678 0.28893 0.351 0.41594l0.1512 0.23088 0.3127-0.61057c0.1719-0.33582 0.3145-0.63954 0.3167-0.67495zm17.355-1.6787c0.1654-1.6961 0.6589-3.4525 1.3667-4.8641 0.2068-0.41249 0.3288-0.72089 0.2712-0.68534-0.058 0.0356-0.3946 0.25857-0.7488 0.49555-1.6792 1.1236-4.0237 2.0397-5.7339 2.2408-0.2612 0.0307-0.4947 0.0879-0.519 0.12711-0.024 0.0392 1e-4 0.0713 0.054 0.0713 0.1617 0 1.3964 0.64332 1.9381 1.0099 1.1588 0.78398 2.2842 1.9868 2.9384 3.1405l0.306 0.53953 0.019-0.58104c0.011-0.31957 0.059-0.99193 0.10801-1.4941zm-18.481 1.4484c0.2793-0.0869 0.7405-0.31065 1.0248-0.49728 2.3521-1.5436 2.6845-4.8435 0.6863-6.8129-2.2881-2.2551-6.0702-1.4216-7.2345 1.5944-0.4107 1.064-0.2624 2.7446 0.3281 3.7197 1.1175 1.8448 3.1596 2.6295 5.1953 1.9961zm4.7826-3.4281c0.6732-0.39138 1.4931-0.73954 2.2827-0.96934 0.2739-0.0797 0.442-0.16392 0.3735-0.18713-0.068-0.0232-0.4233-0.14262-0.7885-0.26535-0.8708-0.29264-2.1552-0.90552-3.0084-1.4355l-0.6843-0.42502 0.1706 0.33431c0.4483 0.87878 0.6071 2.2834 0.3695 3.2676-0.066 0.27392-0.1216 0.52963-0.1232 0.56824 0 0.0386 0.1745-0.0639 0.3913-0.22782 0.2168-0.16392 0.6744-0.46092 1.0168-0.65998zm7.8976-1.3038c3.5946-0.36677 6.8863-2.0675 9.1746-4.7402 1.7546-2.0494 2.8004-4.2967 3.2771-7.042 0.1381-0.79487 0.1396-3.3318 0-4.1503-0.4919-2.9369-1.6942-5.3978-3.656-7.4831-3.9235-4.1703-9.997-5.5036-15.356-3.371-5.7018 2.2691-9.3052 8.243-8.6395 14.323 0.2542 2.3211 1.0165 4.4331 2.2986 6.3675 2.7886 4.2075 7.8703 6.6093 12.898 6.0963zm36.408-0.64939c0.4245-0.21659 0.9896-0.85778 1.0972-1.2449 0.1379-0.49648 0.1001-1.4203-0.074-1.8032-0.3616-0.79618-1.1707-1.3055-2.083-1.3114-1.2782-8e-3 -2.2239 0.87016-2.3055 2.1412-0.036 0.5569-0.019 0.63567 0.2603 1.1893 0.3908 0.77603 0.8685 1.1473 1.6196 1.2587 0.4927 0.0731 1.0653-0.0154 1.4852-0.22967zm-55.024-0.87876c0.2356-0.53274 0.588-1.0163 1.1186-1.5355l0.4637-0.45365-0.4335-0.16026c-0.5346-0.1977-1.0555-0.54687-1.3479-0.90353l-0.2214-0.2701 0.048 1.2866c0.048 1.282 0.1337 2.4072 0.1823 2.4072 0.014 0 0.1-0.16685 0.1897-0.37076zm51.4-2.5852 0.219-0.42429-0.6328-0.0546c-0.3481-0.03-0.7441-0.0785-0.88-0.10778l-0.2471-0.0532 0.3384 0.40756c0.1861 0.22417 0.4467 0.57298 0.5791 0.77514l0.2408 0.36756 0.082-0.24305c0.045-0.13368 0.1804-0.434 0.3008-0.66735zm-45.344-0.54568c-0.2438-0.28934-0.574-0.72079-0.7338-0.95876-0.1598-0.23797-0.3138-0.43364-0.3422-0.43482-0.028-0.0021-0.074 0.13855-0.1016 0.3105-0.028 0.17195-0.176 0.52191-0.33 0.77768l-0.2801 0.46504 0.6393 0.0533c0.3517 0.0293 0.8409 0.12278 1.0873 0.20768 0.2463 0.0849 0.4606 0.14337 0.4762 0.12992 0.016-0.01339-0.1713-0.2612-0.4151-0.55056zm-2.8823 0.24469c0.7869-0.46382 1.1913-1.165 1.1855-2.0554-0.01-1.5616-1.4673-2.6429-2.9723-2.2054-1.7081 0.49653-2.2117 2.8301-0.8605 3.9867 0.4844 0.41465 0.9014 0.54449 1.6513 0.51419 0.5005-0.02029 0.7079-0.0702 0.996-0.24002zm53.032-2.0967c-0.053-0.73036-0.1127-1.3436-0.1319-1.3627-0.042-0.042-0.01299-0.0897-0.3668 0.60563-0.1597 0.31417-0.5214 0.82134-0.8038 1.1271l-0.5133 0.55581 0.4052 0.10386c0.4313 0.11054 1.2612 0.65166 1.3767 0.89758 0.123 0.26209 0.1367-0.51938 0.034-1.9272zm-3.4784 1.0866c2.4844-0.86159 3.6662-3.6965 2.5278-6.0633-1.4835-3.0842-5.7488-3.3684-7.6471-0.50951-0.4586 0.69082-0.6331 1.2366-0.679 2.1246-0.07 1.3575 0.2586 2.3138 1.1133 3.2369 0.7112 0.76816 1.5352 1.231 2.5184 1.4144 0.5581 0.10418 1.5482 0.0113 2.1666-0.20311zm-20.249-2.897c0.9519-0.46614 2.5142-0.99566 3.4729-1.1771 1.2373-0.23414 1.1948-0.19274 0.5172-0.50398-1.6285-0.74794-3.2752-2.1972-4.1902-3.6878l-0.4773-0.77749v0.69953c0 2.0578-0.5593 4.4421-1.4552 6.226l-0.3707 0.73802 0.8591-0.56618c0.4724-0.31138 1.2127-0.73933 1.6449-0.951zm14.015 0.13736c-0.2197-0.70466-0.2433-2.0105-0.048-2.6435 0.071-0.22828 0.1287-0.42055 0.1292-0.42727 0-7e-3 -0.3073 0.19518-0.6839 0.44869-0.8372 0.56356-1.7992 1.0235-2.6622 1.2727l-0.6493 0.18754 0.9813 0.34511c1.1184 0.39329 1.8419 0.7162 2.5585 1.1418 0.2739 0.16271 0.51 0.28398 0.5246 0.26949 0.014-0.01439-0.053-0.28205-0.1506-0.59464zm-46.255-0.53499c0.5127-0.45017 0.966-0.60245 1.8042-0.60613 0.5985-0.0021 0.8271 0.0331 1.1498 0.18012 0.2821 0.12844 0.3899 0.14953 0.3595 0.0704-0.024-0.0622-0.1182-0.36993-0.2095-0.68391-0.8431-2.8968-0.784-5.8776 0.1733-8.7434 0.1531-0.45853 0.2705-0.8337 0.2607-0.8337-0.041 0-0.7909 1.3516-1.1774 2.1229-1.0455 2.087-1.8282 4.2882-2.336 6.5694-0.2068 0.92927-0.412 2.1815-0.3574 2.1815 0.022 0 0.1716-0.11575 0.3328-0.25721zm42.087-1.1935c2.7131-0.57872 5.0272-2.3623 6.2737-4.8353 1.2239-2.4284 1.2613-5.4188 0.099-7.8768-1.234-2.6083-3.4767-4.4075-6.3138-5.0653-0.5115-0.1186-0.969-0.152-1.9922-0.14548-1.1491 7e-3 -1.4375 0.0375-2.1396 0.22406-0.9241 0.24547-2.1159 0.78404-2.8924 1.3071-0.7312 0.49249-1.8148 1.5644-2.3194 2.2942-3.2141 4.6495-1.4913 11.08 3.5989 13.431 1.7131 0.79153 3.8982 1.0475 5.6863 0.66605zm12.213-4.4118c-0.2352-0.63337-0.4551-1.2021-0.4888-1.2638-0.042-0.0772-0.1413 0.0297-0.3182 0.34298-0.1413 0.25039-0.3793 0.55105-0.529 0.66816-0.1495 0.11711-0.2545 0.22601-0.233 0.24203 0.02101 0.0159 0.2864 0.15197 0.5889 0.30209 0.3025 0.15013 0.7321 0.43388 0.9546 0.63055 0.2225 0.19668 0.4155 0.32879 0.4288 0.29358 0.01299-0.0352-0.1681-0.5822-0.4033-1.2156zm-4.8319 9e-3 0.5165-0.18171-0.2162-0.19905c-0.119-0.10949-0.2772-0.29727-0.3518-0.41729l-0.1355-0.21823-0.3074 0.6619c-0.23691 0.51-0.2746 0.64746-0.1647 0.59899 0.078-0.0346 0.3751-0.14467 0.6591-0.24461zm2.959-0.59233c0.4243-0.29394 0.7994-0.98921 0.7994-1.4816 0-0.21053-0.088-0.5182-0.2283-0.79391-0.2994-0.59058-0.7393-0.89964-1.3735-0.96508-2.0013-0.20657-2.7491 2.5204-0.9299 3.3915 0.4914 0.23531 1.2731 0.16721 1.7323-0.15092zm-0.926-3.8058c0.4012 0 0.7294-0.01 0.7293-0.0216 0-0.0643-0.9737-1.5815-1.3765-2.1448-0.4628-0.64758-1.4363-1.8759-1.934-2.4404l-0.2562-0.29052 0.3253 0.70602c0.5902 1.2814 0.9172 2.7172 0.9172 4.0274v0.61255l0.4328-0.22428c0.3741-0.19388 0.5317-0.2243 1.1621-0.2243zm-20.858-1.3099c0.1375-1.046 0.4474-2.0481 0.9425-3.0479 0.2374-0.47936 0.4447-0.9003 0.4605-0.93541 0.016-0.0351-0.096 8e-3 -0.2483 0.0966-0.8171 0.47285-2.2874 0.68987-3.2655 0.482-0.3195-0.0679-0.5917-0.11367-0.6048-0.10167-0.013 0.0119 0.1583 0.24147 0.3807 0.50993 0.2225 0.26848 0.5984 0.77741 0.8353 1.131 0.4472 0.66719 1.3395 2.3706 1.3395 2.557 0 0.28378 0.074-0.0355 0.1601-0.69148zm0.1962-4.1289c1.9918-0.61963 3.289-2.7196 2.9818-4.8272-0.3194-2.1918-2.1415-3.7548-4.3757-3.7537-1.8615 2e-3 -3.552 1.2037-4.1661 2.9643-0.2116 0.60644-0.2116 2.2468 0 2.8532 0.4206 1.2058 1.4272 2.2304 2.6517 2.6991 0.9078 0.34747 1.9256 0.36998 2.9083 0.0643zm-6.0975-2.5921c-0.1274-0.37663-0.2325-0.84673-0.2335-1.0446v-0.35983l-0.3808 0.33519c-0.2094 0.18436-0.5428 0.41363-0.7408 0.50947l-0.3599 0.17424 0.7164 0.37475c0.394 0.2061 0.8114 0.44574 0.9275 0.53255 0.1161 0.0868 0.2322 0.159 0.2579 0.16045 0.026 2e-3 -0.058-0.30553-0.1851-0.68218zm9.7136 0.19724c0.1663-0.13122 0.4838-0.35318 0.7055-0.49328l0.403-0.25472-0.2786-0.1167c-0.1531-0.0642-0.3951-0.21508-0.5377-0.33533l-0.2592-0.21862-0.098 0.49975c-0.054 0.27485-0.1505 0.64771-0.2143 0.82859-0.064 0.18087-0.095 0.32885-0.07 0.32885 0.026 0 0.1828-0.10734 0.3492-0.23854zm-22.035-1.0782c1.6421-0.54268 2.9812-0.76013 4.6546-0.75584 0.9093 2e-3 1.8874 0.0855 2.4679 0.20989l0.2245 0.0481-0.2654-0.52456c-0.2402-0.47499-0.2654-0.5959-0.266-1.279 0-0.6857 0.023-0.80103 0.2631-1.2658 0.145-0.28128 0.231-0.51143 0.191-0.51143-0.1714 0-1.516 0.46319-2.5561 0.88059-2.1399 0.85865-4.464 2.1581-6.2686 3.5049-1.2178 0.90889-1.2206 0.91347-0.2683 0.43582 0.4504-0.22587 1.2708-0.56005 1.8233-0.74263zm10.883-0.29786c0.7816-0.45801 1.1699-1.2374 1.1004-2.2086-0.08-1.111-0.8617-1.9305-2.0193-2.1156-0.7205-0.11522-1.7155 0.32731-2.1519 0.957-0.6454 0.93128-0.5809 2.0595 0.1652 2.8893 0.7361 0.81873 1.9761 1.0227 2.9056 0.47789zm13.847-0.15731c1.1004-0.6449 1.1415-2.2444 0.077-2.9919-0.7604-0.5339-1.9413-0.31514-2.4778 0.45901-0.3206 0.46261-0.3826 1.2944-0.1328 1.7804 0.4985 0.96953 1.6035 1.2977 2.5337 0.75257zm6.1974-0.0821c-1.2164-0.81273-4.1555-2.3721-4.8637-2.5804l-0.1745-0.0513 0.1511 0.43751c0.1928 0.55827 0.1911 0.9856-0.01 1.5572-0.086 0.2506-0.14601 0.46694-0.13221 0.48075 0.014 0.0138 0.2633-0.0134 0.5543-0.0607 1.2492-0.2027 3.1113-0.0419 4.2905 0.37047 0.7742 0.27075 0.7924 0.25532 0.1806-0.15346zm-9.1795-2.6126c0.1541-0.29808 0.6007-0.73901 0.9211-0.90955l0.2491-0.13253-0.3736-0.11039c-0.4597-0.1359-2.2786-0.52337-2.4567-0.52337-0.074 0 0.069 0.18136 0.3335 0.42345 0.2548 0.23292 0.6179 0.66248 0.8068 0.95458 0.1889 0.29211 0.356 0.53112 0.3713 0.53112 0.015 0 0.082-0.10499 0.1485-0.23331zm-8.8946-0.28548c0.392-0.58313 0.9112-1.0956 1.5151-1.4955l0.498-0.3298-0.996 0.0546c-1.0394 0.057-2.4908 0.19905-2.6875 0.26302-0.074 0.024 0 0.12144 0.2144 0.27518 0.4602 0.33341 0.836 0.81145 1.0014 1.274 0.078 0.21686 0.1457 0.39428 0.1513 0.39428 0.01 0 0.1421-0.19609 0.3033-0.43578z" enable-background="new" stroke="url(#linearGradient8217)" stroke-linecap="round" stroke-linejoin="round" stroke-width="1.6601" style="paint-order:markers stroke fill"/>
   <circle cx="-114.5" cy="62.246" r="16.09" enable-background="new" style="paint-order:normal"/>
  </g>
  <path d="m-115.64 77.431c-3.996-0.23804-7.5848-1.8183-10.371-4.5666-2.6569-2.6208-4.2409-5.855-4.6972-9.5909-0.092-0.7551-0.1041-2.7028-0.021-3.4312 0.2227-1.9483 0.6969-3.6099 1.5132-5.3022 1.5873-3.2899 4.169-5.8721 7.4585-7.4595 2.0945-1.0107 4.137-1.5068 6.4938-1.5774 3.7581-0.11241 7.4336 1.1141 10.376 3.4624 1.8723 1.4944 3.4031 3.3996 4.4185 5.4997 0.8376 1.7324 1.3016 3.335 1.5284 5.28 0.1 0.85603 0.1004 2.6099 0 3.4444-0.3415 2.8657-1.2983 5.3502-2.9409 7.6365l-0.3007 0.41843 5.3686 5.3306-4.3508 0.0042-0.7764-0.7764-2.3295-2.3292-0.5394 0.43573c-2.2641 1.8291-5.0404 3.0206-7.9232 3.4004-0.9338 0.12299-2.0743 0.17035-2.9078 0.1207zm2.1755-3.3631c1.838-0.20515 3.6446-0.81538 5.1879-1.7523 0.4891-0.29688 1.1899-0.78964 1.4853-1.0441l0.1464-0.12621-4.5182-4.5242 1.1923 6e-3c0.6557 0.0021 1.6393 0.0173 2.1858 0.0314l0.9935 0.02569 1.1273 1.0992 1.1271 1.0992 0.268-0.40881c1.9333-2.9496 2.5667-6.4347 1.7889-9.8446-0.525-2.301-1.7154-4.4416-3.4094-6.1305-1.892-1.8861-4.2536-3.0973-6.8845-3.5308-5.9917-0.9872-11.815 2.4056-13.95 8.1282-0.3011 0.80668-0.5804 1.9868-0.6996 2.9558-0.071 0.57633-0.071 2.2365 0 2.8245 0.4303 3.5606 2.1947 6.6257 5.0464 8.7666 1.8836 1.4142 4.1716 2.2656 6.6325 2.4683 0.5054 0.0417 1.7284 0.0186 2.2802-0.043z" enable-background="new" fill="#fff" stroke="#fefefe" stroke-linecap="square" stroke-width="1.6601" style="paint-order:markers stroke fill"/>
 </g>
</svg>
