<?xml version="1.0" encoding="UTF-8"?>
<svg width="67.733mm" height="67.733mm" version="1.1" viewBox="0 0 67.733 67.733" xmlns="http://www.w3.org/2000/svg" xmlns:cc="http://creativecommons.org/ns#" xmlns:dc="http://purl.org/dc/elements/1.1/" xmlns:rdf="http://www.w3.org/1999/02/22-rdf-syntax-ns#" xmlns:xlink="http://www.w3.org/1999/xlink">
 <defs>
  <linearGradient id="linearGradient8207" x1="3624.5" x2="3978.4" y1="7886.8" y2="7886.8" gradientTransform="matrix(.16601 0 0 .16601 -724.75 -1244.2)" gradientUnits="userSpaceOnUse">
   <stop stop-color="#26fffa" offset="0"/>
   <stop stop-color="#eb00c2" offset="1"/>
  </linearGradient>
 </defs>
 <metadata>
  <rdf:RDF>
   <cc:Work rdf:about="">
    <dc:format>image/svg+xml</dc:format>
    <dc:type rdf:resource="http://purl.org/dc/dcmitype/StillImage"/>
    <dc:title/>
   </cc:Work>
  </rdf:RDF>
 </metadata>
 <g transform="translate(127.65 -31.463)" fill="#333">
  <circle cx="-93.779" cy="65.33" r="33.701" enable-background="new" stroke="#fff" stroke-linecap="square" stroke-width=".33203" style="paint-order:markers stroke fill"/>
  <path d="m-95.383 93.936c-0.1827-0.0181-0.7616-0.0735-1.2867-0.12298-4.5794-0.43182-9.5277-2.2594-13.401-4.9494-2.0355-1.4139-4.6452-3.8426-6.1366-5.711-3.4295-4.2966-5.551-9.4013-6.1923-14.9-0.3401-2.915-0.1318-6.5972 0.5433-9.6075 1.6132-7.1926 6.0872-13.641 12.32-17.758 3.7213-2.458 7.6518-3.909 12.368-4.5658 1.4917-0.20773 5.5786-0.20481 7.097 5e-3 6.2386 0.86233 11.636 3.3756 16.02 7.4606 4.736 4.412 7.7325 9.8448 8.8705 16.082 0.3386 1.8558 0.4222 2.8938 0.4243 5.2709 0 2.3985-0.093 3.4432-0.5031 5.5199-1.0856 5.4999-3.7244 10.512-7.654 14.539-4.7211 4.8381-10.652 7.7702-17.365 8.5859-0.9875 0.11998-4.3997 0.22062-5.1049 0.15059zm5.0218-0.75059c0.6164-0.0703 1.132-0.13902 1.1458-0.1527 0.014-0.0136-0.106-0.10587-0.2662-0.20488-0.3965-0.24506-1.0158-0.94828-1.1417-1.2966-0.1253-0.34649-0.1948-0.35675-0.3524-0.052-0.2243 0.43382-0.9176 1.1223-1.5436 1.5328l-0.6226 0.40826 0.8301-0.0535c0.4566-0.0294 1.3343-0.11107 1.9506-0.18137zm-3.462-0.19834c1.9919-0.61963 3.2891-2.7196 2.9819-4.8272-0.3979-2.7299-3.2279-4.4509-5.7899-3.521-1.0181 0.36955-1.7056 0.9143-2.2848 1.8104-0.5071 0.78472-0.6174 1.204-0.6174 2.3477 0 1.144 0.1114 1.5676 0.6153 2.3397 0.7122 1.0914 1.7482 1.7907 2.9955 2.0219 0.5232 0.097 1.4899 0.0179 2.0994-0.17165zm-4.2161-0.0803c-0.379-0.24963-1.1025-0.99241-1.3533-1.3894-0.1231-0.19488-0.2425-0.35321-0.2653-0.35185-0.02299 2e-3 -0.1433 0.17028-0.2678 0.37536-0.1308 0.21561-0.3836 0.46831-0.5992 0.59917-0.2051 0.12446-0.374 0.24963-0.3755 0.27817 0 0.0579 0 0.0579 1.6161 0.39872 1.4361 0.30233 1.5838 0.313 1.245 0.0899zm11.042-0.44563c0.8021-0.37353 1.2776-1.0537 1.3478-1.9279 0.1123-1.3993-0.9139-2.4822-2.3457-2.4751-1.2142 6e-3 -2.1491 0.87957-2.2609 2.1126-0.1564 1.7243 1.6891 3.0214 3.2588 2.2904zm2.4989-0.58546c2.6547-0.9096 4.9982-2.1148 7.3142-3.7616 0.3998-0.28429 0.839-0.61261 0.9759-0.7296l0.2491-0.21273-0.4509 0.21988c-1.1808 0.57587-2.7479 1.0583-4.1975 1.2923-0.8574 0.1384-3.382 0.13817-4.2196 0-0.3578-0.0592-0.6668-0.0911-0.687-0.071-0.02 0.0201 0.064 0.23047 0.1871 0.4675 0.4316 0.83185 0.3528 2.0814-0.1809 2.8678-0.1097 0.16167-0.1679 0.29395-0.1292 0.29395 0.039 0 0.5511-0.16475 1.1388-0.36613zm-16.577-0.1026c1.0193-0.5079 1.2969-1.8406 0.5677-2.7252-0.6331-0.76802-1.8516-0.83535-2.5814-0.14265-0.7611 0.72234-0.7317 2.0087 0.06 2.6405 0.6194 0.49428 1.2668 0.5696 1.9536 0.22735zm-2.8984-0.3927c0-0.0173-0.056-0.16546-0.1246-0.32937-0.1805-0.43225-0.1585-1.3408 0.043-1.7858 0.09-0.19902 0.1642-0.36905 0.1642-0.37788 0-9e-3 -0.3268 0.0348-0.7263 0.0969-1.3675 0.21268-3.3808 0.0121-4.6691-0.46517-0.5438-0.20144-0.4926-0.15906 0.8171 0.67572 1.3142 0.8377 4.4953 2.3843 4.4953 2.1855zm-0.2076-3.0733c3.7973-0.81587 6.6506-3.8184 7.2254-7.6032 0.7119-4.6874-2.1927-9.0488-6.8377-10.267-0.7022-0.18419-0.9793-0.21115-2.2138-0.2154-1.2666-4e-3 -1.4933 0.0172-2.2137 0.21054-3.9933 1.0717-6.6756 4.3402-6.9313 8.446-0.092 1.4833 0.2246 3.008 0.9231 4.4408 0.9375 1.923 2.3899 3.3682 4.2944 4.2733 0.7801 0.37065 1.9139 0.7163 2.7202 0.82922 0.7216 0.10107 2.3103 0.0414 3.0334-0.11402zm4.0259-0.12517c0-0.1329 0.071-0.46867 0.157-0.74616 0.094-0.30311 0.1192-0.48003 0.062-0.44318-0.052 0.0338-0.3693 0.24307-0.705 0.46514l-0.6103 0.40378 0.3198 0.14745c0.1758 0.0811 0.3944 0.20637 0.4857 0.27839 0.2373 0.18718 0.2906 0.16787 0.2906-0.10542zm10.983-0.46841 0.4104-0.19017-0.571-0.29417c-0.3141-0.16181-0.7631-0.40826-0.9978-0.54766l-0.4268-0.25347 0.1917 0.47897c0.1055 0.26341 0.237 0.71206 0.2922 0.99698l0.1004 0.51803 0.2952-0.25918c0.1624-0.14255 0.4799-0.34476 0.7057-0.44933zm7.7885 0.4563c2.3319-0.23793 4.5017-1.016 6.4246-2.3036 5.2108-3.4895 7.4381-10.058 5.4373-16.036-0.3138-0.93756-1.2804-2.8218-1.884-3.6724-0.6059-0.85383-2.0969-2.3642-2.98-3.0188-5.3843-3.9905-12.858-3.614-17.751 0.89416-2.516 2.3183-4.0496 5.3633-4.4456 8.8267-0.3568 3.1212 0.4777 6.4641 2.3001 9.2137 2.7925 4.2134 7.8633 6.61 12.898 6.0963zm-14.815-4.2715c0.8152-0.17275 1.356-0.15293 2.4321 0.0891l0.2876 0.0647-0.4247-0.49123c-0.6327-0.73185-1.3098-1.7839-1.8462-2.8683l-0.4778-0.96592-0.1045 0.7988c-0.1401 1.0713-0.4293 2.0383-0.9131 3.0541l-0.4011 0.84195 0.4402-0.20151c0.2421-0.11083 0.6955-0.25561 1.0075-0.32171zm-18.526-0.2093c-0.6294-1.2498-1.0349-2.9121-1.0356-4.245v-0.63746l-0.3787 0.21165c-0.4432 0.24768-1.2364 0.34086-1.7333 0.20362-0.1801-0.0498-0.3349-0.0821-0.3441-0.0719-0.048 0.0525 1.1748 1.8989 1.8806 2.8407 0.729 0.97268 1.8066 2.2827 1.8778 2.2827 0.015 0-0.1045-0.2629-0.2663-0.58424zm-1.7169-5.1919c0.5373-0.26771 0.7444-0.55347 0.8816-1.2163 0.183-0.88386-0.1194-1.5438-0.8816-1.9236-0.5635-0.28081-1.0601-0.28216-1.6176-4e-3 -1.2938 0.64478-1.2938 2.504 0 3.1488 0.5575 0.27777 1.0541 0.27641 1.6176-4e-3zm48.121-0.70313c1.2113-2.4152 2.1494-5.2543 2.604-7.8809 0.083-0.47937 0.1373-0.88728 0.1207-0.90648-0.01601-0.01921-0.1138 0.042-0.2164 0.1359-0.6786 0.62165-1.9394 0.81422-2.9103 0.44453-0.1285-0.0489-0.2479-0.089-0.2653-0.089-0.01799 0 0.039 0.20525 0.1253 0.45613 0.4559 1.3252 0.7074 3.2554 0.6382 4.8978-0.06 1.4245-0.2146 2.3707-0.6068 3.7145-0.1063 0.36425 0.088 0.0704 0.5106-0.77252zm-50.592-2.5421 0.3341-0.33076-0.6042-0.30052c-0.3324-0.16528-0.7857-0.45166-1.0076-0.63636-0.2218-0.18472-0.4157-0.33586-0.4308-0.33586-0.042 0 0.342 1.1064 0.6847 1.9744l0.3043 0.7708 0.1927-0.40547c0.106-0.223 0.3431-0.5543 0.5268-0.73622zm4.3924-0.71331c0-0.0354-0.099-0.01241-0.2241 0.051-0.1255 0.0635-0.426 0.18004-0.6677 0.25903l-0.4394 0.14363 0.1996 0.18504c0.1098 0.10176 0.2678 0.28893 0.351 0.41593l0.1512 0.23089 0.3127-0.61058c0.1719-0.33581 0.3145-0.63954 0.3167-0.67494zm17.355-1.6788c0.1654-1.6961 0.6589-3.4525 1.3667-4.8641 0.2068-0.41249 0.3288-0.7209 0.2712-0.68534-0.058 0.0356-0.3946 0.25857-0.7488 0.49555-1.6792 1.1235-4.0237 2.0397-5.7339 2.2407-0.2612 0.0307-0.4947 0.0879-0.519 0.12712-0.024 0.0392 1e-4 0.0713 0.054 0.0713 0.1617 0 1.3964 0.64332 1.9381 1.0099 1.1588 0.78398 2.2842 1.9868 2.9384 3.1405l0.306 0.53954 0.019-0.58105c0.01101-0.31957 0.059-0.99193 0.108-1.4941zm-18.481 1.4484c0.2793-0.0869 0.7405-0.31064 1.0248-0.49728 2.3521-1.5436 2.6845-4.8435 0.6863-6.8129-2.2881-2.2551-6.0702-1.4216-7.2345 1.5944-0.4107 1.064-0.2624 2.7446 0.3281 3.7197 1.1175 1.8448 3.1596 2.6295 5.1953 1.9961zm4.7827-3.4281c0.6731-0.39138 1.493-0.73954 2.2826-0.96934 0.2739-0.0797 0.442-0.16392 0.3735-0.18712-0.068-0.0232-0.4233-0.14263-0.7885-0.26536-0.8708-0.29263-2.1552-0.90551-3.0084-1.4355l-0.6843-0.42502 0.1706 0.33431c0.4483 0.87878 0.6071 2.2834 0.3695 3.2676-0.066 0.27392-0.1216 0.52963-0.1232 0.56825 0 0.0386 0.1745-0.0639 0.3913-0.22782 0.2169-0.16393 0.6745-0.46092 1.0169-0.65999zm7.8975-1.3038c3.5946-0.36677 6.8863-2.0674 9.1746-4.7402 1.7546-2.0494 2.8004-4.2967 3.2772-7.042 0.138-0.79486 0.1395-3.3318 0-4.1503-0.492-2.9369-1.6943-5.3978-3.6561-7.4831-3.9235-4.1703-9.997-5.5036-15.356-3.371-5.7018 2.2691-9.3051 8.243-8.6395 14.323 0.2542 2.3211 1.0165 4.4331 2.2986 6.3675 2.7886 4.2075 7.8703 6.6093 12.898 6.0963zm36.408-0.64939c0.4245-0.21658 0.9896-0.85778 1.0972-1.2449 0.1379-0.49649 0.1001-1.4203-0.074-1.8032-0.3616-0.79619-1.1707-1.3055-2.083-1.3113-1.2782-8e-3 -2.2239 0.87015-2.3055 2.1412-0.036 0.55689-0.019 0.63566 0.2603 1.1893 0.3908 0.77602 0.8685 1.1473 1.6196 1.2587 0.4927 0.0731 1.0653-0.0154 1.4852-0.22968zm-55.024-0.87876c0.2356-0.53273 0.588-1.0163 1.1186-1.5355l0.4637-0.45365-0.4335-0.16027c-0.5346-0.19769-1.0555-0.54687-1.3479-0.90353l-0.2214-0.2701 0.048 1.2866c0.048 1.282 0.1337 2.4072 0.1823 2.4072 0.014 0 0.1-0.16684 0.1897-0.37076zm51.4-2.5852 0.219-0.4243-0.6328-0.0546c-0.3481-0.03-0.7441-0.0785-0.88-0.10777l-0.2471-0.0532 0.3384 0.40756c0.1861 0.22417 0.4467 0.57297 0.5791 0.77513l0.2408 0.36757 0.082-0.24306c0.045-0.13368 0.1804-0.43399 0.3008-0.66734zm-45.344-0.54568c-0.2438-0.28935-0.574-0.7208-0.7338-0.95876-0.1598-0.23798-0.3138-0.43364-0.3421-0.43482-0.028-0.0021-0.074 0.13855-0.1017 0.31049-0.028 0.17196-0.176 0.52191-0.33 0.77769l-0.2801 0.46503 0.6393 0.0533c0.3517 0.0293 0.841 0.12278 1.0873 0.20768 0.2463 0.0849 0.4606 0.14337 0.4762 0.12992 0.016-0.01339-0.1713-0.2612-0.4151-0.55056zm-2.8823 0.24468c0.7869-0.46382 1.1913-1.165 1.1856-2.0554-0.01-1.5616-1.4674-2.6429-2.9724-2.2054-1.7081 0.49654-2.2117 2.8301-0.8605 3.9867 0.4844 0.41465 0.9014 0.54449 1.6513 0.51419 0.5005-0.02029 0.7079-0.0702 0.996-0.24002zm53.032-2.0967c-0.053-0.73036-0.1127-1.3436-0.1319-1.3627-0.042-0.042-0.01299-0.0897-0.3668 0.60564-0.1597 0.31416-0.5214 0.82133-0.8038 1.127l-0.5133 0.55582 0.4052 0.10386c0.4313 0.11054 1.2612 0.65166 1.3767 0.89758 0.123 0.26208 0.1367-0.51939 0.034-1.9272zm-3.4784 1.0866c2.4844-0.8616 3.6662-3.6965 2.5278-6.0633-1.4835-3.0842-5.7488-3.3684-7.6471-0.50951-0.4586 0.69081-0.6331 1.2366-0.679 2.1246-0.07 1.3575 0.2586 2.3138 1.1133 3.2369 0.7112 0.76816 1.5352 1.231 2.5184 1.4144 0.5581 0.10417 1.5482 0.0113 2.1666-0.20311zm-20.249-2.897c0.9519-0.46615 2.5142-0.99567 3.4729-1.1771 1.2373-0.23415 1.1949-0.19274 0.5172-0.50398-1.6285-0.74794-3.2752-2.1972-4.1902-3.6878l-0.4773-0.7775v0.69954c0 2.0578-0.5593 4.4421-1.4552 6.226l-0.3707 0.73801 0.8591-0.56617c0.4724-0.31139 1.2127-0.73934 1.6449-0.951zm14.015 0.13736c-0.2197-0.70467-0.2433-2.0105-0.048-2.6435 0.071-0.22827 0.1287-0.42055 0.1292-0.42727 0-7e-3 -0.3073 0.19518-0.6839 0.4487-0.8372 0.56355-1.7992 1.0234-2.6622 1.2727l-0.6493 0.18755 0.9813 0.34511c1.1184 0.39328 1.8419 0.71619 2.5585 1.1418 0.2739 0.16271 0.51 0.28398 0.5246 0.26949 0.014-0.01439-0.053-0.28206-0.1506-0.59464zm-46.255-0.535c0.5127-0.45016 0.966-0.60245 1.8042-0.60613 0.5985-0.0021 0.8271 0.0331 1.1498 0.18012 0.2821 0.12845 0.3899 0.14953 0.3595 0.0704-0.024-0.0622-0.1182-0.36992-0.2095-0.68391-0.8431-2.8968-0.784-5.8776 0.1733-8.7434 0.1531-0.45852 0.2705-0.8337 0.2608-0.8337-0.042 0-0.791 1.3516-1.1775 2.123-1.0455 2.087-1.8282 4.2882-2.336 6.5694-0.2068 0.92928-0.412 2.1815-0.3574 2.1815 0.022 0 0.1717-0.11575 0.3328-0.2572zm42.087-1.1935c2.7131-0.57871 5.0272-2.3623 6.2737-4.8353 1.2239-2.4284 1.2613-5.4188 0.099-7.8768-1.234-2.6083-3.4767-4.4075-6.3138-5.0653-0.5115-0.1186-0.969-0.152-1.9922-0.14548-1.1491 7e-3 -1.4374 0.0375-2.1396 0.22407-0.9241 0.24546-2.1159 0.78403-2.8924 1.3071-0.7312 0.49249-1.8148 1.5644-2.3194 2.2942-3.2141 4.6496-1.4913 11.08 3.5989 13.431 1.7131 0.79152 3.8982 1.0475 5.6863 0.66604zm12.213-4.4118c-0.2352-0.63338-0.4551-1.2021-0.4888-1.2638-0.042-0.0772-0.1413 0.0297-0.3181 0.34298-0.1413 0.25038-0.3794 0.55105-0.5291 0.66815-0.1495 0.11711-0.2544 0.22602-0.233 0.24204 0.02101 0.0159 0.2864 0.15196 0.5889 0.30209 0.3025 0.15012 0.7321 0.43387 0.9546 0.63055 0.2225 0.19667 0.4155 0.32879 0.4288 0.29358 0.01299-0.0352-0.1681-0.58221-0.4033-1.2156zm-4.8319 9e-3 0.5165-0.18172-0.2162-0.19904c-0.119-0.10949-0.2772-0.29727-0.3518-0.4173l-0.1355-0.21822-0.3074 0.66189c-0.2369 0.51001-0.2746 0.64747-0.1647 0.59899 0.078-0.0346 0.3751-0.14466 0.6591-0.2446zm2.959-0.59233c0.4243-0.29395 0.7994-0.98921 0.7994-1.4816 0-0.21054-0.089-0.51821-0.2283-0.79391-0.2994-0.59059-0.7393-0.89964-1.3734-0.96508-2.0014-0.20657-2.7492 2.5204-0.93 3.3915 0.4914 0.2353 1.2731 0.16721 1.7323-0.15092zm-0.926-3.8058c0.4012 0 0.7294-0.01 0.7293-0.0216 0-0.0643-0.9737-1.5815-1.3765-2.1448-0.4628-0.64758-1.4363-1.8759-1.934-2.4404l-0.2562-0.29052 0.3253 0.70602c0.5902 1.2814 0.9172 2.7172 0.9172 4.0274v0.61256l0.4328-0.22429c0.3741-0.19387 0.5317-0.2243 1.1621-0.2243zm-20.858-1.3099c0.1375-1.046 0.4474-2.0481 0.9425-3.0479 0.2374-0.47936 0.4447-0.9003 0.4605-0.93542 0.01601-0.0351-0.096 8e-3 -0.2483 0.0966-0.8171 0.47286-2.2874 0.68987-3.2655 0.482-0.3195-0.0679-0.5917-0.11366-0.6048-0.10166-0.01299 0.0119 0.1583 0.24147 0.3807 0.50993 0.2225 0.26847 0.5984 0.7774 0.8353 1.1309 0.4472 0.66719 1.3395 2.3706 1.3395 2.557 0 0.28379 0.074-0.0354 0.1601-0.69147zm0.1962-4.1289c1.9918-0.61964 3.289-2.7196 2.9818-4.8272-0.3194-2.1918-2.1415-3.7548-4.3757-3.7537-1.8615 2e-3 -3.552 1.2037-4.1661 2.9643-0.2115 0.60643-0.2115 2.2468 0 2.8532 0.4206 1.2058 1.4272 2.2304 2.6517 2.6991 0.9078 0.34748 1.9256 0.36998 2.9083 0.0643zm-6.0975-2.5921c-0.1274-0.37664-0.2325-0.84674-0.2335-1.0446v-0.35984l-0.3808 0.3352c-0.2094 0.18436-0.5428 0.41362-0.7408 0.50946l-0.3599 0.17425 0.7164 0.37474c0.394 0.20611 0.8114 0.44574 0.9275 0.53255 0.1161 0.0868 0.2322 0.15901 0.2579 0.16045 0.02601 2e-3 -0.058-0.30553-0.1851-0.68217zm9.7136 0.19723c0.1663-0.13121 0.4838-0.35318 0.7055-0.49327l0.403-0.25473-0.2785-0.11669c-0.1532-0.0642-0.3952-0.21509-0.5378-0.33533l-0.2592-0.21862-0.098 0.49974c-0.054 0.27486-0.1505 0.64772-0.2143 0.8286-0.064 0.18086-0.095 0.32885-0.07 0.32885 0.02601 0 0.1828-0.10735 0.3492-0.23855zm-22.035-1.0782c1.6421-0.54268 2.9812-0.76014 4.6546-0.75584 0.9093 2e-3 1.8874 0.0855 2.4679 0.20989l0.2245 0.0481-0.2654-0.52457c-0.2402-0.47498-0.2654-0.59589-0.266-1.279 0-0.6857 0.023-0.80103 0.2631-1.2658 0.145-0.28128 0.231-0.51142 0.191-0.51142-0.1714 0-1.5159 0.46319-2.5561 0.88058-2.1399 0.85866-4.464 2.1581-6.2686 3.5049-1.2178 0.90888-1.2206 0.91346-0.2683 0.43581 0.4504-0.22586 1.2709-0.56004 1.8233-0.74262zm10.883-0.29786c0.7816-0.45801 1.1699-1.2374 1.1004-2.2086-0.08-1.111-0.8617-1.9305-2.0193-2.1156-0.7205-0.11521-1.7155 0.32731-2.1519 0.957-0.6454 0.93128-0.5809 2.0595 0.1652 2.8893 0.7361 0.81873 1.9761 1.0227 2.9056 0.47789zm13.847-0.15731c1.1005-0.6449 1.1415-2.2444 0.077-2.992-0.7604-0.5339-1.9413-0.31514-2.4778 0.45901-0.3206 0.46262-0.3826 1.2944-0.1328 1.7804 0.4985 0.96953 1.6035 1.2977 2.5337 0.75257zm6.1974-0.0821c-1.2164-0.81273-4.1555-2.3722-4.8637-2.5804l-0.1745-0.0513 0.1511 0.43751c0.1928 0.55827 0.1912 0.9856-0.01 1.5572-0.086 0.2506-0.1459 0.46695-0.1321 0.48076 0.014 0.0138 0.2632-0.0134 0.5542-0.0607 1.2492-0.20271 3.1113-0.0419 4.2905 0.37047 0.7742 0.27075 0.7924 0.25532 0.1806-0.15346zm-9.1795-2.6126c0.1541-0.29807 0.6007-0.739 0.9211-0.90955l0.2491-0.13253-0.3735-0.11038c-0.4598-0.1359-2.2787-0.52337-2.4568-0.52337-0.074 0 0.069 0.18135 0.3335 0.42345 0.2548 0.23291 0.6179 0.66247 0.8068 0.95457 0.1889 0.29212 0.356 0.53112 0.3713 0.53112 0.015 0 0.082-0.10498 0.1485-0.23331zm-8.8946-0.28547c0.392-0.58314 0.9112-1.0956 1.5151-1.4955l0.498-0.3298-0.996 0.0546c-1.0394 0.057-2.4908 0.19905-2.6875 0.26301-0.074 0.024 0 0.12144 0.2144 0.27519 0.4602 0.3334 0.836 0.81145 1.0014 1.274 0.078 0.21686 0.1457 0.39428 0.1513 0.39428 0.01 0 0.1421-0.19609 0.3033-0.43579z" enable-background="new" stroke="url(#linearGradient8207)" stroke-linecap="round" stroke-linejoin="round" stroke-width="1.6603" style="paint-order:markers stroke fill"/>
 </g>
</svg>
