<?xml version="1.0" encoding="UTF-8"?>
<svg width="67.733mm" height="67.733mm" version="1.1" viewBox="0 0 67.733 67.733" xmlns="http://www.w3.org/2000/svg" xmlns:cc="http://creativecommons.org/ns#" xmlns:dc="http://purl.org/dc/elements/1.1/" xmlns:rdf="http://www.w3.org/1999/02/22-rdf-syntax-ns#" xmlns:xlink="http://www.w3.org/1999/xlink">
 <defs>
  <linearGradient id="linearGradient8291" x1="300.72" x2="509" y1="9.446" y2="9.446" gradientUnits="userSpaceOnUse" xlink:href="#linearGradient3916-4"/>
  <linearGradient id="linearGradient3916-4">
   <stop stop-color="#26fffa" offset="0"/>
   <stop stop-color="#eb00c2" offset="1"/>
  </linearGradient>
 </defs>
 <metadata>
  <rdf:RDF>
   <cc:Work rdf:about="">
    <dc:format>image/svg+xml</dc:format>
    <dc:type rdf:resource="http://purl.org/dc/dcmitype/StillImage"/>
    <dc:title/>
   </cc:Work>
  </rdf:RDF>
 </metadata>
 <g transform="translate(-43.147 -27.368)">
  <circle cx="77.013" cy="61.235" r="33.701" enable-background="new" fill="#333" stroke="#fff" stroke-linecap="square" stroke-width=".33203" style="paint-order:markers stroke fill"/>
  <g transform="matrix(.25042 0 0 .39125 -22.82 48.883)" enable-background="new" fill="none" opacity=".97" stroke="url(#linearGradient8291)" stroke-linecap="square" stroke-linejoin="bevel">
   <path d="m508.32 41.691h-38.878c-26.758 0-42.265-31.001-64.565-31.001-22.774 0-37.807 31.001-64.565 31.001h-37.79" stroke-width=".84529"/>
   <path d="m508.27 41.645h-38.861c-26.746 0-42.245-42.882-64.536-42.882-22.764 0-37.79 42.882-64.536 42.882h-37.773" stroke-width="2.5359"/>
   <path d="m508.2 41.575h-38.834c-26.728 0-42.217-64.258-64.492-64.258-22.749 0-37.764 64.258-64.492 64.258h-38.87" stroke-width="4.2264"/>
   <path d="m508.3 41.67h-38.87c-26.752 0-42.256-36.104-64.552-36.104-22.77 0-37.799 36.104-64.552 36.104h-37.782" stroke-width="1.6906"/>
   <path d="m508.24 41.614h-38.849c-26.738 0-42.233-51.615-64.517-51.615-22.757 0-37.779 51.615-64.517 51.615h-37.762" stroke-width="3.3812"/>
  </g>
  <g transform="matrix(.2753 0 0 .2753 -34.028 59.216)" enable-background="new" fill="#f4f4f4" opacity=".97" stroke="#333" stroke-linecap="round" stroke-width="5.7665" style="paint-order:markers stroke fill">
   <path d="m310.61 23.77c-5.9936-0.54176-11.691-4.5096-14.494-10.094-1.5049-2.9983-1.9747-5.2291-1.8567-8.8151 0.16012-4.8624 1.608-8.3073 4.9624-11.806 2.7469-2.8654 5.4642-4.4761 9.0946-5.3914 1.9205-0.4841 7.0291-0.447 8.8758 0.06439 5.2908 1.4653 9.5539 4.9666 11.935 9.8022 1.4526 2.9499 1.7001 4.1195 1.6907 7.9911-0.01 3.0246-0.0375 3.3233-0.47285 4.7403-0.81769 2.6583-2.2821 5.3568-4.0259 7.4187l-0.51254 0.60606 5.4463 5.5839-8.2251 0.09034-1.0361-1.0269-1.0361-1.027-1.1109 0.5038c-1.5134 0.68612-3.5841 1.1914-5.6453 1.3773-0.94628 0.08554-1.7969 0.14724-1.8904 0.13753-0.0932-0.0096-0.85796-0.07977-1.699-0.15589zm4.3994-6.0154c0.64431-0.13657 1.2177-0.29476 1.2742-0.35176 0.0567-0.0567-1.8629-2.0464-4.2655-4.4211l-4.3683-4.3175h8.3931l5.4842 5.4766 0.68381-0.91188c3.0469-4.063 3.5918-8.9087 1.4817-13.18-0.92264-1.8678-2.8786-4.0547-4.5973-5.1402-3.6223-2.2877-8.0163-2.4966-11.968-0.56896-1.3839 0.67497-1.8463 1.0196-3.2431 2.4163-1.3966 1.3967-1.7412 1.8592-2.4162 3.2431-2.3195 4.7554-1.5317 10.138 2.0398 13.934 2.0144 2.1414 3.929 3.2818 6.4228 3.8258 1.3748 0.29986 3.6513 0.29774 5.079-0.0096z" opacity="1" style="paint-order:markers stroke fill"/>
   <path d="m351.9 23.701c-3.0562-0.62672-6.1648-3.0453-7.5345-5.8624-1.3506-2.7777-1.2791-1.8855-1.3442-16.777l-0.0577-13.294h6.1254l0.0461 13.209 0.0461 13.21 0.45296 0.8495c0.59183 1.1101 1.7158 2.1848 2.7722 2.6508 1.1927 0.526 3.2238 0.52091 4.4565-0.01153 1.0499-0.45325 2.2918-1.711 2.8214-2.8574 0.36886-0.79856 0.3704-0.84921 0.41778-13.926l0.0471-13.125h5.9363v13.14c0 12.429-0.0173 13.209-0.32821 14.423-0.98866 3.8658-3.7733 6.8801-7.4563 8.0713-1.6452 0.53206-4.5954 0.67026-6.4019 0.29986z" opacity="1" style="paint-order:markers stroke fill"/>
   <path d="m392.29 23.446c-6.0289-0.85152-11.436-4.9693-14.161-10.785-2.585-5.5164-2.037-12.393 1.3897-17.439 0.95734-1.4097 3.3182-3.8515 4.7317-4.8939 5.3016-3.9096 12.93-4.534 18.87-1.5447 1.8209 0.9162 3.4548 2.1456 5.0435 3.7946 2.7801 2.8857 4.2511 5.7067 4.8918 9.3806 0.3188 1.8281 0.32418 4.6568 0.0125 6.4066-1.2803 7.1804-7.1867 13.385-14.11 14.822-1.6034 0.33282-5.164 0.47064-6.6685 0.25824zm5.4683-6.0327c0.64806-0.13734 1.8331-0.57156 2.6334-0.96493 1.2082-0.59395 1.7459-1.0052 3.169-2.4234 1.4338-1.4288 1.8292-1.944 2.4193-3.1521 0.83393-1.7072 1.1848-2.9884 1.3263-4.8421 0.18587-2.4373-0.4124-4.9799-1.679-7.1357-0.82797-1.4092-3.0556-3.6657-4.4146-4.4718-2.2333-1.3247-5.1452-1.9151-7.7791-1.5773-2.9718 0.38107-4.9038 1.3623-7.2275 3.6707-1.7621 1.7504-2.7435 3.4199-3.3081 5.6275-0.40605 1.5876-0.44133 4.2037-0.0798 5.9106 0.91044 4.2978 4.6264 8.1357 8.983 9.2779 1.5016 0.39366 4.3006 0.43153 5.9571 0.08073z" opacity="1" style="paint-order:markers stroke fill"/>
   <path d="m426.57 16.14v-28.41l3.1856 0.07496c2.8438 0.06728 3.3273 0.12206 4.507 0.51149 1.9857 0.65555 3.5743 1.6733 5.2249 3.3478 2.5532 2.5899 3.6876 5.478 3.5073 8.9293-0.10034 1.9224-0.49669 3.3138-1.4275 5.0119-0.78933 1.4402-3.4579 4.0959-5.0159 4.9919-0.63066 0.36271-1.1433 0.70678-1.1391 0.76454 0 0.05767 2.5549 2.7809 5.6682 6.0515l5.6603 5.9464-8.0232 0.10188-3.0944-3.194-3.0944-3.1941-0.01 3.1856-0.01 3.1856h-5.9464zm7.3886-10.705c0.91841-0.57194 2.099-1.9316 2.5808-2.9721 0.39904-0.8619 0.47189-1.2425 0.47189-2.4634 0-1.2033-0.074-1.6-0.44238-2.3786-0.72303-1.5273-2.2693-3.0513-3.6149-3.5629l-0.43758-0.16636v12.216l0.46535-0.17694c0.25594-0.09726 0.69554-0.32023 0.97685-0.49544z" opacity="1" style="paint-order:markers stroke fill"/>
   <path d="m466.34 23.763c-2.1154-0.35147-4.2994-1.5648-5.9648-3.314-1.2925-1.3574-2.1603-2.7993-2.7475-4.5648l-0.39558-1.1892-0.0509-13.464-0.0509-13.464h5.9423l0.0509 12.955c0.0509 12.854 0.0538 12.962 0.42076 13.856 0.77242 1.8843 2.2995 3.1179 4.2557 3.4381 1.088 0.17799 2.667-0.02979 3.4996-0.46017 0.93062-0.48121 1.9318-1.573 2.4283-2.648l0.49025-1.0614 0.048-13.04 0.0481-13.04h5.9461l-0.049 13.464-0.049 13.464-0.39664 1.1892c-1.3422 4.0252-4.5576 7.0037-8.4366 7.8153-1.3018 0.27237-3.5597 0.30111-4.9901 0.06343z" opacity="1" style="paint-order:markers stroke fill"/>
   <path d="m499.54 23.545c-3.0446-0.5952-5.4072-2.0712-7.212-4.5056l-0.85815-1.1576v-2.8676l2.0843-0.4568c1.1464-0.25123 2.1644-0.4568 2.2623-0.4568 0.0979 0 0.34215 0.29207 0.54282 0.64892 0.54503 0.96983 2.0467 2.3045 3.0113 2.6765 0.65363 0.252 1.2791 0.32734 2.7179 0.32715 2.064-3.84e-4 2.6573-0.19894 3.9298-1.3163 1.5035-1.32 1.8975-3.8788 0.90351-5.8679-0.72696-1.4549-1.7205-2.28-6.1808-5.1331-2.2758-1.4558-4.241-2.8457-4.804-3.3979-2.0294-1.9902-2.938-4.034-2.938-6.6082 0-2.6663 0.72878-4.4945 2.4136-6.0542 1.7212-1.5936 3.6687-2.2905 6.387-2.2859 2.9457 0.0096 4.9516 0.82182 6.9574 2.8331l1.2318 1.2351v3.0518l-0.6371 0.1679c-0.35041 0.09226-1.2947 0.33119-2.0982 0.53071l-1.461 0.36281-0.91899-0.91889c-1.431-1.4311-3.1551-1.8529-4.7026-1.1505-0.88986 0.40394-1.3041 1.2246-1.1789 2.3358 0.17444 1.5477 1.1742 2.4755 5.4624 5.069 5.2748 3.1903 7.307 5.2541 8.4362 8.5672 0.50995 1.496 0.63076 4.3494 0.2592 6.1163-0.81538 3.8765-3.9642 7.0293-8.058 8.0681-1.5062 0.38222-4.105 0.46968-5.5517 0.18693z" opacity="1" style="paint-order:markers stroke fill"/>
  </g>
 </g>
</svg>
